%TF.GenerationSoftware,KiCad,Pcbnew,8.0.8*%
%TF.CreationDate,2025-01-31T07:59:07+01:00*%
%TF.ProjectId,H_bridge_PCB,485f6272-6964-4676-955f-5043422e6b69,rev?*%
%TF.SameCoordinates,Original*%
%TF.FileFunction,Soldermask,Bot*%
%TF.FilePolarity,Negative*%
%FSLAX46Y46*%
G04 Gerber Fmt 4.6, Leading zero omitted, Abs format (unit mm)*
G04 Created by KiCad (PCBNEW 8.0.8) date 2025-01-31 07:59:07*
%MOMM*%
%LPD*%
G01*
G04 APERTURE LIST*
%ADD10C,2.500000*%
%ADD11C,8.115000*%
%ADD12C,1.100000*%
%ADD13C,6.400000*%
%ADD14C,0.650000*%
%ADD15O,1.000000X2.100000*%
%ADD16O,1.000000X1.600000*%
%ADD17R,5.070000X5.070000*%
%ADD18C,5.070000*%
%ADD19R,2.070000X2.070000*%
%ADD20C,2.070000*%
%ADD21R,1.500000X1.500000*%
%ADD22C,1.500000*%
G04 APERTURE END LIST*
D10*
%TO.C,U8*%
X65000000Y-74895000D03*
X65000000Y-71235000D03*
X65000000Y-66765000D03*
X65000000Y-63105000D03*
%TD*%
D11*
%TO.C,TP4*%
X143500000Y-120500000D03*
%TD*%
D12*
%TO.C,J5*%
X135000000Y-146270000D03*
X135000000Y-145000000D03*
%TD*%
D13*
%TO.C,REF\u002A\u002A*%
X145000000Y-144500000D03*
%TD*%
D14*
%TO.C,P1*%
X97360000Y-144395000D03*
X103140000Y-144395000D03*
D15*
X95930000Y-143895000D03*
D16*
X95930000Y-148075000D03*
D15*
X104570000Y-143895000D03*
D16*
X104570000Y-148075000D03*
%TD*%
D13*
%TO.C,REF\u002A\u002A*%
X145000000Y-54500000D03*
%TD*%
%TO.C,REF\u002A\u002A*%
X55000000Y-144500000D03*
%TD*%
D17*
%TO.C,L1*%
X138000000Y-70100000D03*
D18*
X138000000Y-93900000D03*
%TD*%
D19*
%TO.C,Q1*%
X91460000Y-71810000D03*
D20*
X94000000Y-71810000D03*
X96540000Y-71810000D03*
%TD*%
D19*
%TO.C,Q3*%
X108460000Y-71810000D03*
D20*
X111000000Y-71810000D03*
X113540000Y-71810000D03*
%TD*%
D19*
%TO.C,Q2*%
X90460000Y-94000000D03*
D20*
X93000000Y-94000000D03*
X95540000Y-94000000D03*
%TD*%
D12*
%TO.C,J4*%
X66250000Y-125750000D03*
X66250000Y-127020000D03*
%TD*%
D19*
%TO.C,Q4*%
X109460000Y-93810000D03*
D20*
X112000000Y-93810000D03*
X114540000Y-93810000D03*
%TD*%
D12*
%TO.C,J1*%
X56500000Y-136500000D03*
X56500000Y-137770000D03*
%TD*%
D13*
%TO.C,REF\u002A\u002A*%
X55000000Y-54500000D03*
%TD*%
D21*
%TO.C,C13*%
X106250000Y-113000000D03*
D22*
X133750000Y-113000000D03*
%TD*%
D11*
%TO.C,TP1*%
X56000000Y-66000000D03*
%TD*%
D12*
%TO.C,J2*%
X72230000Y-124750000D03*
X73500000Y-124750000D03*
%TD*%
D11*
%TO.C,TP3*%
X143500000Y-108800000D03*
%TD*%
%TO.C,TP2*%
X56000000Y-77000000D03*
%TD*%
D12*
%TO.C,J3*%
X78500000Y-124550000D03*
X77230000Y-124550000D03*
%TD*%
M02*
