%TF.GenerationSoftware,KiCad,Pcbnew,8.0.8*%
%TF.CreationDate,2025-08-21T09:36:38+02:00*%
%TF.ProjectId,H_bridge_PCB,485f6272-6964-4676-955f-5043422e6b69,rev?*%
%TF.SameCoordinates,Original*%
%TF.FileFunction,Soldermask,Bot*%
%TF.FilePolarity,Negative*%
%FSLAX46Y46*%
G04 Gerber Fmt 4.6, Leading zero omitted, Abs format (unit mm)*
G04 Created by KiCad (PCBNEW 8.0.8) date 2025-08-21 09:36:38*
%MOMM*%
%LPD*%
G01*
G04 APERTURE LIST*
%ADD10R,2.070000X2.070000*%
%ADD11C,2.070000*%
%ADD12C,1.550000*%
%ADD13C,2.500000*%
%ADD14C,8.115000*%
%ADD15C,6.400000*%
%ADD16C,1.200000*%
%ADD17C,3.030000*%
%ADD18C,3.300000*%
%ADD19R,1.800000X1.800000*%
%ADD20C,1.800000*%
G04 APERTURE END LIST*
D10*
%TO.C,Q4*%
X108920000Y-92560000D03*
D11*
X111460000Y-92560000D03*
X114000000Y-92560000D03*
%TD*%
D10*
%TO.C,Q3*%
X108460000Y-71810000D03*
D11*
X111000000Y-71810000D03*
X113540000Y-71810000D03*
%TD*%
D10*
%TO.C,Q2*%
X90460000Y-94000000D03*
D11*
X93000000Y-94000000D03*
X95540000Y-94000000D03*
%TD*%
D10*
%TO.C,Q1*%
X91460000Y-71810000D03*
D11*
X94000000Y-71810000D03*
X96540000Y-71810000D03*
%TD*%
D12*
%TO.C,J14*%
X113540000Y-136750000D03*
X111000000Y-136750000D03*
%TD*%
D13*
%TO.C,U8*%
X65000000Y-74895000D03*
X65000000Y-71235000D03*
X65000000Y-66765000D03*
X65000000Y-63105000D03*
%TD*%
D14*
%TO.C,TP4*%
X154250000Y-119000000D03*
%TD*%
D15*
%TO.C,REF\u002A\u002A*%
X155250000Y-144750000D03*
%TD*%
D16*
%TO.C,J13*%
X113250000Y-141950000D03*
X114050000Y-143150000D03*
X114850000Y-141950000D03*
X115650000Y-143150000D03*
X116450000Y-141950000D03*
D17*
X111200000Y-147000000D03*
X118500000Y-147000000D03*
%TD*%
D15*
%TO.C,REF\u002A\u002A*%
X155500000Y-44000000D03*
%TD*%
D12*
%TO.C,J5*%
X109930000Y-129610000D03*
X112470000Y-129610000D03*
%TD*%
D15*
%TO.C,REF\u002A\u002A*%
X55000000Y-144500000D03*
%TD*%
D18*
%TO.C,FL1*%
X146750000Y-68250000D03*
X127750000Y-68250000D03*
%TD*%
D12*
%TO.C,J1*%
X54440000Y-135730000D03*
X54440000Y-138270000D03*
%TD*%
%TO.C,J9*%
X101250000Y-108250000D03*
X101250000Y-105710000D03*
%TD*%
%TO.C,J2*%
X67710000Y-124750000D03*
X70250000Y-124750000D03*
%TD*%
D15*
%TO.C,REF\u002A\u002A*%
X55000000Y-44000000D03*
%TD*%
D14*
%TO.C,TP1*%
X56000000Y-66000000D03*
%TD*%
D12*
%TO.C,J3*%
X77770000Y-125190000D03*
X75230000Y-125190000D03*
%TD*%
D14*
%TO.C,TP3*%
X154250000Y-107250000D03*
%TD*%
%TO.C,TP2*%
X56000000Y-77000000D03*
%TD*%
D12*
%TO.C,J12*%
X120200000Y-130000000D03*
X117660000Y-130000000D03*
%TD*%
%TO.C,J15*%
X53310000Y-128520000D03*
X53310000Y-125980000D03*
%TD*%
D19*
%TO.C,C16*%
X107750000Y-110250000D03*
D20*
X145250000Y-110250000D03*
%TD*%
D12*
%TO.C,J7*%
X154770000Y-98940000D03*
X152230000Y-98940000D03*
%TD*%
%TO.C,J4*%
X60400000Y-108400000D03*
X57860000Y-108400000D03*
%TD*%
M02*
