%TF.GenerationSoftware,KiCad,Pcbnew,8.0.8*%
%TF.CreationDate,2025-02-03T11:31:11+01:00*%
%TF.ProjectId,H_bridge_PCB,485f6272-6964-4676-955f-5043422e6b69,rev?*%
%TF.SameCoordinates,Original*%
%TF.FileFunction,Soldermask,Bot*%
%TF.FilePolarity,Negative*%
%FSLAX46Y46*%
G04 Gerber Fmt 4.6, Leading zero omitted, Abs format (unit mm)*
G04 Created by KiCad (PCBNEW 8.0.8) date 2025-02-03 11:31:11*
%MOMM*%
%LPD*%
G01*
G04 APERTURE LIST*
%ADD10R,2.070000X2.070000*%
%ADD11C,2.070000*%
%ADD12C,1.500000*%
%ADD13C,1.100000*%
%ADD14C,2.500000*%
%ADD15C,8.115000*%
%ADD16C,6.400000*%
%ADD17C,0.650000*%
%ADD18O,1.000000X2.100000*%
%ADD19O,1.000000X1.600000*%
%ADD20R,5.070000X5.070000*%
%ADD21C,5.070000*%
G04 APERTURE END LIST*
D10*
%TO.C,Q4*%
X109460000Y-93810000D03*
D11*
X112000000Y-93810000D03*
X114540000Y-93810000D03*
%TD*%
D10*
%TO.C,Q3*%
X108460000Y-71810000D03*
D11*
X111000000Y-71810000D03*
X113540000Y-71810000D03*
%TD*%
D10*
%TO.C,Q2*%
X90460000Y-94000000D03*
D11*
X93000000Y-94000000D03*
X95540000Y-94000000D03*
%TD*%
D10*
%TO.C,Q1*%
X91460000Y-71810000D03*
D11*
X94000000Y-71810000D03*
X96540000Y-71810000D03*
%TD*%
D12*
%TO.C,C16*%
X115250000Y-102250000D03*
X130250000Y-102250000D03*
%TD*%
%TO.C,C13*%
X115250000Y-110250000D03*
X130250000Y-110250000D03*
%TD*%
D13*
%TO.C,J11*%
X135250000Y-100230000D03*
X135250000Y-101500000D03*
%TD*%
%TO.C,J10*%
X106250000Y-103750000D03*
X106250000Y-102480000D03*
%TD*%
%TO.C,J9*%
X109750000Y-115000000D03*
X109750000Y-113730000D03*
%TD*%
%TO.C,J8*%
X135250000Y-113730000D03*
X135250000Y-115000000D03*
%TD*%
%TO.C,J7*%
X106250000Y-108750000D03*
X106250000Y-107480000D03*
%TD*%
%TO.C,J6*%
X135250000Y-106230000D03*
X135250000Y-107500000D03*
%TD*%
D12*
%TO.C,C22*%
X115250000Y-118250000D03*
X130250000Y-118250000D03*
%TD*%
D14*
%TO.C,U8*%
X65000000Y-74895000D03*
X65000000Y-71235000D03*
X65000000Y-66765000D03*
X65000000Y-63105000D03*
%TD*%
D15*
%TO.C,TP4*%
X143500000Y-120500000D03*
%TD*%
D13*
%TO.C,J5*%
X135000000Y-146270000D03*
X135000000Y-145000000D03*
%TD*%
D16*
%TO.C,REF\u002A\u002A*%
X145000000Y-144500000D03*
%TD*%
D17*
%TO.C,P1*%
X97360000Y-144395000D03*
X103140000Y-144395000D03*
D18*
X95930000Y-143895000D03*
D19*
X95930000Y-148075000D03*
D18*
X104570000Y-143895000D03*
D19*
X104570000Y-148075000D03*
%TD*%
D16*
%TO.C,REF\u002A\u002A*%
X145000000Y-54500000D03*
%TD*%
%TO.C,REF\u002A\u002A*%
X55000000Y-144500000D03*
%TD*%
D20*
%TO.C,L1*%
X138250000Y-65350000D03*
D21*
X138250000Y-89150000D03*
%TD*%
D13*
%TO.C,J4*%
X66250000Y-125750000D03*
X66250000Y-127020000D03*
%TD*%
%TO.C,J1*%
X56500000Y-136500000D03*
X56500000Y-137770000D03*
%TD*%
D16*
%TO.C,REF\u002A\u002A*%
X55000000Y-54500000D03*
%TD*%
D15*
%TO.C,TP1*%
X56000000Y-66000000D03*
%TD*%
D13*
%TO.C,J2*%
X72230000Y-124750000D03*
X73500000Y-124750000D03*
%TD*%
D15*
%TO.C,TP3*%
X143500000Y-108800000D03*
%TD*%
%TO.C,TP2*%
X56000000Y-77000000D03*
%TD*%
D13*
%TO.C,J3*%
X78500000Y-124550000D03*
X77230000Y-124550000D03*
%TD*%
M02*
