%TF.GenerationSoftware,KiCad,Pcbnew,8.0.8*%
%TF.CreationDate,2025-01-31T07:59:06+01:00*%
%TF.ProjectId,H_bridge_PCB,485f6272-6964-4676-955f-5043422e6b69,rev?*%
%TF.SameCoordinates,Original*%
%TF.FileFunction,Copper,L2,Bot*%
%TF.FilePolarity,Positive*%
%FSLAX46Y46*%
G04 Gerber Fmt 4.6, Leading zero omitted, Abs format (unit mm)*
G04 Created by KiCad (PCBNEW 8.0.8) date 2025-01-31 07:59:06*
%MOMM*%
%LPD*%
G01*
G04 APERTURE LIST*
%TA.AperFunction,ComponentPad*%
%ADD10C,2.500000*%
%TD*%
%TA.AperFunction,ComponentPad*%
%ADD11C,8.115000*%
%TD*%
%TA.AperFunction,ComponentPad*%
%ADD12C,1.100000*%
%TD*%
%TA.AperFunction,ComponentPad*%
%ADD13C,6.400000*%
%TD*%
%TA.AperFunction,HeatsinkPad*%
%ADD14O,1.000000X2.100000*%
%TD*%
%TA.AperFunction,HeatsinkPad*%
%ADD15O,1.000000X1.600000*%
%TD*%
%TA.AperFunction,ComponentPad*%
%ADD16R,5.070000X5.070000*%
%TD*%
%TA.AperFunction,ComponentPad*%
%ADD17C,5.070000*%
%TD*%
%TA.AperFunction,ComponentPad*%
%ADD18R,2.070000X2.070000*%
%TD*%
%TA.AperFunction,ComponentPad*%
%ADD19C,2.070000*%
%TD*%
%TA.AperFunction,HeatsinkPad*%
%ADD20C,0.600000*%
%TD*%
%TA.AperFunction,ComponentPad*%
%ADD21R,1.500000X1.500000*%
%TD*%
%TA.AperFunction,ComponentPad*%
%ADD22C,1.500000*%
%TD*%
%TA.AperFunction,ViaPad*%
%ADD23C,0.600000*%
%TD*%
%TA.AperFunction,ViaPad*%
%ADD24C,0.700000*%
%TD*%
%TA.AperFunction,ViaPad*%
%ADD25C,1.200000*%
%TD*%
%TA.AperFunction,ViaPad*%
%ADD26C,2.500000*%
%TD*%
%TA.AperFunction,Conductor*%
%ADD27C,0.200000*%
%TD*%
%TA.AperFunction,Conductor*%
%ADD28C,0.500000*%
%TD*%
%TA.AperFunction,Conductor*%
%ADD29C,2.500000*%
%TD*%
%TA.AperFunction,Conductor*%
%ADD30C,1.000000*%
%TD*%
G04 APERTURE END LIST*
D10*
%TO.P,U8,1,1*%
%TO.N,SI1*%
X65000000Y-74895000D03*
%TO.P,U8,2,2*%
X65000000Y-71235000D03*
%TO.P,U8,3,3*%
%TO.N,Net-(TP1-Pad1)*%
X65000000Y-66765000D03*
%TO.P,U8,4,4*%
X65000000Y-63105000D03*
%TD*%
D11*
%TO.P,TP4,1,1*%
%TO.N,SI2*%
X143500000Y-120500000D03*
%TD*%
D12*
%TO.P,J5,1,1*%
%TO.N,SCL2*%
X135000000Y-146270000D03*
%TO.P,J5,2,2*%
%TO.N,SDA2*%
X135000000Y-145000000D03*
%TD*%
D13*
%TO.P,REF\u002A\u002A,1*%
%TO.N,N/C*%
X145000000Y-144500000D03*
%TD*%
D14*
%TO.P,P1,S1,SHIELD*%
%TO.N,GND*%
X95930000Y-143895000D03*
D15*
X95930000Y-148075000D03*
D14*
X104570000Y-143895000D03*
D15*
X104570000Y-148075000D03*
%TD*%
D13*
%TO.P,REF\u002A\u002A,1*%
%TO.N,N/C*%
X145000000Y-54500000D03*
%TD*%
%TO.P,REF\u002A\u002A,1*%
%TO.N,N/C*%
X55000000Y-144500000D03*
%TD*%
D16*
%TO.P,L1,1,1*%
%TO.N,Out+*%
X138000000Y-70100000D03*
D17*
%TO.P,L1,2,2*%
%TO.N,SV2*%
X138000000Y-93900000D03*
%TD*%
D18*
%TO.P,Q1,1,G*%
%TO.N,Net-(D8-A)*%
X91460000Y-71810000D03*
D19*
%TO.P,Q1,2,D*%
%TO.N,SO1*%
X94000000Y-71810000D03*
%TO.P,Q1,3,S*%
%TO.N,Out+*%
X96540000Y-71810000D03*
%TD*%
D18*
%TO.P,Q3,1,G*%
%TO.N,Net-(D10-A)*%
X108460000Y-71810000D03*
D19*
%TO.P,Q3,2,D*%
%TO.N,SO1*%
X111000000Y-71810000D03*
%TO.P,Q3,3,S*%
%TO.N,Out-*%
X113540000Y-71810000D03*
%TD*%
D20*
%TO.P,U1,39,GND*%
%TO.N,GND*%
X72262500Y-141512500D03*
X72262500Y-139987500D03*
X71500000Y-142275000D03*
X71500000Y-140750000D03*
X71500000Y-139225000D03*
X70737500Y-141512500D03*
X70737500Y-139987500D03*
X69975000Y-142275000D03*
X69975000Y-140750000D03*
X69975000Y-139225000D03*
X69212500Y-141512500D03*
X69212500Y-139987500D03*
%TD*%
D18*
%TO.P,Q2,1,G*%
%TO.N,Net-(D9-A)*%
X90460000Y-94000000D03*
D19*
%TO.P,Q2,2,D*%
%TO.N,Out+*%
X93000000Y-94000000D03*
%TO.P,Q2,3,S*%
%TO.N,GND*%
X95540000Y-94000000D03*
%TD*%
D12*
%TO.P,J4,1,1*%
%TO.N,SCL1*%
X66250000Y-125750000D03*
%TO.P,J4,2,2*%
%TO.N,SDA1*%
X66250000Y-127020000D03*
%TD*%
D18*
%TO.P,Q4,1,G*%
%TO.N,Net-(D7-A)*%
X109460000Y-93810000D03*
D19*
%TO.P,Q4,2,D*%
%TO.N,Out-*%
X112000000Y-93810000D03*
%TO.P,Q4,3,S*%
%TO.N,GND*%
X114540000Y-93810000D03*
%TD*%
D12*
%TO.P,J1,1,1*%
%TO.N,RX0*%
X56500000Y-136500000D03*
%TO.P,J1,2,2*%
%TO.N,TX0*%
X56500000Y-137770000D03*
%TD*%
D13*
%TO.P,REF\u002A\u002A,1*%
%TO.N,N/C*%
X55000000Y-54500000D03*
%TD*%
D21*
%TO.P,C13,1,1*%
%TO.N,Out-*%
X106250000Y-113000000D03*
D22*
%TO.P,C13,2,2*%
%TO.N,SV2*%
X133750000Y-113000000D03*
%TD*%
D11*
%TO.P,TP1,1,1*%
%TO.N,Net-(TP1-Pad1)*%
X56000000Y-66000000D03*
%TD*%
D12*
%TO.P,J2,1,1*%
%TO.N,HIN1*%
X72230000Y-124750000D03*
%TO.P,J2,2,2*%
%TO.N,LIN2*%
X73500000Y-124750000D03*
%TD*%
D11*
%TO.P,TP3,1,1*%
%TO.N,SV2*%
X143500000Y-108800000D03*
%TD*%
%TO.P,TP2,1,1*%
%TO.N,GND*%
X56000000Y-77000000D03*
%TD*%
D12*
%TO.P,J3,1,1*%
%TO.N,LIN1*%
X78500000Y-124550000D03*
%TO.P,J3,2,2*%
%TO.N,HIN2*%
X77230000Y-124550000D03*
%TD*%
D23*
%TO.N,HIN1*%
X83500000Y-127000000D03*
X87250000Y-125000000D03*
%TO.N,LIN1*%
X90750000Y-130000000D03*
D24*
%TO.N,*%
X145000000Y-144500000D03*
%TO.N,+12V*%
X92000000Y-108000000D03*
X74000000Y-99000000D03*
X73000000Y-95000000D03*
X73000000Y-95000000D03*
X74000000Y-113000000D03*
X91000000Y-116000000D03*
D23*
%TO.N,GND*%
X75500000Y-132500000D03*
D24*
X92000000Y-106000000D03*
X131000000Y-145000000D03*
X126000000Y-144000000D03*
D25*
X64000000Y-104000000D03*
D24*
X91000000Y-125000000D03*
X68000000Y-79000000D03*
D23*
X92000000Y-148000000D03*
X63500000Y-147500000D03*
D24*
X76500000Y-148000000D03*
X82000000Y-115000000D03*
D25*
X76000000Y-97000000D03*
D24*
X59000000Y-124000000D03*
D25*
X57100000Y-91000000D03*
D23*
X94000000Y-141500000D03*
D25*
X64000000Y-120250000D03*
D23*
X147000000Y-136000000D03*
D25*
X71000000Y-98000000D03*
X58000000Y-89000000D03*
D24*
X90000000Y-109000000D03*
D25*
X64000000Y-112000000D03*
D24*
X92000000Y-120000000D03*
D26*
%TO.N,Out+*%
X98000000Y-98000000D03*
X97000000Y-81200000D03*
D24*
%TO.N,Out-*%
X96000000Y-114000000D03*
D26*
X117000000Y-83250000D03*
D24*
%TO.N,Net-(D11-K)*%
X96000000Y-119000000D03*
X88000000Y-121000000D03*
%TO.N,+5V*%
X69000000Y-112000000D03*
X71000000Y-106000000D03*
D25*
X70000000Y-103000000D03*
X61000000Y-102000000D03*
%TO.N,+3.3V*%
X55000000Y-132000000D03*
D24*
X55000000Y-110000000D03*
D25*
X75000000Y-144000000D03*
D24*
X125000000Y-145000000D03*
D23*
X116000000Y-147000000D03*
X113000000Y-147000000D03*
D24*
X86000000Y-148000000D03*
X65000000Y-87000000D03*
%TO.N,SV2*%
X147000000Y-126000000D03*
D26*
%TO.N,SO1*%
X87525000Y-60525000D03*
X106000000Y-58600000D03*
D23*
%TO.N,VUSB(5V)*%
X97500000Y-142000000D03*
X94000000Y-142500000D03*
%TO.N,Net-(D7-K)*%
X102000000Y-101000000D03*
X102000000Y-93000000D03*
D24*
%TO.N,Net-(D8-K)*%
X82000000Y-78000000D03*
X83000000Y-102000000D03*
%TO.N,Net-(D9-K)*%
X92000000Y-99000000D03*
X84000000Y-91000000D03*
%TO.N,Net-(D10-K)*%
X86000000Y-115000000D03*
X101000000Y-79000000D03*
D23*
%TO.N,SDA2*%
X114000000Y-142000000D03*
X123365000Y-145000000D03*
%TO.N,SCL2*%
X94000000Y-134000000D03*
X91000000Y-134000000D03*
%TO.N,DIO_0*%
X114000000Y-135000000D03*
X77000000Y-136000000D03*
%TO.N,DIO_1*%
X111000000Y-134000000D03*
X77000000Y-135000000D03*
%TO.N,TX0*%
X88000000Y-140000000D03*
X71500000Y-147000000D03*
%TO.N,RX0*%
X71500000Y-146000000D03*
X89500000Y-139000000D03*
%TO.N,SDA1*%
X75000000Y-139000000D03*
X61000000Y-128000000D03*
X66000000Y-84000000D03*
X68000000Y-138000000D03*
X107000000Y-136000000D03*
X61000000Y-123000000D03*
%TO.N,SCL1*%
X63000000Y-128000000D03*
X67000000Y-83000000D03*
X68000000Y-137000000D03*
X59000000Y-126000000D03*
X108000000Y-135000000D03*
X75000000Y-138000000D03*
X62000000Y-123000000D03*
%TO.N,Net-(Q7-E)*%
X95500000Y-138500000D03*
X99000000Y-137000000D03*
%TO.N,Net-(Q8-E)*%
X97750000Y-136750000D03*
X94000000Y-139000000D03*
X87500000Y-142500000D03*
X89500000Y-141000000D03*
%TO.N,LIN2*%
X81000000Y-131000000D03*
D24*
X81000000Y-128000000D03*
D23*
X89500000Y-114250000D03*
%TO.N,HIN2*%
X87000000Y-116000000D03*
X74500000Y-131750000D03*
%TO.N,LIN1*%
X75000000Y-134000000D03*
D24*
X82000000Y-127250000D03*
%TD*%
D27*
%TO.N,LIN1*%
X76900000Y-133100000D02*
X79900000Y-133100000D01*
X79900000Y-133100000D02*
X83000000Y-130000000D01*
X76000000Y-134000000D02*
X76900000Y-133100000D01*
X75000000Y-134000000D02*
X76000000Y-134000000D01*
%TO.N,HIN1*%
X85500000Y-125000000D02*
X83500000Y-127000000D01*
X87250000Y-125000000D02*
X85500000Y-125000000D01*
%TO.N,LIN1*%
X90750000Y-130000000D02*
X83000000Y-130000000D01*
D28*
%TO.N,+12V*%
X74000000Y-96000000D02*
X73000000Y-95000000D01*
X91000000Y-109000000D02*
X92000000Y-108000000D01*
X74000000Y-113000000D02*
X74000000Y-96000000D01*
X91000000Y-116000000D02*
X91000000Y-109000000D01*
D29*
%TO.N,GND*%
X61000000Y-77000000D02*
X56000000Y-77000000D01*
X56000000Y-82000000D02*
X56000000Y-77000000D01*
X52000000Y-81000000D02*
X56000000Y-77000000D01*
X52000000Y-77000000D02*
X56000000Y-77000000D01*
X60500000Y-81500000D02*
X56000000Y-77000000D01*
X52000000Y-73000000D02*
X56000000Y-77000000D01*
X56000000Y-72500000D02*
X56000000Y-77000000D01*
X60000000Y-73000000D02*
X56000000Y-77000000D01*
%TO.N,Out+*%
X93000000Y-85200000D02*
X93000000Y-94000000D01*
X97000000Y-81200000D02*
X93000000Y-85200000D01*
X93000000Y-94000000D02*
X93000000Y-95463711D01*
X95536289Y-98000000D02*
X98000000Y-98000000D01*
X93000000Y-95463711D02*
X95536289Y-98000000D01*
D28*
%TO.N,Out-*%
X106250000Y-113000000D02*
X105250000Y-114000000D01*
D29*
X112000000Y-107250000D02*
X106250000Y-113000000D01*
X112000000Y-88250000D02*
X112000000Y-93810000D01*
D28*
X105250000Y-114000000D02*
X96000000Y-114000000D01*
D29*
X112000000Y-93810000D02*
X112000000Y-107250000D01*
X117000000Y-83250000D02*
X112000000Y-88250000D01*
D28*
%TO.N,Net-(D11-K)*%
X94000000Y-121000000D02*
X88000000Y-121000000D01*
X96000000Y-119000000D02*
X94000000Y-121000000D01*
%TO.N,+5V*%
X69000000Y-112000000D02*
X69000000Y-108000000D01*
D30*
X69000000Y-102000000D02*
X70000000Y-103000000D01*
X61000000Y-102000000D02*
X69000000Y-102000000D01*
D28*
X69000000Y-108000000D02*
X71000000Y-106000000D01*
%TO.N,+3.3V*%
X55000000Y-88000000D02*
X55000000Y-110000000D01*
X56000000Y-87000000D02*
X55000000Y-88000000D01*
X123825000Y-146825000D02*
X87175000Y-146825000D01*
D30*
X57000000Y-134000000D02*
X63000000Y-134000000D01*
D28*
X125000000Y-146000000D02*
X124000000Y-147000000D01*
D30*
X63000000Y-134000000D02*
X66000000Y-137000000D01*
D28*
X125000000Y-145000000D02*
X125000000Y-146000000D01*
D30*
X66000000Y-137000000D02*
X66000000Y-143000000D01*
D28*
X65000000Y-87000000D02*
X56000000Y-87000000D01*
X87175000Y-146825000D02*
X86000000Y-148000000D01*
D30*
X55000000Y-132000000D02*
X57000000Y-134000000D01*
X66000000Y-143000000D02*
X67000000Y-144000000D01*
X67000000Y-144000000D02*
X75000000Y-144000000D01*
D28*
X124000000Y-147000000D02*
X123825000Y-146825000D01*
%TO.N,SV2*%
X147000000Y-126000000D02*
X138500000Y-126000000D01*
X138500000Y-126000000D02*
X137500000Y-125000000D01*
X137500000Y-125000000D02*
X137500000Y-114500000D01*
X137500000Y-114500000D02*
X143200000Y-108800000D01*
X143200000Y-108800000D02*
X143500000Y-108800000D01*
D29*
%TO.N,SO1*%
X94000000Y-61050000D02*
X94000000Y-71810000D01*
X93475000Y-60525000D02*
X94000000Y-61050000D01*
X93475000Y-60525000D02*
X94000000Y-60000000D01*
X111000000Y-61000000D02*
X111000000Y-71810000D01*
X106000000Y-58600000D02*
X108600000Y-58600000D01*
X87525000Y-60525000D02*
X93475000Y-60525000D01*
X108600000Y-58600000D02*
X111000000Y-61000000D01*
D27*
%TO.N,VUSB(5V)*%
X94000000Y-142500000D02*
X94500000Y-142000000D01*
X95000000Y-142000000D02*
X97500000Y-142000000D01*
X94500000Y-142000000D02*
X95000000Y-142000000D01*
D28*
%TO.N,Net-(D7-K)*%
X102000000Y-93000000D02*
X102000000Y-101000000D01*
%TO.N,Net-(D8-K)*%
X83000000Y-102000000D02*
X80000000Y-99000000D01*
X80000000Y-80000000D02*
X82000000Y-78000000D01*
X80000000Y-99000000D02*
X80000000Y-81000000D01*
X80000000Y-81000000D02*
X80000000Y-80000000D01*
%TO.N,Net-(D9-K)*%
X92000000Y-99000000D02*
X84000000Y-91000000D01*
%TO.N,Net-(D10-K)*%
X101000000Y-99000000D02*
X101000000Y-79000000D01*
X86000000Y-115000000D02*
X86000000Y-110868629D01*
X93000000Y-102000000D02*
X98000000Y-102000000D01*
X98000000Y-102000000D02*
X101000000Y-99000000D01*
X90000000Y-106868629D02*
X90000000Y-105000000D01*
X90000000Y-105000000D02*
X93000000Y-102000000D01*
X86000000Y-110868629D02*
X90000000Y-106868629D01*
D27*
%TO.N,SDA2*%
X123365000Y-145000000D02*
X120000000Y-145000000D01*
X117000000Y-142000000D02*
X114000000Y-142000000D01*
X120000000Y-145000000D02*
X117000000Y-142000000D01*
%TO.N,SCL2*%
X91000000Y-134000000D02*
X94000000Y-134000000D01*
%TO.N,DIO_0*%
X78000000Y-135000000D02*
X80000000Y-135000000D01*
X108000000Y-133000000D02*
X110000000Y-135000000D01*
X80000000Y-135000000D02*
X81000000Y-134000000D01*
X110000000Y-135000000D02*
X114000000Y-135000000D01*
X87000000Y-134000000D02*
X88000000Y-133000000D01*
X81000000Y-134000000D02*
X87000000Y-134000000D01*
X88000000Y-133000000D02*
X108000000Y-133000000D01*
X77000000Y-136000000D02*
X78000000Y-135000000D01*
%TO.N,DIO_1*%
X77000000Y-135000000D02*
X78000000Y-134000000D01*
X78000000Y-134000000D02*
X80000000Y-134000000D01*
X109000000Y-132000000D02*
X111000000Y-134000000D01*
X88000000Y-132000000D02*
X89000000Y-132000000D01*
X80000000Y-134000000D02*
X81000000Y-133000000D01*
X89000000Y-132000000D02*
X109000000Y-132000000D01*
X81000000Y-133000000D02*
X87000000Y-133000000D01*
X87000000Y-133000000D02*
X88000000Y-132000000D01*
%TO.N,TX0*%
X86900000Y-146100000D02*
X86000000Y-147000000D01*
X88000000Y-140000000D02*
X86900000Y-141100000D01*
X86900000Y-141100000D02*
X86900000Y-146100000D01*
X86000000Y-147000000D02*
X71500000Y-147000000D01*
%TO.N,RX0*%
X86500000Y-145500000D02*
X85500000Y-146500000D01*
X88000000Y-139000000D02*
X86500000Y-140500000D01*
X72500000Y-146000000D02*
X71500000Y-146000000D01*
X77000000Y-146500000D02*
X73000000Y-146500000D01*
X73000000Y-146500000D02*
X72500000Y-146000000D01*
X89500000Y-139000000D02*
X88000000Y-139000000D01*
X85500000Y-146500000D02*
X77000000Y-146500000D01*
X86500000Y-140500000D02*
X86500000Y-145500000D01*
%TO.N,SDA1*%
X62000000Y-127000000D02*
X66000000Y-127000000D01*
X68000000Y-137868630D02*
X68000000Y-138000000D01*
X59000000Y-98000000D02*
X59000000Y-121000000D01*
X59000000Y-121000000D02*
X61000000Y-123000000D01*
X61000000Y-130868630D02*
X66065685Y-135934315D01*
X66065685Y-135934315D02*
X68000000Y-137868630D01*
X66000000Y-91000000D02*
X59000000Y-98000000D01*
X66000000Y-84000000D02*
X66000000Y-91000000D01*
X81000000Y-139000000D02*
X80000000Y-140000000D01*
X107000000Y-136000000D02*
X84000000Y-136000000D01*
X84000000Y-136000000D02*
X81000000Y-139000000D01*
X76000000Y-140000000D02*
X75000000Y-139000000D01*
X61000000Y-128000000D02*
X62000000Y-127000000D01*
X80000000Y-140000000D02*
X76000000Y-140000000D01*
X61000000Y-128000000D02*
X61000000Y-130868630D01*
%TO.N,SCL1*%
X67000000Y-92000000D02*
X61000000Y-98000000D01*
X63000000Y-128000000D02*
X63000000Y-132000000D01*
X108000000Y-135000000D02*
X83000000Y-135000000D01*
X83000000Y-135000000D02*
X81000000Y-137000000D01*
X60100000Y-98900000D02*
X60100000Y-121100000D01*
X81000000Y-137000000D02*
X80000000Y-138000000D01*
X59000000Y-126000000D02*
X60000000Y-126000000D01*
X63000000Y-132000000D02*
X68000000Y-137000000D01*
X80000000Y-138000000D02*
X75000000Y-138000000D01*
X61000000Y-98000000D02*
X60100000Y-98900000D01*
X60000000Y-126000000D02*
X62000000Y-124000000D01*
X62000000Y-124000000D02*
X62000000Y-123000000D01*
X67000000Y-83000000D02*
X67000000Y-92000000D01*
X60100000Y-121100000D02*
X62000000Y-123000000D01*
%TO.N,Net-(Q7-E)*%
X95500000Y-138500000D02*
X97500000Y-138500000D01*
X97500000Y-138500000D02*
X99000000Y-137000000D01*
%TO.N,Net-(Q8-E)*%
X88500000Y-141000000D02*
X89500000Y-141000000D01*
X87500000Y-142500000D02*
X87500000Y-142000000D01*
X87500000Y-142000000D02*
X88500000Y-141000000D01*
X96250000Y-136750000D02*
X94000000Y-139000000D01*
X97750000Y-136750000D02*
X96250000Y-136750000D01*
%TO.N,LIN2*%
X88000000Y-117000000D02*
X81000000Y-124000000D01*
X89500000Y-114250000D02*
X88750000Y-114250000D01*
X88750000Y-114250000D02*
X88000000Y-115000000D01*
X81000000Y-124000000D02*
X81000000Y-128000000D01*
X81000000Y-128000000D02*
X81000000Y-131000000D01*
X88000000Y-115000000D02*
X88000000Y-117000000D01*
%TO.N,HIN2*%
X80000000Y-123000000D02*
X87000000Y-116000000D01*
X77125000Y-129125000D02*
X80000000Y-126250000D01*
X77125000Y-129125000D02*
X77230000Y-129020000D01*
X80000000Y-126250000D02*
X80000000Y-123000000D01*
X77230000Y-129020000D02*
X77230000Y-124550000D01*
X74500000Y-131750000D02*
X77125000Y-129125000D01*
%TO.N,LIN1*%
X83000000Y-130000000D02*
X83000000Y-128250000D01*
X83000000Y-128250000D02*
X82000000Y-127250000D01*
%TD*%
%TA.AperFunction,Conductor*%
%TO.N,GND*%
G36*
X149442539Y-50020185D02*
G01*
X149488294Y-50072989D01*
X149499500Y-50124500D01*
X149499500Y-148875500D01*
X149479815Y-148942539D01*
X149427011Y-148988294D01*
X149375500Y-148999500D01*
X105579296Y-148999500D01*
X105512257Y-148979815D01*
X105466502Y-148927011D01*
X105456558Y-148857853D01*
X105464735Y-148828048D01*
X105531569Y-148666693D01*
X105531572Y-148666681D01*
X105569999Y-148473495D01*
X105570000Y-148473492D01*
X105570000Y-148325000D01*
X104870000Y-148325000D01*
X104870000Y-147825000D01*
X105570000Y-147825000D01*
X105570000Y-147699500D01*
X105589685Y-147632461D01*
X105642489Y-147586706D01*
X105694000Y-147575500D01*
X112392060Y-147575500D01*
X112459099Y-147595185D01*
X112479741Y-147611819D01*
X112497738Y-147629816D01*
X112588080Y-147686582D01*
X112643903Y-147721658D01*
X112650478Y-147725789D01*
X112721098Y-147750500D01*
X112820745Y-147785368D01*
X112820750Y-147785369D01*
X112999996Y-147805565D01*
X113000000Y-147805565D01*
X113000004Y-147805565D01*
X113179249Y-147785369D01*
X113179252Y-147785368D01*
X113179255Y-147785368D01*
X113349522Y-147725789D01*
X113502262Y-147629816D01*
X113520259Y-147611819D01*
X113581582Y-147578334D01*
X113607940Y-147575500D01*
X115392060Y-147575500D01*
X115459099Y-147595185D01*
X115479741Y-147611819D01*
X115497738Y-147629816D01*
X115588080Y-147686582D01*
X115643903Y-147721658D01*
X115650478Y-147725789D01*
X115721098Y-147750500D01*
X115820745Y-147785368D01*
X115820750Y-147785369D01*
X115999996Y-147805565D01*
X116000000Y-147805565D01*
X116000004Y-147805565D01*
X116179249Y-147785369D01*
X116179252Y-147785368D01*
X116179255Y-147785368D01*
X116349522Y-147725789D01*
X116502262Y-147629816D01*
X116520259Y-147611819D01*
X116581582Y-147578334D01*
X116607940Y-147575500D01*
X123472817Y-147575500D01*
X123539856Y-147595185D01*
X123541703Y-147596394D01*
X123591723Y-147629816D01*
X123644505Y-147665084D01*
X123644507Y-147665085D01*
X123644511Y-147665087D01*
X123781082Y-147721656D01*
X123781087Y-147721658D01*
X123781091Y-147721658D01*
X123781092Y-147721659D01*
X123926079Y-147750500D01*
X123926082Y-147750500D01*
X124073919Y-147750500D01*
X124171461Y-147731096D01*
X124218912Y-147721658D01*
X124355494Y-147665084D01*
X124478416Y-147582952D01*
X125582952Y-146478415D01*
X125655269Y-146370184D01*
X125665084Y-146355495D01*
X125701236Y-146268216D01*
X125721659Y-146218912D01*
X125750500Y-146073917D01*
X125750500Y-145926082D01*
X125750500Y-145434320D01*
X125767112Y-145372322D01*
X125781250Y-145347835D01*
X125836497Y-145177803D01*
X125855185Y-145000000D01*
X133944417Y-145000000D01*
X133964699Y-145205932D01*
X134024769Y-145403958D01*
X134117020Y-145576547D01*
X134131262Y-145644950D01*
X134117020Y-145693453D01*
X134024769Y-145866041D01*
X133964699Y-146064067D01*
X133944417Y-146270000D01*
X133964699Y-146475932D01*
X133965453Y-146478417D01*
X134024768Y-146673954D01*
X134122315Y-146856450D01*
X134122317Y-146856452D01*
X134253589Y-147016410D01*
X134350209Y-147095702D01*
X134413550Y-147147685D01*
X134596046Y-147245232D01*
X134794066Y-147305300D01*
X134794065Y-147305300D01*
X134812529Y-147307118D01*
X135000000Y-147325583D01*
X135205934Y-147305300D01*
X135403954Y-147245232D01*
X135586450Y-147147685D01*
X135746410Y-147016410D01*
X135877685Y-146856450D01*
X135975232Y-146673954D01*
X136035300Y-146475934D01*
X136055583Y-146270000D01*
X136035300Y-146064066D01*
X135975232Y-145866046D01*
X135882977Y-145693451D01*
X135868736Y-145625051D01*
X135882978Y-145576547D01*
X135975232Y-145403954D01*
X136035300Y-145205934D01*
X136055583Y-145000000D01*
X136035300Y-144794066D01*
X135975232Y-144596046D01*
X135923893Y-144499999D01*
X141294422Y-144499999D01*
X141294422Y-144500000D01*
X141314722Y-144887339D01*
X141360957Y-145179255D01*
X141375398Y-145270433D01*
X141473825Y-145637770D01*
X141475788Y-145645094D01*
X141614787Y-146007197D01*
X141790877Y-146352793D01*
X142002122Y-146678082D01*
X142002124Y-146678084D01*
X142246219Y-146979516D01*
X142520484Y-147253781D01*
X142688375Y-147389737D01*
X142821917Y-147497877D01*
X143147206Y-147709122D01*
X143147211Y-147709125D01*
X143492806Y-147885214D01*
X143854913Y-148024214D01*
X144229567Y-148124602D01*
X144612662Y-148185278D01*
X144978576Y-148204455D01*
X144999999Y-148205578D01*
X145000000Y-148205578D01*
X145000001Y-148205578D01*
X145020301Y-148204514D01*
X145387338Y-148185278D01*
X145770433Y-148124602D01*
X146145087Y-148024214D01*
X146507194Y-147885214D01*
X146852789Y-147709125D01*
X147178084Y-147497876D01*
X147479516Y-147253781D01*
X147753781Y-146979516D01*
X147997876Y-146678084D01*
X148209125Y-146352789D01*
X148385214Y-146007194D01*
X148524214Y-145645087D01*
X148624602Y-145270433D01*
X148685278Y-144887338D01*
X148705578Y-144500000D01*
X148685278Y-144112662D01*
X148624602Y-143729567D01*
X148524214Y-143354913D01*
X148522052Y-143349282D01*
X148500001Y-143291835D01*
X148385214Y-142992806D01*
X148209125Y-142647211D01*
X148209122Y-142647206D01*
X147997877Y-142321917D01*
X147882351Y-142179255D01*
X147753781Y-142020484D01*
X147479516Y-141746219D01*
X147346315Y-141638355D01*
X147178082Y-141502122D01*
X146852793Y-141290877D01*
X146507197Y-141114787D01*
X146145094Y-140975788D01*
X146145087Y-140975786D01*
X145770433Y-140875398D01*
X145770429Y-140875397D01*
X145770428Y-140875397D01*
X145387339Y-140814722D01*
X145000001Y-140794422D01*
X144999999Y-140794422D01*
X144612660Y-140814722D01*
X144229572Y-140875397D01*
X144229570Y-140875397D01*
X143854905Y-140975788D01*
X143492802Y-141114787D01*
X143147206Y-141290877D01*
X142821917Y-141502122D01*
X142520488Y-141746215D01*
X142520480Y-141746222D01*
X142246222Y-142020480D01*
X142246215Y-142020488D01*
X142002122Y-142321917D01*
X141790877Y-142647206D01*
X141614787Y-142992802D01*
X141475788Y-143354905D01*
X141375397Y-143729570D01*
X141375397Y-143729572D01*
X141314722Y-144112660D01*
X141294422Y-144499999D01*
X135923893Y-144499999D01*
X135877685Y-144413550D01*
X135800284Y-144319236D01*
X135746410Y-144253589D01*
X135597296Y-144131216D01*
X135586450Y-144122315D01*
X135403954Y-144024768D01*
X135205934Y-143964700D01*
X135205932Y-143964699D01*
X135205934Y-143964699D01*
X135000000Y-143944417D01*
X134794067Y-143964699D01*
X134596043Y-144024769D01*
X134487103Y-144083000D01*
X134413550Y-144122315D01*
X134413548Y-144122316D01*
X134413547Y-144122317D01*
X134253589Y-144253589D01*
X134122317Y-144413547D01*
X134024769Y-144596043D01*
X134024768Y-144596045D01*
X134024768Y-144596046D01*
X134017898Y-144618692D01*
X133964699Y-144794067D01*
X133944417Y-145000000D01*
X125855185Y-145000000D01*
X125836497Y-144822197D01*
X125804771Y-144724556D01*
X125781252Y-144652170D01*
X125781249Y-144652164D01*
X125761025Y-144617135D01*
X125691859Y-144497335D01*
X125645003Y-144445296D01*
X125572235Y-144364478D01*
X125572232Y-144364476D01*
X125572231Y-144364475D01*
X125572230Y-144364474D01*
X125427593Y-144259388D01*
X125264267Y-144186671D01*
X125264265Y-144186670D01*
X125136594Y-144159533D01*
X125089391Y-144149500D01*
X124910609Y-144149500D01*
X124879954Y-144156015D01*
X124735733Y-144186670D01*
X124735728Y-144186672D01*
X124572408Y-144259387D01*
X124427768Y-144364475D01*
X124308141Y-144497334D01*
X124260877Y-144579198D01*
X124210309Y-144627413D01*
X124141702Y-144640635D01*
X124076838Y-144614667D01*
X124048496Y-144583169D01*
X123996237Y-144500000D01*
X123994816Y-144497738D01*
X123867262Y-144370184D01*
X123786176Y-144319234D01*
X123714523Y-144274211D01*
X123544254Y-144214631D01*
X123544249Y-144214630D01*
X123365004Y-144194435D01*
X123364996Y-144194435D01*
X123185750Y-144214630D01*
X123185745Y-144214631D01*
X123015476Y-144274211D01*
X122862736Y-144370185D01*
X122859903Y-144372445D01*
X122857724Y-144373334D01*
X122856842Y-144373889D01*
X122856744Y-144373734D01*
X122795217Y-144398855D01*
X122782588Y-144399500D01*
X120300098Y-144399500D01*
X120233059Y-144379815D01*
X120212417Y-144363181D01*
X117487590Y-141638355D01*
X117487588Y-141638352D01*
X117368717Y-141519481D01*
X117368709Y-141519475D01*
X117266936Y-141460717D01*
X117266934Y-141460716D01*
X117231790Y-141440425D01*
X117231789Y-141440424D01*
X117219263Y-141437067D01*
X117079057Y-141399499D01*
X116920943Y-141399499D01*
X116913347Y-141399499D01*
X116913331Y-141399500D01*
X114582412Y-141399500D01*
X114515373Y-141379815D01*
X114505097Y-141372445D01*
X114502263Y-141370185D01*
X114502262Y-141370184D01*
X114376043Y-141290875D01*
X114349523Y-141274211D01*
X114179254Y-141214631D01*
X114179249Y-141214630D01*
X114000004Y-141194435D01*
X113999996Y-141194435D01*
X113820750Y-141214630D01*
X113820745Y-141214631D01*
X113650476Y-141274211D01*
X113497737Y-141370184D01*
X113370184Y-141497737D01*
X113274211Y-141650476D01*
X113214631Y-141820745D01*
X113214630Y-141820750D01*
X113194435Y-141999996D01*
X113194435Y-142000003D01*
X113214630Y-142179249D01*
X113214631Y-142179254D01*
X113274211Y-142349523D01*
X113295516Y-142383429D01*
X113370184Y-142502262D01*
X113497738Y-142629816D01*
X113650478Y-142725789D01*
X113820745Y-142785368D01*
X113820750Y-142785369D01*
X113999996Y-142805565D01*
X114000000Y-142805565D01*
X114000004Y-142805565D01*
X114179249Y-142785369D01*
X114179252Y-142785368D01*
X114179255Y-142785368D01*
X114349522Y-142725789D01*
X114502262Y-142629816D01*
X114502267Y-142629810D01*
X114505097Y-142627555D01*
X114507275Y-142626665D01*
X114508158Y-142626111D01*
X114508255Y-142626265D01*
X114569783Y-142601145D01*
X114582412Y-142600500D01*
X116699903Y-142600500D01*
X116766942Y-142620185D01*
X116787583Y-142636818D01*
X119631284Y-145480520D01*
X119631286Y-145480521D01*
X119631290Y-145480524D01*
X119698765Y-145519480D01*
X119768216Y-145559577D01*
X119920943Y-145600501D01*
X119920945Y-145600501D01*
X120086654Y-145600501D01*
X120086670Y-145600500D01*
X122782588Y-145600500D01*
X122849627Y-145620185D01*
X122859903Y-145627555D01*
X122862736Y-145629814D01*
X122862738Y-145629816D01*
X122948255Y-145683550D01*
X122982088Y-145704809D01*
X123015478Y-145725789D01*
X123185745Y-145785368D01*
X123185750Y-145785369D01*
X123364996Y-145805565D01*
X123365000Y-145805565D01*
X123365004Y-145805565D01*
X123544249Y-145785369D01*
X123544252Y-145785368D01*
X123544255Y-145785368D01*
X123714522Y-145725789D01*
X123867262Y-145629816D01*
X123994816Y-145502262D01*
X124020506Y-145461375D01*
X124072841Y-145415085D01*
X124141894Y-145404437D01*
X124205743Y-145432812D01*
X124244115Y-145491201D01*
X124249500Y-145527348D01*
X124249500Y-145637770D01*
X124229815Y-145704809D01*
X124213181Y-145725451D01*
X123900451Y-146038181D01*
X123839128Y-146071666D01*
X123812770Y-146074500D01*
X87624500Y-146074500D01*
X87557461Y-146054815D01*
X87511706Y-146002011D01*
X87500500Y-145950500D01*
X87500500Y-143416321D01*
X87520185Y-143349282D01*
X87572989Y-143303527D01*
X87610612Y-143293101D01*
X87679255Y-143285368D01*
X87849522Y-143225789D01*
X88002262Y-143129816D01*
X88129816Y-143002262D01*
X88225789Y-142849522D01*
X88285368Y-142679255D01*
X88287613Y-142659333D01*
X88305565Y-142500003D01*
X88305565Y-142499996D01*
X93194435Y-142499996D01*
X93194435Y-142500003D01*
X93214630Y-142679249D01*
X93214631Y-142679254D01*
X93274211Y-142849523D01*
X93345628Y-142963181D01*
X93370184Y-143002262D01*
X93497738Y-143129816D01*
X93650478Y-143225789D01*
X93820742Y-143285367D01*
X93820745Y-143285368D01*
X93820750Y-143285369D01*
X93999996Y-143305565D01*
X94000000Y-143305565D01*
X94000004Y-143305565D01*
X94179249Y-143285369D01*
X94179252Y-143285368D01*
X94179255Y-143285368D01*
X94349522Y-143225789D01*
X94502262Y-143129816D01*
X94629816Y-143002262D01*
X94725789Y-142849522D01*
X94783867Y-142683545D01*
X94824589Y-142626769D01*
X94889542Y-142601022D01*
X94900909Y-142600500D01*
X94920943Y-142600500D01*
X94992780Y-142600500D01*
X95059819Y-142620185D01*
X95105574Y-142672989D01*
X95115518Y-142742147D01*
X95095882Y-142793391D01*
X95043814Y-142871315D01*
X95043807Y-142871328D01*
X94968430Y-143053306D01*
X94968427Y-143053318D01*
X94930000Y-143246504D01*
X94930000Y-143645000D01*
X95630000Y-143645000D01*
X95630000Y-144145000D01*
X94930000Y-144145000D01*
X94930000Y-144543495D01*
X94968427Y-144736681D01*
X94968430Y-144736693D01*
X95043807Y-144918671D01*
X95043814Y-144918684D01*
X95153248Y-145082462D01*
X95153251Y-145082466D01*
X95292533Y-145221748D01*
X95292537Y-145221751D01*
X95456315Y-145331185D01*
X95456328Y-145331192D01*
X95638308Y-145406569D01*
X95680000Y-145414862D01*
X95680000Y-144611988D01*
X95689940Y-144629205D01*
X95745795Y-144685060D01*
X95814204Y-144724556D01*
X95890504Y-144745000D01*
X95969496Y-144745000D01*
X96045796Y-144724556D01*
X96114205Y-144685060D01*
X96170060Y-144629205D01*
X96180000Y-144611988D01*
X96180000Y-145414862D01*
X96221690Y-145406569D01*
X96221692Y-145406569D01*
X96403671Y-145331192D01*
X96403684Y-145331185D01*
X96567462Y-145221751D01*
X96567466Y-145221748D01*
X96706748Y-145082466D01*
X96706751Y-145082462D01*
X96816185Y-144918684D01*
X96816186Y-144918682D01*
X96820129Y-144909163D01*
X96863968Y-144854757D01*
X96930261Y-144832689D01*
X96997961Y-144849965D01*
X97003400Y-144853647D01*
X97006634Y-144855514D01*
X97006635Y-144855515D01*
X97137865Y-144931281D01*
X97284234Y-144970500D01*
X97284236Y-144970500D01*
X97435764Y-144970500D01*
X97435766Y-144970500D01*
X97582135Y-144931281D01*
X97713365Y-144855515D01*
X97820515Y-144748365D01*
X97896281Y-144617135D01*
X97935500Y-144470766D01*
X97935500Y-144319234D01*
X102564500Y-144319234D01*
X102564500Y-144470765D01*
X102603719Y-144617136D01*
X102641602Y-144682750D01*
X102679485Y-144748365D01*
X102786635Y-144855515D01*
X102917865Y-144931281D01*
X103064234Y-144970500D01*
X103064236Y-144970500D01*
X103215764Y-144970500D01*
X103215766Y-144970500D01*
X103362135Y-144931281D01*
X103493365Y-144855515D01*
X103493366Y-144855513D01*
X103500403Y-144851451D01*
X103501676Y-144853656D01*
X103554956Y-144833043D01*
X103623405Y-144847063D01*
X103673407Y-144895864D01*
X103679867Y-144909157D01*
X103683809Y-144918674D01*
X103683814Y-144918684D01*
X103793248Y-145082462D01*
X103793251Y-145082466D01*
X103932533Y-145221748D01*
X103932537Y-145221751D01*
X104096315Y-145331185D01*
X104096328Y-145331192D01*
X104278308Y-145406569D01*
X104320000Y-145414862D01*
X104320000Y-144611988D01*
X104329940Y-144629205D01*
X104385795Y-144685060D01*
X104454204Y-144724556D01*
X104530504Y-144745000D01*
X104609496Y-144745000D01*
X104685796Y-144724556D01*
X104754205Y-144685060D01*
X104810060Y-144629205D01*
X104820000Y-144611988D01*
X104820000Y-145414862D01*
X104861690Y-145406569D01*
X104861692Y-145406569D01*
X105043671Y-145331192D01*
X105043684Y-145331185D01*
X105207462Y-145221751D01*
X105207466Y-145221748D01*
X105346748Y-145082466D01*
X105346751Y-145082462D01*
X105456185Y-144918684D01*
X105456192Y-144918671D01*
X105531569Y-144736693D01*
X105531572Y-144736681D01*
X105569999Y-144543495D01*
X105570000Y-144543492D01*
X105570000Y-144145000D01*
X104870000Y-144145000D01*
X104870000Y-143645000D01*
X105570000Y-143645000D01*
X105570000Y-143246508D01*
X105569999Y-143246504D01*
X105531572Y-143053318D01*
X105531569Y-143053306D01*
X105456192Y-142871328D01*
X105456185Y-142871315D01*
X105346751Y-142707537D01*
X105346748Y-142707533D01*
X105207466Y-142568251D01*
X105207462Y-142568248D01*
X105043684Y-142458814D01*
X105043671Y-142458807D01*
X104861691Y-142383429D01*
X104861683Y-142383427D01*
X104820000Y-142375135D01*
X104820000Y-143178011D01*
X104810060Y-143160795D01*
X104754205Y-143104940D01*
X104685796Y-143065444D01*
X104609496Y-143045000D01*
X104530504Y-143045000D01*
X104454204Y-143065444D01*
X104385795Y-143104940D01*
X104329940Y-143160795D01*
X104320000Y-143178011D01*
X104320000Y-142375136D01*
X104319999Y-142375135D01*
X104278316Y-142383427D01*
X104278308Y-142383429D01*
X104096328Y-142458807D01*
X104096315Y-142458814D01*
X103932537Y-142568248D01*
X103932533Y-142568251D01*
X103793251Y-142707533D01*
X103793248Y-142707537D01*
X103683814Y-142871315D01*
X103683807Y-142871328D01*
X103608430Y-143053306D01*
X103608427Y-143053318D01*
X103570000Y-143246504D01*
X103570000Y-143645000D01*
X104270000Y-143645000D01*
X104270000Y-144145000D01*
X103731784Y-144145000D01*
X103664745Y-144125315D01*
X103624397Y-144083000D01*
X103600515Y-144041635D01*
X103493365Y-143934485D01*
X103427750Y-143896602D01*
X103362136Y-143858719D01*
X103288950Y-143839109D01*
X103215766Y-143819500D01*
X103064234Y-143819500D01*
X102917863Y-143858719D01*
X102786635Y-143934485D01*
X102786632Y-143934487D01*
X102679487Y-144041632D01*
X102679485Y-144041635D01*
X102603719Y-144172863D01*
X102564500Y-144319234D01*
X97935500Y-144319234D01*
X97896281Y-144172865D01*
X97820515Y-144041635D01*
X97713365Y-143934485D01*
X97647750Y-143896602D01*
X97582136Y-143858719D01*
X97508950Y-143839109D01*
X97435766Y-143819500D01*
X97284234Y-143819500D01*
X97137863Y-143858719D01*
X97006635Y-143934485D01*
X97006632Y-143934487D01*
X96899487Y-144041632D01*
X96899483Y-144041638D01*
X96875603Y-144083000D01*
X96825036Y-144131216D01*
X96768216Y-144145000D01*
X96230000Y-144145000D01*
X96230000Y-143645000D01*
X96930000Y-143645000D01*
X96930000Y-143246508D01*
X96929999Y-143246504D01*
X96891572Y-143053318D01*
X96891569Y-143053306D01*
X96816192Y-142871328D01*
X96816185Y-142871315D01*
X96764118Y-142793391D01*
X96743240Y-142726713D01*
X96761725Y-142659333D01*
X96813704Y-142612643D01*
X96867220Y-142600500D01*
X96917588Y-142600500D01*
X96984627Y-142620185D01*
X96994903Y-142627555D01*
X96997736Y-142629814D01*
X96997738Y-142629816D01*
X97150478Y-142725789D01*
X97320745Y-142785368D01*
X97320750Y-142785369D01*
X97499996Y-142805565D01*
X97500000Y-142805565D01*
X97500004Y-142805565D01*
X97679249Y-142785369D01*
X97679252Y-142785368D01*
X97679255Y-142785368D01*
X97849522Y-142725789D01*
X98002262Y-142629816D01*
X98129816Y-142502262D01*
X98225789Y-142349522D01*
X98285368Y-142179255D01*
X98285369Y-142179249D01*
X98305565Y-142000003D01*
X98305565Y-141999996D01*
X98285369Y-141820750D01*
X98285368Y-141820745D01*
X98243110Y-141699980D01*
X98225789Y-141650478D01*
X98217206Y-141636819D01*
X98143474Y-141519475D01*
X98129816Y-141497738D01*
X98002262Y-141370184D01*
X97969379Y-141349522D01*
X97849523Y-141274211D01*
X97679254Y-141214631D01*
X97679249Y-141214630D01*
X97500004Y-141194435D01*
X97499996Y-141194435D01*
X97320750Y-141214630D01*
X97320745Y-141214631D01*
X97150476Y-141274211D01*
X96997736Y-141370185D01*
X96994903Y-141372445D01*
X96992724Y-141373334D01*
X96991842Y-141373889D01*
X96991744Y-141373734D01*
X96930217Y-141398855D01*
X96917588Y-141399500D01*
X94586670Y-141399500D01*
X94586654Y-141399499D01*
X94579058Y-141399499D01*
X94420943Y-141399499D01*
X94344579Y-141419961D01*
X94268214Y-141440423D01*
X94268209Y-141440426D01*
X94131290Y-141519475D01*
X94131286Y-141519478D01*
X93981465Y-141669299D01*
X93920142Y-141702783D01*
X93907668Y-141704837D01*
X93820750Y-141714630D01*
X93650478Y-141774210D01*
X93497737Y-141870184D01*
X93370184Y-141997737D01*
X93274211Y-142150476D01*
X93214631Y-142320745D01*
X93214630Y-142320750D01*
X93194435Y-142499996D01*
X88305565Y-142499996D01*
X88285369Y-142320750D01*
X88285368Y-142320745D01*
X88244515Y-142203994D01*
X88240954Y-142134215D01*
X88273874Y-142075360D01*
X88712417Y-141636819D01*
X88773740Y-141603334D01*
X88800098Y-141600500D01*
X88917588Y-141600500D01*
X88984627Y-141620185D01*
X88994903Y-141627555D01*
X88997736Y-141629814D01*
X88997738Y-141629816D01*
X89060575Y-141669299D01*
X89132718Y-141714630D01*
X89150478Y-141725789D01*
X89288857Y-141774210D01*
X89320745Y-141785368D01*
X89320750Y-141785369D01*
X89499996Y-141805565D01*
X89500000Y-141805565D01*
X89500004Y-141805565D01*
X89679249Y-141785369D01*
X89679252Y-141785368D01*
X89679255Y-141785368D01*
X89849522Y-141725789D01*
X90002262Y-141629816D01*
X90129816Y-141502262D01*
X90225789Y-141349522D01*
X90285368Y-141179255D01*
X90305565Y-141000000D01*
X90285368Y-140820745D01*
X90225789Y-140650478D01*
X90129816Y-140497738D01*
X90002262Y-140370184D01*
X89933553Y-140327011D01*
X89849523Y-140274211D01*
X89679254Y-140214631D01*
X89679249Y-140214630D01*
X89500004Y-140194435D01*
X89499996Y-140194435D01*
X89320750Y-140214630D01*
X89320745Y-140214631D01*
X89150476Y-140274211D01*
X88997736Y-140370185D01*
X88994903Y-140372445D01*
X88992724Y-140373334D01*
X88991842Y-140373889D01*
X88991744Y-140373734D01*
X88930217Y-140398855D01*
X88917588Y-140399500D01*
X88883063Y-140399500D01*
X88816024Y-140379815D01*
X88770269Y-140327011D01*
X88760325Y-140257853D01*
X88766022Y-140234545D01*
X88785366Y-140179262D01*
X88785369Y-140179249D01*
X88805565Y-140000003D01*
X88805565Y-139999996D01*
X88785369Y-139820750D01*
X88785366Y-139820737D01*
X88766022Y-139765455D01*
X88762460Y-139695676D01*
X88797188Y-139635049D01*
X88859182Y-139602821D01*
X88883063Y-139600500D01*
X88917588Y-139600500D01*
X88984627Y-139620185D01*
X88994903Y-139627555D01*
X88997736Y-139629814D01*
X88997738Y-139629816D01*
X89150478Y-139725789D01*
X89263837Y-139765455D01*
X89320745Y-139785368D01*
X89320750Y-139785369D01*
X89499996Y-139805565D01*
X89500000Y-139805565D01*
X89500004Y-139805565D01*
X89679249Y-139785369D01*
X89679252Y-139785368D01*
X89679255Y-139785368D01*
X89849522Y-139725789D01*
X90002262Y-139629816D01*
X90129816Y-139502262D01*
X90225789Y-139349522D01*
X90285368Y-139179255D01*
X90285369Y-139179249D01*
X90305565Y-139000003D01*
X90305565Y-138999996D01*
X90285369Y-138820750D01*
X90285368Y-138820745D01*
X90255234Y-138734628D01*
X90225789Y-138650478D01*
X90129816Y-138497738D01*
X90002262Y-138370184D01*
X89980408Y-138356452D01*
X89849523Y-138274211D01*
X89679254Y-138214631D01*
X89679249Y-138214630D01*
X89500004Y-138194435D01*
X89499996Y-138194435D01*
X89320750Y-138214630D01*
X89320745Y-138214631D01*
X89150476Y-138274211D01*
X88997736Y-138370185D01*
X88994903Y-138372445D01*
X88992724Y-138373334D01*
X88991842Y-138373889D01*
X88991744Y-138373734D01*
X88930217Y-138398855D01*
X88917588Y-138399500D01*
X87920940Y-138399500D01*
X87880019Y-138410464D01*
X87880019Y-138410465D01*
X87842751Y-138420451D01*
X87768214Y-138440423D01*
X87768209Y-138440426D01*
X87631290Y-138519475D01*
X87631282Y-138519481D01*
X86019481Y-140131282D01*
X86019480Y-140131284D01*
X85983020Y-140194435D01*
X85949425Y-140252621D01*
X85946406Y-140257853D01*
X85940423Y-140268215D01*
X85899499Y-140420943D01*
X85899499Y-140420945D01*
X85899499Y-140589046D01*
X85899500Y-140589059D01*
X85899500Y-145199902D01*
X85879815Y-145266941D01*
X85863181Y-145287583D01*
X85287584Y-145863181D01*
X85226261Y-145896666D01*
X85199903Y-145899500D01*
X73300098Y-145899500D01*
X73233059Y-145879815D01*
X73212417Y-145863181D01*
X72868717Y-145519481D01*
X72868709Y-145519475D01*
X72766936Y-145460717D01*
X72766934Y-145460716D01*
X72731790Y-145440425D01*
X72731789Y-145440424D01*
X72719263Y-145437067D01*
X72579057Y-145399499D01*
X72420943Y-145399499D01*
X72413347Y-145399499D01*
X72413331Y-145399500D01*
X72082412Y-145399500D01*
X72015373Y-145379815D01*
X72005097Y-145372445D01*
X72002263Y-145370185D01*
X72002262Y-145370184D01*
X71925892Y-145322197D01*
X71849521Y-145274210D01*
X71756160Y-145241542D01*
X71699383Y-145200820D01*
X71673636Y-145135867D01*
X71687092Y-145067306D01*
X71735479Y-145016903D01*
X71797114Y-145000500D01*
X74512969Y-145000500D01*
X74557763Y-145008873D01*
X74697544Y-145063024D01*
X74898024Y-145100500D01*
X74898026Y-145100500D01*
X75101974Y-145100500D01*
X75101976Y-145100500D01*
X75302456Y-145063024D01*
X75492637Y-144989348D01*
X75666041Y-144881981D01*
X75816764Y-144744579D01*
X75939673Y-144581821D01*
X76030582Y-144399250D01*
X76086397Y-144203083D01*
X76105215Y-144000000D01*
X76099144Y-143934487D01*
X76086397Y-143796917D01*
X76043172Y-143645000D01*
X76030582Y-143600750D01*
X75939673Y-143418179D01*
X75816764Y-143255421D01*
X75816762Y-143255418D01*
X75666041Y-143118019D01*
X75666039Y-143118017D01*
X75492642Y-143010655D01*
X75492635Y-143010651D01*
X75370099Y-142963181D01*
X75302456Y-142936976D01*
X75101976Y-142899500D01*
X74898024Y-142899500D01*
X74697544Y-142936976D01*
X74697541Y-142936976D01*
X74697541Y-142936977D01*
X74557763Y-142991127D01*
X74512969Y-142999500D01*
X67465783Y-142999500D01*
X67398744Y-142979815D01*
X67378102Y-142963181D01*
X67036819Y-142621898D01*
X67003334Y-142560575D01*
X67000500Y-142534217D01*
X67000500Y-138297114D01*
X67020185Y-138230075D01*
X67072989Y-138184320D01*
X67142147Y-138174376D01*
X67205703Y-138203401D01*
X67241542Y-138256160D01*
X67274210Y-138349521D01*
X67287194Y-138370185D01*
X67370184Y-138502262D01*
X67497738Y-138629816D01*
X67650478Y-138725789D01*
X67706043Y-138745232D01*
X67820745Y-138785368D01*
X67820750Y-138785369D01*
X67999996Y-138805565D01*
X68000000Y-138805565D01*
X68000004Y-138805565D01*
X68179249Y-138785369D01*
X68179252Y-138785368D01*
X68179255Y-138785368D01*
X68349522Y-138725789D01*
X68502262Y-138629816D01*
X68629816Y-138502262D01*
X68725789Y-138349522D01*
X68785368Y-138179255D01*
X68785965Y-138173956D01*
X68805565Y-138000003D01*
X68805565Y-137999996D01*
X68785369Y-137820750D01*
X68785368Y-137820745D01*
X68725788Y-137650475D01*
X68672691Y-137565973D01*
X68653690Y-137498736D01*
X68672691Y-137434027D01*
X68725788Y-137349524D01*
X68772989Y-137214631D01*
X68785368Y-137179255D01*
X68785369Y-137179249D01*
X68805565Y-137000003D01*
X68805565Y-136999996D01*
X68785369Y-136820750D01*
X68785368Y-136820745D01*
X68725788Y-136650476D01*
X68643476Y-136519478D01*
X68629816Y-136497738D01*
X68502262Y-136370184D01*
X68381121Y-136294066D01*
X68349521Y-136274210D01*
X68179249Y-136214630D01*
X68092330Y-136204837D01*
X68027916Y-136177770D01*
X68018533Y-136169298D01*
X63636819Y-131787584D01*
X63616294Y-131749996D01*
X73694435Y-131749996D01*
X73694435Y-131750003D01*
X73714630Y-131929249D01*
X73714631Y-131929254D01*
X73774211Y-132099523D01*
X73833762Y-132194297D01*
X73870184Y-132252262D01*
X73997738Y-132379816D01*
X74028667Y-132399250D01*
X74130412Y-132463181D01*
X74150478Y-132475789D01*
X74320745Y-132535368D01*
X74320750Y-132535369D01*
X74499996Y-132555565D01*
X74500000Y-132555565D01*
X74500004Y-132555565D01*
X74679249Y-132535369D01*
X74679252Y-132535368D01*
X74679255Y-132535368D01*
X74849522Y-132475789D01*
X75002262Y-132379816D01*
X75129816Y-132252262D01*
X75225789Y-132099522D01*
X75285368Y-131929255D01*
X75295161Y-131842329D01*
X75322226Y-131777918D01*
X75330690Y-131768543D01*
X77605520Y-129493716D01*
X77710520Y-129388716D01*
X77710520Y-129388714D01*
X77720724Y-129378511D01*
X77720728Y-129378506D01*
X80187819Y-126911415D01*
X80249142Y-126877930D01*
X80318834Y-126882914D01*
X80374767Y-126924786D01*
X80399184Y-126990250D01*
X80399500Y-126999096D01*
X80399500Y-127348270D01*
X80379815Y-127415309D01*
X80367650Y-127431242D01*
X80308144Y-127497329D01*
X80308139Y-127497336D01*
X80218750Y-127652164D01*
X80218747Y-127652170D01*
X80163504Y-127822192D01*
X80163503Y-127822194D01*
X80144815Y-128000000D01*
X80163503Y-128177805D01*
X80163504Y-128177807D01*
X80218747Y-128347829D01*
X80218750Y-128347835D01*
X80308141Y-128502665D01*
X80350849Y-128550097D01*
X80367650Y-128568756D01*
X80397880Y-128631747D01*
X80399500Y-128651728D01*
X80399500Y-130417587D01*
X80379815Y-130484626D01*
X80372450Y-130494896D01*
X80370186Y-130497734D01*
X80274211Y-130650476D01*
X80214631Y-130820745D01*
X80214630Y-130820750D01*
X80194435Y-130999996D01*
X80194435Y-131000003D01*
X80214630Y-131179249D01*
X80214631Y-131179254D01*
X80274211Y-131349523D01*
X80370184Y-131502262D01*
X80370185Y-131502263D01*
X80421662Y-131553741D01*
X80455146Y-131615064D01*
X80450161Y-131684756D01*
X80421661Y-131729102D01*
X79687584Y-132463181D01*
X79626261Y-132496666D01*
X79599903Y-132499500D01*
X76979057Y-132499500D01*
X76820942Y-132499500D01*
X76668215Y-132540423D01*
X76641989Y-132555565D01*
X76596512Y-132581821D01*
X76531285Y-132619479D01*
X76531282Y-132619481D01*
X76419480Y-132731284D01*
X76419478Y-132731286D01*
X76100510Y-133050255D01*
X75787584Y-133363181D01*
X75726261Y-133396666D01*
X75699903Y-133399500D01*
X75582412Y-133399500D01*
X75515373Y-133379815D01*
X75505097Y-133372445D01*
X75502263Y-133370185D01*
X75502262Y-133370184D01*
X75445496Y-133334515D01*
X75349523Y-133274211D01*
X75179254Y-133214631D01*
X75179249Y-133214630D01*
X75000004Y-133194435D01*
X74999996Y-133194435D01*
X74820750Y-133214630D01*
X74820745Y-133214631D01*
X74650476Y-133274211D01*
X74497737Y-133370184D01*
X74370184Y-133497737D01*
X74274211Y-133650476D01*
X74214631Y-133820745D01*
X74214630Y-133820750D01*
X74194435Y-133999996D01*
X74194435Y-134000003D01*
X74214630Y-134179249D01*
X74214631Y-134179254D01*
X74274211Y-134349523D01*
X74367341Y-134497737D01*
X74370184Y-134502262D01*
X74497738Y-134629816D01*
X74650478Y-134725789D01*
X74797219Y-134777136D01*
X74820745Y-134785368D01*
X74820750Y-134785369D01*
X74999996Y-134805565D01*
X75000000Y-134805565D01*
X75000004Y-134805565D01*
X75179249Y-134785369D01*
X75179252Y-134785368D01*
X75179255Y-134785368D01*
X75349522Y-134725789D01*
X75502262Y-134629816D01*
X75502267Y-134629810D01*
X75505097Y-134627555D01*
X75507275Y-134626665D01*
X75508158Y-134626111D01*
X75508255Y-134626265D01*
X75569783Y-134601145D01*
X75582412Y-134600500D01*
X75913331Y-134600500D01*
X75913347Y-134600501D01*
X75920943Y-134600501D01*
X76079055Y-134600501D01*
X76079057Y-134600501D01*
X76087069Y-134598354D01*
X76156917Y-134600013D01*
X76214782Y-134639173D01*
X76242288Y-134703401D01*
X76236208Y-134759080D01*
X76214633Y-134820739D01*
X76214630Y-134820750D01*
X76194435Y-134999996D01*
X76194435Y-135000003D01*
X76214630Y-135179249D01*
X76214633Y-135179262D01*
X76274209Y-135349520D01*
X76327309Y-135434029D01*
X76346309Y-135501266D01*
X76327309Y-135565971D01*
X76274209Y-135650479D01*
X76214633Y-135820737D01*
X76214630Y-135820750D01*
X76194435Y-135999996D01*
X76194435Y-136000003D01*
X76214630Y-136179249D01*
X76214631Y-136179254D01*
X76274211Y-136349523D01*
X76367341Y-136497737D01*
X76370184Y-136502262D01*
X76497738Y-136629816D01*
X76650478Y-136725789D01*
X76763837Y-136765455D01*
X76820745Y-136785368D01*
X76820750Y-136785369D01*
X76999996Y-136805565D01*
X77000000Y-136805565D01*
X77000004Y-136805565D01*
X77179249Y-136785369D01*
X77179252Y-136785368D01*
X77179255Y-136785368D01*
X77349522Y-136725789D01*
X77502262Y-136629816D01*
X77629816Y-136502262D01*
X77725789Y-136349522D01*
X77785368Y-136179255D01*
X77795161Y-136092329D01*
X77822226Y-136027918D01*
X77830680Y-136018553D01*
X78212418Y-135636816D01*
X78273740Y-135603334D01*
X78300098Y-135600500D01*
X79913331Y-135600500D01*
X79913347Y-135600501D01*
X79920943Y-135600501D01*
X80079054Y-135600501D01*
X80079057Y-135600501D01*
X80231785Y-135559577D01*
X80281904Y-135530639D01*
X80368716Y-135480520D01*
X80480520Y-135368716D01*
X80480520Y-135368714D01*
X80490728Y-135358507D01*
X80490729Y-135358504D01*
X81212417Y-134636819D01*
X81273740Y-134603334D01*
X81300098Y-134600500D01*
X82250902Y-134600500D01*
X82317941Y-134620185D01*
X82363696Y-134672989D01*
X82373640Y-134742147D01*
X82344615Y-134805703D01*
X82338583Y-134812181D01*
X80631284Y-136519480D01*
X79787584Y-137363181D01*
X79726261Y-137396666D01*
X79699903Y-137399500D01*
X75582412Y-137399500D01*
X75515373Y-137379815D01*
X75505097Y-137372445D01*
X75502263Y-137370185D01*
X75502262Y-137370184D01*
X75445496Y-137334515D01*
X75349523Y-137274211D01*
X75179254Y-137214631D01*
X75179249Y-137214630D01*
X75000004Y-137194435D01*
X74999996Y-137194435D01*
X74820750Y-137214630D01*
X74820745Y-137214631D01*
X74650476Y-137274211D01*
X74497737Y-137370184D01*
X74370184Y-137497737D01*
X74274211Y-137650476D01*
X74214631Y-137820745D01*
X74214630Y-137820750D01*
X74194435Y-137999996D01*
X74194435Y-138000003D01*
X74214630Y-138179249D01*
X74214633Y-138179262D01*
X74274209Y-138349520D01*
X74327309Y-138434029D01*
X74346309Y-138501266D01*
X74327309Y-138565971D01*
X74274209Y-138650479D01*
X74214633Y-138820737D01*
X74214630Y-138820750D01*
X74194435Y-138999996D01*
X74194435Y-139000003D01*
X74214630Y-139179249D01*
X74214631Y-139179254D01*
X74274211Y-139349523D01*
X74305614Y-139399500D01*
X74370184Y-139502262D01*
X74497738Y-139629816D01*
X74650478Y-139725789D01*
X74820745Y-139785368D01*
X74907669Y-139795161D01*
X74972080Y-139822226D01*
X74981464Y-139830699D01*
X75631284Y-140480520D01*
X75631286Y-140480521D01*
X75631290Y-140480524D01*
X75768209Y-140559573D01*
X75768216Y-140559577D01*
X75920943Y-140600501D01*
X75920945Y-140600501D01*
X76086654Y-140600501D01*
X76086670Y-140600500D01*
X79913331Y-140600500D01*
X79913347Y-140600501D01*
X79920943Y-140600501D01*
X80079054Y-140600501D01*
X80079057Y-140600501D01*
X80231785Y-140559577D01*
X80281904Y-140530639D01*
X80368716Y-140480520D01*
X80480520Y-140368716D01*
X80480520Y-140368714D01*
X80490728Y-140358507D01*
X80490729Y-140358504D01*
X81480520Y-139368716D01*
X81480520Y-139368714D01*
X81490724Y-139358511D01*
X81490727Y-139358506D01*
X84212417Y-136636819D01*
X84273740Y-136603334D01*
X84300098Y-136600500D01*
X95250902Y-136600500D01*
X95317941Y-136620185D01*
X95363696Y-136672989D01*
X95373640Y-136742147D01*
X95344615Y-136805703D01*
X95338583Y-136812181D01*
X93981465Y-138169298D01*
X93920142Y-138202783D01*
X93907668Y-138204837D01*
X93820750Y-138214630D01*
X93650478Y-138274210D01*
X93497737Y-138370184D01*
X93370184Y-138497737D01*
X93274211Y-138650476D01*
X93214631Y-138820745D01*
X93214630Y-138820750D01*
X93194435Y-138999996D01*
X93194435Y-139000003D01*
X93214630Y-139179249D01*
X93214631Y-139179254D01*
X93274211Y-139349523D01*
X93305614Y-139399500D01*
X93370184Y-139502262D01*
X93497738Y-139629816D01*
X93650478Y-139725789D01*
X93763837Y-139765455D01*
X93820745Y-139785368D01*
X93820750Y-139785369D01*
X93999996Y-139805565D01*
X94000000Y-139805565D01*
X94000004Y-139805565D01*
X94179249Y-139785369D01*
X94179252Y-139785368D01*
X94179255Y-139785368D01*
X94349522Y-139725789D01*
X94502262Y-139629816D01*
X94629816Y-139502262D01*
X94725789Y-139349522D01*
X94785368Y-139179255D01*
X94785368Y-139179254D01*
X94787668Y-139172682D01*
X94790367Y-139173626D01*
X94818192Y-139123867D01*
X94879848Y-139091001D01*
X94949486Y-139096686D01*
X94992667Y-139124745D01*
X94997738Y-139129816D01*
X95150478Y-139225789D01*
X95320745Y-139285368D01*
X95320750Y-139285369D01*
X95499996Y-139305565D01*
X95500000Y-139305565D01*
X95500004Y-139305565D01*
X95679249Y-139285369D01*
X95679252Y-139285368D01*
X95679255Y-139285368D01*
X95849522Y-139225789D01*
X96002262Y-139129816D01*
X96002267Y-139129810D01*
X96005097Y-139127555D01*
X96007275Y-139126665D01*
X96008158Y-139126111D01*
X96008255Y-139126265D01*
X96069783Y-139101145D01*
X96082412Y-139100500D01*
X97413331Y-139100500D01*
X97413347Y-139100501D01*
X97420943Y-139100501D01*
X97579054Y-139100501D01*
X97579057Y-139100501D01*
X97731785Y-139059577D01*
X97781904Y-139030639D01*
X97868716Y-138980520D01*
X97980520Y-138868716D01*
X97980520Y-138868714D01*
X97990728Y-138858507D01*
X97990730Y-138858504D01*
X99018535Y-137830698D01*
X99079856Y-137797215D01*
X99092311Y-137795163D01*
X99179255Y-137785368D01*
X99349522Y-137725789D01*
X99502262Y-137629816D01*
X99629816Y-137502262D01*
X99725789Y-137349522D01*
X99785368Y-137179255D01*
X99785369Y-137179249D01*
X99805565Y-137000003D01*
X99805565Y-136999996D01*
X99785369Y-136820750D01*
X99785366Y-136820737D01*
X99766022Y-136765455D01*
X99762460Y-136695676D01*
X99797188Y-136635049D01*
X99859182Y-136602821D01*
X99883063Y-136600500D01*
X106417588Y-136600500D01*
X106484627Y-136620185D01*
X106494903Y-136627555D01*
X106497736Y-136629814D01*
X106497738Y-136629816D01*
X106650478Y-136725789D01*
X106763837Y-136765455D01*
X106820745Y-136785368D01*
X106820750Y-136785369D01*
X106999996Y-136805565D01*
X107000000Y-136805565D01*
X107000004Y-136805565D01*
X107179249Y-136785369D01*
X107179252Y-136785368D01*
X107179255Y-136785368D01*
X107349522Y-136725789D01*
X107502262Y-136629816D01*
X107629816Y-136502262D01*
X107725789Y-136349522D01*
X107785368Y-136179255D01*
X107785369Y-136179249D01*
X107805565Y-136000003D01*
X107805565Y-135999997D01*
X107798285Y-135935389D01*
X107810339Y-135866567D01*
X107857688Y-135815188D01*
X107925298Y-135797563D01*
X107935385Y-135798284D01*
X107961857Y-135801267D01*
X107999998Y-135805565D01*
X108000000Y-135805565D01*
X108000004Y-135805565D01*
X108179249Y-135785369D01*
X108179252Y-135785368D01*
X108179255Y-135785368D01*
X108349522Y-135725789D01*
X108502262Y-135629816D01*
X108629816Y-135502262D01*
X108725789Y-135349522D01*
X108785368Y-135179255D01*
X108805565Y-135000000D01*
X108801408Y-134963108D01*
X108813462Y-134894288D01*
X108860810Y-134842908D01*
X108928420Y-134825283D01*
X108994826Y-134847008D01*
X109012309Y-134861544D01*
X109515139Y-135364374D01*
X109515149Y-135364385D01*
X109519479Y-135368715D01*
X109519480Y-135368716D01*
X109631284Y-135480520D01*
X109707926Y-135524768D01*
X109718095Y-135530639D01*
X109718097Y-135530641D01*
X109756151Y-135552611D01*
X109768215Y-135559577D01*
X109920943Y-135600500D01*
X113417588Y-135600500D01*
X113484627Y-135620185D01*
X113494903Y-135627555D01*
X113497736Y-135629814D01*
X113497738Y-135629816D01*
X113650478Y-135725789D01*
X113820745Y-135785368D01*
X113820750Y-135785369D01*
X113999996Y-135805565D01*
X114000000Y-135805565D01*
X114000004Y-135805565D01*
X114179249Y-135785369D01*
X114179252Y-135785368D01*
X114179255Y-135785368D01*
X114349522Y-135725789D01*
X114502262Y-135629816D01*
X114629816Y-135502262D01*
X114725789Y-135349522D01*
X114785368Y-135179255D01*
X114805565Y-135000000D01*
X114803455Y-134981275D01*
X114785369Y-134820750D01*
X114785368Y-134820745D01*
X114770110Y-134777139D01*
X114725789Y-134650478D01*
X114717206Y-134636819D01*
X114643478Y-134519481D01*
X114629816Y-134497738D01*
X114502262Y-134370184D01*
X114397447Y-134304324D01*
X114349523Y-134274211D01*
X114179254Y-134214631D01*
X114179249Y-134214630D01*
X114000004Y-134194435D01*
X113999996Y-134194435D01*
X113820750Y-134214630D01*
X113820745Y-134214631D01*
X113650476Y-134274211D01*
X113497736Y-134370185D01*
X113494903Y-134372445D01*
X113492724Y-134373334D01*
X113491842Y-134373889D01*
X113491744Y-134373734D01*
X113430217Y-134398855D01*
X113417588Y-134399500D01*
X111883063Y-134399500D01*
X111816024Y-134379815D01*
X111770269Y-134327011D01*
X111760325Y-134257853D01*
X111766022Y-134234545D01*
X111785366Y-134179262D01*
X111785369Y-134179249D01*
X111805565Y-134000003D01*
X111805565Y-133999996D01*
X111785369Y-133820750D01*
X111785368Y-133820745D01*
X111725788Y-133650476D01*
X111629815Y-133497737D01*
X111502262Y-133370184D01*
X111349521Y-133274210D01*
X111179249Y-133214630D01*
X111092330Y-133204837D01*
X111027916Y-133177770D01*
X111018533Y-133169298D01*
X109487590Y-131638355D01*
X109487588Y-131638352D01*
X109368717Y-131519481D01*
X109368709Y-131519475D01*
X109281506Y-131469129D01*
X109281505Y-131469129D01*
X109260491Y-131456996D01*
X109231785Y-131440423D01*
X109079057Y-131399499D01*
X108920943Y-131399499D01*
X108913347Y-131399499D01*
X108913331Y-131399500D01*
X88086670Y-131399500D01*
X88086654Y-131399499D01*
X88079058Y-131399499D01*
X87920943Y-131399499D01*
X87851234Y-131418178D01*
X87768214Y-131440423D01*
X87768209Y-131440426D01*
X87631290Y-131519475D01*
X87631282Y-131519481D01*
X86787584Y-132363181D01*
X86726261Y-132396666D01*
X86699903Y-132399500D01*
X81749097Y-132399500D01*
X81682058Y-132379815D01*
X81636303Y-132327011D01*
X81626359Y-132257853D01*
X81655384Y-132194297D01*
X81661416Y-132187819D01*
X83212416Y-130636819D01*
X83273739Y-130603334D01*
X83300097Y-130600500D01*
X90167588Y-130600500D01*
X90234627Y-130620185D01*
X90244903Y-130627555D01*
X90247736Y-130629814D01*
X90247738Y-130629816D01*
X90400478Y-130725789D01*
X90561057Y-130781978D01*
X90570745Y-130785368D01*
X90570750Y-130785369D01*
X90749996Y-130805565D01*
X90750000Y-130805565D01*
X90750004Y-130805565D01*
X90929249Y-130785369D01*
X90929252Y-130785368D01*
X90929255Y-130785368D01*
X91099522Y-130725789D01*
X91252262Y-130629816D01*
X91379816Y-130502262D01*
X91475789Y-130349522D01*
X91535368Y-130179255D01*
X91555565Y-130000000D01*
X91535368Y-129820745D01*
X91475789Y-129650478D01*
X91379816Y-129497738D01*
X91252262Y-129370184D01*
X91183553Y-129327011D01*
X91099523Y-129274211D01*
X90929254Y-129214631D01*
X90929249Y-129214630D01*
X90750004Y-129194435D01*
X90749996Y-129194435D01*
X90570750Y-129214630D01*
X90570745Y-129214631D01*
X90400476Y-129274211D01*
X90247736Y-129370185D01*
X90244903Y-129372445D01*
X90242724Y-129373334D01*
X90241842Y-129373889D01*
X90241744Y-129373734D01*
X90180217Y-129398855D01*
X90167588Y-129399500D01*
X83724500Y-129399500D01*
X83657461Y-129379815D01*
X83611706Y-129327011D01*
X83600500Y-129275500D01*
X83600500Y-128339060D01*
X83600501Y-128339047D01*
X83600501Y-128170944D01*
X83600501Y-128170943D01*
X83559577Y-128018216D01*
X83535356Y-127976264D01*
X83518884Y-127908366D01*
X83541736Y-127842339D01*
X83596658Y-127799149D01*
X83628862Y-127791046D01*
X83679249Y-127785369D01*
X83679252Y-127785368D01*
X83679255Y-127785368D01*
X83849522Y-127725789D01*
X84002262Y-127629816D01*
X84129816Y-127502262D01*
X84225789Y-127349522D01*
X84285368Y-127179255D01*
X84295161Y-127092329D01*
X84322226Y-127027918D01*
X84330690Y-127018543D01*
X85712416Y-125636819D01*
X85773739Y-125603334D01*
X85800097Y-125600500D01*
X86667588Y-125600500D01*
X86734627Y-125620185D01*
X86744903Y-125627555D01*
X86747736Y-125629814D01*
X86747738Y-125629816D01*
X86861270Y-125701152D01*
X86899591Y-125725232D01*
X86900478Y-125725789D01*
X87070551Y-125785300D01*
X87070745Y-125785368D01*
X87070750Y-125785369D01*
X87249996Y-125805565D01*
X87250000Y-125805565D01*
X87250004Y-125805565D01*
X87429249Y-125785369D01*
X87429252Y-125785368D01*
X87429255Y-125785368D01*
X87599522Y-125725789D01*
X87752262Y-125629816D01*
X87879816Y-125502262D01*
X87975789Y-125349522D01*
X88035368Y-125179255D01*
X88037545Y-125159935D01*
X88047237Y-125073920D01*
X136749499Y-125073920D01*
X136778340Y-125218907D01*
X136778343Y-125218917D01*
X136834912Y-125355487D01*
X136834915Y-125355494D01*
X136834916Y-125355495D01*
X136835662Y-125356611D01*
X136916356Y-125477381D01*
X136917051Y-125478420D01*
X136917052Y-125478421D01*
X137917049Y-126478416D01*
X138021584Y-126582951D01*
X138021587Y-126582953D01*
X138021588Y-126582954D01*
X138144503Y-126665083D01*
X138144506Y-126665085D01*
X138201079Y-126688518D01*
X138201080Y-126688518D01*
X138281088Y-126721659D01*
X138397241Y-126744763D01*
X138416468Y-126748587D01*
X138426081Y-126750500D01*
X138426082Y-126750500D01*
X138426083Y-126750500D01*
X138573918Y-126750500D01*
X146568259Y-126750500D01*
X146618693Y-126761219D01*
X146735733Y-126813329D01*
X146910609Y-126850500D01*
X146910610Y-126850500D01*
X147089389Y-126850500D01*
X147089391Y-126850500D01*
X147264267Y-126813329D01*
X147427593Y-126740612D01*
X147572230Y-126635526D01*
X147577372Y-126629816D01*
X147666668Y-126530642D01*
X147691859Y-126502665D01*
X147694703Y-126497740D01*
X147726044Y-126443454D01*
X147781250Y-126347835D01*
X147836497Y-126177803D01*
X147855185Y-126000000D01*
X147836497Y-125822197D01*
X147781250Y-125652165D01*
X147691859Y-125497335D01*
X147637256Y-125436692D01*
X147572235Y-125364478D01*
X147572232Y-125364476D01*
X147572231Y-125364475D01*
X147572230Y-125364474D01*
X147427593Y-125259388D01*
X147264267Y-125186671D01*
X147264265Y-125186670D01*
X147136594Y-125159533D01*
X147089391Y-125149500D01*
X146910609Y-125149500D01*
X146889655Y-125153954D01*
X146735733Y-125186670D01*
X146618694Y-125238780D01*
X146568259Y-125249500D01*
X144230018Y-125249500D01*
X144162979Y-125229815D01*
X144117224Y-125177011D01*
X144107280Y-125107853D01*
X144136305Y-125044297D01*
X144195083Y-125006523D01*
X144212883Y-125002689D01*
X144338425Y-124985177D01*
X144748688Y-124888684D01*
X145148298Y-124754749D01*
X145148304Y-124754746D01*
X145148310Y-124754744D01*
X145427915Y-124631286D01*
X145533846Y-124584513D01*
X145902041Y-124379429D01*
X146249743Y-124141248D01*
X146573985Y-123872001D01*
X146872001Y-123573985D01*
X147141248Y-123249743D01*
X147379429Y-122902041D01*
X147584513Y-122533846D01*
X147699153Y-122274211D01*
X147754744Y-122148310D01*
X147754751Y-122148292D01*
X147854560Y-121850500D01*
X147888684Y-121748688D01*
X147985177Y-121338425D01*
X148043405Y-120921008D01*
X148062869Y-120500000D01*
X148043405Y-120078992D01*
X147985177Y-119661575D01*
X147888684Y-119251312D01*
X147754749Y-118851702D01*
X147754744Y-118851689D01*
X147584521Y-118466172D01*
X147584520Y-118466171D01*
X147584513Y-118466154D01*
X147379429Y-118097959D01*
X147141248Y-117750257D01*
X147141242Y-117750250D01*
X147141238Y-117750244D01*
X146872010Y-117426026D01*
X146872001Y-117426015D01*
X146573985Y-117127999D01*
X146573973Y-117127989D01*
X146249755Y-116858761D01*
X146249745Y-116858754D01*
X146249743Y-116858752D01*
X145923873Y-116635526D01*
X145902040Y-116620570D01*
X145902033Y-116620566D01*
X145533855Y-116415492D01*
X145533854Y-116415491D01*
X145533846Y-116415487D01*
X145533837Y-116415483D01*
X145533827Y-116415478D01*
X145148310Y-116245255D01*
X145148292Y-116245248D01*
X144748685Y-116111315D01*
X144338430Y-116014824D01*
X144338427Y-116014823D01*
X144338425Y-116014823D01*
X144110498Y-115983028D01*
X143921016Y-115956596D01*
X143921014Y-115956595D01*
X143921008Y-115956595D01*
X143500000Y-115937131D01*
X143078992Y-115956595D01*
X143078985Y-115956595D01*
X143078983Y-115956596D01*
X142661575Y-116014823D01*
X142661569Y-116014824D01*
X142251314Y-116111315D01*
X141851707Y-116245248D01*
X141851689Y-116245255D01*
X141466172Y-116415478D01*
X141466144Y-116415492D01*
X141097966Y-116620566D01*
X141097959Y-116620570D01*
X140750254Y-116858754D01*
X140750244Y-116858761D01*
X140426026Y-117127989D01*
X140426006Y-117128007D01*
X140128007Y-117426006D01*
X140127989Y-117426026D01*
X139858761Y-117750244D01*
X139858754Y-117750254D01*
X139620570Y-118097959D01*
X139620566Y-118097966D01*
X139415492Y-118466144D01*
X139415478Y-118466172D01*
X139245255Y-118851689D01*
X139245248Y-118851707D01*
X139111315Y-119251314D01*
X139014824Y-119661569D01*
X139014823Y-119661575D01*
X138956595Y-120078992D01*
X138937131Y-120500000D01*
X138956595Y-120921008D01*
X138956595Y-120921014D01*
X138956596Y-120921016D01*
X139014823Y-121338424D01*
X139014824Y-121338430D01*
X139111315Y-121748685D01*
X139245248Y-122148292D01*
X139245255Y-122148310D01*
X139415478Y-122533827D01*
X139415483Y-122533837D01*
X139415487Y-122533846D01*
X139415491Y-122533854D01*
X139415492Y-122533855D01*
X139620566Y-122902033D01*
X139620570Y-122902040D01*
X139687672Y-122999996D01*
X139858752Y-123249743D01*
X139858754Y-123249745D01*
X139858761Y-123249755D01*
X140092785Y-123531578D01*
X140127999Y-123573985D01*
X140426015Y-123872001D01*
X140426026Y-123872010D01*
X140750244Y-124141238D01*
X140750250Y-124141242D01*
X140750257Y-124141248D01*
X141097959Y-124379429D01*
X141466154Y-124584513D01*
X141466171Y-124584520D01*
X141466172Y-124584521D01*
X141851689Y-124754744D01*
X141851707Y-124754751D01*
X141981966Y-124798409D01*
X142251312Y-124888684D01*
X142661575Y-124985177D01*
X142787114Y-125002689D01*
X142850791Y-125031447D01*
X142888811Y-125090066D01*
X142889105Y-125159935D01*
X142851577Y-125218871D01*
X142788144Y-125248163D01*
X142769982Y-125249500D01*
X138862229Y-125249500D01*
X138795190Y-125229815D01*
X138774548Y-125213181D01*
X138286819Y-124725451D01*
X138253334Y-124664128D01*
X138250500Y-124637770D01*
X138250500Y-114862228D01*
X138270185Y-114795189D01*
X138286814Y-114774552D01*
X140600216Y-112461149D01*
X140661537Y-112427666D01*
X140731229Y-112432650D01*
X140757966Y-112446529D01*
X141097959Y-112679429D01*
X141466154Y-112884513D01*
X141466171Y-112884520D01*
X141466172Y-112884521D01*
X141851689Y-113054744D01*
X141851707Y-113054751D01*
X141981966Y-113098409D01*
X142251312Y-113188684D01*
X142661575Y-113285177D01*
X143078992Y-113343405D01*
X143500000Y-113362869D01*
X143921008Y-113343405D01*
X144338425Y-113285177D01*
X144748688Y-113188684D01*
X145148298Y-113054749D01*
X145148304Y-113054746D01*
X145148310Y-113054744D01*
X145315622Y-112980868D01*
X145533846Y-112884513D01*
X145902041Y-112679429D01*
X146249743Y-112441248D01*
X146573985Y-112172001D01*
X146872001Y-111873985D01*
X147141248Y-111549743D01*
X147379429Y-111202041D01*
X147584513Y-110833846D01*
X147754749Y-110448298D01*
X147888684Y-110048688D01*
X147985177Y-109638425D01*
X148043405Y-109221008D01*
X148062869Y-108800000D01*
X148043405Y-108378992D01*
X147985177Y-107961575D01*
X147888684Y-107551312D01*
X147766470Y-107186672D01*
X147754751Y-107151707D01*
X147754744Y-107151689D01*
X147584521Y-106766172D01*
X147584520Y-106766171D01*
X147584513Y-106766154D01*
X147379429Y-106397959D01*
X147141248Y-106050257D01*
X147141242Y-106050250D01*
X147141238Y-106050244D01*
X146872010Y-105726026D01*
X146872001Y-105726015D01*
X146573985Y-105427999D01*
X146494781Y-105362229D01*
X146249755Y-105158761D01*
X146249745Y-105158754D01*
X146249743Y-105158752D01*
X146017941Y-104999964D01*
X145902040Y-104920570D01*
X145902033Y-104920566D01*
X145533855Y-104715492D01*
X145533854Y-104715491D01*
X145533846Y-104715487D01*
X145533837Y-104715483D01*
X145533827Y-104715478D01*
X145148310Y-104545255D01*
X145148292Y-104545248D01*
X144748685Y-104411315D01*
X144338430Y-104314824D01*
X144338427Y-104314823D01*
X144338425Y-104314823D01*
X144110498Y-104283028D01*
X143921016Y-104256596D01*
X143921014Y-104256595D01*
X143921008Y-104256595D01*
X143500000Y-104237131D01*
X143078992Y-104256595D01*
X143078985Y-104256595D01*
X143078983Y-104256596D01*
X142661575Y-104314823D01*
X142661569Y-104314824D01*
X142251314Y-104411315D01*
X141851707Y-104545248D01*
X141851689Y-104545255D01*
X141466172Y-104715478D01*
X141466144Y-104715492D01*
X141097966Y-104920566D01*
X141097959Y-104920570D01*
X140750254Y-105158754D01*
X140750244Y-105158761D01*
X140426026Y-105427989D01*
X140426006Y-105428007D01*
X140128007Y-105726006D01*
X140127989Y-105726026D01*
X139858761Y-106050244D01*
X139858754Y-106050254D01*
X139620570Y-106397959D01*
X139620566Y-106397966D01*
X139415492Y-106766144D01*
X139415478Y-106766172D01*
X139245255Y-107151689D01*
X139245248Y-107151707D01*
X139111315Y-107551314D01*
X139014824Y-107961569D01*
X139014823Y-107961575D01*
X138958934Y-108362228D01*
X138956595Y-108378992D01*
X138937131Y-108800000D01*
X138956595Y-109221008D01*
X138956595Y-109221014D01*
X138956596Y-109221016D01*
X139014823Y-109638424D01*
X139014824Y-109638430D01*
X139111315Y-110048685D01*
X139245248Y-110448292D01*
X139245255Y-110448310D01*
X139415478Y-110833827D01*
X139415483Y-110833837D01*
X139415487Y-110833846D01*
X139415491Y-110833854D01*
X139415492Y-110833855D01*
X139616509Y-111194750D01*
X139631934Y-111262896D01*
X139608068Y-111328563D01*
X139595861Y-111342770D01*
X136917052Y-114021578D01*
X136917049Y-114021581D01*
X136873270Y-114087101D01*
X136873271Y-114087102D01*
X136834914Y-114144508D01*
X136778343Y-114281082D01*
X136778340Y-114281092D01*
X136749500Y-114426079D01*
X136749500Y-114426082D01*
X136749500Y-125073918D01*
X136749500Y-125073920D01*
X136749499Y-125073920D01*
X88047237Y-125073920D01*
X88055565Y-125000003D01*
X88055565Y-124999996D01*
X88035369Y-124820750D01*
X88035368Y-124820745D01*
X87991164Y-124694417D01*
X87975789Y-124650478D01*
X87879816Y-124497738D01*
X87752262Y-124370184D01*
X87710697Y-124344067D01*
X87599523Y-124274211D01*
X87429254Y-124214631D01*
X87429249Y-124214630D01*
X87250004Y-124194435D01*
X87249996Y-124194435D01*
X87070750Y-124214630D01*
X87070745Y-124214631D01*
X86900476Y-124274211D01*
X86747736Y-124370185D01*
X86744903Y-124372445D01*
X86742724Y-124373334D01*
X86741842Y-124373889D01*
X86741744Y-124373734D01*
X86680217Y-124398855D01*
X86667588Y-124399500D01*
X85579057Y-124399500D01*
X85420943Y-124399500D01*
X85268215Y-124440423D01*
X85268214Y-124440423D01*
X85268212Y-124440424D01*
X85268209Y-124440425D01*
X85233066Y-124460716D01*
X85233064Y-124460717D01*
X85131290Y-124519475D01*
X85131282Y-124519481D01*
X85019478Y-124631286D01*
X83481465Y-126169298D01*
X83420142Y-126202783D01*
X83407668Y-126204837D01*
X83320750Y-126214630D01*
X83150478Y-126274210D01*
X82997737Y-126370184D01*
X82870184Y-126497737D01*
X82870182Y-126497740D01*
X82791837Y-126622423D01*
X82739502Y-126668714D01*
X82670448Y-126679361D01*
X82606600Y-126650985D01*
X82594694Y-126639422D01*
X82572235Y-126614478D01*
X82572232Y-126614476D01*
X82572231Y-126614475D01*
X82572230Y-126614474D01*
X82427593Y-126509388D01*
X82264267Y-126436671D01*
X82264265Y-126436670D01*
X82136594Y-126409533D01*
X82089391Y-126399500D01*
X81910609Y-126399500D01*
X81910608Y-126399500D01*
X81750280Y-126433578D01*
X81680613Y-126428262D01*
X81624880Y-126386125D01*
X81600775Y-126320545D01*
X81600500Y-126312288D01*
X81600500Y-124300096D01*
X81620185Y-124233057D01*
X81636814Y-124212420D01*
X84849234Y-121000000D01*
X87144815Y-121000000D01*
X87163503Y-121177805D01*
X87163504Y-121177807D01*
X87218747Y-121347829D01*
X87218750Y-121347835D01*
X87308141Y-121502665D01*
X87349812Y-121548946D01*
X87427764Y-121635521D01*
X87427767Y-121635523D01*
X87427770Y-121635526D01*
X87572407Y-121740612D01*
X87735733Y-121813329D01*
X87910609Y-121850500D01*
X87910610Y-121850500D01*
X88089389Y-121850500D01*
X88089391Y-121850500D01*
X88264267Y-121813329D01*
X88381306Y-121761219D01*
X88431741Y-121750500D01*
X94073920Y-121750500D01*
X94171462Y-121731096D01*
X94218913Y-121721658D01*
X94355495Y-121665084D01*
X94404729Y-121632186D01*
X94478416Y-121582952D01*
X96219177Y-119842188D01*
X96259111Y-119817729D01*
X96258329Y-119815972D01*
X96264263Y-119813329D01*
X96264267Y-119813329D01*
X96427593Y-119740612D01*
X96572230Y-119635526D01*
X96691859Y-119502665D01*
X96781250Y-119347835D01*
X96836497Y-119177803D01*
X96855185Y-119000000D01*
X96836497Y-118822197D01*
X96804644Y-118724165D01*
X96781252Y-118652170D01*
X96781249Y-118652164D01*
X96691859Y-118497335D01*
X96645003Y-118445296D01*
X96572235Y-118364478D01*
X96572232Y-118364476D01*
X96572231Y-118364475D01*
X96572230Y-118364474D01*
X96427593Y-118259388D01*
X96264267Y-118186671D01*
X96264265Y-118186670D01*
X96136594Y-118159533D01*
X96089391Y-118149500D01*
X95910609Y-118149500D01*
X95879954Y-118156015D01*
X95735733Y-118186670D01*
X95735728Y-118186672D01*
X95572408Y-118259387D01*
X95427768Y-118364475D01*
X95308140Y-118497336D01*
X95218750Y-118652164D01*
X95218749Y-118652166D01*
X95195355Y-118724165D01*
X95165105Y-118773526D01*
X93725451Y-120213181D01*
X93664128Y-120246666D01*
X93637770Y-120249500D01*
X88431741Y-120249500D01*
X88381306Y-120238780D01*
X88264267Y-120186671D01*
X88264265Y-120186670D01*
X88136594Y-120159533D01*
X88089391Y-120149500D01*
X87910609Y-120149500D01*
X87879954Y-120156015D01*
X87735733Y-120186670D01*
X87735728Y-120186672D01*
X87572408Y-120259387D01*
X87427768Y-120364475D01*
X87308140Y-120497336D01*
X87218750Y-120652164D01*
X87218747Y-120652170D01*
X87163504Y-120822192D01*
X87163503Y-120822194D01*
X87144815Y-121000000D01*
X84849234Y-121000000D01*
X88368713Y-117480521D01*
X88368716Y-117480520D01*
X88480520Y-117368716D01*
X88530639Y-117281904D01*
X88559577Y-117231785D01*
X88600501Y-117079057D01*
X88600501Y-116920943D01*
X88600501Y-116913348D01*
X88600500Y-116913330D01*
X88600500Y-115300096D01*
X88620185Y-115233057D01*
X88636815Y-115212419D01*
X88910424Y-114938809D01*
X88971745Y-114905326D01*
X89041436Y-114910310D01*
X89064076Y-114921499D01*
X89150475Y-114975788D01*
X89320745Y-115035368D01*
X89320750Y-115035369D01*
X89499996Y-115055565D01*
X89500000Y-115055565D01*
X89500004Y-115055565D01*
X89679249Y-115035369D01*
X89679252Y-115035368D01*
X89679255Y-115035368D01*
X89849522Y-114975789D01*
X90002262Y-114879816D01*
X90037819Y-114844259D01*
X90099142Y-114810774D01*
X90168834Y-114815758D01*
X90224767Y-114857630D01*
X90249184Y-114923094D01*
X90249500Y-114931940D01*
X90249500Y-115565678D01*
X90232887Y-115627678D01*
X90218750Y-115652163D01*
X90163504Y-115822192D01*
X90163503Y-115822194D01*
X90144815Y-116000000D01*
X90163503Y-116177805D01*
X90163504Y-116177807D01*
X90218747Y-116347829D01*
X90218750Y-116347835D01*
X90308141Y-116502665D01*
X90349812Y-116548946D01*
X90427764Y-116635521D01*
X90427767Y-116635523D01*
X90427770Y-116635526D01*
X90572407Y-116740612D01*
X90735733Y-116813329D01*
X90910609Y-116850500D01*
X90910610Y-116850500D01*
X91089389Y-116850500D01*
X91089391Y-116850500D01*
X91264267Y-116813329D01*
X91427593Y-116740612D01*
X91572230Y-116635526D01*
X91585697Y-116620570D01*
X91598148Y-116606741D01*
X91691859Y-116502665D01*
X91781250Y-116347835D01*
X91836497Y-116177803D01*
X91855185Y-116000000D01*
X91836497Y-115822197D01*
X91781250Y-115652165D01*
X91767113Y-115627678D01*
X91750500Y-115565678D01*
X91750500Y-114000000D01*
X95144815Y-114000000D01*
X95163503Y-114177805D01*
X95163504Y-114177807D01*
X95218747Y-114347829D01*
X95218750Y-114347835D01*
X95308141Y-114502665D01*
X95349812Y-114548946D01*
X95427764Y-114635521D01*
X95427767Y-114635523D01*
X95427770Y-114635526D01*
X95572407Y-114740612D01*
X95735733Y-114813329D01*
X95910609Y-114850500D01*
X95910610Y-114850500D01*
X96089389Y-114850500D01*
X96089391Y-114850500D01*
X96264267Y-114813329D01*
X96381306Y-114761219D01*
X96431741Y-114750500D01*
X105323920Y-114750500D01*
X105421462Y-114731096D01*
X105468913Y-114721658D01*
X105604030Y-114665690D01*
X105673497Y-114658222D01*
X105683574Y-114660477D01*
X105686108Y-114661156D01*
X105686113Y-114661158D01*
X105907761Y-114720548D01*
X106060150Y-114740610D01*
X106135265Y-114750499D01*
X106135266Y-114750499D01*
X106364735Y-114750499D01*
X106416389Y-114743698D01*
X106592239Y-114720548D01*
X106813887Y-114661158D01*
X106980538Y-114592128D01*
X107025879Y-114573348D01*
X107025880Y-114573346D01*
X107025888Y-114573344D01*
X107224612Y-114458610D01*
X107406661Y-114318920D01*
X108725584Y-112999997D01*
X132494723Y-112999997D01*
X132494723Y-113000002D01*
X132513793Y-113217975D01*
X132513793Y-113217979D01*
X132570422Y-113429322D01*
X132570424Y-113429326D01*
X132570425Y-113429330D01*
X132577469Y-113444435D01*
X132662897Y-113627638D01*
X132677754Y-113648855D01*
X132788402Y-113806877D01*
X132943123Y-113961598D01*
X133122361Y-114087102D01*
X133320670Y-114179575D01*
X133532023Y-114236207D01*
X133714926Y-114252208D01*
X133749998Y-114255277D01*
X133750000Y-114255277D01*
X133750002Y-114255277D01*
X133778254Y-114252805D01*
X133967977Y-114236207D01*
X134179330Y-114179575D01*
X134377639Y-114087102D01*
X134556877Y-113961598D01*
X134711598Y-113806877D01*
X134837102Y-113627639D01*
X134929575Y-113429330D01*
X134986207Y-113217977D01*
X135005277Y-113000000D01*
X134986207Y-112782023D01*
X134929575Y-112570670D01*
X134837102Y-112372362D01*
X134837100Y-112372359D01*
X134837099Y-112372357D01*
X134711599Y-112193124D01*
X134690467Y-112171992D01*
X134556877Y-112038402D01*
X134377639Y-111912898D01*
X134377640Y-111912898D01*
X134377638Y-111912897D01*
X134228456Y-111843333D01*
X134179330Y-111820425D01*
X134179326Y-111820424D01*
X134179322Y-111820422D01*
X133967977Y-111763793D01*
X133750002Y-111744723D01*
X133749998Y-111744723D01*
X133604682Y-111757436D01*
X133532023Y-111763793D01*
X133532020Y-111763793D01*
X133320677Y-111820422D01*
X133320670Y-111820424D01*
X133320670Y-111820425D01*
X133316870Y-111822197D01*
X133122361Y-111912898D01*
X133122357Y-111912900D01*
X132943121Y-112038402D01*
X132788402Y-112193121D01*
X132662900Y-112372357D01*
X132662898Y-112372361D01*
X132570426Y-112570668D01*
X132570422Y-112570677D01*
X132513793Y-112782020D01*
X132513793Y-112782024D01*
X132494723Y-112999997D01*
X108725584Y-112999997D01*
X113318920Y-108406661D01*
X113417382Y-108278342D01*
X113458611Y-108224612D01*
X113573344Y-108025888D01*
X113661158Y-107813887D01*
X113720548Y-107592238D01*
X113750500Y-107364734D01*
X113750500Y-95330030D01*
X113770185Y-95262991D01*
X113822989Y-95217236D01*
X113892147Y-95207292D01*
X113921953Y-95215469D01*
X114064193Y-95274386D01*
X114299127Y-95330789D01*
X114540000Y-95349746D01*
X114780872Y-95330789D01*
X115015808Y-95274386D01*
X115015809Y-95274386D01*
X115239025Y-95181927D01*
X115437034Y-95060586D01*
X114818103Y-94441656D01*
X114866838Y-94421470D01*
X114979850Y-94345958D01*
X115075958Y-94249850D01*
X115151470Y-94136838D01*
X115171656Y-94088104D01*
X115790586Y-94707034D01*
X115911927Y-94509025D01*
X116004386Y-94285809D01*
X116004386Y-94285808D01*
X116060789Y-94050872D01*
X116072663Y-93900000D01*
X134959717Y-93900000D01*
X134978833Y-94240399D01*
X134978835Y-94240411D01*
X135035942Y-94576523D01*
X135035944Y-94576531D01*
X135059266Y-94657483D01*
X135130328Y-94904142D01*
X135206209Y-95087335D01*
X135260799Y-95219127D01*
X135425721Y-95517532D01*
X135425724Y-95517537D01*
X135623007Y-95795580D01*
X135623011Y-95795585D01*
X135850195Y-96049805D01*
X136104415Y-96276989D01*
X136104418Y-96276991D01*
X136104419Y-96276992D01*
X136382462Y-96474275D01*
X136382467Y-96474278D01*
X136382470Y-96474279D01*
X136382472Y-96474281D01*
X136680871Y-96639200D01*
X136995858Y-96769672D01*
X137323473Y-96864057D01*
X137659596Y-96921166D01*
X138000000Y-96940283D01*
X138340404Y-96921166D01*
X138676527Y-96864057D01*
X139004142Y-96769672D01*
X139319129Y-96639200D01*
X139617528Y-96474281D01*
X139617533Y-96474277D01*
X139617537Y-96474275D01*
X139732456Y-96392735D01*
X139895585Y-96276989D01*
X140149805Y-96049805D01*
X140376989Y-95795585D01*
X140558848Y-95539279D01*
X140574275Y-95517537D01*
X140574278Y-95517532D01*
X140574281Y-95517528D01*
X140739200Y-95219129D01*
X140869672Y-94904142D01*
X140964057Y-94576527D01*
X141021166Y-94240404D01*
X141040283Y-93900000D01*
X141021166Y-93559596D01*
X140964057Y-93223473D01*
X140869672Y-92895858D01*
X140739200Y-92580871D01*
X140574281Y-92282472D01*
X140574279Y-92282470D01*
X140574278Y-92282467D01*
X140574275Y-92282462D01*
X140376992Y-92004419D01*
X140376991Y-92004418D01*
X140376989Y-92004415D01*
X140149805Y-91750195D01*
X139895585Y-91523011D01*
X139895582Y-91523009D01*
X139895580Y-91523007D01*
X139617537Y-91325724D01*
X139617532Y-91325721D01*
X139319127Y-91160799D01*
X139253890Y-91133777D01*
X139004142Y-91030328D01*
X138840334Y-90983135D01*
X138676531Y-90935944D01*
X138676523Y-90935942D01*
X138340411Y-90878835D01*
X138340399Y-90878833D01*
X138000000Y-90859717D01*
X137659600Y-90878833D01*
X137659588Y-90878835D01*
X137323476Y-90935942D01*
X137323468Y-90935944D01*
X136995861Y-91030327D01*
X136995858Y-91030328D01*
X136903602Y-91068541D01*
X136680872Y-91160799D01*
X136382467Y-91325721D01*
X136382462Y-91325724D01*
X136104419Y-91523007D01*
X135850195Y-91750195D01*
X135623007Y-92004419D01*
X135425724Y-92282462D01*
X135425721Y-92282467D01*
X135260799Y-92580872D01*
X135224910Y-92667517D01*
X135146210Y-92857517D01*
X135130327Y-92895861D01*
X135035944Y-93223468D01*
X135035942Y-93223476D01*
X134978835Y-93559588D01*
X134978833Y-93559600D01*
X134959717Y-93900000D01*
X116072663Y-93900000D01*
X116079746Y-93810000D01*
X116060789Y-93569127D01*
X116004386Y-93334191D01*
X116004386Y-93334190D01*
X115911927Y-93110972D01*
X115911925Y-93110969D01*
X115790586Y-92912964D01*
X115171656Y-93531895D01*
X115151470Y-93483162D01*
X115075958Y-93370150D01*
X114979850Y-93274042D01*
X114866838Y-93198530D01*
X114818102Y-93178343D01*
X115437034Y-92559412D01*
X115239030Y-92438074D01*
X115239027Y-92438072D01*
X115015808Y-92345613D01*
X114780872Y-92289210D01*
X114540000Y-92270253D01*
X114299127Y-92289210D01*
X114064191Y-92345613D01*
X114064190Y-92345613D01*
X113921952Y-92404530D01*
X113852483Y-92411999D01*
X113790004Y-92380723D01*
X113754352Y-92320634D01*
X113750500Y-92289969D01*
X113750500Y-89026442D01*
X113770185Y-88959403D01*
X113786814Y-88938766D01*
X118213028Y-84512551D01*
X118216313Y-84509386D01*
X118286805Y-84443981D01*
X118302972Y-84423707D01*
X118312224Y-84413356D01*
X118318920Y-84406661D01*
X118318925Y-84406655D01*
X118318927Y-84406653D01*
X118378103Y-84329530D01*
X118379498Y-84327745D01*
X118450386Y-84238857D01*
X118497751Y-84156818D01*
X118573345Y-84025888D01*
X118573345Y-84025885D01*
X118576476Y-84020464D01*
X118576482Y-84020450D01*
X118581568Y-84011643D01*
X118623105Y-83905803D01*
X118623913Y-83903801D01*
X118661158Y-83813886D01*
X118663608Y-83804739D01*
X118667953Y-83791534D01*
X118677420Y-83767416D01*
X118698806Y-83673716D01*
X118699923Y-83669212D01*
X118704943Y-83650478D01*
X118720549Y-83592239D01*
X118724081Y-83565403D01*
X118726120Y-83554047D01*
X118735802Y-83511630D01*
X118741675Y-83433251D01*
X118742383Y-83426383D01*
X118750500Y-83364734D01*
X118750500Y-83320129D01*
X118750847Y-83310862D01*
X118755408Y-83250003D01*
X118755408Y-83249996D01*
X118750847Y-83189136D01*
X118750500Y-83179869D01*
X118750500Y-83135272D01*
X118750499Y-83135260D01*
X118742383Y-83073612D01*
X118741675Y-83066750D01*
X118736674Y-83000003D01*
X118735803Y-82988375D01*
X118726126Y-82945977D01*
X118724078Y-82934569D01*
X118720549Y-82907761D01*
X118699914Y-82830754D01*
X118698803Y-82826269D01*
X118677422Y-82732592D01*
X118677419Y-82732581D01*
X118667955Y-82708469D01*
X118663612Y-82695274D01*
X118661158Y-82686113D01*
X118661154Y-82686103D01*
X118623951Y-82596287D01*
X118623084Y-82594137D01*
X118603764Y-82544913D01*
X118581568Y-82488357D01*
X118575897Y-82478536D01*
X118575890Y-82478521D01*
X118573346Y-82474114D01*
X118573345Y-82474112D01*
X118505534Y-82356661D01*
X118458610Y-82275387D01*
X118458608Y-82275385D01*
X118450386Y-82261143D01*
X118413294Y-82214632D01*
X118379521Y-82172282D01*
X118378092Y-82170455D01*
X118318920Y-82093339D01*
X118312219Y-82086638D01*
X118302961Y-82076278D01*
X118286805Y-82056019D01*
X118286804Y-82056018D01*
X118286801Y-82056014D01*
X118216342Y-81990639D01*
X118213028Y-81987447D01*
X118156661Y-81931080D01*
X118156660Y-81931079D01*
X118156659Y-81931078D01*
X118142255Y-81920026D01*
X118135204Y-81914615D01*
X118126351Y-81907140D01*
X118094479Y-81877567D01*
X118094475Y-81877564D01*
X118029555Y-81833302D01*
X118023922Y-81829226D01*
X117974612Y-81791390D01*
X117974610Y-81791389D01*
X117935985Y-81769088D01*
X117928144Y-81764161D01*
X117904460Y-81748014D01*
X117877704Y-81729772D01*
X117822710Y-81703288D01*
X117814515Y-81698956D01*
X117775900Y-81676661D01*
X117775892Y-81676657D01*
X117775890Y-81676656D01*
X117775888Y-81676655D01*
X117754266Y-81667698D01*
X117718451Y-81652863D01*
X117712122Y-81650031D01*
X117641323Y-81615937D01*
X117641320Y-81615936D01*
X117641316Y-81615934D01*
X117599768Y-81603118D01*
X117588868Y-81599189D01*
X117563897Y-81588846D01*
X117563894Y-81588845D01*
X117563887Y-81588842D01*
X117563880Y-81588840D01*
X117563874Y-81588838D01*
X117486896Y-81568211D01*
X117482442Y-81566928D01*
X117467655Y-81562367D01*
X117465670Y-81561754D01*
X117390617Y-81538604D01*
X117364995Y-81534741D01*
X117351396Y-81531904D01*
X117342241Y-81529451D01*
X117245834Y-81516759D01*
X117243538Y-81516435D01*
X117131187Y-81499500D01*
X117131182Y-81499500D01*
X116868818Y-81499500D01*
X116868810Y-81499500D01*
X116756459Y-81516435D01*
X116754164Y-81516759D01*
X116685755Y-81525765D01*
X116657761Y-81529451D01*
X116648605Y-81531904D01*
X116648601Y-81531905D01*
X116635010Y-81534740D01*
X116609380Y-81538604D01*
X116517569Y-81566924D01*
X116513117Y-81568207D01*
X116436115Y-81588841D01*
X116436099Y-81588847D01*
X116411116Y-81599194D01*
X116400224Y-81603120D01*
X116358683Y-81615934D01*
X116358677Y-81615937D01*
X116287886Y-81650026D01*
X116281545Y-81652863D01*
X116224119Y-81676651D01*
X116224103Y-81676659D01*
X116185480Y-81698958D01*
X116177287Y-81703288D01*
X116122296Y-81729771D01*
X116071870Y-81764151D01*
X116064024Y-81769081D01*
X116025388Y-81791389D01*
X116025385Y-81791391D01*
X115976081Y-81829223D01*
X115970449Y-81833299D01*
X115905519Y-81877568D01*
X115905517Y-81877570D01*
X115873641Y-81907145D01*
X115864791Y-81914619D01*
X115843338Y-81931080D01*
X115786995Y-81987423D01*
X115783657Y-81990638D01*
X115713192Y-82056021D01*
X115713190Y-82056023D01*
X115697037Y-82076278D01*
X115687774Y-82086643D01*
X110681084Y-87093333D01*
X110681078Y-87093340D01*
X110616269Y-87177802D01*
X110541388Y-87275388D01*
X110426657Y-87474108D01*
X110426650Y-87474123D01*
X110338842Y-87686112D01*
X110279453Y-87907759D01*
X110279451Y-87907770D01*
X110249500Y-88135258D01*
X110249500Y-92150500D01*
X110229815Y-92217539D01*
X110177011Y-92263294D01*
X110125500Y-92274500D01*
X108377129Y-92274500D01*
X108377123Y-92274501D01*
X108317516Y-92280908D01*
X108182671Y-92331202D01*
X108182664Y-92331206D01*
X108067455Y-92417452D01*
X108067452Y-92417455D01*
X107981206Y-92532664D01*
X107981202Y-92532671D01*
X107930908Y-92667517D01*
X107924501Y-92727116D01*
X107924500Y-92727135D01*
X107924500Y-94892870D01*
X107924501Y-94892876D01*
X107930908Y-94952483D01*
X107981202Y-95087328D01*
X107981206Y-95087335D01*
X108067452Y-95202544D01*
X108067455Y-95202547D01*
X108182664Y-95288793D01*
X108182671Y-95288797D01*
X108317517Y-95339091D01*
X108317516Y-95339091D01*
X108324444Y-95339835D01*
X108377127Y-95345500D01*
X110125500Y-95345499D01*
X110192539Y-95365184D01*
X110238294Y-95417987D01*
X110249500Y-95469499D01*
X110249500Y-106473556D01*
X110229815Y-106540595D01*
X110213181Y-106561237D01*
X104931084Y-111843333D01*
X104931078Y-111843340D01*
X104791396Y-112025378D01*
X104791390Y-112025388D01*
X104676656Y-112224111D01*
X104676651Y-112224120D01*
X104588842Y-112436112D01*
X104554554Y-112564077D01*
X104530952Y-112652165D01*
X104529453Y-112657758D01*
X104529450Y-112657771D01*
X104499501Y-112885265D01*
X104499501Y-113114730D01*
X104499675Y-113117383D01*
X104499501Y-113118160D01*
X104499501Y-113118793D01*
X104499360Y-113118793D01*
X104484421Y-113185567D01*
X104434726Y-113234680D01*
X104375941Y-113249500D01*
X96431741Y-113249500D01*
X96381306Y-113238780D01*
X96264267Y-113186671D01*
X96264265Y-113186670D01*
X96136594Y-113159533D01*
X96089391Y-113149500D01*
X95910609Y-113149500D01*
X95879954Y-113156015D01*
X95735733Y-113186670D01*
X95735728Y-113186672D01*
X95572408Y-113259387D01*
X95427768Y-113364475D01*
X95308140Y-113497336D01*
X95218750Y-113652164D01*
X95218747Y-113652170D01*
X95163504Y-113822192D01*
X95163503Y-113822194D01*
X95144815Y-114000000D01*
X91750500Y-114000000D01*
X91750500Y-109362228D01*
X91770185Y-109295189D01*
X91786815Y-109274551D01*
X92219177Y-108842188D01*
X92259111Y-108817729D01*
X92258329Y-108815972D01*
X92264263Y-108813329D01*
X92264267Y-108813329D01*
X92427593Y-108740612D01*
X92572230Y-108635526D01*
X92691859Y-108502665D01*
X92781250Y-108347835D01*
X92836497Y-108177803D01*
X92855185Y-108000000D01*
X92836497Y-107822197D01*
X92781250Y-107652165D01*
X92691859Y-107497335D01*
X92645003Y-107445296D01*
X92572235Y-107364478D01*
X92572232Y-107364476D01*
X92572231Y-107364475D01*
X92572230Y-107364474D01*
X92427593Y-107259388D01*
X92264267Y-107186671D01*
X92264265Y-107186670D01*
X92136594Y-107159533D01*
X92089391Y-107149500D01*
X91910609Y-107149500D01*
X91879954Y-107156015D01*
X91735733Y-107186670D01*
X91735728Y-107186672D01*
X91572408Y-107259387D01*
X91427768Y-107364475D01*
X91308140Y-107497336D01*
X91218750Y-107652163D01*
X91218749Y-107652167D01*
X91195354Y-107724165D01*
X91165105Y-107773525D01*
X90417049Y-108521581D01*
X90377289Y-108581086D01*
X90377290Y-108581087D01*
X90340916Y-108635526D01*
X90334914Y-108644508D01*
X90278343Y-108781082D01*
X90278340Y-108781092D01*
X90249500Y-108926079D01*
X90249500Y-113568060D01*
X90229815Y-113635099D01*
X90177011Y-113680854D01*
X90107853Y-113690798D01*
X90044297Y-113661773D01*
X90037819Y-113655741D01*
X90002262Y-113620184D01*
X89849523Y-113524211D01*
X89679254Y-113464631D01*
X89679249Y-113464630D01*
X89500004Y-113444435D01*
X89499996Y-113444435D01*
X89320750Y-113464630D01*
X89320745Y-113464631D01*
X89150476Y-113524211D01*
X88997736Y-113620185D01*
X88994903Y-113622445D01*
X88992724Y-113623334D01*
X88991842Y-113623889D01*
X88991744Y-113623734D01*
X88930217Y-113648855D01*
X88917588Y-113649500D01*
X88829057Y-113649500D01*
X88670943Y-113649500D01*
X88518215Y-113690423D01*
X88518214Y-113690423D01*
X88518212Y-113690424D01*
X88518209Y-113690425D01*
X88483066Y-113710716D01*
X88483064Y-113710717D01*
X88381290Y-113769475D01*
X88381282Y-113769481D01*
X87519481Y-114631282D01*
X87519479Y-114631285D01*
X87469361Y-114718094D01*
X87469359Y-114718096D01*
X87440425Y-114768209D01*
X87440424Y-114768210D01*
X87427684Y-114815758D01*
X87399499Y-114920943D01*
X87399499Y-114920945D01*
X87399499Y-115089046D01*
X87399500Y-115089059D01*
X87399500Y-115116936D01*
X87379815Y-115183975D01*
X87327011Y-115229730D01*
X87257853Y-115239674D01*
X87234547Y-115233978D01*
X87179260Y-115214633D01*
X87179249Y-115214630D01*
X87000004Y-115194435D01*
X87000000Y-115194435D01*
X86986097Y-115196001D01*
X86917276Y-115183944D01*
X86865898Y-115136593D01*
X86848276Y-115068982D01*
X86848895Y-115059841D01*
X86855185Y-115000000D01*
X86836497Y-114822197D01*
X86781250Y-114652165D01*
X86769195Y-114631285D01*
X86767113Y-114627678D01*
X86750500Y-114565678D01*
X86750500Y-111230858D01*
X86770185Y-111163819D01*
X86786819Y-111143177D01*
X90582948Y-107347048D01*
X90582951Y-107347045D01*
X90665084Y-107224124D01*
X90721658Y-107087542D01*
X90750500Y-106942547D01*
X90750500Y-106794712D01*
X90750500Y-105362229D01*
X90770185Y-105295190D01*
X90786819Y-105274548D01*
X93274548Y-102786819D01*
X93335871Y-102753334D01*
X93362229Y-102750500D01*
X98073920Y-102750500D01*
X98171462Y-102731096D01*
X98218913Y-102721658D01*
X98355495Y-102665084D01*
X98408277Y-102629816D01*
X98478416Y-102582952D01*
X101037819Y-100023547D01*
X101099142Y-99990063D01*
X101168834Y-99995047D01*
X101224767Y-100036919D01*
X101249184Y-100102383D01*
X101249500Y-100111229D01*
X101249500Y-100700028D01*
X101242542Y-100740982D01*
X101214631Y-100820747D01*
X101194435Y-100999996D01*
X101194435Y-101000003D01*
X101214630Y-101179249D01*
X101214631Y-101179254D01*
X101274211Y-101349523D01*
X101316640Y-101417048D01*
X101370184Y-101502262D01*
X101497738Y-101629816D01*
X101650478Y-101725789D01*
X101820745Y-101785368D01*
X101820750Y-101785369D01*
X101999996Y-101805565D01*
X102000000Y-101805565D01*
X102000004Y-101805565D01*
X102179249Y-101785369D01*
X102179252Y-101785368D01*
X102179255Y-101785368D01*
X102349522Y-101725789D01*
X102502262Y-101629816D01*
X102629816Y-101502262D01*
X102725789Y-101349522D01*
X102785368Y-101179255D01*
X102785369Y-101179249D01*
X102805565Y-101000003D01*
X102805565Y-100999996D01*
X102785368Y-100820747D01*
X102785368Y-100820745D01*
X102757458Y-100740982D01*
X102750500Y-100700028D01*
X102750500Y-93299972D01*
X102757458Y-93259017D01*
X102785368Y-93179254D01*
X102785369Y-93179249D01*
X102805565Y-93000003D01*
X102805565Y-92999996D01*
X102785369Y-92820750D01*
X102785368Y-92820745D01*
X102725789Y-92650478D01*
X102711710Y-92628072D01*
X102682052Y-92580871D01*
X102629816Y-92497738D01*
X102502262Y-92370184D01*
X102463158Y-92345613D01*
X102349523Y-92274211D01*
X102179254Y-92214631D01*
X102179249Y-92214630D01*
X102000004Y-92194435D01*
X101999996Y-92194435D01*
X101888383Y-92207010D01*
X101819561Y-92194955D01*
X101768182Y-92147606D01*
X101750500Y-92083790D01*
X101750500Y-79434320D01*
X101767112Y-79372322D01*
X101781250Y-79347835D01*
X101836497Y-79177803D01*
X101855185Y-79000000D01*
X101836497Y-78822197D01*
X101781250Y-78652165D01*
X101691859Y-78497335D01*
X101645003Y-78445296D01*
X101572235Y-78364478D01*
X101572232Y-78364476D01*
X101572231Y-78364475D01*
X101572230Y-78364474D01*
X101427593Y-78259388D01*
X101264267Y-78186671D01*
X101264265Y-78186670D01*
X101136594Y-78159533D01*
X101089391Y-78149500D01*
X100910609Y-78149500D01*
X100879954Y-78156015D01*
X100735733Y-78186670D01*
X100735728Y-78186672D01*
X100572408Y-78259387D01*
X100427768Y-78364475D01*
X100308140Y-78497336D01*
X100218750Y-78652164D01*
X100218747Y-78652170D01*
X100163504Y-78822192D01*
X100163503Y-78822194D01*
X100144815Y-79000000D01*
X100163503Y-79177805D01*
X100163504Y-79177807D01*
X100218747Y-79347829D01*
X100218748Y-79347830D01*
X100218750Y-79347835D01*
X100232887Y-79372322D01*
X100249500Y-79434320D01*
X100249500Y-98637770D01*
X100229815Y-98704809D01*
X100213181Y-98725451D01*
X97725451Y-101213181D01*
X97664128Y-101246666D01*
X97637770Y-101249500D01*
X92926076Y-101249500D01*
X92897242Y-101255234D01*
X92897243Y-101255235D01*
X92781093Y-101278339D01*
X92781089Y-101278340D01*
X92717880Y-101304523D01*
X92644508Y-101334914D01*
X92591723Y-101370184D01*
X92521582Y-101417049D01*
X89417050Y-104521581D01*
X89417048Y-104521584D01*
X89401235Y-104545251D01*
X89401233Y-104545252D01*
X89401233Y-104545253D01*
X89334916Y-104644503D01*
X89334914Y-104644506D01*
X89278343Y-104781082D01*
X89278340Y-104781092D01*
X89249500Y-104926079D01*
X89249500Y-106506398D01*
X89229815Y-106573437D01*
X89213181Y-106594079D01*
X85417052Y-110390207D01*
X85417049Y-110390210D01*
X85387436Y-110434529D01*
X85387437Y-110434530D01*
X85334914Y-110513137D01*
X85278343Y-110649711D01*
X85278340Y-110649721D01*
X85249500Y-110794708D01*
X85249500Y-114565678D01*
X85232887Y-114627678D01*
X85218750Y-114652163D01*
X85163504Y-114822192D01*
X85163503Y-114822194D01*
X85144815Y-115000000D01*
X85163503Y-115177805D01*
X85163504Y-115177807D01*
X85218747Y-115347829D01*
X85218750Y-115347835D01*
X85308141Y-115502665D01*
X85349812Y-115548946D01*
X85427764Y-115635521D01*
X85427767Y-115635523D01*
X85427770Y-115635526D01*
X85572407Y-115740612D01*
X85735733Y-115813329D01*
X85910609Y-115850500D01*
X85910610Y-115850500D01*
X86000902Y-115850500D01*
X86067941Y-115870185D01*
X86113696Y-115922989D01*
X86123640Y-115992147D01*
X86094615Y-116055703D01*
X86088583Y-116062181D01*
X79519481Y-122631282D01*
X79519479Y-122631285D01*
X79469361Y-122718094D01*
X79469359Y-122718096D01*
X79440425Y-122768209D01*
X79440424Y-122768210D01*
X79440423Y-122768215D01*
X79399499Y-122920943D01*
X79399499Y-122920945D01*
X79399499Y-123089046D01*
X79399500Y-123089059D01*
X79399500Y-123667051D01*
X79379815Y-123734090D01*
X79327011Y-123779845D01*
X79257853Y-123789789D01*
X79196836Y-123762905D01*
X79117629Y-123697903D01*
X79086450Y-123672315D01*
X78903954Y-123574768D01*
X78705934Y-123514700D01*
X78705932Y-123514699D01*
X78705934Y-123514699D01*
X78500000Y-123494417D01*
X78294067Y-123514699D01*
X78096041Y-123574769D01*
X77923453Y-123667020D01*
X77855050Y-123681262D01*
X77806547Y-123667020D01*
X77633958Y-123574769D01*
X77491574Y-123531578D01*
X77435934Y-123514700D01*
X77435932Y-123514699D01*
X77435934Y-123514699D01*
X77230000Y-123494417D01*
X77024067Y-123514699D01*
X76826043Y-123574769D01*
X76723061Y-123629815D01*
X76643550Y-123672315D01*
X76643548Y-123672316D01*
X76643547Y-123672317D01*
X76483589Y-123803589D01*
X76387281Y-123920943D01*
X76352315Y-123963550D01*
X76326253Y-124012309D01*
X76254769Y-124146043D01*
X76194699Y-124344067D01*
X76174417Y-124550000D01*
X76194699Y-124755932D01*
X76194700Y-124755934D01*
X76254768Y-124953954D01*
X76352315Y-125136450D01*
X76352317Y-125136452D01*
X76483587Y-125296407D01*
X76483588Y-125296408D01*
X76483590Y-125296410D01*
X76584165Y-125378949D01*
X76623499Y-125436692D01*
X76629500Y-125474801D01*
X76629500Y-128719902D01*
X76609815Y-128786941D01*
X76593181Y-128807583D01*
X74481465Y-130919298D01*
X74420142Y-130952783D01*
X74407668Y-130954837D01*
X74320750Y-130964630D01*
X74150478Y-131024210D01*
X73997737Y-131120184D01*
X73870184Y-131247737D01*
X73774211Y-131400476D01*
X73714631Y-131570745D01*
X73714630Y-131570750D01*
X73694435Y-131749996D01*
X63616294Y-131749996D01*
X63603334Y-131726261D01*
X63600500Y-131699903D01*
X63600500Y-128582412D01*
X63620185Y-128515373D01*
X63627555Y-128505097D01*
X63629810Y-128502267D01*
X63629816Y-128502262D01*
X63725789Y-128349522D01*
X63785368Y-128179255D01*
X63785531Y-128177807D01*
X63805565Y-128000003D01*
X63805565Y-127999996D01*
X63785369Y-127820750D01*
X63785366Y-127820737D01*
X63766022Y-127765455D01*
X63762460Y-127695676D01*
X63797188Y-127635049D01*
X63859182Y-127602821D01*
X63883063Y-127600500D01*
X65308784Y-127600500D01*
X65375823Y-127620185D01*
X65404638Y-127645836D01*
X65503589Y-127766410D01*
X65569804Y-127820750D01*
X65663550Y-127897685D01*
X65846046Y-127995232D01*
X66044066Y-128055300D01*
X66044065Y-128055300D01*
X66062529Y-128057118D01*
X66250000Y-128075583D01*
X66455934Y-128055300D01*
X66653954Y-127995232D01*
X66836450Y-127897685D01*
X66996410Y-127766410D01*
X67127685Y-127606450D01*
X67225232Y-127423954D01*
X67285300Y-127225934D01*
X67305583Y-127020000D01*
X67285300Y-126814066D01*
X67225232Y-126616046D01*
X67132977Y-126443451D01*
X67118736Y-126375051D01*
X67132976Y-126326549D01*
X67225232Y-126153954D01*
X67285300Y-125955934D01*
X67305583Y-125750000D01*
X67285300Y-125544066D01*
X67225232Y-125346046D01*
X67127685Y-125163550D01*
X67054128Y-125073920D01*
X66996410Y-125003589D01*
X66836452Y-124872317D01*
X66836453Y-124872317D01*
X66836450Y-124872315D01*
X66653954Y-124774768D01*
X66572304Y-124750000D01*
X71174417Y-124750000D01*
X71194699Y-124955932D01*
X71208066Y-124999996D01*
X71254768Y-125153954D01*
X71352315Y-125336450D01*
X71381855Y-125372445D01*
X71483589Y-125496410D01*
X71580209Y-125575702D01*
X71643550Y-125627685D01*
X71826046Y-125725232D01*
X72024066Y-125785300D01*
X72024065Y-125785300D01*
X72042529Y-125787118D01*
X72230000Y-125805583D01*
X72435934Y-125785300D01*
X72633954Y-125725232D01*
X72806548Y-125632977D01*
X72874949Y-125618736D01*
X72923450Y-125632976D01*
X73096046Y-125725232D01*
X73294066Y-125785300D01*
X73294065Y-125785300D01*
X73312529Y-125787118D01*
X73500000Y-125805583D01*
X73705934Y-125785300D01*
X73903954Y-125725232D01*
X74086450Y-125627685D01*
X74246410Y-125496410D01*
X74377685Y-125336450D01*
X74475232Y-125153954D01*
X74535300Y-124955934D01*
X74555583Y-124750000D01*
X74535300Y-124544066D01*
X74475232Y-124346046D01*
X74377685Y-124163550D01*
X74308342Y-124079055D01*
X74246410Y-124003589D01*
X74086452Y-123872317D01*
X74086453Y-123872317D01*
X74086450Y-123872315D01*
X73903954Y-123774768D01*
X73705934Y-123714700D01*
X73705932Y-123714699D01*
X73705934Y-123714699D01*
X73500000Y-123694417D01*
X73294067Y-123714699D01*
X73096041Y-123774769D01*
X72923453Y-123867020D01*
X72855050Y-123881262D01*
X72806547Y-123867020D01*
X72633958Y-123774769D01*
X72472490Y-123725789D01*
X72435934Y-123714700D01*
X72435932Y-123714699D01*
X72435934Y-123714699D01*
X72230000Y-123694417D01*
X72024067Y-123714699D01*
X71826043Y-123774769D01*
X71772126Y-123803589D01*
X71643550Y-123872315D01*
X71643548Y-123872316D01*
X71643547Y-123872317D01*
X71483589Y-124003589D01*
X71352317Y-124163547D01*
X71352315Y-124163550D01*
X71325011Y-124214632D01*
X71254769Y-124346043D01*
X71194699Y-124544067D01*
X71174417Y-124750000D01*
X66572304Y-124750000D01*
X66455934Y-124714700D01*
X66455932Y-124714699D01*
X66455934Y-124714699D01*
X66250000Y-124694417D01*
X66044067Y-124714699D01*
X65846043Y-124774769D01*
X65760030Y-124820745D01*
X65663550Y-124872315D01*
X65663548Y-124872316D01*
X65663547Y-124872317D01*
X65503589Y-125003589D01*
X65372317Y-125163547D01*
X65372315Y-125163550D01*
X65336895Y-125229815D01*
X65274769Y-125346043D01*
X65214699Y-125544067D01*
X65194417Y-125750000D01*
X65214699Y-125955932D01*
X65274769Y-126153958D01*
X65308491Y-126217047D01*
X65322733Y-126285450D01*
X65297733Y-126350694D01*
X65241428Y-126392064D01*
X65199133Y-126399500D01*
X62086670Y-126399500D01*
X62086654Y-126399499D01*
X62079058Y-126399499D01*
X61920943Y-126399499D01*
X61844579Y-126419961D01*
X61768214Y-126440423D01*
X61768209Y-126440426D01*
X61631290Y-126519475D01*
X61631282Y-126519481D01*
X60981465Y-127169298D01*
X60920142Y-127202783D01*
X60907668Y-127204837D01*
X60820750Y-127214630D01*
X60650478Y-127274210D01*
X60497737Y-127370184D01*
X60370184Y-127497737D01*
X60274211Y-127650476D01*
X60214631Y-127820745D01*
X60214630Y-127820750D01*
X60194435Y-127999996D01*
X60194435Y-128000003D01*
X60214630Y-128179249D01*
X60214631Y-128179254D01*
X60274211Y-128349523D01*
X60370185Y-128502263D01*
X60372445Y-128505097D01*
X60373334Y-128507275D01*
X60373889Y-128508158D01*
X60373734Y-128508255D01*
X60398855Y-128569783D01*
X60399500Y-128582412D01*
X60399500Y-130781960D01*
X60399499Y-130781978D01*
X60399499Y-130947684D01*
X60399498Y-130947684D01*
X60399499Y-130947687D01*
X60440423Y-131100415D01*
X60450586Y-131118017D01*
X60450587Y-131118020D01*
X60519475Y-131237339D01*
X60519481Y-131237347D01*
X60638349Y-131356215D01*
X60638355Y-131356220D01*
X62069954Y-132787819D01*
X62103439Y-132849142D01*
X62098455Y-132918834D01*
X62056583Y-132974767D01*
X61991119Y-132999184D01*
X61982273Y-132999500D01*
X57465782Y-132999500D01*
X57398743Y-132979815D01*
X57378101Y-132963181D01*
X56058509Y-131643589D01*
X56033742Y-131605580D01*
X56033138Y-131605882D01*
X55939674Y-131418180D01*
X55816762Y-131255418D01*
X55666041Y-131118019D01*
X55666039Y-131118017D01*
X55492642Y-131010655D01*
X55492635Y-131010651D01*
X55330104Y-130947687D01*
X55302456Y-130936976D01*
X55101976Y-130899500D01*
X54898024Y-130899500D01*
X54697544Y-130936976D01*
X54697541Y-130936976D01*
X54697541Y-130936977D01*
X54507364Y-131010651D01*
X54507357Y-131010655D01*
X54333960Y-131118017D01*
X54333958Y-131118019D01*
X54183237Y-131255418D01*
X54060327Y-131418178D01*
X53969422Y-131600739D01*
X53969417Y-131600752D01*
X53913602Y-131796917D01*
X53894785Y-131999999D01*
X53894785Y-132000000D01*
X53913602Y-132203082D01*
X53969417Y-132399247D01*
X53969422Y-132399260D01*
X54060327Y-132581821D01*
X54183237Y-132744581D01*
X54333958Y-132881980D01*
X54333960Y-132881982D01*
X54393479Y-132918834D01*
X54507363Y-132989348D01*
X54592447Y-133022309D01*
X54635335Y-133050255D01*
X56219735Y-134634655D01*
X56219764Y-134634686D01*
X56362214Y-134777136D01*
X56362218Y-134777139D01*
X56526079Y-134886628D01*
X56526092Y-134886635D01*
X56654833Y-134939961D01*
X56697744Y-134957735D01*
X56708164Y-134962051D01*
X56804812Y-134981275D01*
X56853135Y-134990887D01*
X56901458Y-135000500D01*
X56901459Y-135000500D01*
X56901460Y-135000500D01*
X57098540Y-135000500D01*
X62534218Y-135000500D01*
X62601257Y-135020185D01*
X62621899Y-135036819D01*
X64963181Y-137378101D01*
X64996666Y-137439424D01*
X64999500Y-137465782D01*
X64999500Y-143098541D01*
X65003374Y-143118019D01*
X65005721Y-143129814D01*
X65005721Y-143129816D01*
X65036662Y-143285367D01*
X65037948Y-143291835D01*
X65113364Y-143473907D01*
X65113371Y-143473920D01*
X65222859Y-143637780D01*
X65222860Y-143637781D01*
X65222861Y-143637782D01*
X65362218Y-143777139D01*
X65362219Y-143777139D01*
X65369286Y-143784206D01*
X65369285Y-143784206D01*
X65369289Y-143784209D01*
X66362215Y-144777137D01*
X66362219Y-144777140D01*
X66526079Y-144886628D01*
X66526088Y-144886633D01*
X66548374Y-144895864D01*
X66708165Y-144962052D01*
X66898941Y-145000000D01*
X66901455Y-145000500D01*
X66901458Y-145000501D01*
X66901460Y-145000501D01*
X67104655Y-145000501D01*
X67104675Y-145000500D01*
X71202886Y-145000500D01*
X71269925Y-145020185D01*
X71315680Y-145072989D01*
X71325624Y-145142147D01*
X71296599Y-145205703D01*
X71243840Y-145241542D01*
X71150478Y-145274210D01*
X70997737Y-145370184D01*
X70870184Y-145497737D01*
X70774211Y-145650476D01*
X70714631Y-145820745D01*
X70714630Y-145820750D01*
X70694435Y-145999996D01*
X70694435Y-146000003D01*
X70714630Y-146179249D01*
X70714633Y-146179262D01*
X70774209Y-146349520D01*
X70827309Y-146434029D01*
X70846309Y-146501266D01*
X70827309Y-146565971D01*
X70774209Y-146650479D01*
X70714633Y-146820737D01*
X70714630Y-146820750D01*
X70694435Y-146999996D01*
X70694435Y-147000003D01*
X70714630Y-147179249D01*
X70714631Y-147179254D01*
X70774211Y-147349523D01*
X70853054Y-147475000D01*
X70870184Y-147502262D01*
X70997738Y-147629816D01*
X71088080Y-147686582D01*
X71143903Y-147721658D01*
X71150478Y-147725789D01*
X71221098Y-147750500D01*
X71320745Y-147785368D01*
X71320750Y-147785369D01*
X71499996Y-147805565D01*
X71500000Y-147805565D01*
X71500004Y-147805565D01*
X71679249Y-147785369D01*
X71679252Y-147785368D01*
X71679255Y-147785368D01*
X71849522Y-147725789D01*
X72002262Y-147629816D01*
X72002263Y-147629814D01*
X72002266Y-147629813D01*
X72005097Y-147627555D01*
X72007275Y-147626665D01*
X72008158Y-147626111D01*
X72008255Y-147626265D01*
X72069783Y-147601145D01*
X72082412Y-147600500D01*
X85064865Y-147600500D01*
X85131904Y-147620185D01*
X85177659Y-147672989D01*
X85187603Y-147742147D01*
X85182796Y-147762817D01*
X85163505Y-147822189D01*
X85163503Y-147822194D01*
X85144815Y-148000000D01*
X85163503Y-148177805D01*
X85163504Y-148177807D01*
X85218747Y-148347829D01*
X85218750Y-148347835D01*
X85308141Y-148502665D01*
X85349812Y-148548946D01*
X85427764Y-148635521D01*
X85427767Y-148635523D01*
X85427770Y-148635526D01*
X85572407Y-148740612D01*
X85620942Y-148762221D01*
X85674178Y-148807470D01*
X85694500Y-148874319D01*
X85675455Y-148941543D01*
X85623089Y-148987799D01*
X85570506Y-148999500D01*
X50624500Y-148999500D01*
X50557461Y-148979815D01*
X50511706Y-148927011D01*
X50500500Y-148875500D01*
X50500500Y-144499999D01*
X51294422Y-144499999D01*
X51294422Y-144500000D01*
X51314722Y-144887339D01*
X51360957Y-145179255D01*
X51375398Y-145270433D01*
X51473825Y-145637770D01*
X51475788Y-145645094D01*
X51614787Y-146007197D01*
X51790877Y-146352793D01*
X52002122Y-146678082D01*
X52002124Y-146678084D01*
X52246219Y-146979516D01*
X52520484Y-147253781D01*
X52688375Y-147389737D01*
X52821917Y-147497877D01*
X53147206Y-147709122D01*
X53147211Y-147709125D01*
X53492806Y-147885214D01*
X53854913Y-148024214D01*
X54229567Y-148124602D01*
X54612662Y-148185278D01*
X54978576Y-148204455D01*
X54999999Y-148205578D01*
X55000000Y-148205578D01*
X55000001Y-148205578D01*
X55020301Y-148204514D01*
X55387338Y-148185278D01*
X55770433Y-148124602D01*
X56145087Y-148024214D01*
X56507194Y-147885214D01*
X56852789Y-147709125D01*
X57178084Y-147497876D01*
X57479516Y-147253781D01*
X57753781Y-146979516D01*
X57997876Y-146678084D01*
X58209125Y-146352789D01*
X58385214Y-146007194D01*
X58524214Y-145645087D01*
X58624602Y-145270433D01*
X58685278Y-144887338D01*
X58705578Y-144500000D01*
X58685278Y-144112662D01*
X58624602Y-143729567D01*
X58524214Y-143354913D01*
X58522052Y-143349282D01*
X58500001Y-143291835D01*
X58385214Y-142992806D01*
X58209125Y-142647211D01*
X58209122Y-142647206D01*
X57997877Y-142321917D01*
X57882351Y-142179255D01*
X57753781Y-142020484D01*
X57479516Y-141746219D01*
X57346315Y-141638355D01*
X57178082Y-141502122D01*
X56852793Y-141290877D01*
X56507197Y-141114787D01*
X56145094Y-140975788D01*
X56145087Y-140975786D01*
X55770433Y-140875398D01*
X55770429Y-140875397D01*
X55770428Y-140875397D01*
X55387339Y-140814722D01*
X55000001Y-140794422D01*
X54999999Y-140794422D01*
X54612660Y-140814722D01*
X54229572Y-140875397D01*
X54229570Y-140875397D01*
X53854905Y-140975788D01*
X53492802Y-141114787D01*
X53147206Y-141290877D01*
X52821917Y-141502122D01*
X52520488Y-141746215D01*
X52520480Y-141746222D01*
X52246222Y-142020480D01*
X52246215Y-142020488D01*
X52002122Y-142321917D01*
X51790877Y-142647206D01*
X51614787Y-142992802D01*
X51475788Y-143354905D01*
X51375397Y-143729570D01*
X51375397Y-143729572D01*
X51314722Y-144112660D01*
X51294422Y-144499999D01*
X50500500Y-144499999D01*
X50500500Y-136500000D01*
X55444417Y-136500000D01*
X55464699Y-136705932D01*
X55524769Y-136903958D01*
X55617020Y-137076547D01*
X55631262Y-137144950D01*
X55617020Y-137193453D01*
X55524769Y-137366041D01*
X55464699Y-137564067D01*
X55444417Y-137770000D01*
X55464699Y-137975932D01*
X55524769Y-138173956D01*
X55527598Y-138179249D01*
X55622315Y-138356450D01*
X55633586Y-138370184D01*
X55753589Y-138516410D01*
X55850209Y-138595702D01*
X55913550Y-138647685D01*
X56096046Y-138745232D01*
X56294066Y-138805300D01*
X56294065Y-138805300D01*
X56312529Y-138807118D01*
X56500000Y-138825583D01*
X56705934Y-138805300D01*
X56903954Y-138745232D01*
X57086450Y-138647685D01*
X57246410Y-138516410D01*
X57377685Y-138356450D01*
X57475232Y-138173954D01*
X57535300Y-137975934D01*
X57555583Y-137770000D01*
X57535300Y-137564066D01*
X57475232Y-137366046D01*
X57382977Y-137193451D01*
X57368736Y-137125051D01*
X57382978Y-137076547D01*
X57475232Y-136903954D01*
X57535300Y-136705934D01*
X57555583Y-136500000D01*
X57535300Y-136294066D01*
X57475232Y-136096046D01*
X57377685Y-135913550D01*
X57325702Y-135850209D01*
X57246410Y-135753589D01*
X57095590Y-135629816D01*
X57086450Y-135622315D01*
X56903954Y-135524768D01*
X56705934Y-135464700D01*
X56705932Y-135464699D01*
X56705934Y-135464699D01*
X56500000Y-135444417D01*
X56294067Y-135464699D01*
X56096043Y-135524769D01*
X56018961Y-135565971D01*
X55913550Y-135622315D01*
X55913548Y-135622316D01*
X55913547Y-135622317D01*
X55753589Y-135753589D01*
X55622317Y-135913547D01*
X55524769Y-136096043D01*
X55464699Y-136294067D01*
X55444417Y-136500000D01*
X50500500Y-136500000D01*
X50500500Y-110000000D01*
X54144815Y-110000000D01*
X54163503Y-110177805D01*
X54163504Y-110177807D01*
X54218747Y-110347829D01*
X54218750Y-110347835D01*
X54308141Y-110502665D01*
X54349812Y-110548946D01*
X54427764Y-110635521D01*
X54427767Y-110635523D01*
X54427770Y-110635526D01*
X54572407Y-110740612D01*
X54735733Y-110813329D01*
X54910609Y-110850500D01*
X54910610Y-110850500D01*
X55089389Y-110850500D01*
X55089391Y-110850500D01*
X55264267Y-110813329D01*
X55427593Y-110740612D01*
X55572230Y-110635526D01*
X55691859Y-110502665D01*
X55781250Y-110347835D01*
X55836497Y-110177803D01*
X55855185Y-110000000D01*
X55836497Y-109822197D01*
X55781250Y-109652165D01*
X55773320Y-109638430D01*
X55767113Y-109627678D01*
X55750500Y-109565678D01*
X55750500Y-88362229D01*
X55770185Y-88295190D01*
X55786819Y-88274548D01*
X56274548Y-87786819D01*
X56335871Y-87753334D01*
X56362229Y-87750500D01*
X64568259Y-87750500D01*
X64618693Y-87761219D01*
X64735733Y-87813329D01*
X64910609Y-87850500D01*
X64910610Y-87850500D01*
X65089389Y-87850500D01*
X65089391Y-87850500D01*
X65249719Y-87816421D01*
X65319386Y-87821737D01*
X65375120Y-87863874D01*
X65399225Y-87929454D01*
X65399500Y-87937711D01*
X65399500Y-90699902D01*
X65379815Y-90766941D01*
X65363181Y-90787583D01*
X58519481Y-97631282D01*
X58519479Y-97631285D01*
X58469361Y-97718094D01*
X58469359Y-97718096D01*
X58440425Y-97768209D01*
X58440424Y-97768210D01*
X58440423Y-97768215D01*
X58399499Y-97920943D01*
X58399499Y-97920945D01*
X58399499Y-98089046D01*
X58399500Y-98089059D01*
X58399500Y-120913330D01*
X58399499Y-120913348D01*
X58399499Y-121079054D01*
X58399498Y-121079054D01*
X58440423Y-121231785D01*
X58469358Y-121281900D01*
X58469359Y-121281904D01*
X58469360Y-121281904D01*
X58519479Y-121368714D01*
X58519481Y-121368717D01*
X58638349Y-121487585D01*
X58638355Y-121487590D01*
X60169298Y-123018533D01*
X60202783Y-123079856D01*
X60204837Y-123092330D01*
X60214630Y-123179249D01*
X60274210Y-123349521D01*
X60365255Y-123494417D01*
X60370184Y-123502262D01*
X60497738Y-123629816D01*
X60650478Y-123725789D01*
X60790452Y-123774768D01*
X60820745Y-123785368D01*
X60820750Y-123785369D01*
X60999996Y-123805565D01*
X61000000Y-123805565D01*
X61036890Y-123801408D01*
X61105710Y-123813461D01*
X61157091Y-123860810D01*
X61174716Y-123928420D01*
X61152991Y-123994826D01*
X61138455Y-124012309D01*
X59787584Y-125363181D01*
X59726261Y-125396666D01*
X59699903Y-125399500D01*
X59582412Y-125399500D01*
X59515373Y-125379815D01*
X59505097Y-125372445D01*
X59502263Y-125370185D01*
X59502262Y-125370184D01*
X59406133Y-125309782D01*
X59349523Y-125274211D01*
X59179254Y-125214631D01*
X59179249Y-125214630D01*
X59000004Y-125194435D01*
X58999996Y-125194435D01*
X58820750Y-125214630D01*
X58820745Y-125214631D01*
X58650476Y-125274211D01*
X58497737Y-125370184D01*
X58370184Y-125497737D01*
X58274211Y-125650476D01*
X58214631Y-125820745D01*
X58214630Y-125820750D01*
X58194435Y-125999996D01*
X58194435Y-126000003D01*
X58214630Y-126179249D01*
X58214631Y-126179254D01*
X58274211Y-126349523D01*
X58366802Y-126496880D01*
X58370184Y-126502262D01*
X58497738Y-126629816D01*
X58553865Y-126665083D01*
X58643903Y-126721658D01*
X58650478Y-126725789D01*
X58692840Y-126740612D01*
X58820745Y-126785368D01*
X58820750Y-126785369D01*
X58999996Y-126805565D01*
X59000000Y-126805565D01*
X59000004Y-126805565D01*
X59179249Y-126785369D01*
X59179252Y-126785368D01*
X59179255Y-126785368D01*
X59349522Y-126725789D01*
X59502262Y-126629816D01*
X59502267Y-126629810D01*
X59505097Y-126627555D01*
X59507275Y-126626665D01*
X59508158Y-126626111D01*
X59508255Y-126626265D01*
X59569783Y-126601145D01*
X59582412Y-126600500D01*
X59913331Y-126600500D01*
X59913347Y-126600501D01*
X59920943Y-126600501D01*
X60079054Y-126600501D01*
X60079057Y-126600501D01*
X60231785Y-126559577D01*
X60281904Y-126530639D01*
X60368716Y-126480520D01*
X60480520Y-126368716D01*
X60480520Y-126368714D01*
X60490728Y-126358507D01*
X60490730Y-126358504D01*
X62358506Y-124490728D01*
X62358511Y-124490724D01*
X62368714Y-124480520D01*
X62368716Y-124480520D01*
X62480520Y-124368716D01*
X62549349Y-124249500D01*
X62559577Y-124231785D01*
X62600500Y-124079057D01*
X62600500Y-123920943D01*
X62600500Y-123582412D01*
X62620185Y-123515373D01*
X62627555Y-123505097D01*
X62629810Y-123502267D01*
X62629816Y-123502262D01*
X62725789Y-123349522D01*
X62785368Y-123179255D01*
X62795532Y-123089046D01*
X62805565Y-123000003D01*
X62805565Y-122999996D01*
X62785369Y-122820750D01*
X62785368Y-122820745D01*
X62766985Y-122768209D01*
X62725789Y-122650478D01*
X62713727Y-122631282D01*
X62629815Y-122497737D01*
X62583253Y-122451175D01*
X73957335Y-122451175D01*
X79214898Y-122451175D01*
X79214898Y-118678000D01*
X73957335Y-118678000D01*
X73957335Y-122451175D01*
X62583253Y-122451175D01*
X62502262Y-122370184D01*
X62349521Y-122274210D01*
X62179249Y-122214630D01*
X62092331Y-122204837D01*
X62027917Y-122177770D01*
X62018534Y-122169298D01*
X60736819Y-120887583D01*
X60703334Y-120826260D01*
X60700500Y-120799902D01*
X60700500Y-112000000D01*
X68144815Y-112000000D01*
X68163503Y-112177805D01*
X68163504Y-112177807D01*
X68218747Y-112347829D01*
X68218750Y-112347835D01*
X68308141Y-112502665D01*
X68349812Y-112548946D01*
X68427764Y-112635521D01*
X68427767Y-112635523D01*
X68427770Y-112635526D01*
X68572407Y-112740612D01*
X68735733Y-112813329D01*
X68910609Y-112850500D01*
X68910610Y-112850500D01*
X69089389Y-112850500D01*
X69089391Y-112850500D01*
X69264267Y-112813329D01*
X69427593Y-112740612D01*
X69572230Y-112635526D01*
X69579297Y-112627678D01*
X69605205Y-112598904D01*
X69691859Y-112502665D01*
X69781250Y-112347835D01*
X69836497Y-112177803D01*
X69855185Y-112000000D01*
X69836497Y-111822197D01*
X69781250Y-111652165D01*
X69767113Y-111627678D01*
X69750500Y-111565678D01*
X69750500Y-108362228D01*
X69770185Y-108295189D01*
X69786814Y-108274552D01*
X71219177Y-106842188D01*
X71259111Y-106817729D01*
X71258329Y-106815972D01*
X71264263Y-106813329D01*
X71264267Y-106813329D01*
X71427593Y-106740612D01*
X71572230Y-106635526D01*
X71691859Y-106502665D01*
X71781250Y-106347835D01*
X71836497Y-106177803D01*
X71855185Y-106000000D01*
X71836497Y-105822197D01*
X71781250Y-105652165D01*
X71691859Y-105497335D01*
X71629436Y-105428007D01*
X71572235Y-105364478D01*
X71572232Y-105364476D01*
X71572231Y-105364475D01*
X71572230Y-105364474D01*
X71427593Y-105259388D01*
X71264267Y-105186671D01*
X71264265Y-105186670D01*
X71132918Y-105158752D01*
X71089391Y-105149500D01*
X70910609Y-105149500D01*
X70879954Y-105156015D01*
X70735733Y-105186670D01*
X70735728Y-105186672D01*
X70572408Y-105259387D01*
X70427768Y-105364475D01*
X70308140Y-105497336D01*
X70218750Y-105652164D01*
X70218749Y-105652166D01*
X70195355Y-105724165D01*
X70165105Y-105773526D01*
X68417052Y-107521578D01*
X68417049Y-107521581D01*
X68371142Y-107590286D01*
X68371143Y-107590287D01*
X68334914Y-107644508D01*
X68278343Y-107781082D01*
X68278340Y-107781092D01*
X68249500Y-107926079D01*
X68249500Y-111565678D01*
X68232887Y-111627678D01*
X68218750Y-111652163D01*
X68163504Y-111822192D01*
X68163503Y-111822194D01*
X68144815Y-112000000D01*
X60700500Y-112000000D01*
X60700500Y-103212903D01*
X60720185Y-103145864D01*
X60772989Y-103100109D01*
X60842147Y-103090165D01*
X60847263Y-103091011D01*
X60898024Y-103100500D01*
X60898025Y-103100500D01*
X61101974Y-103100500D01*
X61101976Y-103100500D01*
X61302456Y-103063024D01*
X61442237Y-103008873D01*
X61487031Y-103000500D01*
X68534218Y-103000500D01*
X68601257Y-103020185D01*
X68621899Y-103036819D01*
X68941490Y-103356410D01*
X68966259Y-103394418D01*
X68966862Y-103394118D01*
X69060325Y-103581819D01*
X69183237Y-103744581D01*
X69333958Y-103881980D01*
X69333960Y-103881982D01*
X69433141Y-103943392D01*
X69507363Y-103989348D01*
X69697544Y-104063024D01*
X69898024Y-104100500D01*
X69898026Y-104100500D01*
X70101974Y-104100500D01*
X70101976Y-104100500D01*
X70302456Y-104063024D01*
X70492637Y-103989348D01*
X70666041Y-103881981D01*
X70816764Y-103744579D01*
X70939673Y-103581821D01*
X71030582Y-103399250D01*
X71086397Y-103203083D01*
X71105215Y-103000000D01*
X71086397Y-102796917D01*
X71030582Y-102600750D01*
X70939673Y-102418179D01*
X70816764Y-102255421D01*
X70816762Y-102255418D01*
X70666041Y-102118019D01*
X70666039Y-102118017D01*
X70492640Y-102010653D01*
X70492634Y-102010650D01*
X70425767Y-101984746D01*
X70407551Y-101977689D01*
X70364665Y-101949744D01*
X69784209Y-101369289D01*
X69784206Y-101369285D01*
X69784206Y-101369286D01*
X69777139Y-101362219D01*
X69777139Y-101362218D01*
X69637782Y-101222861D01*
X69637781Y-101222860D01*
X69637780Y-101222859D01*
X69473920Y-101113371D01*
X69473911Y-101113366D01*
X69390683Y-101078892D01*
X69345165Y-101060038D01*
X69318500Y-101048993D01*
X69291837Y-101037949D01*
X69291833Y-101037948D01*
X69154605Y-101010652D01*
X69098543Y-100999500D01*
X69098541Y-100999500D01*
X61487031Y-100999500D01*
X61442237Y-100991127D01*
X61391438Y-100971447D01*
X61302456Y-100936976D01*
X61101976Y-100899500D01*
X60898024Y-100899500D01*
X60898020Y-100899500D01*
X60847282Y-100908984D01*
X60777767Y-100901952D01*
X60723090Y-100858453D01*
X60700609Y-100792299D01*
X60700500Y-100787095D01*
X60700500Y-99200097D01*
X60720185Y-99133058D01*
X60736819Y-99112416D01*
X61480519Y-98368716D01*
X62928785Y-96920450D01*
X64849234Y-95000000D01*
X72144815Y-95000000D01*
X72163503Y-95177805D01*
X72163504Y-95177807D01*
X72218747Y-95347829D01*
X72218750Y-95347835D01*
X72308141Y-95502665D01*
X72340372Y-95538461D01*
X72427764Y-95635521D01*
X72427767Y-95635523D01*
X72427770Y-95635526D01*
X72572407Y-95740612D01*
X72735733Y-95813329D01*
X72735734Y-95813329D01*
X72741670Y-95815972D01*
X72740890Y-95817723D01*
X72780822Y-95842190D01*
X73213181Y-96274548D01*
X73246666Y-96335871D01*
X73249500Y-96362229D01*
X73249500Y-98565678D01*
X73232887Y-98627678D01*
X73218750Y-98652163D01*
X73163504Y-98822192D01*
X73163503Y-98822194D01*
X73144815Y-99000000D01*
X73163503Y-99177805D01*
X73163504Y-99177807D01*
X73218747Y-99347829D01*
X73218748Y-99347830D01*
X73218750Y-99347835D01*
X73232887Y-99372322D01*
X73249500Y-99434320D01*
X73249500Y-112565678D01*
X73232887Y-112627678D01*
X73218750Y-112652163D01*
X73163504Y-112822192D01*
X73163503Y-112822194D01*
X73144815Y-113000000D01*
X73163503Y-113177805D01*
X73163504Y-113177807D01*
X73218747Y-113347829D01*
X73218750Y-113347835D01*
X73308141Y-113502665D01*
X73349812Y-113548946D01*
X73427764Y-113635521D01*
X73427767Y-113635523D01*
X73427770Y-113635526D01*
X73572407Y-113740612D01*
X73735733Y-113813329D01*
X73910609Y-113850500D01*
X73910610Y-113850500D01*
X74089389Y-113850500D01*
X74089391Y-113850500D01*
X74264267Y-113813329D01*
X74427593Y-113740612D01*
X74572230Y-113635526D01*
X74572615Y-113635099D01*
X74598148Y-113606741D01*
X74691859Y-113502665D01*
X74781250Y-113347835D01*
X74836497Y-113177803D01*
X74855185Y-113000000D01*
X74836497Y-112822197D01*
X74781250Y-112652165D01*
X74767113Y-112627678D01*
X74750500Y-112565678D01*
X74750500Y-99434320D01*
X74767112Y-99372322D01*
X74781250Y-99347835D01*
X74836497Y-99177803D01*
X74847416Y-99073920D01*
X79249499Y-99073920D01*
X79278340Y-99218907D01*
X79278343Y-99218917D01*
X79334914Y-99355492D01*
X79334915Y-99355494D01*
X79334916Y-99355495D01*
X79346157Y-99372319D01*
X79367812Y-99404727D01*
X79367813Y-99404730D01*
X79417046Y-99478414D01*
X79417052Y-99478421D01*
X82165104Y-102226471D01*
X82195354Y-102275832D01*
X82218750Y-102347835D01*
X82308141Y-102502665D01*
X82349812Y-102548946D01*
X82427764Y-102635521D01*
X82427767Y-102635523D01*
X82427770Y-102635526D01*
X82572407Y-102740612D01*
X82735733Y-102813329D01*
X82910609Y-102850500D01*
X82910610Y-102850500D01*
X83089389Y-102850500D01*
X83089391Y-102850500D01*
X83264267Y-102813329D01*
X83427593Y-102740612D01*
X83572230Y-102635526D01*
X83577355Y-102629835D01*
X83603541Y-102600752D01*
X83691859Y-102502665D01*
X83781250Y-102347835D01*
X83836497Y-102177803D01*
X83855185Y-102000000D01*
X83836497Y-101822197D01*
X83781250Y-101652165D01*
X83691859Y-101497335D01*
X83619568Y-101417048D01*
X83572235Y-101364478D01*
X83572232Y-101364476D01*
X83572231Y-101364475D01*
X83572230Y-101364474D01*
X83427593Y-101259388D01*
X83264267Y-101186671D01*
X83264265Y-101186670D01*
X83258330Y-101184028D01*
X83259106Y-101182284D01*
X83219175Y-101157808D01*
X80786819Y-98725451D01*
X80753334Y-98664128D01*
X80750500Y-98637770D01*
X80750500Y-91000000D01*
X83144815Y-91000000D01*
X83163503Y-91177805D01*
X83163504Y-91177807D01*
X83218747Y-91347829D01*
X83218750Y-91347835D01*
X83308141Y-91502665D01*
X83326461Y-91523011D01*
X83427764Y-91635521D01*
X83427767Y-91635523D01*
X83427770Y-91635526D01*
X83572407Y-91740612D01*
X83735733Y-91813329D01*
X83735734Y-91813329D01*
X83741670Y-91815972D01*
X83740890Y-91817723D01*
X83780822Y-91842190D01*
X91165104Y-99226471D01*
X91195354Y-99275832D01*
X91214701Y-99335376D01*
X91218750Y-99347835D01*
X91308141Y-99502665D01*
X91323954Y-99520227D01*
X91427764Y-99635521D01*
X91427767Y-99635523D01*
X91427770Y-99635526D01*
X91572407Y-99740612D01*
X91735733Y-99813329D01*
X91910609Y-99850500D01*
X91910610Y-99850500D01*
X92089389Y-99850500D01*
X92089391Y-99850500D01*
X92264267Y-99813329D01*
X92427593Y-99740612D01*
X92572230Y-99635526D01*
X92573547Y-99634064D01*
X92606808Y-99597123D01*
X92691859Y-99502665D01*
X92781250Y-99347835D01*
X92836497Y-99177803D01*
X92855185Y-99000000D01*
X92836497Y-98822197D01*
X92798355Y-98704809D01*
X92781252Y-98652170D01*
X92781249Y-98652164D01*
X92691859Y-98497335D01*
X92621756Y-98419478D01*
X92572235Y-98364478D01*
X92572232Y-98364476D01*
X92572231Y-98364475D01*
X92572230Y-98364474D01*
X92430679Y-98261630D01*
X92427596Y-98259390D01*
X92427595Y-98259389D01*
X92427593Y-98259388D01*
X92264267Y-98186671D01*
X92264265Y-98186670D01*
X92258330Y-98184028D01*
X92259106Y-98182284D01*
X92219175Y-98157808D01*
X89808548Y-95747180D01*
X89775063Y-95685857D01*
X89780047Y-95616165D01*
X89821919Y-95560232D01*
X89887383Y-95535815D01*
X89896229Y-95535499D01*
X91135102Y-95535499D01*
X91202141Y-95555184D01*
X91247896Y-95607988D01*
X91258040Y-95643315D01*
X91258198Y-95644506D01*
X91260390Y-95661160D01*
X91278085Y-95795576D01*
X91278086Y-95795576D01*
X91278087Y-95795585D01*
X91279452Y-95805949D01*
X91279453Y-95805952D01*
X91279453Y-95805953D01*
X91338842Y-96027598D01*
X91426650Y-96239587D01*
X91426657Y-96239602D01*
X91489928Y-96349190D01*
X91541389Y-96438323D01*
X91611235Y-96529347D01*
X91681082Y-96620374D01*
X91681086Y-96620379D01*
X94217370Y-99156661D01*
X94308232Y-99247523D01*
X94379627Y-99318918D01*
X94561671Y-99458607D01*
X94561674Y-99458608D01*
X94561677Y-99458611D01*
X94760401Y-99573344D01*
X94760406Y-99573346D01*
X94760412Y-99573349D01*
X94838718Y-99605784D01*
X94972402Y-99661158D01*
X95194050Y-99720548D01*
X95220512Y-99724031D01*
X95220516Y-99724033D01*
X95220517Y-99724032D01*
X95346450Y-99740612D01*
X95421555Y-99750500D01*
X95421562Y-99750500D01*
X98131176Y-99750500D01*
X98131182Y-99750500D01*
X98243673Y-99733543D01*
X98245808Y-99733242D01*
X98342238Y-99720548D01*
X98351382Y-99718097D01*
X98364986Y-99715258D01*
X98390615Y-99711396D01*
X98482495Y-99683054D01*
X98486899Y-99681785D01*
X98563887Y-99661158D01*
X98588877Y-99650805D01*
X98599767Y-99646880D01*
X98641323Y-99634063D01*
X98712136Y-99599960D01*
X98718453Y-99597134D01*
X98775888Y-99573344D01*
X98814538Y-99551028D01*
X98822681Y-99546724D01*
X98877704Y-99520228D01*
X98928166Y-99485822D01*
X98935952Y-99480930D01*
X98974612Y-99458611D01*
X99023951Y-99420750D01*
X99029533Y-99416711D01*
X99094479Y-99372433D01*
X99126362Y-99342848D01*
X99135203Y-99335382D01*
X99156661Y-99318919D01*
X99213014Y-99262564D01*
X99216298Y-99259400D01*
X99286805Y-99193981D01*
X99299703Y-99177807D01*
X99302963Y-99173719D01*
X99312239Y-99163340D01*
X99318919Y-99156661D01*
X99378171Y-99079440D01*
X99379454Y-99077800D01*
X99450386Y-98988857D01*
X99454542Y-98981657D01*
X99454549Y-98981648D01*
X99581507Y-98761750D01*
X99581512Y-98761752D01*
X99581519Y-98761727D01*
X99581568Y-98761643D01*
X99623113Y-98655785D01*
X99623906Y-98653819D01*
X99661158Y-98563887D01*
X99663609Y-98554734D01*
X99667948Y-98541545D01*
X99677420Y-98517416D01*
X99698822Y-98423640D01*
X99699927Y-98419192D01*
X99714589Y-98364478D01*
X99720548Y-98342238D01*
X99724076Y-98315432D01*
X99726125Y-98304025D01*
X99728902Y-98291857D01*
X99735802Y-98261630D01*
X99741676Y-98183227D01*
X99742384Y-98176367D01*
X99750500Y-98114734D01*
X99750500Y-98070129D01*
X99750847Y-98060862D01*
X99755408Y-98000003D01*
X99755408Y-97999996D01*
X99750847Y-97939136D01*
X99750500Y-97929869D01*
X99750500Y-97885271D01*
X99750499Y-97885260D01*
X99742387Y-97823650D01*
X99741673Y-97816727D01*
X99735803Y-97738377D01*
X99735802Y-97738373D01*
X99735802Y-97738370D01*
X99726123Y-97695966D01*
X99724076Y-97684564D01*
X99720548Y-97657762D01*
X99699921Y-97580786D01*
X99698806Y-97576284D01*
X99677422Y-97482590D01*
X99677420Y-97482584D01*
X99667949Y-97458454D01*
X99663609Y-97445262D01*
X99661158Y-97436113D01*
X99623936Y-97346252D01*
X99623073Y-97344110D01*
X99581568Y-97238357D01*
X99573344Y-97224112D01*
X99573343Y-97224110D01*
X99573343Y-97224109D01*
X99456752Y-97022168D01*
X99456744Y-97022156D01*
X99450386Y-97011143D01*
X99379510Y-96922268D01*
X99378088Y-96920450D01*
X99318922Y-96843342D01*
X99318919Y-96843339D01*
X99312223Y-96836643D01*
X99302967Y-96826285D01*
X99286805Y-96806019D01*
X99286804Y-96806018D01*
X99286801Y-96806014D01*
X99216328Y-96740626D01*
X99213014Y-96737434D01*
X99156661Y-96681081D01*
X99156660Y-96681080D01*
X99135204Y-96664616D01*
X99126351Y-96657140D01*
X99107016Y-96639200D01*
X99094479Y-96627567D01*
X99094475Y-96627564D01*
X99029541Y-96583292D01*
X99023906Y-96579214D01*
X98974612Y-96541388D01*
X98935991Y-96519091D01*
X98928141Y-96514158D01*
X98877711Y-96479776D01*
X98877705Y-96479773D01*
X98877706Y-96479773D01*
X98877704Y-96479772D01*
X98822710Y-96453288D01*
X98814515Y-96448956D01*
X98775897Y-96426661D01*
X98775886Y-96426655D01*
X98718469Y-96402871D01*
X98712126Y-96400032D01*
X98641323Y-96365937D01*
X98641324Y-96365937D01*
X98599769Y-96353118D01*
X98588871Y-96349190D01*
X98563895Y-96338845D01*
X98563878Y-96338839D01*
X98486896Y-96318211D01*
X98482442Y-96316928D01*
X98390623Y-96288605D01*
X98381298Y-96287199D01*
X98364984Y-96284740D01*
X98351379Y-96281901D01*
X98342249Y-96279454D01*
X98342236Y-96279451D01*
X98245861Y-96266763D01*
X98243565Y-96266439D01*
X98131187Y-96249500D01*
X98131182Y-96249500D01*
X98114734Y-96249500D01*
X96312731Y-96249500D01*
X96245692Y-96229815D01*
X96225050Y-96213181D01*
X95737278Y-95725409D01*
X95703793Y-95664086D01*
X95708777Y-95594394D01*
X95750649Y-95538461D01*
X95796012Y-95517154D01*
X96015808Y-95464386D01*
X96015809Y-95464386D01*
X96239025Y-95371927D01*
X96437034Y-95250586D01*
X95818103Y-94631656D01*
X95866838Y-94611470D01*
X95979850Y-94535958D01*
X96075958Y-94439850D01*
X96151470Y-94326838D01*
X96171656Y-94278104D01*
X96790586Y-94897034D01*
X96911927Y-94699025D01*
X97004386Y-94475809D01*
X97004386Y-94475808D01*
X97060789Y-94240872D01*
X97079746Y-94000000D01*
X97060789Y-93759127D01*
X97004386Y-93524191D01*
X97004386Y-93524190D01*
X96911927Y-93300972D01*
X96911925Y-93300969D01*
X96790586Y-93102964D01*
X96171656Y-93721895D01*
X96151470Y-93673162D01*
X96075958Y-93560150D01*
X95979850Y-93464042D01*
X95866838Y-93388530D01*
X95818102Y-93368343D01*
X96437034Y-92749412D01*
X96239030Y-92628074D01*
X96239027Y-92628072D01*
X96015808Y-92535613D01*
X95780872Y-92479210D01*
X95540000Y-92460253D01*
X95299127Y-92479210D01*
X95064191Y-92535613D01*
X95064190Y-92535613D01*
X94921952Y-92594530D01*
X94852483Y-92601999D01*
X94790004Y-92570723D01*
X94754352Y-92510634D01*
X94750500Y-92479969D01*
X94750500Y-85976441D01*
X94770185Y-85909402D01*
X94786814Y-85888765D01*
X98213015Y-82462563D01*
X98216300Y-82459398D01*
X98286805Y-82393981D01*
X98302963Y-82373719D01*
X98312239Y-82363340D01*
X98318919Y-82356661D01*
X98378145Y-82279474D01*
X98379477Y-82277771D01*
X98450386Y-82188857D01*
X98458610Y-82174613D01*
X98460475Y-82171384D01*
X98581507Y-81961750D01*
X98581512Y-81961752D01*
X98581519Y-81961727D01*
X98581568Y-81961643D01*
X98623113Y-81855785D01*
X98623906Y-81853819D01*
X98661158Y-81763887D01*
X98663608Y-81754742D01*
X98667955Y-81741531D01*
X98677420Y-81717416D01*
X98698810Y-81623695D01*
X98699926Y-81619197D01*
X98700801Y-81615934D01*
X98720548Y-81542239D01*
X98724076Y-81515432D01*
X98726125Y-81504025D01*
X98728902Y-81491857D01*
X98735802Y-81461630D01*
X98741678Y-81383205D01*
X98742384Y-81376365D01*
X98750499Y-81314734D01*
X98750499Y-81270142D01*
X98750846Y-81260875D01*
X98755408Y-81200003D01*
X98755408Y-81199996D01*
X98750846Y-81139123D01*
X98750499Y-81129856D01*
X98750499Y-81085266D01*
X98750340Y-81084058D01*
X98742385Y-81023640D01*
X98741678Y-81016790D01*
X98735802Y-80938370D01*
X98726120Y-80895955D01*
X98724075Y-80884560D01*
X98720548Y-80857761D01*
X98699921Y-80780784D01*
X98698811Y-80776307D01*
X98688635Y-80731720D01*
X98677424Y-80682599D01*
X98677421Y-80682592D01*
X98677420Y-80682584D01*
X98667952Y-80658460D01*
X98663608Y-80645259D01*
X98661158Y-80636114D01*
X98623940Y-80546262D01*
X98623116Y-80544221D01*
X98581568Y-80438357D01*
X98571889Y-80421593D01*
X98458610Y-80225388D01*
X98450386Y-80211143D01*
X98379457Y-80122202D01*
X98378136Y-80120513D01*
X98318919Y-80043339D01*
X98312223Y-80036643D01*
X98302965Y-80026283D01*
X98286805Y-80006019D01*
X98286804Y-80006018D01*
X98286801Y-80006014D01*
X98216328Y-79940626D01*
X98213014Y-79937434D01*
X98156661Y-79881081D01*
X98156660Y-79881080D01*
X98156659Y-79881079D01*
X98135212Y-79864623D01*
X98126355Y-79857143D01*
X98094482Y-79827569D01*
X98094480Y-79827567D01*
X98056005Y-79801336D01*
X98029535Y-79783288D01*
X98023920Y-79779225D01*
X97974612Y-79741390D01*
X97974609Y-79741388D01*
X97974601Y-79741383D01*
X97935990Y-79719091D01*
X97928138Y-79714157D01*
X97877706Y-79679772D01*
X97877702Y-79679770D01*
X97822704Y-79653284D01*
X97814508Y-79648953D01*
X97775890Y-79626657D01*
X97775886Y-79626655D01*
X97718472Y-79602872D01*
X97712128Y-79600033D01*
X97641333Y-79565941D01*
X97641328Y-79565939D01*
X97641325Y-79565938D01*
X97641323Y-79565937D01*
X97599760Y-79553116D01*
X97588867Y-79549189D01*
X97563902Y-79538848D01*
X97563891Y-79538844D01*
X97563890Y-79538843D01*
X97563886Y-79538842D01*
X97486908Y-79518216D01*
X97482459Y-79516933D01*
X97390623Y-79488606D01*
X97390617Y-79488604D01*
X97390615Y-79488604D01*
X97390611Y-79488603D01*
X97390600Y-79488601D01*
X97364987Y-79484740D01*
X97351385Y-79481902D01*
X97342239Y-79479452D01*
X97282298Y-79471560D01*
X97245894Y-79466768D01*
X97243598Y-79466444D01*
X97131187Y-79449500D01*
X97131182Y-79449500D01*
X96868818Y-79449500D01*
X96868812Y-79449500D01*
X96756408Y-79466443D01*
X96754112Y-79466767D01*
X96685852Y-79475753D01*
X96657761Y-79479452D01*
X96648606Y-79481904D01*
X96635013Y-79484740D01*
X96609382Y-79488604D01*
X96517559Y-79516927D01*
X96513106Y-79518210D01*
X96436122Y-79538839D01*
X96436109Y-79538843D01*
X96418948Y-79545951D01*
X96411124Y-79549192D01*
X96400231Y-79553118D01*
X96358677Y-79565936D01*
X96303227Y-79592639D01*
X96287863Y-79600037D01*
X96281526Y-79602873D01*
X96224118Y-79626653D01*
X96224107Y-79626658D01*
X96185483Y-79648957D01*
X96177290Y-79653287D01*
X96122297Y-79679771D01*
X96122288Y-79679776D01*
X96071856Y-79714160D01*
X96064007Y-79719092D01*
X96025393Y-79741386D01*
X96025379Y-79741395D01*
X95976078Y-79779225D01*
X95970446Y-79783301D01*
X95905521Y-79827566D01*
X95905514Y-79827572D01*
X95873634Y-79857150D01*
X95864793Y-79864616D01*
X95843341Y-79881079D01*
X95787008Y-79937411D01*
X95783671Y-79940625D01*
X95713192Y-80006021D01*
X95713190Y-80006023D01*
X95697033Y-80026283D01*
X95687770Y-80036648D01*
X91681084Y-84043333D01*
X91681078Y-84043340D01*
X91611235Y-84134363D01*
X91594007Y-84156815D01*
X91541385Y-84225392D01*
X91426657Y-84424108D01*
X91426650Y-84424123D01*
X91338842Y-84636112D01*
X91279453Y-84857759D01*
X91279451Y-84857770D01*
X91249500Y-85085258D01*
X91249500Y-92340500D01*
X91229815Y-92407539D01*
X91177011Y-92453294D01*
X91125500Y-92464500D01*
X89377129Y-92464500D01*
X89377123Y-92464501D01*
X89317516Y-92470908D01*
X89182671Y-92521202D01*
X89182664Y-92521206D01*
X89067455Y-92607452D01*
X89067452Y-92607455D01*
X88981206Y-92722664D01*
X88981202Y-92722671D01*
X88930908Y-92857517D01*
X88924501Y-92917116D01*
X88924500Y-92917135D01*
X88924500Y-94563770D01*
X88904815Y-94630809D01*
X88852011Y-94676564D01*
X88782853Y-94686508D01*
X88719297Y-94657483D01*
X88712819Y-94651451D01*
X84834892Y-90773524D01*
X84804642Y-90724160D01*
X84796760Y-90699902D01*
X84781250Y-90652165D01*
X84781248Y-90652161D01*
X84750059Y-90598140D01*
X84691859Y-90497335D01*
X84572235Y-90364478D01*
X84572232Y-90364476D01*
X84572231Y-90364475D01*
X84572230Y-90364474D01*
X84427593Y-90259388D01*
X84264267Y-90186671D01*
X84264265Y-90186670D01*
X84136594Y-90159533D01*
X84089391Y-90149500D01*
X83910609Y-90149500D01*
X83879954Y-90156015D01*
X83735733Y-90186670D01*
X83735728Y-90186672D01*
X83572408Y-90259387D01*
X83427768Y-90364475D01*
X83308140Y-90497336D01*
X83218750Y-90652164D01*
X83218747Y-90652170D01*
X83163504Y-90822192D01*
X83163503Y-90822194D01*
X83144815Y-91000000D01*
X80750500Y-91000000D01*
X80750500Y-80362228D01*
X80770185Y-80295189D01*
X80786814Y-80274552D01*
X82219177Y-78842188D01*
X82259111Y-78817729D01*
X82258329Y-78815972D01*
X82264263Y-78813329D01*
X82264267Y-78813329D01*
X82427593Y-78740612D01*
X82572230Y-78635526D01*
X82691859Y-78502665D01*
X82781250Y-78347835D01*
X82836497Y-78177803D01*
X82855185Y-78000000D01*
X82836497Y-77822197D01*
X82781250Y-77652165D01*
X82691859Y-77497335D01*
X82645003Y-77445296D01*
X82572235Y-77364478D01*
X82572232Y-77364476D01*
X82572231Y-77364475D01*
X82572230Y-77364474D01*
X82427593Y-77259388D01*
X82264267Y-77186671D01*
X82264265Y-77186670D01*
X82136594Y-77159533D01*
X82089391Y-77149500D01*
X81910609Y-77149500D01*
X81899271Y-77151910D01*
X81735733Y-77186670D01*
X81735728Y-77186672D01*
X81572408Y-77259387D01*
X81427768Y-77364475D01*
X81308140Y-77497336D01*
X81218750Y-77652164D01*
X81218749Y-77652166D01*
X81195355Y-77724165D01*
X81165105Y-77773526D01*
X79417047Y-79521584D01*
X79387412Y-79565936D01*
X79387413Y-79565937D01*
X79334913Y-79644508D01*
X79278343Y-79781082D01*
X79278340Y-79781092D01*
X79249500Y-79926079D01*
X79249500Y-79926082D01*
X79249500Y-80926082D01*
X79249500Y-99073918D01*
X79249500Y-99073920D01*
X79249499Y-99073920D01*
X74847416Y-99073920D01*
X74855185Y-99000000D01*
X74836497Y-98822197D01*
X74781250Y-98652165D01*
X74767113Y-98627678D01*
X74750500Y-98565678D01*
X74750500Y-95926081D01*
X74750499Y-95926080D01*
X74739109Y-95868815D01*
X74721659Y-95781088D01*
X74667408Y-95650117D01*
X74665765Y-95645525D01*
X74665084Y-95644505D01*
X74594777Y-95539283D01*
X74594775Y-95539279D01*
X74582957Y-95521591D01*
X74582952Y-95521585D01*
X73834892Y-94773525D01*
X73804643Y-94724163D01*
X73781250Y-94652165D01*
X73781249Y-94652163D01*
X73781248Y-94652160D01*
X73698608Y-94509025D01*
X73691859Y-94497335D01*
X73672476Y-94475808D01*
X73572235Y-94364478D01*
X73572232Y-94364476D01*
X73572231Y-94364475D01*
X73572230Y-94364474D01*
X73427593Y-94259388D01*
X73264267Y-94186671D01*
X73264265Y-94186670D01*
X73136594Y-94159533D01*
X73089391Y-94149500D01*
X72910609Y-94149500D01*
X72879954Y-94156015D01*
X72735733Y-94186670D01*
X72735728Y-94186672D01*
X72572408Y-94259387D01*
X72427768Y-94364475D01*
X72308140Y-94497336D01*
X72218750Y-94652164D01*
X72218747Y-94652170D01*
X72163504Y-94822192D01*
X72163503Y-94822194D01*
X72144815Y-95000000D01*
X64849234Y-95000000D01*
X67358506Y-92490727D01*
X67358511Y-92490724D01*
X67368714Y-92480520D01*
X67368716Y-92480520D01*
X67480520Y-92368716D01*
X67559577Y-92231784D01*
X67600500Y-92079057D01*
X67600500Y-83582412D01*
X67620185Y-83515373D01*
X67627555Y-83505097D01*
X67629810Y-83502267D01*
X67629816Y-83502262D01*
X67725789Y-83349522D01*
X67785368Y-83179255D01*
X67790324Y-83135272D01*
X67805565Y-83000003D01*
X67805565Y-82999996D01*
X67785369Y-82820750D01*
X67785368Y-82820745D01*
X67738255Y-82686105D01*
X67725789Y-82650478D01*
X67629816Y-82497738D01*
X67502262Y-82370184D01*
X67480740Y-82356661D01*
X67349523Y-82274211D01*
X67179254Y-82214631D01*
X67179249Y-82214630D01*
X67000004Y-82194435D01*
X66999996Y-82194435D01*
X66820750Y-82214630D01*
X66820745Y-82214631D01*
X66650476Y-82274211D01*
X66497737Y-82370184D01*
X66370184Y-82497737D01*
X66274211Y-82650476D01*
X66214631Y-82820745D01*
X66214630Y-82820750D01*
X66194435Y-82999996D01*
X66194435Y-83000004D01*
X66201714Y-83064611D01*
X66189659Y-83133433D01*
X66142310Y-83184812D01*
X66074699Y-83202436D01*
X66064611Y-83201714D01*
X66000004Y-83194435D01*
X65999996Y-83194435D01*
X65820750Y-83214630D01*
X65820745Y-83214631D01*
X65650476Y-83274211D01*
X65497737Y-83370184D01*
X65370184Y-83497737D01*
X65274211Y-83650476D01*
X65214631Y-83820745D01*
X65214630Y-83820750D01*
X65194435Y-83999996D01*
X65194435Y-84000003D01*
X65214630Y-84179249D01*
X65214631Y-84179254D01*
X65274211Y-84349523D01*
X65370185Y-84502263D01*
X65372445Y-84505097D01*
X65373334Y-84507275D01*
X65373889Y-84508158D01*
X65373734Y-84508255D01*
X65398855Y-84569783D01*
X65399500Y-84582412D01*
X65399500Y-86062288D01*
X65379815Y-86129327D01*
X65327011Y-86175082D01*
X65257853Y-86185026D01*
X65249720Y-86183578D01*
X65089391Y-86149500D01*
X64910609Y-86149500D01*
X64879954Y-86156015D01*
X64735733Y-86186670D01*
X64618694Y-86238780D01*
X64568259Y-86249500D01*
X55926076Y-86249500D01*
X55897242Y-86255234D01*
X55897243Y-86255235D01*
X55781093Y-86278339D01*
X55781083Y-86278342D01*
X55701081Y-86311479D01*
X55701082Y-86311480D01*
X55701080Y-86311481D01*
X55644505Y-86334916D01*
X55566101Y-86387304D01*
X55521586Y-86417047D01*
X55521582Y-86417050D01*
X54417048Y-87521583D01*
X54396478Y-87552369D01*
X54376045Y-87582951D01*
X54334919Y-87644499D01*
X54334912Y-87644511D01*
X54278343Y-87781082D01*
X54278340Y-87781092D01*
X54249500Y-87926079D01*
X54249500Y-109565678D01*
X54232887Y-109627678D01*
X54218750Y-109652163D01*
X54163504Y-109822192D01*
X54163503Y-109822194D01*
X54144815Y-110000000D01*
X50500500Y-110000000D01*
X50500500Y-77000000D01*
X51437632Y-77000000D01*
X51457095Y-77420970D01*
X51515315Y-77838333D01*
X51515316Y-77838338D01*
X51611796Y-78248548D01*
X51745721Y-78648123D01*
X51745724Y-78648130D01*
X51915927Y-79033603D01*
X51915941Y-79033631D01*
X52120992Y-79401769D01*
X52120996Y-79401776D01*
X52359154Y-79749443D01*
X52359161Y-79749453D01*
X52603156Y-80043286D01*
X52603158Y-80043286D01*
X53918313Y-78728130D01*
X53979860Y-78805307D01*
X54194693Y-79020140D01*
X54271867Y-79081684D01*
X52956712Y-80396840D01*
X52956712Y-80396842D01*
X53250546Y-80640838D01*
X53250556Y-80640845D01*
X53598223Y-80879003D01*
X53598230Y-80879007D01*
X53966368Y-81084058D01*
X53966396Y-81084072D01*
X54351869Y-81254275D01*
X54351876Y-81254278D01*
X54751451Y-81388203D01*
X55161661Y-81484683D01*
X55161666Y-81484684D01*
X55579029Y-81542904D01*
X56000000Y-81562367D01*
X56420970Y-81542904D01*
X56838333Y-81484684D01*
X56838338Y-81484683D01*
X57248548Y-81388203D01*
X57648123Y-81254278D01*
X57648130Y-81254275D01*
X58033603Y-81084072D01*
X58033631Y-81084058D01*
X58401769Y-80879007D01*
X58401776Y-80879003D01*
X58749443Y-80640845D01*
X58749453Y-80640838D01*
X59043286Y-80396842D01*
X59043286Y-80396840D01*
X57728131Y-79081685D01*
X57805307Y-79020140D01*
X58020140Y-78805307D01*
X58081685Y-78728131D01*
X59396840Y-80043286D01*
X59396842Y-80043286D01*
X59640838Y-79749453D01*
X59640845Y-79749443D01*
X59879003Y-79401776D01*
X59879007Y-79401769D01*
X60084058Y-79033631D01*
X60084072Y-79033603D01*
X60254275Y-78648130D01*
X60254278Y-78648123D01*
X60388203Y-78248548D01*
X60484683Y-77838338D01*
X60484684Y-77838333D01*
X60542904Y-77420970D01*
X60562367Y-77000000D01*
X60542904Y-76579029D01*
X60484684Y-76161666D01*
X60484683Y-76161661D01*
X60388203Y-75751451D01*
X60254278Y-75351876D01*
X60254275Y-75351869D01*
X60084072Y-74966396D01*
X60084058Y-74966368D01*
X59879007Y-74598230D01*
X59879003Y-74598223D01*
X59640845Y-74250556D01*
X59640838Y-74250546D01*
X59396842Y-73956712D01*
X59396840Y-73956712D01*
X58081684Y-75271867D01*
X58020140Y-75194693D01*
X57805307Y-74979860D01*
X57728130Y-74918313D01*
X59043286Y-73603158D01*
X59043286Y-73603156D01*
X58749453Y-73359161D01*
X58749443Y-73359154D01*
X58401776Y-73120996D01*
X58401769Y-73120992D01*
X58033631Y-72915941D01*
X58033603Y-72915927D01*
X57648130Y-72745724D01*
X57648123Y-72745721D01*
X57248548Y-72611796D01*
X56838338Y-72515316D01*
X56838333Y-72515315D01*
X56420970Y-72457095D01*
X56000000Y-72437632D01*
X55579029Y-72457095D01*
X55161666Y-72515315D01*
X55161661Y-72515316D01*
X54751451Y-72611796D01*
X54351876Y-72745721D01*
X54351869Y-72745724D01*
X53966396Y-72915927D01*
X53966368Y-72915941D01*
X53598230Y-73120992D01*
X53598223Y-73120996D01*
X53250558Y-73359152D01*
X52956712Y-73603158D01*
X54271868Y-74918314D01*
X54194693Y-74979860D01*
X53979860Y-75194693D01*
X53918314Y-75271868D01*
X52603158Y-73956712D01*
X52359152Y-74250558D01*
X52120996Y-74598223D01*
X52120992Y-74598230D01*
X51915941Y-74966368D01*
X51915927Y-74966396D01*
X51745724Y-75351869D01*
X51745721Y-75351876D01*
X51611796Y-75751451D01*
X51515316Y-76161661D01*
X51515315Y-76161666D01*
X51457095Y-76579029D01*
X51437632Y-77000000D01*
X50500500Y-77000000D01*
X50500500Y-71234995D01*
X63244592Y-71234995D01*
X63244592Y-71235004D01*
X63264196Y-71496620D01*
X63264197Y-71496625D01*
X63322576Y-71752402D01*
X63322578Y-71752411D01*
X63322580Y-71752416D01*
X63418432Y-71996643D01*
X63549614Y-72223857D01*
X63599138Y-72285958D01*
X63713198Y-72428985D01*
X63799713Y-72509258D01*
X63905521Y-72607433D01*
X64122296Y-72755228D01*
X64122301Y-72755230D01*
X64122302Y-72755231D01*
X64122303Y-72755232D01*
X64247843Y-72815688D01*
X64358673Y-72869061D01*
X64358674Y-72869061D01*
X64358677Y-72869063D01*
X64456120Y-72899120D01*
X64609750Y-72946509D01*
X64668009Y-72985080D01*
X64696167Y-73049024D01*
X64685283Y-73118041D01*
X64638814Y-73170218D01*
X64609750Y-73183491D01*
X64358673Y-73260938D01*
X64122303Y-73374767D01*
X64122302Y-73374768D01*
X63905520Y-73522567D01*
X63713198Y-73701014D01*
X63549614Y-73906143D01*
X63418432Y-74133356D01*
X63322582Y-74377578D01*
X63322576Y-74377597D01*
X63264197Y-74633374D01*
X63264196Y-74633379D01*
X63244592Y-74894995D01*
X63244592Y-74895004D01*
X63264196Y-75156620D01*
X63264197Y-75156625D01*
X63322576Y-75412402D01*
X63322578Y-75412411D01*
X63322580Y-75412416D01*
X63418432Y-75656643D01*
X63549614Y-75883857D01*
X63612896Y-75963210D01*
X63713198Y-76088985D01*
X63886711Y-76249980D01*
X63905521Y-76267433D01*
X64122296Y-76415228D01*
X64122301Y-76415230D01*
X64122302Y-76415231D01*
X64122303Y-76415232D01*
X64247843Y-76475688D01*
X64358673Y-76529061D01*
X64358674Y-76529061D01*
X64358677Y-76529063D01*
X64609385Y-76606396D01*
X64868818Y-76645500D01*
X65131182Y-76645500D01*
X65390615Y-76606396D01*
X65641323Y-76529063D01*
X65877704Y-76415228D01*
X66094479Y-76267433D01*
X66286805Y-76088981D01*
X66450386Y-75883857D01*
X66581568Y-75656643D01*
X66677420Y-75412416D01*
X66735802Y-75156630D01*
X66755408Y-74895000D01*
X66735802Y-74633370D01*
X66677420Y-74377584D01*
X66581568Y-74133357D01*
X66450386Y-73906143D01*
X66286805Y-73701019D01*
X66286804Y-73701018D01*
X66286801Y-73701014D01*
X66094479Y-73522567D01*
X66019076Y-73471158D01*
X65877704Y-73374772D01*
X65877700Y-73374770D01*
X65877697Y-73374768D01*
X65877696Y-73374767D01*
X65641325Y-73260938D01*
X65641327Y-73260938D01*
X65390249Y-73183491D01*
X65331990Y-73144921D01*
X65303832Y-73080976D01*
X65314716Y-73011959D01*
X65361185Y-72959782D01*
X65390249Y-72946509D01*
X65412444Y-72939662D01*
X65641323Y-72869063D01*
X65877704Y-72755228D01*
X66094479Y-72607433D01*
X66256505Y-72457095D01*
X66286801Y-72428985D01*
X66286801Y-72428983D01*
X66286805Y-72428981D01*
X66450386Y-72223857D01*
X66581568Y-71996643D01*
X66677420Y-71752416D01*
X66735802Y-71496630D01*
X66747986Y-71334041D01*
X66755408Y-71235004D01*
X66755408Y-71234995D01*
X66735803Y-70973379D01*
X66735802Y-70973374D01*
X66735802Y-70973370D01*
X66677420Y-70717584D01*
X66581568Y-70473357D01*
X66450386Y-70246143D01*
X66286805Y-70041019D01*
X66286804Y-70041018D01*
X66286801Y-70041014D01*
X66094479Y-69862567D01*
X65877704Y-69714772D01*
X65877700Y-69714770D01*
X65877697Y-69714768D01*
X65877696Y-69714767D01*
X65641325Y-69600938D01*
X65641327Y-69600938D01*
X65390623Y-69523606D01*
X65390619Y-69523605D01*
X65390615Y-69523604D01*
X65265823Y-69504794D01*
X65131187Y-69484500D01*
X65131182Y-69484500D01*
X64868818Y-69484500D01*
X64868812Y-69484500D01*
X64707247Y-69508853D01*
X64609385Y-69523604D01*
X64609382Y-69523605D01*
X64609376Y-69523606D01*
X64358673Y-69600938D01*
X64122303Y-69714767D01*
X64122302Y-69714768D01*
X63905520Y-69862567D01*
X63713198Y-70041014D01*
X63549614Y-70246143D01*
X63418432Y-70473356D01*
X63322582Y-70717578D01*
X63322576Y-70717597D01*
X63264197Y-70973374D01*
X63264196Y-70973379D01*
X63244592Y-71234995D01*
X50500500Y-71234995D01*
X50500500Y-66000000D01*
X51437131Y-66000000D01*
X51456595Y-66421008D01*
X51456595Y-66421014D01*
X51456596Y-66421016D01*
X51514823Y-66838424D01*
X51514824Y-66838430D01*
X51611315Y-67248685D01*
X51745248Y-67648292D01*
X51745255Y-67648310D01*
X51915478Y-68033827D01*
X51915483Y-68033837D01*
X51915487Y-68033846D01*
X51915491Y-68033854D01*
X51915492Y-68033855D01*
X52120566Y-68402033D01*
X52120570Y-68402040D01*
X52120571Y-68402041D01*
X52358752Y-68749743D01*
X52358754Y-68749745D01*
X52358761Y-68749755D01*
X52627989Y-69073973D01*
X52627999Y-69073985D01*
X52926015Y-69372001D01*
X52926026Y-69372010D01*
X53250244Y-69641238D01*
X53250250Y-69641242D01*
X53250257Y-69641248D01*
X53597959Y-69879429D01*
X53966154Y-70084513D01*
X53966171Y-70084520D01*
X53966172Y-70084521D01*
X54351689Y-70254744D01*
X54351707Y-70254751D01*
X54481966Y-70298409D01*
X54751312Y-70388684D01*
X55161575Y-70485177D01*
X55578992Y-70543405D01*
X56000000Y-70562869D01*
X56421008Y-70543405D01*
X56838425Y-70485177D01*
X57248688Y-70388684D01*
X57648298Y-70254749D01*
X57648304Y-70254746D01*
X57648310Y-70254744D01*
X57815622Y-70180868D01*
X58033846Y-70084513D01*
X58402041Y-69879429D01*
X58749743Y-69641248D01*
X59073985Y-69372001D01*
X59372001Y-69073985D01*
X59641248Y-68749743D01*
X59879429Y-68402041D01*
X60084513Y-68033846D01*
X60254749Y-67648298D01*
X60388684Y-67248688D01*
X60485177Y-66838425D01*
X60543405Y-66421008D01*
X60562869Y-66000000D01*
X60543405Y-65578992D01*
X60485177Y-65161575D01*
X60388684Y-64751312D01*
X60254749Y-64351702D01*
X60254744Y-64351689D01*
X60084521Y-63966172D01*
X60084520Y-63966171D01*
X60084513Y-63966154D01*
X59879429Y-63597959D01*
X59641248Y-63250257D01*
X59641242Y-63250250D01*
X59641238Y-63250244D01*
X59520624Y-63104995D01*
X63244592Y-63104995D01*
X63244592Y-63105004D01*
X63264196Y-63366620D01*
X63264197Y-63366625D01*
X63322576Y-63622402D01*
X63322578Y-63622411D01*
X63322580Y-63622416D01*
X63418432Y-63866643D01*
X63549614Y-64093857D01*
X63681736Y-64259533D01*
X63713198Y-64298985D01*
X63894753Y-64467441D01*
X63905521Y-64477433D01*
X64122296Y-64625228D01*
X64122301Y-64625230D01*
X64122302Y-64625231D01*
X64122303Y-64625232D01*
X64247843Y-64685688D01*
X64358673Y-64739061D01*
X64358674Y-64739061D01*
X64358677Y-64739063D01*
X64490707Y-64779788D01*
X64609750Y-64816509D01*
X64668009Y-64855080D01*
X64696167Y-64919024D01*
X64685283Y-64988041D01*
X64638814Y-65040218D01*
X64609750Y-65053491D01*
X64358673Y-65130938D01*
X64122303Y-65244767D01*
X64122302Y-65244768D01*
X63905520Y-65392567D01*
X63713198Y-65571014D01*
X63549614Y-65776143D01*
X63418432Y-66003356D01*
X63322582Y-66247578D01*
X63322576Y-66247597D01*
X63264197Y-66503374D01*
X63264196Y-66503379D01*
X63244592Y-66764995D01*
X63244592Y-66765004D01*
X63264196Y-67026620D01*
X63264197Y-67026625D01*
X63322576Y-67282402D01*
X63322578Y-67282411D01*
X63322580Y-67282416D01*
X63418432Y-67526643D01*
X63549614Y-67753857D01*
X63681736Y-67919533D01*
X63713198Y-67958985D01*
X63894753Y-68127441D01*
X63905521Y-68137433D01*
X64122296Y-68285228D01*
X64122301Y-68285230D01*
X64122302Y-68285231D01*
X64122303Y-68285232D01*
X64247843Y-68345688D01*
X64358673Y-68399061D01*
X64358674Y-68399061D01*
X64358677Y-68399063D01*
X64609385Y-68476396D01*
X64868818Y-68515500D01*
X65131182Y-68515500D01*
X65390615Y-68476396D01*
X65641323Y-68399063D01*
X65877704Y-68285228D01*
X66094479Y-68137433D01*
X66286805Y-67958981D01*
X66450386Y-67753857D01*
X66581568Y-67526643D01*
X66677420Y-67282416D01*
X66735802Y-67026630D01*
X66735803Y-67026620D01*
X66755408Y-66765004D01*
X66755408Y-66764995D01*
X66735803Y-66503379D01*
X66735802Y-66503374D01*
X66735802Y-66503370D01*
X66677420Y-66247584D01*
X66581568Y-66003357D01*
X66450386Y-65776143D01*
X66286805Y-65571019D01*
X66286804Y-65571018D01*
X66286801Y-65571014D01*
X66094479Y-65392567D01*
X65877704Y-65244772D01*
X65877700Y-65244770D01*
X65877697Y-65244768D01*
X65877696Y-65244767D01*
X65641325Y-65130938D01*
X65641327Y-65130938D01*
X65390249Y-65053491D01*
X65331990Y-65014921D01*
X65303832Y-64950976D01*
X65314716Y-64881959D01*
X65361185Y-64829782D01*
X65390249Y-64816509D01*
X65412444Y-64809662D01*
X65641323Y-64739063D01*
X65877704Y-64625228D01*
X66094479Y-64477433D01*
X66286805Y-64298981D01*
X66450386Y-64093857D01*
X66581568Y-63866643D01*
X66677420Y-63622416D01*
X66735802Y-63366630D01*
X66755408Y-63105000D01*
X66741995Y-62926015D01*
X66735803Y-62843379D01*
X66735802Y-62843374D01*
X66735802Y-62843370D01*
X66677420Y-62587584D01*
X66581568Y-62343357D01*
X66450386Y-62116143D01*
X66286805Y-61911019D01*
X66286804Y-61911018D01*
X66286801Y-61911014D01*
X66094479Y-61732567D01*
X66074552Y-61718981D01*
X65877704Y-61584772D01*
X65877700Y-61584770D01*
X65877697Y-61584768D01*
X65877696Y-61584767D01*
X65641325Y-61470938D01*
X65641327Y-61470938D01*
X65390623Y-61393606D01*
X65390619Y-61393605D01*
X65390615Y-61393604D01*
X65265823Y-61374794D01*
X65131187Y-61354500D01*
X65131182Y-61354500D01*
X64868818Y-61354500D01*
X64868812Y-61354500D01*
X64707247Y-61378853D01*
X64609385Y-61393604D01*
X64609382Y-61393605D01*
X64609376Y-61393606D01*
X64358673Y-61470938D01*
X64122303Y-61584767D01*
X64122302Y-61584768D01*
X63905520Y-61732567D01*
X63713198Y-61911014D01*
X63549614Y-62116143D01*
X63418432Y-62343356D01*
X63322582Y-62587578D01*
X63322576Y-62587597D01*
X63264197Y-62843374D01*
X63264196Y-62843379D01*
X63244592Y-63104995D01*
X59520624Y-63104995D01*
X59372010Y-62926026D01*
X59372001Y-62926015D01*
X59073985Y-62627999D01*
X59025308Y-62587578D01*
X58749755Y-62358761D01*
X58749745Y-62358754D01*
X58749743Y-62358752D01*
X58482674Y-62175806D01*
X58402040Y-62120570D01*
X58402033Y-62120566D01*
X58033855Y-61915492D01*
X58033854Y-61915491D01*
X58033846Y-61915487D01*
X58033837Y-61915483D01*
X58033827Y-61915478D01*
X57648310Y-61745255D01*
X57648292Y-61745248D01*
X57248685Y-61611315D01*
X56838430Y-61514824D01*
X56838427Y-61514823D01*
X56838425Y-61514823D01*
X56610498Y-61483028D01*
X56421016Y-61456596D01*
X56421014Y-61456595D01*
X56421008Y-61456595D01*
X56000000Y-61437131D01*
X55578992Y-61456595D01*
X55578985Y-61456595D01*
X55578983Y-61456596D01*
X55161575Y-61514823D01*
X55161569Y-61514824D01*
X54751314Y-61611315D01*
X54351707Y-61745248D01*
X54351689Y-61745255D01*
X53966172Y-61915478D01*
X53966144Y-61915492D01*
X53597966Y-62120566D01*
X53597959Y-62120570D01*
X53250254Y-62358754D01*
X53250244Y-62358761D01*
X52926026Y-62627989D01*
X52926006Y-62628007D01*
X52628007Y-62926006D01*
X52627989Y-62926026D01*
X52358761Y-63250244D01*
X52358754Y-63250254D01*
X52120570Y-63597959D01*
X52120566Y-63597966D01*
X51915492Y-63966144D01*
X51915478Y-63966172D01*
X51745255Y-64351689D01*
X51745248Y-64351707D01*
X51611315Y-64751314D01*
X51514824Y-65161569D01*
X51514823Y-65161575D01*
X51482601Y-65392567D01*
X51456595Y-65578992D01*
X51437131Y-66000000D01*
X50500500Y-66000000D01*
X50500500Y-60524996D01*
X85769592Y-60524996D01*
X85769592Y-60525003D01*
X85774153Y-60585862D01*
X85774500Y-60595129D01*
X85774500Y-60639727D01*
X85774501Y-60639746D01*
X85782610Y-60701344D01*
X85783324Y-60708261D01*
X85789196Y-60786621D01*
X85789197Y-60786628D01*
X85798875Y-60829030D01*
X85800923Y-60840434D01*
X85804452Y-60867239D01*
X85825073Y-60944201D01*
X85826189Y-60948700D01*
X85847578Y-61042409D01*
X85847580Y-61042416D01*
X85857045Y-61066532D01*
X85861392Y-61079742D01*
X85863842Y-61088886D01*
X85863847Y-61088902D01*
X85901043Y-61178701D01*
X85901910Y-61180850D01*
X85943431Y-61286641D01*
X85943433Y-61286645D01*
X85948522Y-61295460D01*
X85948524Y-61295464D01*
X86049834Y-61470938D01*
X86066389Y-61499612D01*
X86066391Y-61499615D01*
X86074614Y-61513857D01*
X86075385Y-61514824D01*
X86145481Y-61602721D01*
X86146910Y-61604548D01*
X86206077Y-61681657D01*
X86206080Y-61681660D01*
X86206081Y-61681661D01*
X86212773Y-61688353D01*
X86222036Y-61698718D01*
X86238197Y-61718983D01*
X86308670Y-61784373D01*
X86311984Y-61787564D01*
X86368339Y-61843919D01*
X86389795Y-61860382D01*
X86398638Y-61867850D01*
X86430521Y-61897433D01*
X86457002Y-61915487D01*
X86495448Y-61941699D01*
X86501063Y-61945762D01*
X86550388Y-61983611D01*
X86589019Y-62005914D01*
X86596870Y-62010847D01*
X86647296Y-62045228D01*
X86702297Y-62071715D01*
X86710485Y-62076043D01*
X86749099Y-62098337D01*
X86749102Y-62098338D01*
X86749112Y-62098344D01*
X86806553Y-62122137D01*
X86812864Y-62124961D01*
X86883677Y-62159063D01*
X86925224Y-62171878D01*
X86936118Y-62175804D01*
X86961113Y-62186158D01*
X87038099Y-62206785D01*
X87042517Y-62208058D01*
X87134385Y-62236396D01*
X87160011Y-62240258D01*
X87173605Y-62243094D01*
X87182762Y-62245548D01*
X87279174Y-62258240D01*
X87281354Y-62258547D01*
X87393818Y-62275500D01*
X87410266Y-62275500D01*
X92125500Y-62275500D01*
X92192539Y-62295185D01*
X92238294Y-62347989D01*
X92249500Y-62399500D01*
X92249500Y-70150500D01*
X92229815Y-70217539D01*
X92177011Y-70263294D01*
X92125500Y-70274500D01*
X90377129Y-70274500D01*
X90377123Y-70274501D01*
X90317516Y-70280908D01*
X90182671Y-70331202D01*
X90182664Y-70331206D01*
X90067455Y-70417452D01*
X90067452Y-70417455D01*
X89981206Y-70532664D01*
X89981202Y-70532671D01*
X89930908Y-70667517D01*
X89924501Y-70727116D01*
X89924500Y-70727135D01*
X89924500Y-72892870D01*
X89924501Y-72892876D01*
X89930908Y-72952483D01*
X89981202Y-73087328D01*
X89981206Y-73087335D01*
X90067452Y-73202544D01*
X90067455Y-73202547D01*
X90182664Y-73288793D01*
X90182671Y-73288797D01*
X90317517Y-73339091D01*
X90317516Y-73339091D01*
X90324444Y-73339835D01*
X90377127Y-73345500D01*
X92542872Y-73345499D01*
X92602483Y-73339091D01*
X92737331Y-73288796D01*
X92821219Y-73225997D01*
X92886681Y-73201580D01*
X92954954Y-73216431D01*
X92971006Y-73226881D01*
X93025388Y-73268611D01*
X93133943Y-73331285D01*
X93224108Y-73383342D01*
X93224123Y-73383349D01*
X93315480Y-73421190D01*
X93436113Y-73471158D01*
X93657762Y-73530548D01*
X93885266Y-73560500D01*
X93885273Y-73560500D01*
X94114727Y-73560500D01*
X94114734Y-73560500D01*
X94342238Y-73530548D01*
X94563887Y-73471158D01*
X94775888Y-73383344D01*
X94974612Y-73268611D01*
X95156661Y-73128919D01*
X95156665Y-73128914D01*
X95156670Y-73128911D01*
X95318914Y-72966666D01*
X95318919Y-72966661D01*
X95322919Y-72961447D01*
X95379343Y-72920241D01*
X95449089Y-72916081D01*
X95501831Y-72942637D01*
X95634661Y-73056084D01*
X95634669Y-73056090D01*
X95840741Y-73182371D01*
X95889451Y-73202547D01*
X96064037Y-73274863D01*
X96299052Y-73331285D01*
X96540000Y-73350248D01*
X96780948Y-73331285D01*
X97015963Y-73274863D01*
X97239258Y-73182371D01*
X97445335Y-73056087D01*
X97629120Y-72899120D01*
X97786087Y-72715335D01*
X97912371Y-72509258D01*
X98004863Y-72285963D01*
X98061285Y-72050948D01*
X98080248Y-71810000D01*
X98061285Y-71569052D01*
X98004863Y-71334037D01*
X97912371Y-71110742D01*
X97912371Y-71110741D01*
X97786090Y-70904669D01*
X97786089Y-70904667D01*
X97750627Y-70863147D01*
X97629120Y-70720880D01*
X97507611Y-70617101D01*
X97445332Y-70563910D01*
X97445330Y-70563909D01*
X97239258Y-70437628D01*
X97015958Y-70345135D01*
X96780944Y-70288714D01*
X96780945Y-70288714D01*
X96540000Y-70269752D01*
X96299054Y-70288714D01*
X96064039Y-70345135D01*
X95921952Y-70403990D01*
X95852483Y-70411459D01*
X95790004Y-70380184D01*
X95754352Y-70320095D01*
X95750500Y-70289429D01*
X95750500Y-60935272D01*
X95750499Y-60935258D01*
X95743917Y-60885266D01*
X95720548Y-60707762D01*
X95707150Y-60657761D01*
X95680176Y-60557092D01*
X95680176Y-60492908D01*
X95720548Y-60342239D01*
X95750499Y-60114734D01*
X95750499Y-59885266D01*
X95720548Y-59657761D01*
X95661158Y-59436114D01*
X95633083Y-59368336D01*
X95589890Y-59264057D01*
X95573344Y-59224112D01*
X95458610Y-59025388D01*
X95458605Y-59025382D01*
X95458603Y-59025378D01*
X95318921Y-58843340D01*
X95318915Y-58843333D01*
X95156666Y-58681084D01*
X95156659Y-58681078D01*
X95050990Y-58599996D01*
X104244592Y-58599996D01*
X104244592Y-58600003D01*
X104249153Y-58660862D01*
X104249500Y-58670129D01*
X104249500Y-58714727D01*
X104249501Y-58714746D01*
X104257610Y-58776344D01*
X104258324Y-58783261D01*
X104264196Y-58861621D01*
X104264197Y-58861628D01*
X104273875Y-58904030D01*
X104275923Y-58915434D01*
X104279452Y-58942239D01*
X104300073Y-59019201D01*
X104301189Y-59023700D01*
X104322578Y-59117409D01*
X104322580Y-59117416D01*
X104332045Y-59141532D01*
X104336392Y-59154742D01*
X104338842Y-59163886D01*
X104338847Y-59163902D01*
X104376043Y-59253701D01*
X104376910Y-59255850D01*
X104380747Y-59265625D01*
X104416501Y-59356724D01*
X104418431Y-59361640D01*
X104418433Y-59361645D01*
X104423522Y-59370460D01*
X104423524Y-59370464D01*
X104519175Y-59536136D01*
X104541389Y-59574612D01*
X104541391Y-59574615D01*
X104549614Y-59588857D01*
X104549615Y-59588858D01*
X104620481Y-59677721D01*
X104621910Y-59679548D01*
X104681077Y-59756657D01*
X104681080Y-59756660D01*
X104681081Y-59756661D01*
X104687773Y-59763353D01*
X104697036Y-59773718D01*
X104713197Y-59793983D01*
X104783670Y-59859373D01*
X104786984Y-59862564D01*
X104843339Y-59918919D01*
X104864795Y-59935382D01*
X104873638Y-59942850D01*
X104905521Y-59972433D01*
X104970448Y-60016699D01*
X104976063Y-60020762D01*
X105025388Y-60058611D01*
X105064019Y-60080914D01*
X105071870Y-60085847D01*
X105122296Y-60120228D01*
X105177297Y-60146715D01*
X105185485Y-60151043D01*
X105224099Y-60173337D01*
X105224102Y-60173338D01*
X105224112Y-60173344D01*
X105281553Y-60197137D01*
X105287864Y-60199961D01*
X105358677Y-60234063D01*
X105400224Y-60246878D01*
X105411118Y-60250804D01*
X105436113Y-60261158D01*
X105513099Y-60281785D01*
X105517517Y-60283058D01*
X105609385Y-60311396D01*
X105635011Y-60315258D01*
X105648605Y-60318094D01*
X105657762Y-60320548D01*
X105754174Y-60333240D01*
X105756354Y-60333547D01*
X105868818Y-60350500D01*
X105885266Y-60350500D01*
X107823557Y-60350500D01*
X107890596Y-60370185D01*
X107911238Y-60386819D01*
X109213181Y-61688762D01*
X109246666Y-61750085D01*
X109249500Y-61776443D01*
X109249500Y-70150500D01*
X109229815Y-70217539D01*
X109177011Y-70263294D01*
X109125500Y-70274500D01*
X107377129Y-70274500D01*
X107377123Y-70274501D01*
X107317516Y-70280908D01*
X107182671Y-70331202D01*
X107182664Y-70331206D01*
X107067455Y-70417452D01*
X107067452Y-70417455D01*
X106981206Y-70532664D01*
X106981202Y-70532671D01*
X106930908Y-70667517D01*
X106924501Y-70727116D01*
X106924500Y-70727135D01*
X106924500Y-72892870D01*
X106924501Y-72892876D01*
X106930908Y-72952483D01*
X106981202Y-73087328D01*
X106981206Y-73087335D01*
X107067452Y-73202544D01*
X107067455Y-73202547D01*
X107182664Y-73288793D01*
X107182671Y-73288797D01*
X107317517Y-73339091D01*
X107317516Y-73339091D01*
X107324444Y-73339835D01*
X107377127Y-73345500D01*
X109542872Y-73345499D01*
X109602483Y-73339091D01*
X109737331Y-73288796D01*
X109821219Y-73225997D01*
X109886681Y-73201580D01*
X109954954Y-73216431D01*
X109971006Y-73226881D01*
X110025388Y-73268611D01*
X110133943Y-73331285D01*
X110224108Y-73383342D01*
X110224123Y-73383349D01*
X110315480Y-73421190D01*
X110436113Y-73471158D01*
X110657762Y-73530548D01*
X110885266Y-73560500D01*
X110885273Y-73560500D01*
X111114727Y-73560500D01*
X111114734Y-73560500D01*
X111342238Y-73530548D01*
X111563887Y-73471158D01*
X111775888Y-73383344D01*
X111974612Y-73268611D01*
X112156661Y-73128919D01*
X112156665Y-73128914D01*
X112156670Y-73128911D01*
X112318914Y-72966666D01*
X112318919Y-72966661D01*
X112322919Y-72961447D01*
X112379343Y-72920241D01*
X112449089Y-72916081D01*
X112501831Y-72942637D01*
X112634661Y-73056084D01*
X112634669Y-73056090D01*
X112840741Y-73182371D01*
X112889451Y-73202547D01*
X113064037Y-73274863D01*
X113299052Y-73331285D01*
X113540000Y-73350248D01*
X113780948Y-73331285D01*
X114015963Y-73274863D01*
X114239258Y-73182371D01*
X114445335Y-73056087D01*
X114629120Y-72899120D01*
X114786087Y-72715335D01*
X114912371Y-72509258D01*
X115004863Y-72285963D01*
X115061285Y-72050948D01*
X115080248Y-71810000D01*
X115061285Y-71569052D01*
X115004863Y-71334037D01*
X114912371Y-71110742D01*
X114912371Y-71110741D01*
X114786090Y-70904669D01*
X114786089Y-70904667D01*
X114750627Y-70863147D01*
X114629120Y-70720880D01*
X114507611Y-70617101D01*
X114445332Y-70563910D01*
X114445330Y-70563909D01*
X114239258Y-70437628D01*
X114015958Y-70345135D01*
X113780944Y-70288714D01*
X113780945Y-70288714D01*
X113540000Y-70269752D01*
X113299054Y-70288714D01*
X113064039Y-70345135D01*
X112921952Y-70403990D01*
X112852483Y-70411459D01*
X112790004Y-70380184D01*
X112754352Y-70320095D01*
X112750500Y-70289429D01*
X112750500Y-67517135D01*
X134964500Y-67517135D01*
X134964500Y-72682870D01*
X134964501Y-72682876D01*
X134970908Y-72742483D01*
X135021202Y-72877328D01*
X135021206Y-72877335D01*
X135107452Y-72992544D01*
X135107455Y-72992547D01*
X135222664Y-73078793D01*
X135222671Y-73078797D01*
X135357517Y-73129091D01*
X135357516Y-73129091D01*
X135364444Y-73129835D01*
X135417127Y-73135500D01*
X140582872Y-73135499D01*
X140642483Y-73129091D01*
X140777331Y-73078796D01*
X140892546Y-72992546D01*
X140978796Y-72877331D01*
X141029091Y-72742483D01*
X141035500Y-72682873D01*
X141035499Y-67517128D01*
X141029091Y-67457517D01*
X140978796Y-67322669D01*
X140978795Y-67322668D01*
X140978793Y-67322664D01*
X140892547Y-67207455D01*
X140892544Y-67207452D01*
X140777335Y-67121206D01*
X140777328Y-67121202D01*
X140642482Y-67070908D01*
X140642483Y-67070908D01*
X140582883Y-67064501D01*
X140582881Y-67064500D01*
X140582873Y-67064500D01*
X140582864Y-67064500D01*
X135417129Y-67064500D01*
X135417123Y-67064501D01*
X135357516Y-67070908D01*
X135222671Y-67121202D01*
X135222664Y-67121206D01*
X135107455Y-67207452D01*
X135107452Y-67207455D01*
X135021206Y-67322664D01*
X135021202Y-67322671D01*
X134970908Y-67457517D01*
X134964501Y-67517116D01*
X134964501Y-67517123D01*
X134964500Y-67517135D01*
X112750500Y-67517135D01*
X112750500Y-60885270D01*
X112750499Y-60885261D01*
X112747378Y-60861556D01*
X112747378Y-60861555D01*
X112747377Y-60861552D01*
X112737514Y-60786630D01*
X112720549Y-60657761D01*
X112661158Y-60436114D01*
X112650451Y-60410266D01*
X112613289Y-60320548D01*
X112573345Y-60224113D01*
X112549474Y-60182768D01*
X112539259Y-60165075D01*
X112539258Y-60165074D01*
X112458611Y-60025388D01*
X112458610Y-60025386D01*
X112351093Y-59885267D01*
X112351089Y-59885264D01*
X112340335Y-59871249D01*
X112318920Y-59843339D01*
X112318918Y-59843337D01*
X112318915Y-59843333D01*
X109756668Y-57281086D01*
X109756663Y-57281082D01*
X109756662Y-57281081D01*
X109756661Y-57281080D01*
X109665636Y-57211235D01*
X109665635Y-57211234D01*
X109574622Y-57141396D01*
X109574616Y-57141392D01*
X109574612Y-57141389D01*
X109527436Y-57114152D01*
X109375891Y-57026657D01*
X109375876Y-57026650D01*
X109163887Y-56938842D01*
X109163883Y-56938841D01*
X108942239Y-56879452D01*
X108942233Y-56879451D01*
X108942232Y-56879451D01*
X108932362Y-56878151D01*
X108915771Y-56875967D01*
X108915770Y-56875966D01*
X108714744Y-56849501D01*
X108714739Y-56849500D01*
X108714734Y-56849500D01*
X106131182Y-56849500D01*
X105868818Y-56849500D01*
X105868810Y-56849500D01*
X105756432Y-56866439D01*
X105754138Y-56866763D01*
X105657757Y-56879452D01*
X105657755Y-56879453D01*
X105648620Y-56881901D01*
X105635014Y-56884740D01*
X105609385Y-56888603D01*
X105609377Y-56888605D01*
X105517556Y-56916928D01*
X105513103Y-56918211D01*
X105436113Y-56938841D01*
X105416884Y-56946806D01*
X105411124Y-56949192D01*
X105400231Y-56953118D01*
X105358677Y-56965936D01*
X105303227Y-56992639D01*
X105287863Y-57000037D01*
X105281526Y-57002873D01*
X105224118Y-57026653D01*
X105224102Y-57026661D01*
X105185494Y-57048951D01*
X105177299Y-57053282D01*
X105122301Y-57079768D01*
X105122299Y-57079769D01*
X105071867Y-57114152D01*
X105064022Y-57119082D01*
X105025393Y-57141386D01*
X105025380Y-57141394D01*
X104976076Y-57179226D01*
X104970444Y-57183301D01*
X104905522Y-57227565D01*
X104873643Y-57257144D01*
X104864793Y-57264617D01*
X104843341Y-57281078D01*
X104787009Y-57337410D01*
X104783671Y-57340625D01*
X104713194Y-57406019D01*
X104697032Y-57426285D01*
X104687778Y-57436640D01*
X104681082Y-57443336D01*
X104621895Y-57520470D01*
X104620467Y-57522295D01*
X104549619Y-57611136D01*
X104549611Y-57611147D01*
X104541388Y-57625390D01*
X104426655Y-57824111D01*
X104426656Y-57824112D01*
X104418433Y-57838354D01*
X104376928Y-57944103D01*
X104376062Y-57946249D01*
X104338843Y-58036106D01*
X104336391Y-58045260D01*
X104332046Y-58058463D01*
X104322580Y-58082582D01*
X104301189Y-58176299D01*
X104300074Y-58180796D01*
X104293434Y-58205578D01*
X104279452Y-58257762D01*
X104279451Y-58257766D01*
X104279451Y-58257768D01*
X104275923Y-58284565D01*
X104273875Y-58295971D01*
X104264197Y-58338371D01*
X104258324Y-58416737D01*
X104257610Y-58423653D01*
X104249500Y-58485262D01*
X104249500Y-58529869D01*
X104249153Y-58539136D01*
X104244592Y-58599996D01*
X95050990Y-58599996D01*
X94974621Y-58541396D01*
X94974615Y-58541392D01*
X94974612Y-58541390D01*
X94775888Y-58426656D01*
X94775884Y-58426654D01*
X94563888Y-58338842D01*
X94445108Y-58307015D01*
X94342239Y-58279452D01*
X94342233Y-58279451D01*
X94342228Y-58279450D01*
X94114735Y-58249501D01*
X94114734Y-58249501D01*
X93885266Y-58249501D01*
X93885265Y-58249501D01*
X93657771Y-58279450D01*
X93657764Y-58279451D01*
X93657761Y-58279452D01*
X93596111Y-58295971D01*
X93436112Y-58338842D01*
X93224120Y-58426651D01*
X93224111Y-58426656D01*
X93025388Y-58541390D01*
X93025378Y-58541396D01*
X92843341Y-58681077D01*
X92814790Y-58709629D01*
X92786236Y-58738182D01*
X92724916Y-58771666D01*
X92698557Y-58774500D01*
X87393810Y-58774500D01*
X87281432Y-58791439D01*
X87279138Y-58791763D01*
X87182757Y-58804452D01*
X87182755Y-58804453D01*
X87173620Y-58806901D01*
X87160014Y-58809740D01*
X87134385Y-58813603D01*
X87134377Y-58813605D01*
X87042556Y-58841928D01*
X87038103Y-58843211D01*
X86961113Y-58863841D01*
X86941884Y-58871806D01*
X86936124Y-58874192D01*
X86925231Y-58878118D01*
X86883677Y-58890936D01*
X86844747Y-58909684D01*
X86812863Y-58925037D01*
X86806526Y-58927873D01*
X86749118Y-58951653D01*
X86749102Y-58951661D01*
X86710494Y-58973951D01*
X86702299Y-58978282D01*
X86647301Y-59004768D01*
X86647299Y-59004769D01*
X86596867Y-59039152D01*
X86589022Y-59044082D01*
X86550393Y-59066386D01*
X86550380Y-59066394D01*
X86501076Y-59104226D01*
X86495444Y-59108301D01*
X86430522Y-59152565D01*
X86398643Y-59182144D01*
X86389793Y-59189617D01*
X86368341Y-59206078D01*
X86312009Y-59262410D01*
X86308671Y-59265625D01*
X86238194Y-59331019D01*
X86222032Y-59351285D01*
X86212778Y-59361640D01*
X86206082Y-59368336D01*
X86146895Y-59445470D01*
X86145467Y-59447295D01*
X86074619Y-59536136D01*
X86074611Y-59536147D01*
X86066388Y-59550390D01*
X85951655Y-59749111D01*
X85951656Y-59749112D01*
X85943433Y-59763354D01*
X85901928Y-59869103D01*
X85901062Y-59871249D01*
X85863843Y-59961106D01*
X85861391Y-59970260D01*
X85857046Y-59983463D01*
X85847580Y-60007582D01*
X85826189Y-60101299D01*
X85825074Y-60105796D01*
X85814756Y-60144304D01*
X85804452Y-60182762D01*
X85804451Y-60182766D01*
X85804451Y-60182768D01*
X85800923Y-60209565D01*
X85798875Y-60220971D01*
X85789197Y-60263371D01*
X85783324Y-60341737D01*
X85782610Y-60348653D01*
X85774500Y-60410262D01*
X85774500Y-60454869D01*
X85774153Y-60464136D01*
X85769592Y-60524996D01*
X50500500Y-60524996D01*
X50500500Y-54499999D01*
X51294422Y-54499999D01*
X51294422Y-54500000D01*
X51314722Y-54887339D01*
X51375397Y-55270427D01*
X51375397Y-55270429D01*
X51475788Y-55645094D01*
X51614787Y-56007197D01*
X51790877Y-56352793D01*
X52002122Y-56678082D01*
X52167172Y-56881901D01*
X52246219Y-56979516D01*
X52520484Y-57253781D01*
X52554197Y-57281081D01*
X52821917Y-57497877D01*
X52996338Y-57611147D01*
X53147211Y-57709125D01*
X53492806Y-57885214D01*
X53854913Y-58024214D01*
X54229567Y-58124602D01*
X54612662Y-58185278D01*
X54978576Y-58204455D01*
X54999999Y-58205578D01*
X55000000Y-58205578D01*
X55000001Y-58205578D01*
X55020301Y-58204514D01*
X55387338Y-58185278D01*
X55770433Y-58124602D01*
X56145087Y-58024214D01*
X56507194Y-57885214D01*
X56852789Y-57709125D01*
X57178084Y-57497876D01*
X57479516Y-57253781D01*
X57753781Y-56979516D01*
X57997876Y-56678084D01*
X58209125Y-56352789D01*
X58385214Y-56007194D01*
X58524214Y-55645087D01*
X58624602Y-55270433D01*
X58685278Y-54887338D01*
X58705578Y-54500000D01*
X58705578Y-54499999D01*
X141294422Y-54499999D01*
X141294422Y-54500000D01*
X141314722Y-54887339D01*
X141375397Y-55270427D01*
X141375397Y-55270429D01*
X141475788Y-55645094D01*
X141614787Y-56007197D01*
X141790877Y-56352793D01*
X142002122Y-56678082D01*
X142167172Y-56881901D01*
X142246219Y-56979516D01*
X142520484Y-57253781D01*
X142554197Y-57281081D01*
X142821917Y-57497877D01*
X142996338Y-57611147D01*
X143147211Y-57709125D01*
X143492806Y-57885214D01*
X143854913Y-58024214D01*
X144229567Y-58124602D01*
X144612662Y-58185278D01*
X144978576Y-58204455D01*
X144999999Y-58205578D01*
X145000000Y-58205578D01*
X145000001Y-58205578D01*
X145020301Y-58204514D01*
X145387338Y-58185278D01*
X145770433Y-58124602D01*
X146145087Y-58024214D01*
X146507194Y-57885214D01*
X146852789Y-57709125D01*
X147178084Y-57497876D01*
X147479516Y-57253781D01*
X147753781Y-56979516D01*
X147997876Y-56678084D01*
X148209125Y-56352789D01*
X148385214Y-56007194D01*
X148524214Y-55645087D01*
X148624602Y-55270433D01*
X148685278Y-54887338D01*
X148705578Y-54500000D01*
X148685278Y-54112662D01*
X148624602Y-53729567D01*
X148524214Y-53354913D01*
X148385214Y-52992806D01*
X148209125Y-52647211D01*
X147997876Y-52321916D01*
X147753781Y-52020484D01*
X147479516Y-51746219D01*
X147178084Y-51502124D01*
X147178082Y-51502122D01*
X146852793Y-51290877D01*
X146507197Y-51114787D01*
X146145094Y-50975788D01*
X146145087Y-50975786D01*
X145770433Y-50875398D01*
X145770429Y-50875397D01*
X145770428Y-50875397D01*
X145387339Y-50814722D01*
X145000001Y-50794422D01*
X144999999Y-50794422D01*
X144612660Y-50814722D01*
X144229572Y-50875397D01*
X144229570Y-50875397D01*
X143854905Y-50975788D01*
X143492802Y-51114787D01*
X143147206Y-51290877D01*
X142821917Y-51502122D01*
X142520488Y-51746215D01*
X142520480Y-51746222D01*
X142246222Y-52020480D01*
X142246215Y-52020488D01*
X142002122Y-52321917D01*
X141790877Y-52647206D01*
X141614787Y-52992802D01*
X141475788Y-53354905D01*
X141375397Y-53729570D01*
X141375397Y-53729572D01*
X141314722Y-54112660D01*
X141294422Y-54499999D01*
X58705578Y-54499999D01*
X58685278Y-54112662D01*
X58624602Y-53729567D01*
X58524214Y-53354913D01*
X58385214Y-52992806D01*
X58209125Y-52647211D01*
X57997876Y-52321916D01*
X57753781Y-52020484D01*
X57479516Y-51746219D01*
X57178084Y-51502124D01*
X57178082Y-51502122D01*
X56852793Y-51290877D01*
X56507197Y-51114787D01*
X56145094Y-50975788D01*
X56145087Y-50975786D01*
X55770433Y-50875398D01*
X55770429Y-50875397D01*
X55770428Y-50875397D01*
X55387339Y-50814722D01*
X55000001Y-50794422D01*
X54999999Y-50794422D01*
X54612660Y-50814722D01*
X54229572Y-50875397D01*
X54229570Y-50875397D01*
X53854905Y-50975788D01*
X53492802Y-51114787D01*
X53147206Y-51290877D01*
X52821917Y-51502122D01*
X52520488Y-51746215D01*
X52520480Y-51746222D01*
X52246222Y-52020480D01*
X52246215Y-52020488D01*
X52002122Y-52321917D01*
X51790877Y-52647206D01*
X51614787Y-52992802D01*
X51475788Y-53354905D01*
X51375397Y-53729570D01*
X51375397Y-53729572D01*
X51314722Y-54112660D01*
X51294422Y-54499999D01*
X50500500Y-54499999D01*
X50500500Y-50124500D01*
X50520185Y-50057461D01*
X50572989Y-50011706D01*
X50624500Y-50000500D01*
X149375500Y-50000500D01*
X149442539Y-50020185D01*
G37*
%TD.AperFunction*%
%TA.AperFunction,Conductor*%
G36*
X94873039Y-147595185D02*
G01*
X94918794Y-147647989D01*
X94930000Y-147699500D01*
X94930000Y-147825000D01*
X95630000Y-147825000D01*
X95630000Y-148325000D01*
X94930000Y-148325000D01*
X94930000Y-148473495D01*
X94968427Y-148666681D01*
X94968430Y-148666693D01*
X95035265Y-148828048D01*
X95042734Y-148897517D01*
X95011459Y-148959996D01*
X94951369Y-148995648D01*
X94920704Y-148999500D01*
X86429494Y-148999500D01*
X86362455Y-148979815D01*
X86316700Y-148927011D01*
X86306756Y-148857853D01*
X86335781Y-148794297D01*
X86379056Y-148762221D01*
X86427593Y-148740612D01*
X86572230Y-148635526D01*
X86691859Y-148502665D01*
X86781250Y-148347835D01*
X86804644Y-148275834D01*
X86834890Y-148226476D01*
X87449549Y-147611819D01*
X87510872Y-147578334D01*
X87537230Y-147575500D01*
X94806000Y-147575500D01*
X94873039Y-147595185D01*
G37*
%TD.AperFunction*%
%TA.AperFunction,Conductor*%
G36*
X103513039Y-147595185D02*
G01*
X103558794Y-147647989D01*
X103570000Y-147699500D01*
X103570000Y-147825000D01*
X104270000Y-147825000D01*
X104270000Y-148325000D01*
X103570000Y-148325000D01*
X103570000Y-148473495D01*
X103608427Y-148666681D01*
X103608430Y-148666693D01*
X103675265Y-148828048D01*
X103682734Y-148897517D01*
X103651459Y-148959996D01*
X103591369Y-148995648D01*
X103560704Y-148999500D01*
X96939296Y-148999500D01*
X96872257Y-148979815D01*
X96826502Y-148927011D01*
X96816558Y-148857853D01*
X96824735Y-148828048D01*
X96891569Y-148666693D01*
X96891572Y-148666681D01*
X96929999Y-148473495D01*
X96930000Y-148473492D01*
X96930000Y-148325000D01*
X96230000Y-148325000D01*
X96230000Y-147825000D01*
X96930000Y-147825000D01*
X96930000Y-147699500D01*
X96949685Y-147632461D01*
X97002489Y-147586706D01*
X97054000Y-147575500D01*
X103446000Y-147575500D01*
X103513039Y-147595185D01*
G37*
%TD.AperFunction*%
%TD*%
M02*
