%TF.GenerationSoftware,KiCad,Pcbnew,8.0.8*%
%TF.CreationDate,2025-01-31T07:59:07+01:00*%
%TF.ProjectId,H_bridge_PCB,485f6272-6964-4676-955f-5043422e6b69,rev?*%
%TF.SameCoordinates,Original*%
%TF.FileFunction,Soldermask,Top*%
%TF.FilePolarity,Negative*%
%FSLAX46Y46*%
G04 Gerber Fmt 4.6, Leading zero omitted, Abs format (unit mm)*
G04 Created by KiCad (PCBNEW 8.0.8) date 2025-01-31 07:59:07*
%MOMM*%
%LPD*%
G01*
G04 APERTURE LIST*
G04 Aperture macros list*
%AMRoundRect*
0 Rectangle with rounded corners*
0 $1 Rounding radius*
0 $2 $3 $4 $5 $6 $7 $8 $9 X,Y pos of 4 corners*
0 Add a 4 corners polygon primitive as box body*
4,1,4,$2,$3,$4,$5,$6,$7,$8,$9,$2,$3,0*
0 Add four circle primitives for the rounded corners*
1,1,$1+$1,$2,$3*
1,1,$1+$1,$4,$5*
1,1,$1+$1,$6,$7*
1,1,$1+$1,$8,$9*
0 Add four rect primitives between the rounded corners*
20,1,$1+$1,$2,$3,$4,$5,0*
20,1,$1+$1,$4,$5,$6,$7,0*
20,1,$1+$1,$6,$7,$8,$9,0*
20,1,$1+$1,$8,$9,$2,$3,0*%
G04 Aperture macros list end*
%ADD10C,2.500000*%
%ADD11RoundRect,0.250000X-0.350000X-0.450000X0.350000X-0.450000X0.350000X0.450000X-0.350000X0.450000X0*%
%ADD12RoundRect,0.075000X-0.650000X-0.075000X0.650000X-0.075000X0.650000X0.075000X-0.650000X0.075000X0*%
%ADD13RoundRect,0.250000X-0.450000X0.350000X-0.450000X-0.350000X0.450000X-0.350000X0.450000X0.350000X0*%
%ADD14RoundRect,0.250000X0.350000X0.450000X-0.350000X0.450000X-0.350000X-0.450000X0.350000X-0.450000X0*%
%ADD15C,8.115000*%
%ADD16R,0.800000X3.360000*%
%ADD17C,1.100000*%
%ADD18RoundRect,0.250000X0.450000X-0.350000X0.450000X0.350000X-0.450000X0.350000X-0.450000X-0.350000X0*%
%ADD19R,1.200000X2.200000*%
%ADD20R,5.800000X6.400000*%
%ADD21C,6.400000*%
%ADD22C,0.650000*%
%ADD23RoundRect,0.150000X-0.150000X-0.500000X0.150000X-0.500000X0.150000X0.500000X-0.150000X0.500000X0*%
%ADD24RoundRect,0.075000X-0.075000X-0.575000X0.075000X-0.575000X0.075000X0.575000X-0.075000X0.575000X0*%
%ADD25O,1.000000X2.100000*%
%ADD26O,1.000000X1.600000*%
%ADD27R,5.070000X5.070000*%
%ADD28C,5.070000*%
%ADD29RoundRect,0.150000X-0.150000X0.875000X-0.150000X-0.875000X0.150000X-0.875000X0.150000X0.875000X0*%
%ADD30R,2.070000X2.070000*%
%ADD31C,2.070000*%
%ADD32R,1.600000X3.200000*%
%ADD33R,1.500000X0.900000*%
%ADD34R,0.900000X1.500000*%
%ADD35C,0.600000*%
%ADD36R,4.200000X4.200000*%
%ADD37R,2.300000X2.150000*%
%ADD38R,1.450000X1.150000*%
%ADD39R,4.150000X4.650000*%
%ADD40RoundRect,0.150000X0.150000X-0.825000X0.150000X0.825000X-0.150000X0.825000X-0.150000X-0.825000X0*%
%ADD41RoundRect,0.200000X0.750000X0.200000X-0.750000X0.200000X-0.750000X-0.200000X0.750000X-0.200000X0*%
%ADD42R,3.500000X1.600000*%
%ADD43R,9.750000X12.200000*%
%ADD44RoundRect,0.250000X0.850000X0.350000X-0.850000X0.350000X-0.850000X-0.350000X0.850000X-0.350000X0*%
%ADD45RoundRect,0.249997X2.950003X2.650003X-2.950003X2.650003X-2.950003X-2.650003X2.950003X-2.650003X0*%
%ADD46R,1.500000X1.500000*%
%ADD47C,1.500000*%
%ADD48RoundRect,0.250000X-0.250000X-0.475000X0.250000X-0.475000X0.250000X0.475000X-0.250000X0.475000X0*%
%ADD49R,3.200000X1.600000*%
%ADD50R,2.150000X2.300000*%
%ADD51RoundRect,0.249999X-0.450001X-1.425001X0.450001X-1.425001X0.450001X1.425001X-0.450001X1.425001X0*%
%ADD52RoundRect,0.175000X-0.175000X-0.325000X0.175000X-0.325000X0.175000X0.325000X-0.175000X0.325000X0*%
%ADD53RoundRect,0.150000X-0.200000X-0.150000X0.200000X-0.150000X0.200000X0.150000X-0.200000X0.150000X0*%
G04 APERTURE END LIST*
D10*
%TO.C,U8*%
X65000000Y-74895000D03*
X65000000Y-71235000D03*
X65000000Y-66765000D03*
X65000000Y-63105000D03*
%TD*%
D11*
%TO.C,C4*%
X100000000Y-116000000D03*
X102000000Y-116000000D03*
%TD*%
D12*
%TO.C,U4*%
X66800000Y-79000000D03*
X66800000Y-79500000D03*
X66800000Y-80000000D03*
X66800000Y-80500000D03*
X66800000Y-81000000D03*
X71200000Y-81000000D03*
X71200000Y-80500000D03*
X71200000Y-80000000D03*
X71200000Y-79500000D03*
X71200000Y-79000000D03*
%TD*%
D13*
%TO.C,R39*%
X113000000Y-143000000D03*
X113000000Y-145000000D03*
%TD*%
%TO.C,C6*%
X96000000Y-107000000D03*
X96000000Y-109000000D03*
%TD*%
%TO.C,C10*%
X83000000Y-146000000D03*
X83000000Y-148000000D03*
%TD*%
D14*
%TO.C,R48*%
X85000000Y-133000000D03*
X83000000Y-133000000D03*
%TD*%
D15*
%TO.C,TP4*%
X143500000Y-120500000D03*
%TD*%
D14*
%TO.C,R5*%
X86000000Y-93000000D03*
X84000000Y-93000000D03*
%TD*%
D13*
%TO.C,R38*%
X116000000Y-143000000D03*
X116000000Y-145000000D03*
%TD*%
D16*
%TO.C,IC5*%
X128445000Y-129057000D03*
X127175000Y-129057000D03*
X125905000Y-129057000D03*
X124635000Y-129057000D03*
X123365000Y-129057000D03*
X122095000Y-129057000D03*
X120825000Y-129057000D03*
X119555000Y-129057000D03*
X119555000Y-140943000D03*
X120825000Y-140943000D03*
X122095000Y-140943000D03*
X123365000Y-140943000D03*
X124635000Y-140943000D03*
X125905000Y-140943000D03*
X127175000Y-140943000D03*
X128445000Y-140943000D03*
%TD*%
D11*
%TO.C,R40*%
X55000000Y-126050000D03*
X57000000Y-126050000D03*
%TD*%
%TO.C,R41*%
X55000000Y-128000000D03*
X57000000Y-128000000D03*
%TD*%
D17*
%TO.C,J5*%
X135000000Y-146270000D03*
X135000000Y-145000000D03*
%TD*%
D18*
%TO.C,R15*%
X146000000Y-130000000D03*
X146000000Y-128000000D03*
%TD*%
D13*
%TO.C,C17*%
X65000000Y-99000000D03*
X65000000Y-101000000D03*
%TD*%
D19*
%TO.C,Q5*%
X90720000Y-64950000D03*
D20*
X93000000Y-58650000D03*
D19*
X95280000Y-64950000D03*
%TD*%
D21*
%TO.C,REF\u002A\u002A*%
X145000000Y-144500000D03*
%TD*%
D13*
%TO.C,C12*%
X81000000Y-146000000D03*
X81000000Y-148000000D03*
%TD*%
D22*
%TO.C,P1*%
X97360000Y-144395000D03*
X103140000Y-144395000D03*
D23*
X97050000Y-143255000D03*
X97850000Y-143255000D03*
D24*
X99000000Y-143255000D03*
X100000000Y-143255000D03*
X100500000Y-143255000D03*
X101500000Y-143255000D03*
D23*
X102650000Y-143255000D03*
X103450000Y-143255000D03*
X103450000Y-143255000D03*
X102650000Y-143255000D03*
D24*
X102000000Y-143255000D03*
X101000000Y-143255000D03*
X99500000Y-143255000D03*
X98500000Y-143255000D03*
D23*
X97850000Y-143255000D03*
X97050000Y-143255000D03*
D25*
X95930000Y-143895000D03*
D26*
X95930000Y-148075000D03*
D25*
X104570000Y-143895000D03*
D26*
X104570000Y-148075000D03*
%TD*%
D14*
%TO.C,R8*%
X104000000Y-73000000D03*
X102000000Y-73000000D03*
%TD*%
D11*
%TO.C,C3*%
X88000000Y-99000000D03*
X90000000Y-99000000D03*
%TD*%
D21*
%TO.C,REF\u002A\u002A*%
X145000000Y-54500000D03*
%TD*%
D14*
%TO.C,R3*%
X86000000Y-89000000D03*
X84000000Y-89000000D03*
%TD*%
D13*
%TO.C,C26*%
X79000000Y-106000000D03*
X79000000Y-108000000D03*
%TD*%
%TO.C,C14*%
X82000000Y-111000000D03*
X82000000Y-113000000D03*
%TD*%
D18*
%TO.C,R6*%
X119000000Y-94000000D03*
X119000000Y-92000000D03*
%TD*%
D21*
%TO.C,REF\u002A\u002A*%
X55000000Y-144500000D03*
%TD*%
D27*
%TO.C,L1*%
X138000000Y-70100000D03*
D28*
X138000000Y-93900000D03*
%TD*%
D11*
%TO.C,R4*%
X89000000Y-75000000D03*
X91000000Y-75000000D03*
%TD*%
D18*
%TO.C,C18*%
X74000000Y-83000000D03*
X74000000Y-81000000D03*
%TD*%
%TO.C,R46*%
X109000000Y-141000000D03*
X109000000Y-139000000D03*
%TD*%
D29*
%TO.C,U2*%
X93445000Y-103350000D03*
X92175000Y-103350000D03*
X90905000Y-103350000D03*
X89635000Y-103350000D03*
X88365000Y-103350000D03*
X87095000Y-103350000D03*
X85825000Y-103350000D03*
X84555000Y-103350000D03*
X84555000Y-112650000D03*
X85825000Y-112650000D03*
X87095000Y-112650000D03*
X88365000Y-112650000D03*
X89635000Y-112650000D03*
X90905000Y-112650000D03*
X92175000Y-112650000D03*
X93445000Y-112650000D03*
%TD*%
D30*
%TO.C,Q1*%
X91460000Y-71810000D03*
D31*
X94000000Y-71810000D03*
X96540000Y-71810000D03*
%TD*%
D11*
%TO.C,R30*%
X88000000Y-143500000D03*
X90000000Y-143500000D03*
%TD*%
%TO.C,C11*%
X69000000Y-100000000D03*
X71000000Y-100000000D03*
%TD*%
%TO.C,C15*%
X87250000Y-130000000D03*
X89250000Y-130000000D03*
%TD*%
D14*
%TO.C,R2*%
X87000000Y-70000000D03*
X85000000Y-70000000D03*
%TD*%
D32*
%TO.C,C7*%
X73000000Y-104500000D03*
X73000000Y-109500000D03*
%TD*%
D11*
%TO.C,R7*%
X109000000Y-75000000D03*
X111000000Y-75000000D03*
%TD*%
D13*
%TO.C,R14*%
X58000000Y-131000000D03*
X58000000Y-133000000D03*
%TD*%
%TO.C,C25*%
X82000000Y-91000000D03*
X82000000Y-93000000D03*
%TD*%
D30*
%TO.C,Q3*%
X108460000Y-71810000D03*
D31*
X111000000Y-71810000D03*
X113540000Y-71810000D03*
%TD*%
D33*
%TO.C,U1*%
X78807500Y-148090000D03*
X78807500Y-146820000D03*
X78807500Y-145550000D03*
X78807500Y-144280000D03*
X78807500Y-143010000D03*
X78807500Y-141740000D03*
X78807500Y-140470000D03*
X78807500Y-139200000D03*
X78807500Y-137930000D03*
X78807500Y-136660000D03*
X78807500Y-135390000D03*
X78807500Y-134120000D03*
X78807500Y-132850000D03*
X78807500Y-131580000D03*
D34*
X75767500Y-130330000D03*
X74497500Y-130330000D03*
X73227500Y-130330000D03*
X71957500Y-130330000D03*
X70687500Y-130330000D03*
X69417500Y-130330000D03*
X68147500Y-130330000D03*
X66877500Y-130330000D03*
X65607500Y-130330000D03*
X64337500Y-130330000D03*
D33*
X61307500Y-131580000D03*
X61307500Y-132850000D03*
X61307500Y-134120000D03*
X61307500Y-135390000D03*
X61307500Y-136660000D03*
X61307500Y-137930000D03*
X61307500Y-139200000D03*
X61307500Y-140470000D03*
X61307500Y-141740000D03*
X61307500Y-143010000D03*
X61307500Y-144280000D03*
X61307500Y-145550000D03*
X61307500Y-146820000D03*
X61307500Y-148090000D03*
D35*
X72262500Y-141512500D03*
X72262500Y-139987500D03*
X71500000Y-142275000D03*
X71500000Y-140750000D03*
X71500000Y-139225000D03*
X70737500Y-141512500D03*
D36*
X70737500Y-140750000D03*
D35*
X70737500Y-139987500D03*
X69975000Y-142275000D03*
X69975000Y-140750000D03*
X69975000Y-139225000D03*
X69212500Y-141512500D03*
X69212500Y-139987500D03*
%TD*%
D18*
%TO.C,R47*%
X112000000Y-140950000D03*
X112000000Y-138950000D03*
%TD*%
D37*
%TO.C,D10*%
X101000000Y-77000000D03*
X105300000Y-77000000D03*
%TD*%
D38*
%TO.C,D1*%
X101985000Y-64070000D03*
X100015000Y-64070000D03*
D39*
X101000000Y-60320000D03*
%TD*%
D38*
%TO.C,D3*%
X119970000Y-64000000D03*
X118000000Y-64000000D03*
D39*
X118985000Y-60250000D03*
%TD*%
D40*
%TO.C,U7*%
X95805000Y-140220000D03*
X97075000Y-140220000D03*
X98345000Y-140220000D03*
X99615000Y-140220000D03*
X100885000Y-140220000D03*
X102155000Y-140220000D03*
X103425000Y-140220000D03*
X104695000Y-140220000D03*
X104695000Y-135270000D03*
X103425000Y-135270000D03*
X102155000Y-135270000D03*
X100885000Y-135270000D03*
X99615000Y-135270000D03*
X98345000Y-135270000D03*
X97075000Y-135270000D03*
X95805000Y-135270000D03*
%TD*%
D41*
%TO.C,Q8*%
X85500000Y-143950000D03*
X85500000Y-142050000D03*
X82500000Y-143000000D03*
%TD*%
D30*
%TO.C,Q2*%
X90460000Y-94000000D03*
D31*
X93000000Y-94000000D03*
X95540000Y-94000000D03*
%TD*%
D18*
%TO.C,LED2*%
X71000000Y-116000000D03*
X71000000Y-114000000D03*
%TD*%
D42*
%TO.C,IC2*%
X67375000Y-88460000D03*
D43*
X57100000Y-91000000D03*
D42*
X67375000Y-93540000D03*
%TD*%
D44*
%TO.C,U5*%
X61040000Y-112280000D03*
D45*
X54740000Y-110000000D03*
D44*
X61040000Y-107720000D03*
%TD*%
D18*
%TO.C,R29*%
X69000000Y-120000000D03*
X69000000Y-118000000D03*
%TD*%
D17*
%TO.C,J4*%
X66250000Y-125750000D03*
X66250000Y-127020000D03*
%TD*%
D18*
%TO.C,R28*%
X71000000Y-120000000D03*
X71000000Y-118000000D03*
%TD*%
D19*
%TO.C,Q9*%
X109720000Y-87500000D03*
D20*
X112000000Y-81200000D03*
D19*
X114280000Y-87500000D03*
%TD*%
D18*
%TO.C,R27*%
X67000000Y-120000000D03*
X67000000Y-118000000D03*
%TD*%
D41*
%TO.C,Q7*%
X85500000Y-140450000D03*
X85500000Y-138550000D03*
X82500000Y-139500000D03*
%TD*%
D30*
%TO.C,Q4*%
X109460000Y-93810000D03*
D31*
X112000000Y-93810000D03*
X114540000Y-93810000D03*
%TD*%
D18*
%TO.C,R16*%
X143000000Y-130000000D03*
X143000000Y-128000000D03*
%TD*%
%TO.C,LED3*%
X69000000Y-116000000D03*
X69000000Y-114000000D03*
%TD*%
D29*
%TO.C,U3*%
X93445000Y-118350000D03*
X92175000Y-118350000D03*
X90905000Y-118350000D03*
X89635000Y-118350000D03*
X88365000Y-118350000D03*
X87095000Y-118350000D03*
X85825000Y-118350000D03*
X84555000Y-118350000D03*
X84555000Y-127650000D03*
X85825000Y-127650000D03*
X87095000Y-127650000D03*
X88365000Y-127650000D03*
X89635000Y-127650000D03*
X90905000Y-127650000D03*
X92175000Y-127650000D03*
X93445000Y-127650000D03*
%TD*%
D17*
%TO.C,J1*%
X56500000Y-136500000D03*
X56500000Y-137770000D03*
%TD*%
D37*
%TO.C,D7*%
X100000000Y-95000000D03*
X104300000Y-95000000D03*
%TD*%
D14*
%TO.C,R9*%
X102000000Y-91000000D03*
X100000000Y-91000000D03*
%TD*%
%TO.C,R10*%
X99000000Y-128000000D03*
X97000000Y-128000000D03*
%TD*%
D11*
%TO.C,C9*%
X88000000Y-148000000D03*
X90000000Y-148000000D03*
%TD*%
D21*
%TO.C,REF\u002A\u002A*%
X55000000Y-54500000D03*
%TD*%
D46*
%TO.C,C13*%
X106250000Y-113000000D03*
D47*
X133750000Y-113000000D03*
%TD*%
D15*
%TO.C,TP1*%
X56000000Y-66000000D03*
%TD*%
D11*
%TO.C,C27*%
X55000000Y-124000000D03*
X57000000Y-124000000D03*
%TD*%
D38*
%TO.C,D2*%
X102970000Y-87000000D03*
X101000000Y-87000000D03*
D39*
X101985000Y-83250000D03*
%TD*%
D13*
%TO.C,C1*%
X96000000Y-121000000D03*
X96000000Y-123000000D03*
%TD*%
D17*
%TO.C,J2*%
X72230000Y-124750000D03*
X73500000Y-124750000D03*
%TD*%
D44*
%TO.C,U6*%
X61040000Y-104280000D03*
D45*
X54740000Y-102000000D03*
D44*
X61040000Y-99720000D03*
%TD*%
D14*
%TO.C,R31*%
X90000000Y-145500000D03*
X88000000Y-145500000D03*
%TD*%
D48*
%TO.C,C19*%
X127050000Y-145000000D03*
X128950000Y-145000000D03*
%TD*%
D19*
%TO.C,Q10*%
X108280000Y-64900000D03*
D20*
X110560000Y-58600000D03*
D19*
X112840000Y-64900000D03*
%TD*%
D11*
%TO.C,C2*%
X88000000Y-97000000D03*
X90000000Y-97000000D03*
%TD*%
D32*
%TO.C,C8*%
X76000000Y-89500000D03*
X76000000Y-94500000D03*
%TD*%
D49*
%TO.C,C23*%
X55500000Y-118000000D03*
X60500000Y-118000000D03*
%TD*%
D18*
%TO.C,R44*%
X143000000Y-134000000D03*
X143000000Y-132000000D03*
%TD*%
%TO.C,LED1*%
X67000000Y-116000000D03*
X67000000Y-114000000D03*
%TD*%
D15*
%TO.C,TP3*%
X143500000Y-108800000D03*
%TD*%
D14*
%TO.C,R24*%
X92500000Y-137000000D03*
X90500000Y-137000000D03*
%TD*%
D13*
%TO.C,R13*%
X85000000Y-146000000D03*
X85000000Y-148000000D03*
%TD*%
D50*
%TO.C,D6*%
X84000000Y-100150000D03*
X84000000Y-95850000D03*
%TD*%
D19*
%TO.C,Q6*%
X89720000Y-87500000D03*
D20*
X92000000Y-81200000D03*
D19*
X94280000Y-87500000D03*
%TD*%
D15*
%TO.C,TP2*%
X56000000Y-77000000D03*
%TD*%
D14*
%TO.C,R49*%
X85000000Y-135000000D03*
X83000000Y-135000000D03*
%TD*%
D11*
%TO.C,C5*%
X100000000Y-118000000D03*
X102000000Y-118000000D03*
%TD*%
D51*
%TO.C,R42*%
X68950000Y-73000000D03*
X75050000Y-73000000D03*
%TD*%
D14*
%TO.C,R1*%
X80000000Y-99000000D03*
X78000000Y-99000000D03*
%TD*%
D37*
%TO.C,D8*%
X81850000Y-74000000D03*
X86150000Y-74000000D03*
%TD*%
D18*
%TO.C,R43*%
X146000000Y-134000000D03*
X146000000Y-132000000D03*
%TD*%
D17*
%TO.C,J3*%
X78500000Y-124550000D03*
X77230000Y-124550000D03*
%TD*%
D50*
%TO.C,D11*%
X100000000Y-120850000D03*
X100000000Y-125150000D03*
%TD*%
D38*
%TO.C,D5*%
X121970000Y-87000000D03*
X120000000Y-87000000D03*
D39*
X120985000Y-83250000D03*
%TD*%
D11*
%TO.C,R45*%
X143000000Y-136000000D03*
X145000000Y-136000000D03*
%TD*%
D14*
%TO.C,R23*%
X92500000Y-139000000D03*
X90500000Y-139000000D03*
%TD*%
D13*
%TO.C,C21*%
X64000000Y-108000000D03*
X64000000Y-110000000D03*
%TD*%
D37*
%TO.C,D9*%
X82000000Y-85000000D03*
X86300000Y-85000000D03*
%TD*%
D52*
%TO.C,D4*%
X92000000Y-144250000D03*
D53*
X92000000Y-145950000D03*
X94000000Y-145950000D03*
X94000000Y-144050000D03*
%TD*%
M02*
