M48
; DRILL file {KiCad 8.0.8} date 2025-03-14T18:13:26+0100
; FORMAT={-:-/ absolute / inch / decimal}
; #@! TF.CreationDate,2025-03-14T18:13:26+01:00
; #@! TF.GenerationSoftware,Kicad,Pcbnew,8.0.8
; #@! TF.FileFunction,Plated,1,2,PTH
FMAT,2
INCH
; #@! TA.AperFunction,Plated,PTH,ComponentDrill
T1C0.0079
; #@! TA.AperFunction,Plated,PTH,ViaDrill
T2C0.0118
; #@! TA.AperFunction,Plated,PTH,ViaDrill
T3C0.0236
; #@! TA.AperFunction,Plated,PTH,ComponentDrill
T4C0.0236
; #@! TA.AperFunction,Plated,PTH,ComponentDrill
T5C0.0260
; #@! TA.AperFunction,Plated,PTH,ComponentDrill
T6C0.0394
; #@! TA.AperFunction,Plated,PTH,ViaDrill
T7C0.0512
; #@! TA.AperFunction,Plated,PTH,ComponentDrill
T8C0.0543
; #@! TA.AperFunction,Plated,PTH,ComponentDrill
T9C0.0650
; #@! TA.AperFunction,Plated,PTH,ComponentDrill
T10C0.1260
; #@! TA.AperFunction,Plated,PTH,ComponentDrill
T11C0.1331
; #@! TA.AperFunction,Plated,PTH,ComponentDrill
T12C0.2130
%
G90
G05
T1
X2.7249Y-5.5113
X2.7249Y-5.5714
X2.7549Y-5.4813
X2.7549Y-5.5413
X2.7549Y-5.6014
X2.7849Y-5.5113
X2.7849Y-5.5714
X2.815Y-5.4813
X2.815Y-5.5413
X2.815Y-5.6014
X2.845Y-5.5113
X2.845Y-5.5714
T2
X2.1654Y-4.3307
X2.3228Y-4.8819
X2.3228Y-4.9606
X2.3425Y-5.3543
X2.4016Y-4.8425
X2.4016Y-5.0394
X2.4409Y-4.8425
X2.4803Y-5.0394
X2.5Y-5.561
X2.5Y-5.8071
X2.5591Y-3.4252
X2.5984Y-3.3071
X2.6378Y-3.2677
X2.6772Y-3.1102
X2.6772Y-5.3937
X2.6772Y-5.4331
X2.7165Y-4.4094
X2.7307Y-5.3303
X2.7953Y-4.1732
X2.815Y-5.748
X2.815Y-5.7874
X2.874Y-3.7402
X2.874Y-3.7402
X2.9134Y-3.8976
X2.9134Y-4.4488
X2.9134Y-5.3543
X2.9134Y-5.7283
X2.9331Y-5.187
X2.9528Y-5.2756
X2.9528Y-5.4331
X2.9528Y-5.4724
X2.9724Y-5.2165
X3.0118Y-5.8268
X3.0315Y-5.315
X3.0315Y-5.3543
X3.1791Y-5.561
X3.1791Y-5.6299
X3.189Y-5.0394
X3.189Y-5.1575
X3.189Y-5.315
X3.2283Y-3.0709
X3.2283Y-4.5276
X3.2283Y-5.0098
X3.2677Y-4.0157
X3.2874Y-5.0
X3.3071Y-3.5827
X3.3858Y-4.5276
X3.3858Y-5.8268
X3.4252Y-4.5669
X3.435Y-4.9213
X3.4449Y-5.6102
X3.4646Y-4.7638
X3.4646Y-5.5118
X3.5236Y-4.498
X3.5236Y-5.4724
X3.5236Y-5.5512
X3.5433Y-4.2913
X3.5531Y-5.8268
X3.5728Y-5.1181
X3.5827Y-4.5669
X3.5827Y-4.9213
X3.5827Y-5.2756
X3.622Y-3.8976
X3.622Y-4.1732
X3.622Y-4.252
X3.622Y-4.7244
X3.7008Y-5.2756
X3.7008Y-5.4724
X3.7008Y-5.5709
X3.7008Y-5.6102
X3.7598Y-5.4528
X3.7795Y-4.4882
X3.7795Y-4.685
X3.8386Y-5.5906
X3.8484Y-5.3839
X3.8976Y-5.3937
X3.9764Y-3.1102
X3.9764Y-5.4331
X4.0157Y-3.6614
X4.0157Y-3.9764
X4.0256Y-5.5906
X4.1142Y-5.4331
X4.2028Y-5.6693
X4.2126Y-5.3543
X4.252Y-5.315
X4.3701Y-5.2756
X4.4488Y-5.7874
X4.4882Y-5.315
X4.4882Y-5.5906
X4.5669Y-5.7874
X4.8569Y-5.6398
X4.9213Y-5.7087
X4.9606Y-5.6693
X5.1575Y-5.7087
X5.7087Y-5.689
X5.7874Y-4.9606
X5.7874Y-5.3543
T3
X2.1654Y-5.1969
X2.248Y-3.5827
X2.2835Y-3.5039
X2.4016Y-4.0157
X2.5197Y-4.0945
X2.5197Y-4.4094
X2.5197Y-4.7343
X2.7559Y-4.0551
X2.7953Y-3.8583
X2.9528Y-5.6693
X2.9921Y-3.8189
X4.4094Y-4.0157
T5
X2.2244Y-5.374
X2.2244Y-5.424
X2.6083Y-4.9508
X2.6083Y-5.0008
X2.8437Y-4.9114
X2.8937Y-4.9114
X3.0406Y-4.9035
X3.0906Y-4.9035
X4.1831Y-4.0346
X4.1831Y-4.0846
X4.1831Y-4.2315
X4.1831Y-4.2815
X4.3209Y-4.4776
X4.3209Y-4.5276
X5.315Y-5.7087
X5.315Y-5.7587
X5.3248Y-3.9461
X5.3248Y-3.9961
X5.3248Y-4.1823
X5.3248Y-4.2323
X5.3248Y-4.4776
X5.3248Y-4.5276
T6
X4.5374Y-4.0256
X4.5374Y-4.3406
X4.5374Y-4.6555
X5.128Y-4.0256
X5.128Y-4.3406
X5.128Y-4.6555
T7
X3.4459Y-2.3829
X3.8189Y-3.1969
X3.8583Y-3.8583
X4.1732Y-2.3071
X4.1831Y-4.4488
X4.6063Y-3.2776
T8
X3.5614Y-3.7008
X3.6008Y-2.8272
X3.6614Y-3.7008
X3.7008Y-2.8272
X3.7614Y-3.7008
X3.8008Y-2.8272
X4.2701Y-2.8272
X4.3094Y-3.6933
X4.3701Y-2.8272
X4.4094Y-3.6933
X4.4701Y-2.8272
X4.5094Y-3.6933
T9
X2.5591Y-2.4844
X2.5591Y-2.6285
X2.5591Y-2.8045
X2.5591Y-2.9486
T10
X2.1654Y-2.1457
X2.1654Y-5.689
X5.7087Y-2.1457
X5.7087Y-5.689
T11
X5.4429Y-2.5728
X5.4429Y-3.5098
T12
X2.2047Y-2.5984
X2.2047Y-3.0315
X5.6496Y-4.2835
X5.6496Y-4.7441
T4
G00X3.7768Y-5.6435
M15
G01X3.7768Y-5.6868
M16
G05
G00X3.7768Y-5.8179
M15
G01X3.7768Y-5.8415
M16
G05
G00X4.1169Y-5.6435
M15
G01X4.1169Y-5.6868
M16
G05
G00X4.1169Y-5.8179
M15
G01X4.1169Y-5.8415
M16
G05
M30
