M48
; DRILL file {KiCad 8.0.8} date 2025-08-21T09:36:32+0200
; FORMAT={-:-/ absolute / inch / decimal}
; #@! TF.CreationDate,2025-08-21T09:36:32+02:00
; #@! TF.GenerationSoftware,Kicad,Pcbnew,8.0.8
; #@! TF.FileFunction,Plated,1,2,PTH
FMAT,2
INCH
; #@! TA.AperFunction,Plated,PTH,ComponentDrill
T1C0.0079
; #@! TA.AperFunction,Plated,PTH,ViaDrill
T2C0.0118
; #@! TA.AperFunction,Plated,PTH,ViaDrill
T3C0.0236
; #@! TA.AperFunction,Plated,PTH,ComponentDrill
T4C0.0276
; #@! TA.AperFunction,Plated,PTH,ComponentDrill
T5C0.0402
; #@! TA.AperFunction,Plated,PTH,ComponentDrill
T6C0.0472
; #@! TA.AperFunction,Plated,PTH,ViaDrill
T7C0.0512
; #@! TA.AperFunction,Plated,PTH,ComponentDrill
T8C0.0543
; #@! TA.AperFunction,Plated,PTH,ComponentDrill
T9C0.0650
; #@! TA.AperFunction,Plated,PTH,ComponentDrill
T10C0.0795
; #@! TA.AperFunction,Plated,PTH,ComponentDrill
T11C0.0866
; #@! TA.AperFunction,Plated,PTH,ComponentDrill
T12C0.1260
; #@! TA.AperFunction,Plated,PTH,ComponentDrill
T13C0.2130
%
G90
G05
T1
X2.7249Y-5.5113
X2.7249Y-5.5714
X2.7549Y-5.4813
X2.7549Y-5.5413
X2.7549Y-5.6014
X2.7849Y-5.5113
X2.7849Y-5.5714
X2.815Y-5.4813
X2.815Y-5.5413
X2.815Y-5.6014
X2.845Y-5.5113
X2.845Y-5.5714
T2
X2.0669Y-4.8524
X2.185Y-4.7441
X2.3228Y-4.8228
X2.3425Y-5.3543
X2.378Y-4.936
X2.4016Y-4.8425
X2.4016Y-5.0886
X2.4409Y-4.6752
X2.4409Y-4.8425
X2.4606Y-3.1988
X2.4803Y-5.0394
X2.5Y-5.561
X2.5Y-5.8071
X2.5591Y-3.4252
X2.5984Y-3.3071
X2.6378Y-3.2677
X2.6772Y-5.3937
X2.6772Y-5.4331
X2.7516Y-5.3303
X2.874Y-5.7559
X2.9134Y-5.3543
X2.9134Y-5.7283
X2.9213Y-5.7913
X2.9429Y-3.1102
X2.9526Y-5.0865
X2.9724Y-5.2165
X3.0118Y-5.2559
X3.0118Y-5.8268
X3.0217Y-3.8484
X3.0315Y-3.6909
X3.0906Y-4.0748
X3.1654Y-5.5748
X3.1732Y-5.2126
X3.1732Y-5.4961
X3.189Y-5.0394
X3.189Y-5.1024
X3.189Y-5.315
X3.1969Y-5.2677
X3.2047Y-4.7874
X3.2205Y-5.3465
X3.2283Y-3.0709
X3.2283Y-4.5276
X3.2283Y-4.8976
X3.2283Y-5.0098
X3.2677Y-4.0157
X3.2677Y-5.063
X3.2874Y-5.0
X3.2953Y-4.6969
X3.3071Y-3.5827
X3.3346Y-4.7362
X3.378Y-5.1181
X3.3858Y-4.5276
X3.4006Y-5.5955
X3.4252Y-4.5669
X3.435Y-4.9213
X3.4646Y-4.7638
X3.4646Y-5.378
X3.4724Y-5.5984
X3.5197Y-5.315
X3.5236Y-4.498
X3.5433Y-4.2913
X3.5433Y-5.4114
X3.5728Y-5.1181
X3.5748Y-5.2677
X3.5827Y-4.5669
X3.5827Y-4.9213
X3.5906Y-5.3465
X3.5984Y-5.4252
X3.5984Y-5.5039
X3.622Y-3.8976
X3.622Y-4.1732
X3.622Y-4.7244
X3.622Y-5.5906
X3.622Y-5.7283
X3.7008Y-4.2126
X3.7323Y-5.4252
X3.7795Y-4.4882
X3.7795Y-4.685
X3.8031Y-5.4331
X3.811Y-5.189
X3.811Y-5.2283
X3.8533Y-5.7136
X3.937Y-3.1102
X3.9665Y-4.5079
X4.0Y-5.4803
X4.0157Y-3.6614
X4.0157Y-3.9764
X4.0236Y-5.4331
X4.1417Y-5.189
X4.1417Y-5.2283
X4.1673Y-5.3996
X4.2362Y-5.3937
X4.2756Y-5.5492
X4.2815Y-5.3543
X4.3465Y-5.5492
X4.4094Y-5.6102
X4.5748Y-5.0157
X5.0512Y-5.6417
X5.063Y-5.3071
X5.1024Y-5.6378
X5.1575Y-5.3307
X5.1575Y-5.4567
X5.2362Y-5.4331
X5.2362Y-5.7402
X5.2441Y-5.7008
X5.315Y-5.1024
X5.3858Y-5.6063
X5.4567Y-5.6693
X5.4724Y-5.1024
X5.685Y-5.5906
X5.7953Y-5.1339
X5.9055Y-5.1102
X6.126Y-5.4173
T3
X2.1417Y-4.2362
X2.1752Y-5.187
X2.248Y-3.5827
X2.2835Y-3.5039
X2.4016Y-4.0157
X2.4902Y-4.6161
X2.5Y-4.1831
X2.8051Y-4.0157
X2.9429Y-2.1752
X2.9528Y-5.6693
X3.0807Y-4.2815
X3.3661Y-4.1929
X3.4226Y-4.3281
X3.5289Y-4.2218
X3.6142Y-1.9449
X3.7008Y-1.9449
X4.0315Y-5.7165
X4.0709Y-5.5591
X4.0787Y-5.811
X4.1417Y-5.7165
X4.2441Y-1.9685
X4.3307Y-1.9685
X4.3307Y-5.6929
T4
X4.4587Y-5.5886
X4.4902Y-5.6358
X4.5217Y-5.5886
X4.5531Y-5.6358
X4.5846Y-5.5886
T5
X2.0988Y-4.9598
X2.0988Y-5.0598
X2.1433Y-5.3437
X2.1433Y-5.4437
X2.278Y-4.2677
X2.378Y-4.2677
X2.6657Y-4.9114
X2.7657Y-4.9114
X2.9618Y-4.9287
X3.0618Y-4.9287
X3.9862Y-4.1618
X3.9862Y-4.2618
X4.328Y-5.1028
X4.3701Y-5.3839
X4.428Y-5.1028
X4.4701Y-5.3839
X4.6323Y-5.1181
X4.7323Y-5.1181
X5.9933Y-3.8953
X6.0933Y-3.8953
T6
X4.2421Y-4.3406
X5.7185Y-4.3406
T7
X3.4459Y-2.3829
X3.8189Y-3.1969
X3.8583Y-3.8583
X4.3898Y-4.0748
X4.4291Y-3.1917
X4.4685Y-2.372
T8
X3.5614Y-3.7008
X3.6008Y-2.8272
X3.6614Y-3.7008
X3.7008Y-2.8272
X3.7614Y-3.7008
X3.8008Y-2.8272
X4.2701Y-2.8272
X4.2882Y-3.6441
X4.3701Y-2.8272
X4.3882Y-3.6441
X4.4701Y-2.8272
X4.4882Y-3.6441
T9
X2.5591Y-2.4844
X2.5591Y-2.6285
X2.5591Y-2.8045
X2.5591Y-2.9486
T10
X4.378Y-5.7874
X4.6654Y-5.7874
T11
X5.0295Y-2.687
X5.7776Y-2.687
T12
X2.1654Y-1.7323
X2.1654Y-5.689
X6.1122Y-5.6988
X6.122Y-1.7323
T13
X2.2047Y-2.5984
X2.2047Y-3.0315
X6.0728Y-4.2224
X6.0728Y-4.685
M30
