%TF.GenerationSoftware,KiCad,Pcbnew,8.0.8*%
%TF.CreationDate,2025-01-31T07:59:14+01:00*%
%TF.ProjectId,H_bridge_PCB,485f6272-6964-4676-955f-5043422e6b69,rev?*%
%TF.SameCoordinates,Original*%
%TF.FileFunction,Drillmap*%
%TF.FilePolarity,Positive*%
%FSLAX45Y45*%
G04 Gerber Fmt 4.5, Leading zero omitted, Abs format (unit mm)*
G04 Created by KiCad (PCBNEW 8.0.8) date 2025-01-31 07:59:14*
%MOMM*%
%LPD*%
G01*
G04 APERTURE LIST*
%ADD10C,0.050000*%
%ADD11C,0.200000*%
%ADD12C,0.100000*%
%ADD13C,0.130000*%
%ADD14C,0.138000*%
%ADD15C,0.165000*%
%ADD16C,0.320000*%
%ADD17C,0.338000*%
%ADD18C,0.541000*%
G04 APERTURE END LIST*
D10*
X5000000Y-4950000D02*
X15000000Y-4950000D01*
X15000000Y-14950000D02*
X5000000Y-14950000D01*
X15000000Y-4950000D02*
X15000000Y-14950000D01*
X5000000Y-14950000D02*
X5000000Y-4950000D01*
D11*
D12*
X6911250Y-13988750D02*
X6931250Y-14008750D01*
X6931250Y-13988750D02*
X6911250Y-14008750D01*
X6911250Y-14141250D02*
X6931250Y-14161250D01*
X6931250Y-14141250D02*
X6911250Y-14161250D01*
X6987500Y-13912500D02*
X7007500Y-13932500D01*
X7007500Y-13912500D02*
X6987500Y-13932500D01*
X6987500Y-14065000D02*
X7007500Y-14085000D01*
X7007500Y-14065000D02*
X6987500Y-14085000D01*
X6987500Y-14217500D02*
X7007500Y-14237500D01*
X7007500Y-14217500D02*
X6987500Y-14237500D01*
X7063750Y-13988750D02*
X7083750Y-14008750D01*
X7083750Y-13988750D02*
X7063750Y-14008750D01*
X7063750Y-14141250D02*
X7083750Y-14161250D01*
X7083750Y-14141250D02*
X7063750Y-14161250D01*
X7140000Y-13912500D02*
X7160000Y-13932500D01*
X7160000Y-13912500D02*
X7140000Y-13932500D01*
X7140000Y-14065000D02*
X7160000Y-14085000D01*
X7160000Y-14065000D02*
X7140000Y-14085000D01*
X7140000Y-14217500D02*
X7160000Y-14237500D01*
X7160000Y-14217500D02*
X7140000Y-14237500D01*
X7216250Y-13988750D02*
X7236250Y-14008750D01*
X7236250Y-13988750D02*
X7216250Y-14008750D01*
X7216250Y-14141250D02*
X7236250Y-14161250D01*
X7236250Y-14141250D02*
X7216250Y-14161250D01*
X5515000Y-11000000D02*
G75*
G02*
X5485000Y-11000000I-15000J0D01*
G01*
X5485000Y-11000000D02*
G75*
G02*
X5515000Y-11000000I15000J0D01*
G01*
X5915000Y-12400000D02*
G75*
G02*
X5885000Y-12400000I-15000J0D01*
G01*
X5885000Y-12400000D02*
G75*
G02*
X5915000Y-12400000I15000J0D01*
G01*
X5915000Y-12600000D02*
G75*
G02*
X5885000Y-12600000I-15000J0D01*
G01*
X5885000Y-12600000D02*
G75*
G02*
X5915000Y-12600000I15000J0D01*
G01*
X6115000Y-12300000D02*
G75*
G02*
X6085000Y-12300000I-15000J0D01*
G01*
X6085000Y-12300000D02*
G75*
G02*
X6115000Y-12300000I15000J0D01*
G01*
X6115000Y-12800000D02*
G75*
G02*
X6085000Y-12800000I-15000J0D01*
G01*
X6085000Y-12800000D02*
G75*
G02*
X6115000Y-12800000I15000J0D01*
G01*
X6215000Y-12300000D02*
G75*
G02*
X6185000Y-12300000I-15000J0D01*
G01*
X6185000Y-12300000D02*
G75*
G02*
X6215000Y-12300000I15000J0D01*
G01*
X6315000Y-12800000D02*
G75*
G02*
X6285000Y-12800000I-15000J0D01*
G01*
X6285000Y-12800000D02*
G75*
G02*
X6315000Y-12800000I15000J0D01*
G01*
X6365000Y-14750000D02*
G75*
G02*
X6335000Y-14750000I-15000J0D01*
G01*
X6335000Y-14750000D02*
G75*
G02*
X6365000Y-14750000I15000J0D01*
G01*
X6515000Y-8700000D02*
G75*
G02*
X6485000Y-8700000I-15000J0D01*
G01*
X6485000Y-8700000D02*
G75*
G02*
X6515000Y-8700000I15000J0D01*
G01*
X6615000Y-8400000D02*
G75*
G02*
X6585000Y-8400000I-15000J0D01*
G01*
X6585000Y-8400000D02*
G75*
G02*
X6615000Y-8400000I15000J0D01*
G01*
X6715000Y-8300000D02*
G75*
G02*
X6685000Y-8300000I-15000J0D01*
G01*
X6685000Y-8300000D02*
G75*
G02*
X6715000Y-8300000I15000J0D01*
G01*
X6815000Y-7900000D02*
G75*
G02*
X6785000Y-7900000I-15000J0D01*
G01*
X6785000Y-7900000D02*
G75*
G02*
X6815000Y-7900000I15000J0D01*
G01*
X6815000Y-13700000D02*
G75*
G02*
X6785000Y-13700000I-15000J0D01*
G01*
X6785000Y-13700000D02*
G75*
G02*
X6815000Y-13700000I15000J0D01*
G01*
X6815000Y-13800000D02*
G75*
G02*
X6785000Y-13800000I-15000J0D01*
G01*
X6785000Y-13800000D02*
G75*
G02*
X6815000Y-13800000I15000J0D01*
G01*
X6915000Y-11200000D02*
G75*
G02*
X6885000Y-11200000I-15000J0D01*
G01*
X6885000Y-11200000D02*
G75*
G02*
X6915000Y-11200000I15000J0D01*
G01*
X7115000Y-10600000D02*
G75*
G02*
X7085000Y-10600000I-15000J0D01*
G01*
X7085000Y-10600000D02*
G75*
G02*
X7115000Y-10600000I15000J0D01*
G01*
X7165000Y-14600000D02*
G75*
G02*
X7135000Y-14600000I-15000J0D01*
G01*
X7135000Y-14600000D02*
G75*
G02*
X7165000Y-14600000I15000J0D01*
G01*
X7165000Y-14700000D02*
G75*
G02*
X7135000Y-14700000I-15000J0D01*
G01*
X7135000Y-14700000D02*
G75*
G02*
X7165000Y-14700000I15000J0D01*
G01*
X7315000Y-9500000D02*
G75*
G02*
X7285000Y-9500000I-15000J0D01*
G01*
X7285000Y-9500000D02*
G75*
G02*
X7315000Y-9500000I15000J0D01*
G01*
X7315000Y-9500000D02*
G75*
G02*
X7285000Y-9500000I-15000J0D01*
G01*
X7285000Y-9500000D02*
G75*
G02*
X7315000Y-9500000I15000J0D01*
G01*
X7415000Y-9900000D02*
G75*
G02*
X7385000Y-9900000I-15000J0D01*
G01*
X7385000Y-9900000D02*
G75*
G02*
X7415000Y-9900000I15000J0D01*
G01*
X7415000Y-11300000D02*
G75*
G02*
X7385000Y-11300000I-15000J0D01*
G01*
X7385000Y-11300000D02*
G75*
G02*
X7415000Y-11300000I15000J0D01*
G01*
X7465000Y-13175000D02*
G75*
G02*
X7435000Y-13175000I-15000J0D01*
G01*
X7435000Y-13175000D02*
G75*
G02*
X7465000Y-13175000I15000J0D01*
G01*
X7515000Y-13400000D02*
G75*
G02*
X7485000Y-13400000I-15000J0D01*
G01*
X7485000Y-13400000D02*
G75*
G02*
X7515000Y-13400000I15000J0D01*
G01*
X7515000Y-13800000D02*
G75*
G02*
X7485000Y-13800000I-15000J0D01*
G01*
X7485000Y-13800000D02*
G75*
G02*
X7515000Y-13800000I15000J0D01*
G01*
X7515000Y-13900000D02*
G75*
G02*
X7485000Y-13900000I-15000J0D01*
G01*
X7485000Y-13900000D02*
G75*
G02*
X7515000Y-13900000I15000J0D01*
G01*
X7565000Y-13250000D02*
G75*
G02*
X7535000Y-13250000I-15000J0D01*
G01*
X7535000Y-13250000D02*
G75*
G02*
X7565000Y-13250000I15000J0D01*
G01*
X7665000Y-14800000D02*
G75*
G02*
X7635000Y-14800000I-15000J0D01*
G01*
X7635000Y-14800000D02*
G75*
G02*
X7665000Y-14800000I15000J0D01*
G01*
X7715000Y-13500000D02*
G75*
G02*
X7685000Y-13500000I-15000J0D01*
G01*
X7685000Y-13500000D02*
G75*
G02*
X7715000Y-13500000I15000J0D01*
G01*
X7715000Y-13600000D02*
G75*
G02*
X7685000Y-13600000I-15000J0D01*
G01*
X7685000Y-13600000D02*
G75*
G02*
X7715000Y-13600000I15000J0D01*
G01*
X8115000Y-12800000D02*
G75*
G02*
X8085000Y-12800000I-15000J0D01*
G01*
X8085000Y-12800000D02*
G75*
G02*
X8115000Y-12800000I15000J0D01*
G01*
X8115000Y-13100000D02*
G75*
G02*
X8085000Y-13100000I-15000J0D01*
G01*
X8085000Y-13100000D02*
G75*
G02*
X8115000Y-13100000I15000J0D01*
G01*
X8215000Y-7800000D02*
G75*
G02*
X8185000Y-7800000I-15000J0D01*
G01*
X8185000Y-7800000D02*
G75*
G02*
X8215000Y-7800000I15000J0D01*
G01*
X8215000Y-11500000D02*
G75*
G02*
X8185000Y-11500000I-15000J0D01*
G01*
X8185000Y-11500000D02*
G75*
G02*
X8215000Y-11500000I15000J0D01*
G01*
X8215000Y-12725000D02*
G75*
G02*
X8185000Y-12725000I-15000J0D01*
G01*
X8185000Y-12725000D02*
G75*
G02*
X8215000Y-12725000I15000J0D01*
G01*
X8315000Y-10200000D02*
G75*
G02*
X8285000Y-10200000I-15000J0D01*
G01*
X8285000Y-10200000D02*
G75*
G02*
X8315000Y-10200000I15000J0D01*
G01*
X8365000Y-12700000D02*
G75*
G02*
X8335000Y-12700000I-15000J0D01*
G01*
X8335000Y-12700000D02*
G75*
G02*
X8365000Y-12700000I15000J0D01*
G01*
X8415000Y-9100000D02*
G75*
G02*
X8385000Y-9100000I-15000J0D01*
G01*
X8385000Y-9100000D02*
G75*
G02*
X8415000Y-9100000I15000J0D01*
G01*
X8615000Y-11500000D02*
G75*
G02*
X8585000Y-11500000I-15000J0D01*
G01*
X8585000Y-11500000D02*
G75*
G02*
X8615000Y-11500000I15000J0D01*
G01*
X8615000Y-14800000D02*
G75*
G02*
X8585000Y-14800000I-15000J0D01*
G01*
X8585000Y-14800000D02*
G75*
G02*
X8615000Y-14800000I15000J0D01*
G01*
X8715000Y-11600000D02*
G75*
G02*
X8685000Y-11600000I-15000J0D01*
G01*
X8685000Y-11600000D02*
G75*
G02*
X8715000Y-11600000I15000J0D01*
G01*
X8740000Y-12500000D02*
G75*
G02*
X8710000Y-12500000I-15000J0D01*
G01*
X8710000Y-12500000D02*
G75*
G02*
X8740000Y-12500000I15000J0D01*
G01*
X8765000Y-14250000D02*
G75*
G02*
X8735000Y-14250000I-15000J0D01*
G01*
X8735000Y-14250000D02*
G75*
G02*
X8765000Y-14250000I15000J0D01*
G01*
X8815000Y-12100000D02*
G75*
G02*
X8785000Y-12100000I-15000J0D01*
G01*
X8785000Y-12100000D02*
G75*
G02*
X8815000Y-12100000I15000J0D01*
G01*
X8815000Y-14000000D02*
G75*
G02*
X8785000Y-14000000I-15000J0D01*
G01*
X8785000Y-14000000D02*
G75*
G02*
X8815000Y-14000000I15000J0D01*
G01*
X8965000Y-11425000D02*
G75*
G02*
X8935000Y-11425000I-15000J0D01*
G01*
X8935000Y-11425000D02*
G75*
G02*
X8965000Y-11425000I15000J0D01*
G01*
X8965000Y-13900000D02*
G75*
G02*
X8935000Y-13900000I-15000J0D01*
G01*
X8935000Y-13900000D02*
G75*
G02*
X8965000Y-13900000I15000J0D01*
G01*
X8965000Y-14100000D02*
G75*
G02*
X8935000Y-14100000I-15000J0D01*
G01*
X8935000Y-14100000D02*
G75*
G02*
X8965000Y-14100000I15000J0D01*
G01*
X9015000Y-10900000D02*
G75*
G02*
X8985000Y-10900000I-15000J0D01*
G01*
X8985000Y-10900000D02*
G75*
G02*
X9015000Y-10900000I15000J0D01*
G01*
X9090000Y-13000000D02*
G75*
G02*
X9060000Y-13000000I-15000J0D01*
G01*
X9060000Y-13000000D02*
G75*
G02*
X9090000Y-13000000I15000J0D01*
G01*
X9115000Y-11600000D02*
G75*
G02*
X9085000Y-11600000I-15000J0D01*
G01*
X9085000Y-11600000D02*
G75*
G02*
X9115000Y-11600000I15000J0D01*
G01*
X9115000Y-12500000D02*
G75*
G02*
X9085000Y-12500000I-15000J0D01*
G01*
X9085000Y-12500000D02*
G75*
G02*
X9115000Y-12500000I15000J0D01*
G01*
X9115000Y-13400000D02*
G75*
G02*
X9085000Y-13400000I-15000J0D01*
G01*
X9085000Y-13400000D02*
G75*
G02*
X9115000Y-13400000I15000J0D01*
G01*
X9215000Y-9900000D02*
G75*
G02*
X9185000Y-9900000I-15000J0D01*
G01*
X9185000Y-9900000D02*
G75*
G02*
X9215000Y-9900000I15000J0D01*
G01*
X9215000Y-10600000D02*
G75*
G02*
X9185000Y-10600000I-15000J0D01*
G01*
X9185000Y-10600000D02*
G75*
G02*
X9215000Y-10600000I15000J0D01*
G01*
X9215000Y-10800000D02*
G75*
G02*
X9185000Y-10800000I-15000J0D01*
G01*
X9185000Y-10800000D02*
G75*
G02*
X9215000Y-10800000I15000J0D01*
G01*
X9215000Y-12000000D02*
G75*
G02*
X9185000Y-12000000I-15000J0D01*
G01*
X9185000Y-12000000D02*
G75*
G02*
X9215000Y-12000000I15000J0D01*
G01*
X9215000Y-14800000D02*
G75*
G02*
X9185000Y-14800000I-15000J0D01*
G01*
X9185000Y-14800000D02*
G75*
G02*
X9215000Y-14800000I15000J0D01*
G01*
X9415000Y-13400000D02*
G75*
G02*
X9385000Y-13400000I-15000J0D01*
G01*
X9385000Y-13400000D02*
G75*
G02*
X9415000Y-13400000I15000J0D01*
G01*
X9415000Y-13900000D02*
G75*
G02*
X9385000Y-13900000I-15000J0D01*
G01*
X9385000Y-13900000D02*
G75*
G02*
X9415000Y-13900000I15000J0D01*
G01*
X9415000Y-14150000D02*
G75*
G02*
X9385000Y-14150000I-15000J0D01*
G01*
X9385000Y-14150000D02*
G75*
G02*
X9415000Y-14150000I15000J0D01*
G01*
X9415000Y-14250000D02*
G75*
G02*
X9385000Y-14250000I-15000J0D01*
G01*
X9385000Y-14250000D02*
G75*
G02*
X9415000Y-14250000I15000J0D01*
G01*
X9565000Y-13850000D02*
G75*
G02*
X9535000Y-13850000I-15000J0D01*
G01*
X9535000Y-13850000D02*
G75*
G02*
X9565000Y-13850000I15000J0D01*
G01*
X9615000Y-11400000D02*
G75*
G02*
X9585000Y-11400000I-15000J0D01*
G01*
X9585000Y-11400000D02*
G75*
G02*
X9615000Y-11400000I15000J0D01*
G01*
X9615000Y-11900000D02*
G75*
G02*
X9585000Y-11900000I-15000J0D01*
G01*
X9585000Y-11900000D02*
G75*
G02*
X9615000Y-11900000I15000J0D01*
G01*
X9765000Y-14200000D02*
G75*
G02*
X9735000Y-14200000I-15000J0D01*
G01*
X9735000Y-14200000D02*
G75*
G02*
X9765000Y-14200000I15000J0D01*
G01*
X9790000Y-13675000D02*
G75*
G02*
X9760000Y-13675000I-15000J0D01*
G01*
X9760000Y-13675000D02*
G75*
G02*
X9790000Y-13675000I15000J0D01*
G01*
X9915000Y-13700000D02*
G75*
G02*
X9885000Y-13700000I-15000J0D01*
G01*
X9885000Y-13700000D02*
G75*
G02*
X9915000Y-13700000I15000J0D01*
G01*
X10115000Y-7900000D02*
G75*
G02*
X10085000Y-7900000I-15000J0D01*
G01*
X10085000Y-7900000D02*
G75*
G02*
X10115000Y-7900000I15000J0D01*
G01*
X10215000Y-9300000D02*
G75*
G02*
X10185000Y-9300000I-15000J0D01*
G01*
X10185000Y-9300000D02*
G75*
G02*
X10215000Y-9300000I15000J0D01*
G01*
X10215000Y-10100000D02*
G75*
G02*
X10185000Y-10100000I-15000J0D01*
G01*
X10185000Y-10100000D02*
G75*
G02*
X10215000Y-10100000I15000J0D01*
G01*
X10715000Y-13600000D02*
G75*
G02*
X10685000Y-13600000I-15000J0D01*
G01*
X10685000Y-13600000D02*
G75*
G02*
X10715000Y-13600000I15000J0D01*
G01*
X10815000Y-13500000D02*
G75*
G02*
X10785000Y-13500000I-15000J0D01*
G01*
X10785000Y-13500000D02*
G75*
G02*
X10815000Y-13500000I15000J0D01*
G01*
X11115000Y-13400000D02*
G75*
G02*
X11085000Y-13400000I-15000J0D01*
G01*
X11085000Y-13400000D02*
G75*
G02*
X11115000Y-13400000I15000J0D01*
G01*
X11315000Y-14700000D02*
G75*
G02*
X11285000Y-14700000I-15000J0D01*
G01*
X11285000Y-14700000D02*
G75*
G02*
X11315000Y-14700000I15000J0D01*
G01*
X11415000Y-13500000D02*
G75*
G02*
X11385000Y-13500000I-15000J0D01*
G01*
X11385000Y-13500000D02*
G75*
G02*
X11415000Y-13500000I15000J0D01*
G01*
X11415000Y-14200000D02*
G75*
G02*
X11385000Y-14200000I-15000J0D01*
G01*
X11385000Y-14200000D02*
G75*
G02*
X11415000Y-14200000I15000J0D01*
G01*
X11615000Y-14700000D02*
G75*
G02*
X11585000Y-14700000I-15000J0D01*
G01*
X11585000Y-14700000D02*
G75*
G02*
X11615000Y-14700000I15000J0D01*
G01*
X12351500Y-14500000D02*
G75*
G02*
X12321500Y-14500000I-15000J0D01*
G01*
X12321500Y-14500000D02*
G75*
G02*
X12351500Y-14500000I15000J0D01*
G01*
X12515000Y-14500000D02*
G75*
G02*
X12485000Y-14500000I-15000J0D01*
G01*
X12485000Y-14500000D02*
G75*
G02*
X12515000Y-14500000I15000J0D01*
G01*
X12615000Y-14400000D02*
G75*
G02*
X12585000Y-14400000I-15000J0D01*
G01*
X12585000Y-14400000D02*
G75*
G02*
X12615000Y-14400000I15000J0D01*
G01*
X13115000Y-14500000D02*
G75*
G02*
X13085000Y-14500000I-15000J0D01*
G01*
X13085000Y-14500000D02*
G75*
G02*
X13115000Y-14500000I15000J0D01*
G01*
X14515000Y-14450000D02*
G75*
G02*
X14485000Y-14450000I-15000J0D01*
G01*
X14485000Y-14450000D02*
G75*
G02*
X14515000Y-14450000I15000J0D01*
G01*
X14715000Y-12600000D02*
G75*
G02*
X14685000Y-12600000I-15000J0D01*
G01*
X14685000Y-12600000D02*
G75*
G02*
X14715000Y-12600000I15000J0D01*
G01*
X14715000Y-13600000D02*
G75*
G02*
X14685000Y-13600000I-15000J0D01*
G01*
X14685000Y-13600000D02*
G75*
G02*
X14715000Y-13600000I15000J0D01*
G01*
X5500000Y-13170000D02*
X5500000Y-13230000D01*
X5470000Y-13200000D02*
X5530000Y-13200000D01*
X5710000Y-9070000D02*
X5710000Y-9130000D01*
X5680000Y-9100000D02*
X5740000Y-9100000D01*
X5800000Y-8870000D02*
X5800000Y-8930000D01*
X5770000Y-8900000D02*
X5830000Y-8900000D01*
X6100000Y-10170000D02*
X6100000Y-10230000D01*
X6070000Y-10200000D02*
X6130000Y-10200000D01*
X6400000Y-10370000D02*
X6400000Y-10430000D01*
X6370000Y-10400000D02*
X6430000Y-10400000D01*
X6400000Y-11170000D02*
X6400000Y-11230000D01*
X6370000Y-11200000D02*
X6430000Y-11200000D01*
X6400000Y-11995000D02*
X6400000Y-12055000D01*
X6370000Y-12025000D02*
X6430000Y-12025000D01*
X7000000Y-10270000D02*
X7000000Y-10330000D01*
X6970000Y-10300000D02*
X7030000Y-10300000D01*
X7100000Y-9770000D02*
X7100000Y-9830000D01*
X7070000Y-9800000D02*
X7130000Y-9800000D01*
X7500000Y-14370000D02*
X7500000Y-14430000D01*
X7470000Y-14400000D02*
X7530000Y-14400000D01*
X7600000Y-9670000D02*
X7600000Y-9730000D01*
X7570000Y-9700000D02*
X7630000Y-9700000D01*
X9614213Y-14410713D02*
X9614213Y-14368287D01*
X9571787Y-14368287D01*
X9571787Y-14410713D01*
X9614213Y-14410713D01*
X9563000Y-14334500D02*
X9563000Y-14444500D01*
X9623000Y-14444500D02*
G75*
G02*
X9563000Y-14444500I-30000J0D01*
G01*
X9623000Y-14444500D02*
X9623000Y-14334500D01*
X9623000Y-14334500D02*
G75*
G03*
X9563000Y-14334500I-30000J0D01*
G01*
X9614213Y-14828713D02*
X9614213Y-14786287D01*
X9571787Y-14786287D01*
X9571787Y-14828713D01*
X9614213Y-14828713D01*
X9563000Y-14777500D02*
X9563000Y-14837500D01*
X9623000Y-14837500D02*
G75*
G02*
X9563000Y-14837500I-30000J0D01*
G01*
X9623000Y-14837500D02*
X9623000Y-14777500D01*
X9623000Y-14777500D02*
G75*
G03*
X9563000Y-14777500I-30000J0D01*
G01*
X10478213Y-14410713D02*
X10478213Y-14368287D01*
X10435787Y-14368287D01*
X10435787Y-14410713D01*
X10478213Y-14410713D01*
X10427000Y-14334500D02*
X10427000Y-14444500D01*
X10487000Y-14444500D02*
G75*
G02*
X10427000Y-14444500I-30000J0D01*
G01*
X10487000Y-14444500D02*
X10487000Y-14334500D01*
X10487000Y-14334500D02*
G75*
G03*
X10427000Y-14334500I-30000J0D01*
G01*
X10478213Y-14828713D02*
X10478213Y-14786287D01*
X10435787Y-14786287D01*
X10435787Y-14828713D01*
X10478213Y-14828713D01*
X10427000Y-14777500D02*
X10427000Y-14837500D01*
X10487000Y-14837500D02*
G75*
G02*
X10427000Y-14837500I-30000J0D01*
G01*
X10487000Y-14837500D02*
X10487000Y-14777500D01*
X10487000Y-14777500D02*
G75*
G03*
X10427000Y-14777500I-30000J0D01*
G01*
X5650000Y-13683000D02*
X5683000Y-13650000D01*
X5650000Y-13617000D01*
X5617000Y-13650000D01*
X5650000Y-13683000D01*
X5650000Y-13810000D02*
X5683000Y-13777000D01*
X5650000Y-13744000D01*
X5617000Y-13777000D01*
X5650000Y-13810000D01*
X6625000Y-12608000D02*
X6658000Y-12575000D01*
X6625000Y-12542000D01*
X6592000Y-12575000D01*
X6625000Y-12608000D01*
X6625000Y-12735000D02*
X6658000Y-12702000D01*
X6625000Y-12669000D01*
X6592000Y-12702000D01*
X6625000Y-12735000D01*
X7223000Y-12508000D02*
X7256000Y-12475000D01*
X7223000Y-12442000D01*
X7190000Y-12475000D01*
X7223000Y-12508000D01*
X7350000Y-12508000D02*
X7383000Y-12475000D01*
X7350000Y-12442000D01*
X7317000Y-12475000D01*
X7350000Y-12508000D01*
X7723000Y-12488000D02*
X7756000Y-12455000D01*
X7723000Y-12422000D01*
X7690000Y-12455000D01*
X7723000Y-12488000D01*
X7850000Y-12488000D02*
X7883000Y-12455000D01*
X7850000Y-12422000D01*
X7817000Y-12455000D01*
X7850000Y-12488000D01*
X13500000Y-14533000D02*
X13533000Y-14500000D01*
X13500000Y-14467000D01*
X13467000Y-14500000D01*
X13500000Y-14533000D01*
X13500000Y-14660000D02*
X13533000Y-14627000D01*
X13500000Y-14594000D01*
X13467000Y-14627000D01*
X13500000Y-14660000D01*
X10575000Y-11250000D02*
X10675000Y-11350000D01*
X10675000Y-11250000D02*
X10575000Y-11350000D01*
X10675000Y-11300000D02*
G75*
G02*
X10575000Y-11300000I-50000J0D01*
G01*
X10575000Y-11300000D02*
G75*
G02*
X10675000Y-11300000I50000J0D01*
G01*
X13325000Y-11250000D02*
X13425000Y-11350000D01*
X13425000Y-11250000D02*
X13325000Y-11350000D01*
X13425000Y-11300000D02*
G75*
G02*
X13325000Y-11300000I-50000J0D01*
G01*
X13325000Y-11300000D02*
G75*
G02*
X13425000Y-11300000I50000J0D01*
G01*
D13*
X8687500Y-5987500D02*
X8817500Y-6117500D01*
X8817500Y-5987500D02*
X8687500Y-6117500D01*
X8752500Y-5987500D02*
X8752500Y-6117500D01*
X8687500Y-6052500D02*
X8817500Y-6052500D01*
X9635000Y-8055000D02*
X9765000Y-8185000D01*
X9765000Y-8055000D02*
X9635000Y-8185000D01*
X9700000Y-8055000D02*
X9700000Y-8185000D01*
X9635000Y-8120000D02*
X9765000Y-8120000D01*
X9735000Y-9735000D02*
X9865000Y-9865000D01*
X9865000Y-9735000D02*
X9735000Y-9865000D01*
X9800000Y-9735000D02*
X9800000Y-9865000D01*
X9735000Y-9800000D02*
X9865000Y-9800000D01*
X10535000Y-5795000D02*
X10665000Y-5925000D01*
X10665000Y-5795000D02*
X10535000Y-5925000D01*
X10600000Y-5795000D02*
X10600000Y-5925000D01*
X10535000Y-5860000D02*
X10665000Y-5860000D01*
X11635000Y-8260000D02*
X11765000Y-8390000D01*
X11765000Y-8260000D02*
X11635000Y-8390000D01*
X11700000Y-8260000D02*
X11700000Y-8390000D01*
X11635000Y-8325000D02*
X11765000Y-8325000D01*
D14*
X8977000Y-9331000D02*
X9115000Y-9469000D01*
X9115000Y-9331000D02*
X8977000Y-9469000D01*
X9094791Y-9448791D02*
X9094791Y-9351209D01*
X8997209Y-9351209D01*
X8997209Y-9448791D01*
X9094791Y-9448791D01*
X9077000Y-7112000D02*
X9215000Y-7250000D01*
X9215000Y-7112000D02*
X9077000Y-7250000D01*
X9194791Y-7229791D02*
X9194791Y-7132209D01*
X9097209Y-7132209D01*
X9097209Y-7229791D01*
X9194791Y-7229791D01*
X9231000Y-9331000D02*
X9369000Y-9469000D01*
X9369000Y-9331000D02*
X9231000Y-9469000D01*
X9348791Y-9448791D02*
X9348791Y-9351209D01*
X9251209Y-9351209D01*
X9251209Y-9448791D01*
X9348791Y-9448791D01*
X9331000Y-7112000D02*
X9469000Y-7250000D01*
X9469000Y-7112000D02*
X9331000Y-7250000D01*
X9448791Y-7229791D02*
X9448791Y-7132209D01*
X9351209Y-7132209D01*
X9351209Y-7229791D01*
X9448791Y-7229791D01*
X9485000Y-9331000D02*
X9623000Y-9469000D01*
X9623000Y-9331000D02*
X9485000Y-9469000D01*
X9602791Y-9448791D02*
X9602791Y-9351209D01*
X9505209Y-9351209D01*
X9505209Y-9448791D01*
X9602791Y-9448791D01*
X9585000Y-7112000D02*
X9723000Y-7250000D01*
X9723000Y-7112000D02*
X9585000Y-7250000D01*
X9702791Y-7229791D02*
X9702791Y-7132209D01*
X9605209Y-7132209D01*
X9605209Y-7229791D01*
X9702791Y-7229791D01*
X10777000Y-7112000D02*
X10915000Y-7250000D01*
X10915000Y-7112000D02*
X10777000Y-7250000D01*
X10894791Y-7229791D02*
X10894791Y-7132209D01*
X10797209Y-7132209D01*
X10797209Y-7229791D01*
X10894791Y-7229791D01*
X10877000Y-9312000D02*
X11015000Y-9450000D01*
X11015000Y-9312000D02*
X10877000Y-9450000D01*
X10994791Y-9429791D02*
X10994791Y-9332209D01*
X10897209Y-9332209D01*
X10897209Y-9429791D01*
X10994791Y-9429791D01*
X11031000Y-7112000D02*
X11169000Y-7250000D01*
X11169000Y-7112000D02*
X11031000Y-7250000D01*
X11148791Y-7229791D02*
X11148791Y-7132209D01*
X11051209Y-7132209D01*
X11051209Y-7229791D01*
X11148791Y-7229791D01*
X11131000Y-9312000D02*
X11269000Y-9450000D01*
X11269000Y-9312000D02*
X11131000Y-9450000D01*
X11248791Y-9429791D02*
X11248791Y-9332209D01*
X11151209Y-9332209D01*
X11151209Y-9429791D01*
X11248791Y-9429791D01*
X11285000Y-7112000D02*
X11423000Y-7250000D01*
X11423000Y-7112000D02*
X11285000Y-7250000D01*
X11402791Y-7229791D02*
X11402791Y-7132209D01*
X11305209Y-7132209D01*
X11305209Y-7229791D01*
X11402791Y-7229791D01*
X11385000Y-9312000D02*
X11523000Y-9450000D01*
X11523000Y-9312000D02*
X11385000Y-9450000D01*
X11502791Y-9429791D02*
X11502791Y-9332209D01*
X11405209Y-9332209D01*
X11405209Y-9429791D01*
X11502791Y-9429791D01*
D15*
X6417500Y-6228000D02*
X6582500Y-6393000D01*
X6582500Y-6228000D02*
X6417500Y-6393000D01*
X6500000Y-6393000D02*
X6582500Y-6310500D01*
X6500000Y-6228000D01*
X6417500Y-6310500D01*
X6500000Y-6393000D01*
X6417500Y-6594000D02*
X6582500Y-6759000D01*
X6582500Y-6594000D02*
X6417500Y-6759000D01*
X6500000Y-6759000D02*
X6582500Y-6676500D01*
X6500000Y-6594000D01*
X6417500Y-6676500D01*
X6500000Y-6759000D01*
X6417500Y-7041000D02*
X6582500Y-7206000D01*
X6582500Y-7041000D02*
X6417500Y-7206000D01*
X6500000Y-7206000D02*
X6582500Y-7123500D01*
X6500000Y-7041000D01*
X6417500Y-7123500D01*
X6500000Y-7206000D01*
X6417500Y-7407000D02*
X6582500Y-7572000D01*
X6582500Y-7407000D02*
X6417500Y-7572000D01*
X6500000Y-7572000D02*
X6582500Y-7489500D01*
X6500000Y-7407000D01*
X6417500Y-7489500D01*
X6500000Y-7572000D01*
D16*
X5500000Y-5290000D02*
X5500000Y-5610000D01*
X5340000Y-5450000D02*
X5660000Y-5450000D01*
X5660000Y-5450000D02*
G75*
G02*
X5340000Y-5450000I-160000J0D01*
G01*
X5340000Y-5450000D02*
G75*
G02*
X5660000Y-5450000I160000J0D01*
G01*
X5500000Y-14290000D02*
X5500000Y-14610000D01*
X5340000Y-14450000D02*
X5660000Y-14450000D01*
X5660000Y-14450000D02*
G75*
G02*
X5340000Y-14450000I-160000J0D01*
G01*
X5340000Y-14450000D02*
G75*
G02*
X5660000Y-14450000I160000J0D01*
G01*
X14500000Y-5290000D02*
X14500000Y-5610000D01*
X14340000Y-5450000D02*
X14660000Y-5450000D01*
X14660000Y-5450000D02*
G75*
G02*
X14340000Y-5450000I-160000J0D01*
G01*
X14340000Y-5450000D02*
G75*
G02*
X14660000Y-5450000I160000J0D01*
G01*
X14500000Y-14290000D02*
X14500000Y-14610000D01*
X14340000Y-14450000D02*
X14660000Y-14450000D01*
X14660000Y-14450000D02*
G75*
G02*
X14340000Y-14450000I-160000J0D01*
G01*
X14340000Y-14450000D02*
G75*
G02*
X14660000Y-14450000I160000J0D01*
G01*
D17*
X13919502Y-7129502D02*
X13919502Y-6890498D01*
X13680498Y-6890498D01*
X13680498Y-7129502D01*
X13919502Y-7129502D01*
X13969000Y-7010000D02*
G75*
G02*
X13631000Y-7010000I-169000J0D01*
G01*
X13631000Y-7010000D02*
G75*
G02*
X13969000Y-7010000I169000J0D01*
G01*
X13919502Y-9509502D02*
X13919502Y-9270498D01*
X13680498Y-9270498D01*
X13680498Y-9509502D01*
X13919502Y-9509502D01*
X13969000Y-9390000D02*
G75*
G02*
X13631000Y-9390000I-169000J0D01*
G01*
X13631000Y-9390000D02*
G75*
G02*
X13969000Y-9390000I169000J0D01*
G01*
D18*
X5600000Y-6870500D02*
X5870500Y-6600000D01*
X5600000Y-6329500D01*
X5329500Y-6600000D01*
X5600000Y-6870500D01*
X5870500Y-6600000D02*
G75*
G02*
X5329500Y-6600000I-270500J0D01*
G01*
X5329500Y-6600000D02*
G75*
G02*
X5870500Y-6600000I270500J0D01*
G01*
X5600000Y-7970500D02*
X5870500Y-7700000D01*
X5600000Y-7429500D01*
X5329500Y-7700000D01*
X5600000Y-7970500D01*
X5870500Y-7700000D02*
G75*
G02*
X5329500Y-7700000I-270500J0D01*
G01*
X5329500Y-7700000D02*
G75*
G02*
X5870500Y-7700000I270500J0D01*
G01*
X14350000Y-11150500D02*
X14620500Y-10880000D01*
X14350000Y-10609500D01*
X14079500Y-10880000D01*
X14350000Y-11150500D01*
X14620500Y-10880000D02*
G75*
G02*
X14079500Y-10880000I-270500J0D01*
G01*
X14079500Y-10880000D02*
G75*
G02*
X14620500Y-10880000I270500J0D01*
G01*
X14350000Y-12320500D02*
X14620500Y-12050000D01*
X14350000Y-11779500D01*
X14079500Y-12050000D01*
X14350000Y-12320500D01*
X14620500Y-12050000D02*
G75*
G02*
X14079500Y-12050000I-270500J0D01*
G01*
X14079500Y-12050000D02*
G75*
G02*
X14620500Y-12050000I270500J0D01*
G01*
D11*
X5258277Y-15263984D02*
X5258277Y-15063984D01*
X5258277Y-15063984D02*
X5305896Y-15063984D01*
X5305896Y-15063984D02*
X5334467Y-15073508D01*
X5334467Y-15073508D02*
X5353515Y-15092555D01*
X5353515Y-15092555D02*
X5363039Y-15111603D01*
X5363039Y-15111603D02*
X5372563Y-15149698D01*
X5372563Y-15149698D02*
X5372563Y-15178269D01*
X5372563Y-15178269D02*
X5363039Y-15216365D01*
X5363039Y-15216365D02*
X5353515Y-15235412D01*
X5353515Y-15235412D02*
X5334467Y-15254460D01*
X5334467Y-15254460D02*
X5305896Y-15263984D01*
X5305896Y-15263984D02*
X5258277Y-15263984D01*
X5458277Y-15263984D02*
X5458277Y-15130650D01*
X5458277Y-15168746D02*
X5467801Y-15149698D01*
X5467801Y-15149698D02*
X5477324Y-15140174D01*
X5477324Y-15140174D02*
X5496372Y-15130650D01*
X5496372Y-15130650D02*
X5515420Y-15130650D01*
X5582086Y-15263984D02*
X5582086Y-15130650D01*
X5582086Y-15063984D02*
X5572563Y-15073508D01*
X5572563Y-15073508D02*
X5582086Y-15083031D01*
X5582086Y-15083031D02*
X5591610Y-15073508D01*
X5591610Y-15073508D02*
X5582086Y-15063984D01*
X5582086Y-15063984D02*
X5582086Y-15083031D01*
X5705896Y-15263984D02*
X5686848Y-15254460D01*
X5686848Y-15254460D02*
X5677324Y-15235412D01*
X5677324Y-15235412D02*
X5677324Y-15063984D01*
X5810658Y-15263984D02*
X5791610Y-15254460D01*
X5791610Y-15254460D02*
X5782086Y-15235412D01*
X5782086Y-15235412D02*
X5782086Y-15063984D01*
X6039229Y-15263984D02*
X6039229Y-15063984D01*
X6039229Y-15063984D02*
X6105896Y-15206841D01*
X6105896Y-15206841D02*
X6172562Y-15063984D01*
X6172562Y-15063984D02*
X6172562Y-15263984D01*
X6353515Y-15263984D02*
X6353515Y-15159222D01*
X6353515Y-15159222D02*
X6343991Y-15140174D01*
X6343991Y-15140174D02*
X6324943Y-15130650D01*
X6324943Y-15130650D02*
X6286848Y-15130650D01*
X6286848Y-15130650D02*
X6267801Y-15140174D01*
X6353515Y-15254460D02*
X6334467Y-15263984D01*
X6334467Y-15263984D02*
X6286848Y-15263984D01*
X6286848Y-15263984D02*
X6267801Y-15254460D01*
X6267801Y-15254460D02*
X6258277Y-15235412D01*
X6258277Y-15235412D02*
X6258277Y-15216365D01*
X6258277Y-15216365D02*
X6267801Y-15197317D01*
X6267801Y-15197317D02*
X6286848Y-15187793D01*
X6286848Y-15187793D02*
X6334467Y-15187793D01*
X6334467Y-15187793D02*
X6353515Y-15178269D01*
X6448753Y-15130650D02*
X6448753Y-15330650D01*
X6448753Y-15140174D02*
X6467801Y-15130650D01*
X6467801Y-15130650D02*
X6505896Y-15130650D01*
X6505896Y-15130650D02*
X6524943Y-15140174D01*
X6524943Y-15140174D02*
X6534467Y-15149698D01*
X6534467Y-15149698D02*
X6543991Y-15168746D01*
X6543991Y-15168746D02*
X6543991Y-15225888D01*
X6543991Y-15225888D02*
X6534467Y-15244936D01*
X6534467Y-15244936D02*
X6524943Y-15254460D01*
X6524943Y-15254460D02*
X6505896Y-15263984D01*
X6505896Y-15263984D02*
X6467801Y-15263984D01*
X6467801Y-15263984D02*
X6448753Y-15254460D01*
X6629705Y-15244936D02*
X6639229Y-15254460D01*
X6639229Y-15254460D02*
X6629705Y-15263984D01*
X6629705Y-15263984D02*
X6620182Y-15254460D01*
X6620182Y-15254460D02*
X6629705Y-15244936D01*
X6629705Y-15244936D02*
X6629705Y-15263984D01*
X6629705Y-15140174D02*
X6639229Y-15149698D01*
X6639229Y-15149698D02*
X6629705Y-15159222D01*
X6629705Y-15159222D02*
X6620182Y-15149698D01*
X6620182Y-15149698D02*
X6629705Y-15140174D01*
X6629705Y-15140174D02*
X6629705Y-15159222D01*
D12*
X4977500Y-15582500D02*
X4997500Y-15602500D01*
X4997500Y-15582500D02*
X4977500Y-15602500D01*
D11*
X5296372Y-15483984D02*
X5315420Y-15483984D01*
X5315420Y-15483984D02*
X5334467Y-15493508D01*
X5334467Y-15493508D02*
X5343991Y-15503031D01*
X5343991Y-15503031D02*
X5353515Y-15522079D01*
X5353515Y-15522079D02*
X5363039Y-15560174D01*
X5363039Y-15560174D02*
X5363039Y-15607793D01*
X5363039Y-15607793D02*
X5353515Y-15645888D01*
X5353515Y-15645888D02*
X5343991Y-15664936D01*
X5343991Y-15664936D02*
X5334467Y-15674460D01*
X5334467Y-15674460D02*
X5315420Y-15683984D01*
X5315420Y-15683984D02*
X5296372Y-15683984D01*
X5296372Y-15683984D02*
X5277324Y-15674460D01*
X5277324Y-15674460D02*
X5267801Y-15664936D01*
X5267801Y-15664936D02*
X5258277Y-15645888D01*
X5258277Y-15645888D02*
X5248753Y-15607793D01*
X5248753Y-15607793D02*
X5248753Y-15560174D01*
X5248753Y-15560174D02*
X5258277Y-15522079D01*
X5258277Y-15522079D02*
X5267801Y-15503031D01*
X5267801Y-15503031D02*
X5277324Y-15493508D01*
X5277324Y-15493508D02*
X5296372Y-15483984D01*
X5448753Y-15664936D02*
X5458277Y-15674460D01*
X5458277Y-15674460D02*
X5448753Y-15683984D01*
X5448753Y-15683984D02*
X5439229Y-15674460D01*
X5439229Y-15674460D02*
X5448753Y-15664936D01*
X5448753Y-15664936D02*
X5448753Y-15683984D01*
X5534467Y-15503031D02*
X5543991Y-15493508D01*
X5543991Y-15493508D02*
X5563039Y-15483984D01*
X5563039Y-15483984D02*
X5610658Y-15483984D01*
X5610658Y-15483984D02*
X5629705Y-15493508D01*
X5629705Y-15493508D02*
X5639229Y-15503031D01*
X5639229Y-15503031D02*
X5648753Y-15522079D01*
X5648753Y-15522079D02*
X5648753Y-15541127D01*
X5648753Y-15541127D02*
X5639229Y-15569698D01*
X5639229Y-15569698D02*
X5524944Y-15683984D01*
X5524944Y-15683984D02*
X5648753Y-15683984D01*
X5772562Y-15483984D02*
X5791610Y-15483984D01*
X5791610Y-15483984D02*
X5810658Y-15493508D01*
X5810658Y-15493508D02*
X5820182Y-15503031D01*
X5820182Y-15503031D02*
X5829705Y-15522079D01*
X5829705Y-15522079D02*
X5839229Y-15560174D01*
X5839229Y-15560174D02*
X5839229Y-15607793D01*
X5839229Y-15607793D02*
X5829705Y-15645888D01*
X5829705Y-15645888D02*
X5820182Y-15664936D01*
X5820182Y-15664936D02*
X5810658Y-15674460D01*
X5810658Y-15674460D02*
X5791610Y-15683984D01*
X5791610Y-15683984D02*
X5772562Y-15683984D01*
X5772562Y-15683984D02*
X5753515Y-15674460D01*
X5753515Y-15674460D02*
X5743991Y-15664936D01*
X5743991Y-15664936D02*
X5734467Y-15645888D01*
X5734467Y-15645888D02*
X5724943Y-15607793D01*
X5724943Y-15607793D02*
X5724943Y-15560174D01*
X5724943Y-15560174D02*
X5734467Y-15522079D01*
X5734467Y-15522079D02*
X5743991Y-15503031D01*
X5743991Y-15503031D02*
X5753515Y-15493508D01*
X5753515Y-15493508D02*
X5772562Y-15483984D01*
X5963039Y-15483984D02*
X5982086Y-15483984D01*
X5982086Y-15483984D02*
X6001134Y-15493508D01*
X6001134Y-15493508D02*
X6010658Y-15503031D01*
X6010658Y-15503031D02*
X6020182Y-15522079D01*
X6020182Y-15522079D02*
X6029705Y-15560174D01*
X6029705Y-15560174D02*
X6029705Y-15607793D01*
X6029705Y-15607793D02*
X6020182Y-15645888D01*
X6020182Y-15645888D02*
X6010658Y-15664936D01*
X6010658Y-15664936D02*
X6001134Y-15674460D01*
X6001134Y-15674460D02*
X5982086Y-15683984D01*
X5982086Y-15683984D02*
X5963039Y-15683984D01*
X5963039Y-15683984D02*
X5943991Y-15674460D01*
X5943991Y-15674460D02*
X5934467Y-15664936D01*
X5934467Y-15664936D02*
X5924943Y-15645888D01*
X5924943Y-15645888D02*
X5915420Y-15607793D01*
X5915420Y-15607793D02*
X5915420Y-15560174D01*
X5915420Y-15560174D02*
X5924943Y-15522079D01*
X5924943Y-15522079D02*
X5934467Y-15503031D01*
X5934467Y-15503031D02*
X5943991Y-15493508D01*
X5943991Y-15493508D02*
X5963039Y-15483984D01*
X6115420Y-15683984D02*
X6115420Y-15550650D01*
X6115420Y-15569698D02*
X6124943Y-15560174D01*
X6124943Y-15560174D02*
X6143991Y-15550650D01*
X6143991Y-15550650D02*
X6172563Y-15550650D01*
X6172563Y-15550650D02*
X6191610Y-15560174D01*
X6191610Y-15560174D02*
X6201134Y-15579222D01*
X6201134Y-15579222D02*
X6201134Y-15683984D01*
X6201134Y-15579222D02*
X6210658Y-15560174D01*
X6210658Y-15560174D02*
X6229705Y-15550650D01*
X6229705Y-15550650D02*
X6258277Y-15550650D01*
X6258277Y-15550650D02*
X6277324Y-15560174D01*
X6277324Y-15560174D02*
X6286848Y-15579222D01*
X6286848Y-15579222D02*
X6286848Y-15683984D01*
X6382086Y-15683984D02*
X6382086Y-15550650D01*
X6382086Y-15569698D02*
X6391610Y-15560174D01*
X6391610Y-15560174D02*
X6410658Y-15550650D01*
X6410658Y-15550650D02*
X6439229Y-15550650D01*
X6439229Y-15550650D02*
X6458277Y-15560174D01*
X6458277Y-15560174D02*
X6467801Y-15579222D01*
X6467801Y-15579222D02*
X6467801Y-15683984D01*
X6467801Y-15579222D02*
X6477324Y-15560174D01*
X6477324Y-15560174D02*
X6496372Y-15550650D01*
X6496372Y-15550650D02*
X6524943Y-15550650D01*
X6524943Y-15550650D02*
X6543991Y-15560174D01*
X6543991Y-15560174D02*
X6553515Y-15579222D01*
X6553515Y-15579222D02*
X6553515Y-15683984D01*
X6943991Y-15474460D02*
X6772563Y-15731603D01*
X7201134Y-15483984D02*
X7220182Y-15483984D01*
X7220182Y-15483984D02*
X7239229Y-15493508D01*
X7239229Y-15493508D02*
X7248753Y-15503031D01*
X7248753Y-15503031D02*
X7258277Y-15522079D01*
X7258277Y-15522079D02*
X7267801Y-15560174D01*
X7267801Y-15560174D02*
X7267801Y-15607793D01*
X7267801Y-15607793D02*
X7258277Y-15645888D01*
X7258277Y-15645888D02*
X7248753Y-15664936D01*
X7248753Y-15664936D02*
X7239229Y-15674460D01*
X7239229Y-15674460D02*
X7220182Y-15683984D01*
X7220182Y-15683984D02*
X7201134Y-15683984D01*
X7201134Y-15683984D02*
X7182086Y-15674460D01*
X7182086Y-15674460D02*
X7172563Y-15664936D01*
X7172563Y-15664936D02*
X7163039Y-15645888D01*
X7163039Y-15645888D02*
X7153515Y-15607793D01*
X7153515Y-15607793D02*
X7153515Y-15560174D01*
X7153515Y-15560174D02*
X7163039Y-15522079D01*
X7163039Y-15522079D02*
X7172563Y-15503031D01*
X7172563Y-15503031D02*
X7182086Y-15493508D01*
X7182086Y-15493508D02*
X7201134Y-15483984D01*
X7353515Y-15664936D02*
X7363039Y-15674460D01*
X7363039Y-15674460D02*
X7353515Y-15683984D01*
X7353515Y-15683984D02*
X7343991Y-15674460D01*
X7343991Y-15674460D02*
X7353515Y-15664936D01*
X7353515Y-15664936D02*
X7353515Y-15683984D01*
X7486848Y-15483984D02*
X7505896Y-15483984D01*
X7505896Y-15483984D02*
X7524944Y-15493508D01*
X7524944Y-15493508D02*
X7534467Y-15503031D01*
X7534467Y-15503031D02*
X7543991Y-15522079D01*
X7543991Y-15522079D02*
X7553515Y-15560174D01*
X7553515Y-15560174D02*
X7553515Y-15607793D01*
X7553515Y-15607793D02*
X7543991Y-15645888D01*
X7543991Y-15645888D02*
X7534467Y-15664936D01*
X7534467Y-15664936D02*
X7524944Y-15674460D01*
X7524944Y-15674460D02*
X7505896Y-15683984D01*
X7505896Y-15683984D02*
X7486848Y-15683984D01*
X7486848Y-15683984D02*
X7467801Y-15674460D01*
X7467801Y-15674460D02*
X7458277Y-15664936D01*
X7458277Y-15664936D02*
X7448753Y-15645888D01*
X7448753Y-15645888D02*
X7439229Y-15607793D01*
X7439229Y-15607793D02*
X7439229Y-15560174D01*
X7439229Y-15560174D02*
X7448753Y-15522079D01*
X7448753Y-15522079D02*
X7458277Y-15503031D01*
X7458277Y-15503031D02*
X7467801Y-15493508D01*
X7467801Y-15493508D02*
X7486848Y-15483984D01*
X7677325Y-15483984D02*
X7696372Y-15483984D01*
X7696372Y-15483984D02*
X7715420Y-15493508D01*
X7715420Y-15493508D02*
X7724944Y-15503031D01*
X7724944Y-15503031D02*
X7734467Y-15522079D01*
X7734467Y-15522079D02*
X7743991Y-15560174D01*
X7743991Y-15560174D02*
X7743991Y-15607793D01*
X7743991Y-15607793D02*
X7734467Y-15645888D01*
X7734467Y-15645888D02*
X7724944Y-15664936D01*
X7724944Y-15664936D02*
X7715420Y-15674460D01*
X7715420Y-15674460D02*
X7696372Y-15683984D01*
X7696372Y-15683984D02*
X7677325Y-15683984D01*
X7677325Y-15683984D02*
X7658277Y-15674460D01*
X7658277Y-15674460D02*
X7648753Y-15664936D01*
X7648753Y-15664936D02*
X7639229Y-15645888D01*
X7639229Y-15645888D02*
X7629706Y-15607793D01*
X7629706Y-15607793D02*
X7629706Y-15560174D01*
X7629706Y-15560174D02*
X7639229Y-15522079D01*
X7639229Y-15522079D02*
X7648753Y-15503031D01*
X7648753Y-15503031D02*
X7658277Y-15493508D01*
X7658277Y-15493508D02*
X7677325Y-15483984D01*
X7810658Y-15483984D02*
X7943991Y-15483984D01*
X7943991Y-15483984D02*
X7858277Y-15683984D01*
X8029706Y-15683984D02*
X8067801Y-15683984D01*
X8067801Y-15683984D02*
X8086848Y-15674460D01*
X8086848Y-15674460D02*
X8096372Y-15664936D01*
X8096372Y-15664936D02*
X8115420Y-15636365D01*
X8115420Y-15636365D02*
X8124944Y-15598269D01*
X8124944Y-15598269D02*
X8124944Y-15522079D01*
X8124944Y-15522079D02*
X8115420Y-15503031D01*
X8115420Y-15503031D02*
X8105896Y-15493508D01*
X8105896Y-15493508D02*
X8086848Y-15483984D01*
X8086848Y-15483984D02*
X8048753Y-15483984D01*
X8048753Y-15483984D02*
X8029706Y-15493508D01*
X8029706Y-15493508D02*
X8020182Y-15503031D01*
X8020182Y-15503031D02*
X8010658Y-15522079D01*
X8010658Y-15522079D02*
X8010658Y-15569698D01*
X8010658Y-15569698D02*
X8020182Y-15588746D01*
X8020182Y-15588746D02*
X8029706Y-15598269D01*
X8029706Y-15598269D02*
X8048753Y-15607793D01*
X8048753Y-15607793D02*
X8086848Y-15607793D01*
X8086848Y-15607793D02*
X8105896Y-15598269D01*
X8105896Y-15598269D02*
X8115420Y-15588746D01*
X8115420Y-15588746D02*
X8124944Y-15569698D01*
X8201134Y-15483984D02*
X8201134Y-15522079D01*
X8277325Y-15483984D02*
X8277325Y-15522079D01*
X8572563Y-15760174D02*
X8563039Y-15750650D01*
X8563039Y-15750650D02*
X8543991Y-15722079D01*
X8543991Y-15722079D02*
X8534468Y-15703031D01*
X8534468Y-15703031D02*
X8524944Y-15674460D01*
X8524944Y-15674460D02*
X8515420Y-15626841D01*
X8515420Y-15626841D02*
X8515420Y-15588746D01*
X8515420Y-15588746D02*
X8524944Y-15541127D01*
X8524944Y-15541127D02*
X8534468Y-15512555D01*
X8534468Y-15512555D02*
X8543991Y-15493508D01*
X8543991Y-15493508D02*
X8563039Y-15464936D01*
X8563039Y-15464936D02*
X8572563Y-15455412D01*
X8753515Y-15683984D02*
X8639230Y-15683984D01*
X8696372Y-15683984D02*
X8696372Y-15483984D01*
X8696372Y-15483984D02*
X8677325Y-15512555D01*
X8677325Y-15512555D02*
X8658277Y-15531603D01*
X8658277Y-15531603D02*
X8639230Y-15541127D01*
X8829706Y-15503031D02*
X8839230Y-15493508D01*
X8839230Y-15493508D02*
X8858277Y-15483984D01*
X8858277Y-15483984D02*
X8905896Y-15483984D01*
X8905896Y-15483984D02*
X8924944Y-15493508D01*
X8924944Y-15493508D02*
X8934468Y-15503031D01*
X8934468Y-15503031D02*
X8943991Y-15522079D01*
X8943991Y-15522079D02*
X8943991Y-15541127D01*
X8943991Y-15541127D02*
X8934468Y-15569698D01*
X8934468Y-15569698D02*
X8820182Y-15683984D01*
X8820182Y-15683984D02*
X8943991Y-15683984D01*
X9182087Y-15683984D02*
X9182087Y-15483984D01*
X9267801Y-15683984D02*
X9267801Y-15579222D01*
X9267801Y-15579222D02*
X9258277Y-15560174D01*
X9258277Y-15560174D02*
X9239230Y-15550650D01*
X9239230Y-15550650D02*
X9210658Y-15550650D01*
X9210658Y-15550650D02*
X9191611Y-15560174D01*
X9191611Y-15560174D02*
X9182087Y-15569698D01*
X9391611Y-15683984D02*
X9372563Y-15674460D01*
X9372563Y-15674460D02*
X9363039Y-15664936D01*
X9363039Y-15664936D02*
X9353515Y-15645888D01*
X9353515Y-15645888D02*
X9353515Y-15588746D01*
X9353515Y-15588746D02*
X9363039Y-15569698D01*
X9363039Y-15569698D02*
X9372563Y-15560174D01*
X9372563Y-15560174D02*
X9391611Y-15550650D01*
X9391611Y-15550650D02*
X9420182Y-15550650D01*
X9420182Y-15550650D02*
X9439230Y-15560174D01*
X9439230Y-15560174D02*
X9448753Y-15569698D01*
X9448753Y-15569698D02*
X9458277Y-15588746D01*
X9458277Y-15588746D02*
X9458277Y-15645888D01*
X9458277Y-15645888D02*
X9448753Y-15664936D01*
X9448753Y-15664936D02*
X9439230Y-15674460D01*
X9439230Y-15674460D02*
X9420182Y-15683984D01*
X9420182Y-15683984D02*
X9391611Y-15683984D01*
X9572563Y-15683984D02*
X9553515Y-15674460D01*
X9553515Y-15674460D02*
X9543992Y-15655412D01*
X9543992Y-15655412D02*
X9543992Y-15483984D01*
X9724944Y-15674460D02*
X9705896Y-15683984D01*
X9705896Y-15683984D02*
X9667801Y-15683984D01*
X9667801Y-15683984D02*
X9648753Y-15674460D01*
X9648753Y-15674460D02*
X9639230Y-15655412D01*
X9639230Y-15655412D02*
X9639230Y-15579222D01*
X9639230Y-15579222D02*
X9648753Y-15560174D01*
X9648753Y-15560174D02*
X9667801Y-15550650D01*
X9667801Y-15550650D02*
X9705896Y-15550650D01*
X9705896Y-15550650D02*
X9724944Y-15560174D01*
X9724944Y-15560174D02*
X9734468Y-15579222D01*
X9734468Y-15579222D02*
X9734468Y-15598269D01*
X9734468Y-15598269D02*
X9639230Y-15617317D01*
X9810658Y-15674460D02*
X9829706Y-15683984D01*
X9829706Y-15683984D02*
X9867801Y-15683984D01*
X9867801Y-15683984D02*
X9886849Y-15674460D01*
X9886849Y-15674460D02*
X9896373Y-15655412D01*
X9896373Y-15655412D02*
X9896373Y-15645888D01*
X9896373Y-15645888D02*
X9886849Y-15626841D01*
X9886849Y-15626841D02*
X9867801Y-15617317D01*
X9867801Y-15617317D02*
X9839230Y-15617317D01*
X9839230Y-15617317D02*
X9820182Y-15607793D01*
X9820182Y-15607793D02*
X9810658Y-15588746D01*
X9810658Y-15588746D02*
X9810658Y-15579222D01*
X9810658Y-15579222D02*
X9820182Y-15560174D01*
X9820182Y-15560174D02*
X9839230Y-15550650D01*
X9839230Y-15550650D02*
X9867801Y-15550650D01*
X9867801Y-15550650D02*
X9886849Y-15560174D01*
X9963039Y-15760174D02*
X9972563Y-15750650D01*
X9972563Y-15750650D02*
X9991611Y-15722079D01*
X9991611Y-15722079D02*
X10001134Y-15703031D01*
X10001134Y-15703031D02*
X10010658Y-15674460D01*
X10010658Y-15674460D02*
X10020182Y-15626841D01*
X10020182Y-15626841D02*
X10020182Y-15588746D01*
X10020182Y-15588746D02*
X10010658Y-15541127D01*
X10010658Y-15541127D02*
X10001134Y-15512555D01*
X10001134Y-15512555D02*
X9991611Y-15493508D01*
X9991611Y-15493508D02*
X9972563Y-15464936D01*
X9972563Y-15464936D02*
X9963039Y-15455412D01*
D12*
X4997500Y-15856500D02*
G75*
G02*
X4967500Y-15856500I-15000J0D01*
G01*
X4967500Y-15856500D02*
G75*
G02*
X4997500Y-15856500I15000J0D01*
G01*
D11*
X5296372Y-15747984D02*
X5315420Y-15747984D01*
X5315420Y-15747984D02*
X5334467Y-15757508D01*
X5334467Y-15757508D02*
X5343991Y-15767031D01*
X5343991Y-15767031D02*
X5353515Y-15786079D01*
X5353515Y-15786079D02*
X5363039Y-15824174D01*
X5363039Y-15824174D02*
X5363039Y-15871793D01*
X5363039Y-15871793D02*
X5353515Y-15909888D01*
X5353515Y-15909888D02*
X5343991Y-15928936D01*
X5343991Y-15928936D02*
X5334467Y-15938460D01*
X5334467Y-15938460D02*
X5315420Y-15947984D01*
X5315420Y-15947984D02*
X5296372Y-15947984D01*
X5296372Y-15947984D02*
X5277324Y-15938460D01*
X5277324Y-15938460D02*
X5267801Y-15928936D01*
X5267801Y-15928936D02*
X5258277Y-15909888D01*
X5258277Y-15909888D02*
X5248753Y-15871793D01*
X5248753Y-15871793D02*
X5248753Y-15824174D01*
X5248753Y-15824174D02*
X5258277Y-15786079D01*
X5258277Y-15786079D02*
X5267801Y-15767031D01*
X5267801Y-15767031D02*
X5277324Y-15757508D01*
X5277324Y-15757508D02*
X5296372Y-15747984D01*
X5448753Y-15928936D02*
X5458277Y-15938460D01*
X5458277Y-15938460D02*
X5448753Y-15947984D01*
X5448753Y-15947984D02*
X5439229Y-15938460D01*
X5439229Y-15938460D02*
X5448753Y-15928936D01*
X5448753Y-15928936D02*
X5448753Y-15947984D01*
X5524944Y-15747984D02*
X5648753Y-15747984D01*
X5648753Y-15747984D02*
X5582086Y-15824174D01*
X5582086Y-15824174D02*
X5610658Y-15824174D01*
X5610658Y-15824174D02*
X5629705Y-15833698D01*
X5629705Y-15833698D02*
X5639229Y-15843222D01*
X5639229Y-15843222D02*
X5648753Y-15862269D01*
X5648753Y-15862269D02*
X5648753Y-15909888D01*
X5648753Y-15909888D02*
X5639229Y-15928936D01*
X5639229Y-15928936D02*
X5629705Y-15938460D01*
X5629705Y-15938460D02*
X5610658Y-15947984D01*
X5610658Y-15947984D02*
X5553515Y-15947984D01*
X5553515Y-15947984D02*
X5534467Y-15938460D01*
X5534467Y-15938460D02*
X5524944Y-15928936D01*
X5772562Y-15747984D02*
X5791610Y-15747984D01*
X5791610Y-15747984D02*
X5810658Y-15757508D01*
X5810658Y-15757508D02*
X5820182Y-15767031D01*
X5820182Y-15767031D02*
X5829705Y-15786079D01*
X5829705Y-15786079D02*
X5839229Y-15824174D01*
X5839229Y-15824174D02*
X5839229Y-15871793D01*
X5839229Y-15871793D02*
X5829705Y-15909888D01*
X5829705Y-15909888D02*
X5820182Y-15928936D01*
X5820182Y-15928936D02*
X5810658Y-15938460D01*
X5810658Y-15938460D02*
X5791610Y-15947984D01*
X5791610Y-15947984D02*
X5772562Y-15947984D01*
X5772562Y-15947984D02*
X5753515Y-15938460D01*
X5753515Y-15938460D02*
X5743991Y-15928936D01*
X5743991Y-15928936D02*
X5734467Y-15909888D01*
X5734467Y-15909888D02*
X5724943Y-15871793D01*
X5724943Y-15871793D02*
X5724943Y-15824174D01*
X5724943Y-15824174D02*
X5734467Y-15786079D01*
X5734467Y-15786079D02*
X5743991Y-15767031D01*
X5743991Y-15767031D02*
X5753515Y-15757508D01*
X5753515Y-15757508D02*
X5772562Y-15747984D01*
X5963039Y-15747984D02*
X5982086Y-15747984D01*
X5982086Y-15747984D02*
X6001134Y-15757508D01*
X6001134Y-15757508D02*
X6010658Y-15767031D01*
X6010658Y-15767031D02*
X6020182Y-15786079D01*
X6020182Y-15786079D02*
X6029705Y-15824174D01*
X6029705Y-15824174D02*
X6029705Y-15871793D01*
X6029705Y-15871793D02*
X6020182Y-15909888D01*
X6020182Y-15909888D02*
X6010658Y-15928936D01*
X6010658Y-15928936D02*
X6001134Y-15938460D01*
X6001134Y-15938460D02*
X5982086Y-15947984D01*
X5982086Y-15947984D02*
X5963039Y-15947984D01*
X5963039Y-15947984D02*
X5943991Y-15938460D01*
X5943991Y-15938460D02*
X5934467Y-15928936D01*
X5934467Y-15928936D02*
X5924943Y-15909888D01*
X5924943Y-15909888D02*
X5915420Y-15871793D01*
X5915420Y-15871793D02*
X5915420Y-15824174D01*
X5915420Y-15824174D02*
X5924943Y-15786079D01*
X5924943Y-15786079D02*
X5934467Y-15767031D01*
X5934467Y-15767031D02*
X5943991Y-15757508D01*
X5943991Y-15757508D02*
X5963039Y-15747984D01*
X6115420Y-15947984D02*
X6115420Y-15814650D01*
X6115420Y-15833698D02*
X6124943Y-15824174D01*
X6124943Y-15824174D02*
X6143991Y-15814650D01*
X6143991Y-15814650D02*
X6172563Y-15814650D01*
X6172563Y-15814650D02*
X6191610Y-15824174D01*
X6191610Y-15824174D02*
X6201134Y-15843222D01*
X6201134Y-15843222D02*
X6201134Y-15947984D01*
X6201134Y-15843222D02*
X6210658Y-15824174D01*
X6210658Y-15824174D02*
X6229705Y-15814650D01*
X6229705Y-15814650D02*
X6258277Y-15814650D01*
X6258277Y-15814650D02*
X6277324Y-15824174D01*
X6277324Y-15824174D02*
X6286848Y-15843222D01*
X6286848Y-15843222D02*
X6286848Y-15947984D01*
X6382086Y-15947984D02*
X6382086Y-15814650D01*
X6382086Y-15833698D02*
X6391610Y-15824174D01*
X6391610Y-15824174D02*
X6410658Y-15814650D01*
X6410658Y-15814650D02*
X6439229Y-15814650D01*
X6439229Y-15814650D02*
X6458277Y-15824174D01*
X6458277Y-15824174D02*
X6467801Y-15843222D01*
X6467801Y-15843222D02*
X6467801Y-15947984D01*
X6467801Y-15843222D02*
X6477324Y-15824174D01*
X6477324Y-15824174D02*
X6496372Y-15814650D01*
X6496372Y-15814650D02*
X6524943Y-15814650D01*
X6524943Y-15814650D02*
X6543991Y-15824174D01*
X6543991Y-15824174D02*
X6553515Y-15843222D01*
X6553515Y-15843222D02*
X6553515Y-15947984D01*
X6943991Y-15738460D02*
X6772563Y-15995603D01*
X7201134Y-15747984D02*
X7220182Y-15747984D01*
X7220182Y-15747984D02*
X7239229Y-15757508D01*
X7239229Y-15757508D02*
X7248753Y-15767031D01*
X7248753Y-15767031D02*
X7258277Y-15786079D01*
X7258277Y-15786079D02*
X7267801Y-15824174D01*
X7267801Y-15824174D02*
X7267801Y-15871793D01*
X7267801Y-15871793D02*
X7258277Y-15909888D01*
X7258277Y-15909888D02*
X7248753Y-15928936D01*
X7248753Y-15928936D02*
X7239229Y-15938460D01*
X7239229Y-15938460D02*
X7220182Y-15947984D01*
X7220182Y-15947984D02*
X7201134Y-15947984D01*
X7201134Y-15947984D02*
X7182086Y-15938460D01*
X7182086Y-15938460D02*
X7172563Y-15928936D01*
X7172563Y-15928936D02*
X7163039Y-15909888D01*
X7163039Y-15909888D02*
X7153515Y-15871793D01*
X7153515Y-15871793D02*
X7153515Y-15824174D01*
X7153515Y-15824174D02*
X7163039Y-15786079D01*
X7163039Y-15786079D02*
X7172563Y-15767031D01*
X7172563Y-15767031D02*
X7182086Y-15757508D01*
X7182086Y-15757508D02*
X7201134Y-15747984D01*
X7353515Y-15928936D02*
X7363039Y-15938460D01*
X7363039Y-15938460D02*
X7353515Y-15947984D01*
X7353515Y-15947984D02*
X7343991Y-15938460D01*
X7343991Y-15938460D02*
X7353515Y-15928936D01*
X7353515Y-15928936D02*
X7353515Y-15947984D01*
X7486848Y-15747984D02*
X7505896Y-15747984D01*
X7505896Y-15747984D02*
X7524944Y-15757508D01*
X7524944Y-15757508D02*
X7534467Y-15767031D01*
X7534467Y-15767031D02*
X7543991Y-15786079D01*
X7543991Y-15786079D02*
X7553515Y-15824174D01*
X7553515Y-15824174D02*
X7553515Y-15871793D01*
X7553515Y-15871793D02*
X7543991Y-15909888D01*
X7543991Y-15909888D02*
X7534467Y-15928936D01*
X7534467Y-15928936D02*
X7524944Y-15938460D01*
X7524944Y-15938460D02*
X7505896Y-15947984D01*
X7505896Y-15947984D02*
X7486848Y-15947984D01*
X7486848Y-15947984D02*
X7467801Y-15938460D01*
X7467801Y-15938460D02*
X7458277Y-15928936D01*
X7458277Y-15928936D02*
X7448753Y-15909888D01*
X7448753Y-15909888D02*
X7439229Y-15871793D01*
X7439229Y-15871793D02*
X7439229Y-15824174D01*
X7439229Y-15824174D02*
X7448753Y-15786079D01*
X7448753Y-15786079D02*
X7458277Y-15767031D01*
X7458277Y-15767031D02*
X7467801Y-15757508D01*
X7467801Y-15757508D02*
X7486848Y-15747984D01*
X7743991Y-15947984D02*
X7629706Y-15947984D01*
X7686848Y-15947984D02*
X7686848Y-15747984D01*
X7686848Y-15747984D02*
X7667801Y-15776555D01*
X7667801Y-15776555D02*
X7648753Y-15795603D01*
X7648753Y-15795603D02*
X7629706Y-15805127D01*
X7934467Y-15947984D02*
X7820182Y-15947984D01*
X7877325Y-15947984D02*
X7877325Y-15747984D01*
X7877325Y-15747984D02*
X7858277Y-15776555D01*
X7858277Y-15776555D02*
X7839229Y-15795603D01*
X7839229Y-15795603D02*
X7820182Y-15805127D01*
X8048753Y-15833698D02*
X8029706Y-15824174D01*
X8029706Y-15824174D02*
X8020182Y-15814650D01*
X8020182Y-15814650D02*
X8010658Y-15795603D01*
X8010658Y-15795603D02*
X8010658Y-15786079D01*
X8010658Y-15786079D02*
X8020182Y-15767031D01*
X8020182Y-15767031D02*
X8029706Y-15757508D01*
X8029706Y-15757508D02*
X8048753Y-15747984D01*
X8048753Y-15747984D02*
X8086848Y-15747984D01*
X8086848Y-15747984D02*
X8105896Y-15757508D01*
X8105896Y-15757508D02*
X8115420Y-15767031D01*
X8115420Y-15767031D02*
X8124944Y-15786079D01*
X8124944Y-15786079D02*
X8124944Y-15795603D01*
X8124944Y-15795603D02*
X8115420Y-15814650D01*
X8115420Y-15814650D02*
X8105896Y-15824174D01*
X8105896Y-15824174D02*
X8086848Y-15833698D01*
X8086848Y-15833698D02*
X8048753Y-15833698D01*
X8048753Y-15833698D02*
X8029706Y-15843222D01*
X8029706Y-15843222D02*
X8020182Y-15852746D01*
X8020182Y-15852746D02*
X8010658Y-15871793D01*
X8010658Y-15871793D02*
X8010658Y-15909888D01*
X8010658Y-15909888D02*
X8020182Y-15928936D01*
X8020182Y-15928936D02*
X8029706Y-15938460D01*
X8029706Y-15938460D02*
X8048753Y-15947984D01*
X8048753Y-15947984D02*
X8086848Y-15947984D01*
X8086848Y-15947984D02*
X8105896Y-15938460D01*
X8105896Y-15938460D02*
X8115420Y-15928936D01*
X8115420Y-15928936D02*
X8124944Y-15909888D01*
X8124944Y-15909888D02*
X8124944Y-15871793D01*
X8124944Y-15871793D02*
X8115420Y-15852746D01*
X8115420Y-15852746D02*
X8105896Y-15843222D01*
X8105896Y-15843222D02*
X8086848Y-15833698D01*
X8201134Y-15747984D02*
X8201134Y-15786079D01*
X8277325Y-15747984D02*
X8277325Y-15786079D01*
X8572563Y-16024174D02*
X8563039Y-16014650D01*
X8563039Y-16014650D02*
X8543991Y-15986079D01*
X8543991Y-15986079D02*
X8534468Y-15967031D01*
X8534468Y-15967031D02*
X8524944Y-15938460D01*
X8524944Y-15938460D02*
X8515420Y-15890841D01*
X8515420Y-15890841D02*
X8515420Y-15852746D01*
X8515420Y-15852746D02*
X8524944Y-15805127D01*
X8524944Y-15805127D02*
X8534468Y-15776555D01*
X8534468Y-15776555D02*
X8543991Y-15757508D01*
X8543991Y-15757508D02*
X8563039Y-15728936D01*
X8563039Y-15728936D02*
X8572563Y-15719412D01*
X8677325Y-15833698D02*
X8658277Y-15824174D01*
X8658277Y-15824174D02*
X8648753Y-15814650D01*
X8648753Y-15814650D02*
X8639230Y-15795603D01*
X8639230Y-15795603D02*
X8639230Y-15786079D01*
X8639230Y-15786079D02*
X8648753Y-15767031D01*
X8648753Y-15767031D02*
X8658277Y-15757508D01*
X8658277Y-15757508D02*
X8677325Y-15747984D01*
X8677325Y-15747984D02*
X8715420Y-15747984D01*
X8715420Y-15747984D02*
X8734468Y-15757508D01*
X8734468Y-15757508D02*
X8743991Y-15767031D01*
X8743991Y-15767031D02*
X8753515Y-15786079D01*
X8753515Y-15786079D02*
X8753515Y-15795603D01*
X8753515Y-15795603D02*
X8743991Y-15814650D01*
X8743991Y-15814650D02*
X8734468Y-15824174D01*
X8734468Y-15824174D02*
X8715420Y-15833698D01*
X8715420Y-15833698D02*
X8677325Y-15833698D01*
X8677325Y-15833698D02*
X8658277Y-15843222D01*
X8658277Y-15843222D02*
X8648753Y-15852746D01*
X8648753Y-15852746D02*
X8639230Y-15871793D01*
X8639230Y-15871793D02*
X8639230Y-15909888D01*
X8639230Y-15909888D02*
X8648753Y-15928936D01*
X8648753Y-15928936D02*
X8658277Y-15938460D01*
X8658277Y-15938460D02*
X8677325Y-15947984D01*
X8677325Y-15947984D02*
X8715420Y-15947984D01*
X8715420Y-15947984D02*
X8734468Y-15938460D01*
X8734468Y-15938460D02*
X8743991Y-15928936D01*
X8743991Y-15928936D02*
X8753515Y-15909888D01*
X8753515Y-15909888D02*
X8753515Y-15871793D01*
X8753515Y-15871793D02*
X8743991Y-15852746D01*
X8743991Y-15852746D02*
X8734468Y-15843222D01*
X8734468Y-15843222D02*
X8715420Y-15833698D01*
X8934468Y-15747984D02*
X8839230Y-15747984D01*
X8839230Y-15747984D02*
X8829706Y-15843222D01*
X8829706Y-15843222D02*
X8839230Y-15833698D01*
X8839230Y-15833698D02*
X8858277Y-15824174D01*
X8858277Y-15824174D02*
X8905896Y-15824174D01*
X8905896Y-15824174D02*
X8924944Y-15833698D01*
X8924944Y-15833698D02*
X8934468Y-15843222D01*
X8934468Y-15843222D02*
X8943991Y-15862269D01*
X8943991Y-15862269D02*
X8943991Y-15909888D01*
X8943991Y-15909888D02*
X8934468Y-15928936D01*
X8934468Y-15928936D02*
X8924944Y-15938460D01*
X8924944Y-15938460D02*
X8905896Y-15947984D01*
X8905896Y-15947984D02*
X8858277Y-15947984D01*
X8858277Y-15947984D02*
X8839230Y-15938460D01*
X8839230Y-15938460D02*
X8829706Y-15928936D01*
X9182087Y-15947984D02*
X9182087Y-15747984D01*
X9267801Y-15947984D02*
X9267801Y-15843222D01*
X9267801Y-15843222D02*
X9258277Y-15824174D01*
X9258277Y-15824174D02*
X9239230Y-15814650D01*
X9239230Y-15814650D02*
X9210658Y-15814650D01*
X9210658Y-15814650D02*
X9191611Y-15824174D01*
X9191611Y-15824174D02*
X9182087Y-15833698D01*
X9391611Y-15947984D02*
X9372563Y-15938460D01*
X9372563Y-15938460D02*
X9363039Y-15928936D01*
X9363039Y-15928936D02*
X9353515Y-15909888D01*
X9353515Y-15909888D02*
X9353515Y-15852746D01*
X9353515Y-15852746D02*
X9363039Y-15833698D01*
X9363039Y-15833698D02*
X9372563Y-15824174D01*
X9372563Y-15824174D02*
X9391611Y-15814650D01*
X9391611Y-15814650D02*
X9420182Y-15814650D01*
X9420182Y-15814650D02*
X9439230Y-15824174D01*
X9439230Y-15824174D02*
X9448753Y-15833698D01*
X9448753Y-15833698D02*
X9458277Y-15852746D01*
X9458277Y-15852746D02*
X9458277Y-15909888D01*
X9458277Y-15909888D02*
X9448753Y-15928936D01*
X9448753Y-15928936D02*
X9439230Y-15938460D01*
X9439230Y-15938460D02*
X9420182Y-15947984D01*
X9420182Y-15947984D02*
X9391611Y-15947984D01*
X9572563Y-15947984D02*
X9553515Y-15938460D01*
X9553515Y-15938460D02*
X9543992Y-15919412D01*
X9543992Y-15919412D02*
X9543992Y-15747984D01*
X9724944Y-15938460D02*
X9705896Y-15947984D01*
X9705896Y-15947984D02*
X9667801Y-15947984D01*
X9667801Y-15947984D02*
X9648753Y-15938460D01*
X9648753Y-15938460D02*
X9639230Y-15919412D01*
X9639230Y-15919412D02*
X9639230Y-15843222D01*
X9639230Y-15843222D02*
X9648753Y-15824174D01*
X9648753Y-15824174D02*
X9667801Y-15814650D01*
X9667801Y-15814650D02*
X9705896Y-15814650D01*
X9705896Y-15814650D02*
X9724944Y-15824174D01*
X9724944Y-15824174D02*
X9734468Y-15843222D01*
X9734468Y-15843222D02*
X9734468Y-15862269D01*
X9734468Y-15862269D02*
X9639230Y-15881317D01*
X9810658Y-15938460D02*
X9829706Y-15947984D01*
X9829706Y-15947984D02*
X9867801Y-15947984D01*
X9867801Y-15947984D02*
X9886849Y-15938460D01*
X9886849Y-15938460D02*
X9896373Y-15919412D01*
X9896373Y-15919412D02*
X9896373Y-15909888D01*
X9896373Y-15909888D02*
X9886849Y-15890841D01*
X9886849Y-15890841D02*
X9867801Y-15881317D01*
X9867801Y-15881317D02*
X9839230Y-15881317D01*
X9839230Y-15881317D02*
X9820182Y-15871793D01*
X9820182Y-15871793D02*
X9810658Y-15852746D01*
X9810658Y-15852746D02*
X9810658Y-15843222D01*
X9810658Y-15843222D02*
X9820182Y-15824174D01*
X9820182Y-15824174D02*
X9839230Y-15814650D01*
X9839230Y-15814650D02*
X9867801Y-15814650D01*
X9867801Y-15814650D02*
X9886849Y-15824174D01*
X9963039Y-16024174D02*
X9972563Y-16014650D01*
X9972563Y-16014650D02*
X9991611Y-15986079D01*
X9991611Y-15986079D02*
X10001134Y-15967031D01*
X10001134Y-15967031D02*
X10010658Y-15938460D01*
X10010658Y-15938460D02*
X10020182Y-15890841D01*
X10020182Y-15890841D02*
X10020182Y-15852746D01*
X10020182Y-15852746D02*
X10010658Y-15805127D01*
X10010658Y-15805127D02*
X10001134Y-15776555D01*
X10001134Y-15776555D02*
X9991611Y-15757508D01*
X9991611Y-15757508D02*
X9972563Y-15728936D01*
X9972563Y-15728936D02*
X9963039Y-15719412D01*
D12*
X4967500Y-16090500D02*
X4967500Y-16150500D01*
X4937500Y-16120500D02*
X4997500Y-16120500D01*
D11*
X5296372Y-16011984D02*
X5315420Y-16011984D01*
X5315420Y-16011984D02*
X5334467Y-16021508D01*
X5334467Y-16021508D02*
X5343991Y-16031031D01*
X5343991Y-16031031D02*
X5353515Y-16050079D01*
X5353515Y-16050079D02*
X5363039Y-16088174D01*
X5363039Y-16088174D02*
X5363039Y-16135793D01*
X5363039Y-16135793D02*
X5353515Y-16173888D01*
X5353515Y-16173888D02*
X5343991Y-16192936D01*
X5343991Y-16192936D02*
X5334467Y-16202460D01*
X5334467Y-16202460D02*
X5315420Y-16211984D01*
X5315420Y-16211984D02*
X5296372Y-16211984D01*
X5296372Y-16211984D02*
X5277324Y-16202460D01*
X5277324Y-16202460D02*
X5267801Y-16192936D01*
X5267801Y-16192936D02*
X5258277Y-16173888D01*
X5258277Y-16173888D02*
X5248753Y-16135793D01*
X5248753Y-16135793D02*
X5248753Y-16088174D01*
X5248753Y-16088174D02*
X5258277Y-16050079D01*
X5258277Y-16050079D02*
X5267801Y-16031031D01*
X5267801Y-16031031D02*
X5277324Y-16021508D01*
X5277324Y-16021508D02*
X5296372Y-16011984D01*
X5448753Y-16192936D02*
X5458277Y-16202460D01*
X5458277Y-16202460D02*
X5448753Y-16211984D01*
X5448753Y-16211984D02*
X5439229Y-16202460D01*
X5439229Y-16202460D02*
X5448753Y-16192936D01*
X5448753Y-16192936D02*
X5448753Y-16211984D01*
X5629705Y-16011984D02*
X5591610Y-16011984D01*
X5591610Y-16011984D02*
X5572563Y-16021508D01*
X5572563Y-16021508D02*
X5563039Y-16031031D01*
X5563039Y-16031031D02*
X5543991Y-16059603D01*
X5543991Y-16059603D02*
X5534467Y-16097698D01*
X5534467Y-16097698D02*
X5534467Y-16173888D01*
X5534467Y-16173888D02*
X5543991Y-16192936D01*
X5543991Y-16192936D02*
X5553515Y-16202460D01*
X5553515Y-16202460D02*
X5572563Y-16211984D01*
X5572563Y-16211984D02*
X5610658Y-16211984D01*
X5610658Y-16211984D02*
X5629705Y-16202460D01*
X5629705Y-16202460D02*
X5639229Y-16192936D01*
X5639229Y-16192936D02*
X5648753Y-16173888D01*
X5648753Y-16173888D02*
X5648753Y-16126269D01*
X5648753Y-16126269D02*
X5639229Y-16107222D01*
X5639229Y-16107222D02*
X5629705Y-16097698D01*
X5629705Y-16097698D02*
X5610658Y-16088174D01*
X5610658Y-16088174D02*
X5572563Y-16088174D01*
X5572563Y-16088174D02*
X5553515Y-16097698D01*
X5553515Y-16097698D02*
X5543991Y-16107222D01*
X5543991Y-16107222D02*
X5534467Y-16126269D01*
X5772562Y-16011984D02*
X5791610Y-16011984D01*
X5791610Y-16011984D02*
X5810658Y-16021508D01*
X5810658Y-16021508D02*
X5820182Y-16031031D01*
X5820182Y-16031031D02*
X5829705Y-16050079D01*
X5829705Y-16050079D02*
X5839229Y-16088174D01*
X5839229Y-16088174D02*
X5839229Y-16135793D01*
X5839229Y-16135793D02*
X5829705Y-16173888D01*
X5829705Y-16173888D02*
X5820182Y-16192936D01*
X5820182Y-16192936D02*
X5810658Y-16202460D01*
X5810658Y-16202460D02*
X5791610Y-16211984D01*
X5791610Y-16211984D02*
X5772562Y-16211984D01*
X5772562Y-16211984D02*
X5753515Y-16202460D01*
X5753515Y-16202460D02*
X5743991Y-16192936D01*
X5743991Y-16192936D02*
X5734467Y-16173888D01*
X5734467Y-16173888D02*
X5724943Y-16135793D01*
X5724943Y-16135793D02*
X5724943Y-16088174D01*
X5724943Y-16088174D02*
X5734467Y-16050079D01*
X5734467Y-16050079D02*
X5743991Y-16031031D01*
X5743991Y-16031031D02*
X5753515Y-16021508D01*
X5753515Y-16021508D02*
X5772562Y-16011984D01*
X5963039Y-16011984D02*
X5982086Y-16011984D01*
X5982086Y-16011984D02*
X6001134Y-16021508D01*
X6001134Y-16021508D02*
X6010658Y-16031031D01*
X6010658Y-16031031D02*
X6020182Y-16050079D01*
X6020182Y-16050079D02*
X6029705Y-16088174D01*
X6029705Y-16088174D02*
X6029705Y-16135793D01*
X6029705Y-16135793D02*
X6020182Y-16173888D01*
X6020182Y-16173888D02*
X6010658Y-16192936D01*
X6010658Y-16192936D02*
X6001134Y-16202460D01*
X6001134Y-16202460D02*
X5982086Y-16211984D01*
X5982086Y-16211984D02*
X5963039Y-16211984D01*
X5963039Y-16211984D02*
X5943991Y-16202460D01*
X5943991Y-16202460D02*
X5934467Y-16192936D01*
X5934467Y-16192936D02*
X5924943Y-16173888D01*
X5924943Y-16173888D02*
X5915420Y-16135793D01*
X5915420Y-16135793D02*
X5915420Y-16088174D01*
X5915420Y-16088174D02*
X5924943Y-16050079D01*
X5924943Y-16050079D02*
X5934467Y-16031031D01*
X5934467Y-16031031D02*
X5943991Y-16021508D01*
X5943991Y-16021508D02*
X5963039Y-16011984D01*
X6115420Y-16211984D02*
X6115420Y-16078650D01*
X6115420Y-16097698D02*
X6124943Y-16088174D01*
X6124943Y-16088174D02*
X6143991Y-16078650D01*
X6143991Y-16078650D02*
X6172563Y-16078650D01*
X6172563Y-16078650D02*
X6191610Y-16088174D01*
X6191610Y-16088174D02*
X6201134Y-16107222D01*
X6201134Y-16107222D02*
X6201134Y-16211984D01*
X6201134Y-16107222D02*
X6210658Y-16088174D01*
X6210658Y-16088174D02*
X6229705Y-16078650D01*
X6229705Y-16078650D02*
X6258277Y-16078650D01*
X6258277Y-16078650D02*
X6277324Y-16088174D01*
X6277324Y-16088174D02*
X6286848Y-16107222D01*
X6286848Y-16107222D02*
X6286848Y-16211984D01*
X6382086Y-16211984D02*
X6382086Y-16078650D01*
X6382086Y-16097698D02*
X6391610Y-16088174D01*
X6391610Y-16088174D02*
X6410658Y-16078650D01*
X6410658Y-16078650D02*
X6439229Y-16078650D01*
X6439229Y-16078650D02*
X6458277Y-16088174D01*
X6458277Y-16088174D02*
X6467801Y-16107222D01*
X6467801Y-16107222D02*
X6467801Y-16211984D01*
X6467801Y-16107222D02*
X6477324Y-16088174D01*
X6477324Y-16088174D02*
X6496372Y-16078650D01*
X6496372Y-16078650D02*
X6524943Y-16078650D01*
X6524943Y-16078650D02*
X6543991Y-16088174D01*
X6543991Y-16088174D02*
X6553515Y-16107222D01*
X6553515Y-16107222D02*
X6553515Y-16211984D01*
X6943991Y-16002460D02*
X6772563Y-16259603D01*
X7201134Y-16011984D02*
X7220182Y-16011984D01*
X7220182Y-16011984D02*
X7239229Y-16021508D01*
X7239229Y-16021508D02*
X7248753Y-16031031D01*
X7248753Y-16031031D02*
X7258277Y-16050079D01*
X7258277Y-16050079D02*
X7267801Y-16088174D01*
X7267801Y-16088174D02*
X7267801Y-16135793D01*
X7267801Y-16135793D02*
X7258277Y-16173888D01*
X7258277Y-16173888D02*
X7248753Y-16192936D01*
X7248753Y-16192936D02*
X7239229Y-16202460D01*
X7239229Y-16202460D02*
X7220182Y-16211984D01*
X7220182Y-16211984D02*
X7201134Y-16211984D01*
X7201134Y-16211984D02*
X7182086Y-16202460D01*
X7182086Y-16202460D02*
X7172563Y-16192936D01*
X7172563Y-16192936D02*
X7163039Y-16173888D01*
X7163039Y-16173888D02*
X7153515Y-16135793D01*
X7153515Y-16135793D02*
X7153515Y-16088174D01*
X7153515Y-16088174D02*
X7163039Y-16050079D01*
X7163039Y-16050079D02*
X7172563Y-16031031D01*
X7172563Y-16031031D02*
X7182086Y-16021508D01*
X7182086Y-16021508D02*
X7201134Y-16011984D01*
X7353515Y-16192936D02*
X7363039Y-16202460D01*
X7363039Y-16202460D02*
X7353515Y-16211984D01*
X7353515Y-16211984D02*
X7343991Y-16202460D01*
X7343991Y-16202460D02*
X7353515Y-16192936D01*
X7353515Y-16192936D02*
X7353515Y-16211984D01*
X7486848Y-16011984D02*
X7505896Y-16011984D01*
X7505896Y-16011984D02*
X7524944Y-16021508D01*
X7524944Y-16021508D02*
X7534467Y-16031031D01*
X7534467Y-16031031D02*
X7543991Y-16050079D01*
X7543991Y-16050079D02*
X7553515Y-16088174D01*
X7553515Y-16088174D02*
X7553515Y-16135793D01*
X7553515Y-16135793D02*
X7543991Y-16173888D01*
X7543991Y-16173888D02*
X7534467Y-16192936D01*
X7534467Y-16192936D02*
X7524944Y-16202460D01*
X7524944Y-16202460D02*
X7505896Y-16211984D01*
X7505896Y-16211984D02*
X7486848Y-16211984D01*
X7486848Y-16211984D02*
X7467801Y-16202460D01*
X7467801Y-16202460D02*
X7458277Y-16192936D01*
X7458277Y-16192936D02*
X7448753Y-16173888D01*
X7448753Y-16173888D02*
X7439229Y-16135793D01*
X7439229Y-16135793D02*
X7439229Y-16088174D01*
X7439229Y-16088174D02*
X7448753Y-16050079D01*
X7448753Y-16050079D02*
X7458277Y-16031031D01*
X7458277Y-16031031D02*
X7467801Y-16021508D01*
X7467801Y-16021508D02*
X7486848Y-16011984D01*
X7629706Y-16031031D02*
X7639229Y-16021508D01*
X7639229Y-16021508D02*
X7658277Y-16011984D01*
X7658277Y-16011984D02*
X7705896Y-16011984D01*
X7705896Y-16011984D02*
X7724944Y-16021508D01*
X7724944Y-16021508D02*
X7734467Y-16031031D01*
X7734467Y-16031031D02*
X7743991Y-16050079D01*
X7743991Y-16050079D02*
X7743991Y-16069127D01*
X7743991Y-16069127D02*
X7734467Y-16097698D01*
X7734467Y-16097698D02*
X7620182Y-16211984D01*
X7620182Y-16211984D02*
X7743991Y-16211984D01*
X7810658Y-16011984D02*
X7934467Y-16011984D01*
X7934467Y-16011984D02*
X7867801Y-16088174D01*
X7867801Y-16088174D02*
X7896372Y-16088174D01*
X7896372Y-16088174D02*
X7915420Y-16097698D01*
X7915420Y-16097698D02*
X7924944Y-16107222D01*
X7924944Y-16107222D02*
X7934467Y-16126269D01*
X7934467Y-16126269D02*
X7934467Y-16173888D01*
X7934467Y-16173888D02*
X7924944Y-16192936D01*
X7924944Y-16192936D02*
X7915420Y-16202460D01*
X7915420Y-16202460D02*
X7896372Y-16211984D01*
X7896372Y-16211984D02*
X7839229Y-16211984D01*
X7839229Y-16211984D02*
X7820182Y-16202460D01*
X7820182Y-16202460D02*
X7810658Y-16192936D01*
X8105896Y-16011984D02*
X8067801Y-16011984D01*
X8067801Y-16011984D02*
X8048753Y-16021508D01*
X8048753Y-16021508D02*
X8039229Y-16031031D01*
X8039229Y-16031031D02*
X8020182Y-16059603D01*
X8020182Y-16059603D02*
X8010658Y-16097698D01*
X8010658Y-16097698D02*
X8010658Y-16173888D01*
X8010658Y-16173888D02*
X8020182Y-16192936D01*
X8020182Y-16192936D02*
X8029706Y-16202460D01*
X8029706Y-16202460D02*
X8048753Y-16211984D01*
X8048753Y-16211984D02*
X8086848Y-16211984D01*
X8086848Y-16211984D02*
X8105896Y-16202460D01*
X8105896Y-16202460D02*
X8115420Y-16192936D01*
X8115420Y-16192936D02*
X8124944Y-16173888D01*
X8124944Y-16173888D02*
X8124944Y-16126269D01*
X8124944Y-16126269D02*
X8115420Y-16107222D01*
X8115420Y-16107222D02*
X8105896Y-16097698D01*
X8105896Y-16097698D02*
X8086848Y-16088174D01*
X8086848Y-16088174D02*
X8048753Y-16088174D01*
X8048753Y-16088174D02*
X8029706Y-16097698D01*
X8029706Y-16097698D02*
X8020182Y-16107222D01*
X8020182Y-16107222D02*
X8010658Y-16126269D01*
X8201134Y-16011984D02*
X8201134Y-16050079D01*
X8277325Y-16011984D02*
X8277325Y-16050079D01*
X8572563Y-16288174D02*
X8563039Y-16278650D01*
X8563039Y-16278650D02*
X8543991Y-16250079D01*
X8543991Y-16250079D02*
X8534468Y-16231031D01*
X8534468Y-16231031D02*
X8524944Y-16202460D01*
X8524944Y-16202460D02*
X8515420Y-16154841D01*
X8515420Y-16154841D02*
X8515420Y-16116746D01*
X8515420Y-16116746D02*
X8524944Y-16069127D01*
X8524944Y-16069127D02*
X8534468Y-16040555D01*
X8534468Y-16040555D02*
X8543991Y-16021508D01*
X8543991Y-16021508D02*
X8563039Y-15992936D01*
X8563039Y-15992936D02*
X8572563Y-15983412D01*
X8753515Y-16211984D02*
X8639230Y-16211984D01*
X8696372Y-16211984D02*
X8696372Y-16011984D01*
X8696372Y-16011984D02*
X8677325Y-16040555D01*
X8677325Y-16040555D02*
X8658277Y-16059603D01*
X8658277Y-16059603D02*
X8639230Y-16069127D01*
X8943991Y-16211984D02*
X8829706Y-16211984D01*
X8886849Y-16211984D02*
X8886849Y-16011984D01*
X8886849Y-16011984D02*
X8867801Y-16040555D01*
X8867801Y-16040555D02*
X8848753Y-16059603D01*
X8848753Y-16059603D02*
X8829706Y-16069127D01*
X9182087Y-16211984D02*
X9182087Y-16011984D01*
X9267801Y-16211984D02*
X9267801Y-16107222D01*
X9267801Y-16107222D02*
X9258277Y-16088174D01*
X9258277Y-16088174D02*
X9239230Y-16078650D01*
X9239230Y-16078650D02*
X9210658Y-16078650D01*
X9210658Y-16078650D02*
X9191611Y-16088174D01*
X9191611Y-16088174D02*
X9182087Y-16097698D01*
X9391611Y-16211984D02*
X9372563Y-16202460D01*
X9372563Y-16202460D02*
X9363039Y-16192936D01*
X9363039Y-16192936D02*
X9353515Y-16173888D01*
X9353515Y-16173888D02*
X9353515Y-16116746D01*
X9353515Y-16116746D02*
X9363039Y-16097698D01*
X9363039Y-16097698D02*
X9372563Y-16088174D01*
X9372563Y-16088174D02*
X9391611Y-16078650D01*
X9391611Y-16078650D02*
X9420182Y-16078650D01*
X9420182Y-16078650D02*
X9439230Y-16088174D01*
X9439230Y-16088174D02*
X9448753Y-16097698D01*
X9448753Y-16097698D02*
X9458277Y-16116746D01*
X9458277Y-16116746D02*
X9458277Y-16173888D01*
X9458277Y-16173888D02*
X9448753Y-16192936D01*
X9448753Y-16192936D02*
X9439230Y-16202460D01*
X9439230Y-16202460D02*
X9420182Y-16211984D01*
X9420182Y-16211984D02*
X9391611Y-16211984D01*
X9572563Y-16211984D02*
X9553515Y-16202460D01*
X9553515Y-16202460D02*
X9543992Y-16183412D01*
X9543992Y-16183412D02*
X9543992Y-16011984D01*
X9724944Y-16202460D02*
X9705896Y-16211984D01*
X9705896Y-16211984D02*
X9667801Y-16211984D01*
X9667801Y-16211984D02*
X9648753Y-16202460D01*
X9648753Y-16202460D02*
X9639230Y-16183412D01*
X9639230Y-16183412D02*
X9639230Y-16107222D01*
X9639230Y-16107222D02*
X9648753Y-16088174D01*
X9648753Y-16088174D02*
X9667801Y-16078650D01*
X9667801Y-16078650D02*
X9705896Y-16078650D01*
X9705896Y-16078650D02*
X9724944Y-16088174D01*
X9724944Y-16088174D02*
X9734468Y-16107222D01*
X9734468Y-16107222D02*
X9734468Y-16126269D01*
X9734468Y-16126269D02*
X9639230Y-16145317D01*
X9810658Y-16202460D02*
X9829706Y-16211984D01*
X9829706Y-16211984D02*
X9867801Y-16211984D01*
X9867801Y-16211984D02*
X9886849Y-16202460D01*
X9886849Y-16202460D02*
X9896373Y-16183412D01*
X9896373Y-16183412D02*
X9896373Y-16173888D01*
X9896373Y-16173888D02*
X9886849Y-16154841D01*
X9886849Y-16154841D02*
X9867801Y-16145317D01*
X9867801Y-16145317D02*
X9839230Y-16145317D01*
X9839230Y-16145317D02*
X9820182Y-16135793D01*
X9820182Y-16135793D02*
X9810658Y-16116746D01*
X9810658Y-16116746D02*
X9810658Y-16107222D01*
X9810658Y-16107222D02*
X9820182Y-16088174D01*
X9820182Y-16088174D02*
X9839230Y-16078650D01*
X9839230Y-16078650D02*
X9867801Y-16078650D01*
X9867801Y-16078650D02*
X9886849Y-16088174D01*
X9963039Y-16288174D02*
X9972563Y-16278650D01*
X9972563Y-16278650D02*
X9991611Y-16250079D01*
X9991611Y-16250079D02*
X10001134Y-16231031D01*
X10001134Y-16231031D02*
X10010658Y-16202460D01*
X10010658Y-16202460D02*
X10020182Y-16154841D01*
X10020182Y-16154841D02*
X10020182Y-16116746D01*
X10020182Y-16116746D02*
X10010658Y-16069127D01*
X10010658Y-16069127D02*
X10001134Y-16040555D01*
X10001134Y-16040555D02*
X9991611Y-16021508D01*
X9991611Y-16021508D02*
X9972563Y-15992936D01*
X9972563Y-15992936D02*
X9963039Y-15983412D01*
D12*
X4988713Y-16405713D02*
X4988713Y-16363287D01*
X4946287Y-16363287D01*
X4946287Y-16405713D01*
X4988713Y-16405713D01*
D11*
X5296372Y-16275984D02*
X5315420Y-16275984D01*
X5315420Y-16275984D02*
X5334467Y-16285508D01*
X5334467Y-16285508D02*
X5343991Y-16295031D01*
X5343991Y-16295031D02*
X5353515Y-16314079D01*
X5353515Y-16314079D02*
X5363039Y-16352174D01*
X5363039Y-16352174D02*
X5363039Y-16399793D01*
X5363039Y-16399793D02*
X5353515Y-16437888D01*
X5353515Y-16437888D02*
X5343991Y-16456936D01*
X5343991Y-16456936D02*
X5334467Y-16466460D01*
X5334467Y-16466460D02*
X5315420Y-16475984D01*
X5315420Y-16475984D02*
X5296372Y-16475984D01*
X5296372Y-16475984D02*
X5277324Y-16466460D01*
X5277324Y-16466460D02*
X5267801Y-16456936D01*
X5267801Y-16456936D02*
X5258277Y-16437888D01*
X5258277Y-16437888D02*
X5248753Y-16399793D01*
X5248753Y-16399793D02*
X5248753Y-16352174D01*
X5248753Y-16352174D02*
X5258277Y-16314079D01*
X5258277Y-16314079D02*
X5267801Y-16295031D01*
X5267801Y-16295031D02*
X5277324Y-16285508D01*
X5277324Y-16285508D02*
X5296372Y-16275984D01*
X5448753Y-16456936D02*
X5458277Y-16466460D01*
X5458277Y-16466460D02*
X5448753Y-16475984D01*
X5448753Y-16475984D02*
X5439229Y-16466460D01*
X5439229Y-16466460D02*
X5448753Y-16456936D01*
X5448753Y-16456936D02*
X5448753Y-16475984D01*
X5629705Y-16275984D02*
X5591610Y-16275984D01*
X5591610Y-16275984D02*
X5572563Y-16285508D01*
X5572563Y-16285508D02*
X5563039Y-16295031D01*
X5563039Y-16295031D02*
X5543991Y-16323603D01*
X5543991Y-16323603D02*
X5534467Y-16361698D01*
X5534467Y-16361698D02*
X5534467Y-16437888D01*
X5534467Y-16437888D02*
X5543991Y-16456936D01*
X5543991Y-16456936D02*
X5553515Y-16466460D01*
X5553515Y-16466460D02*
X5572563Y-16475984D01*
X5572563Y-16475984D02*
X5610658Y-16475984D01*
X5610658Y-16475984D02*
X5629705Y-16466460D01*
X5629705Y-16466460D02*
X5639229Y-16456936D01*
X5639229Y-16456936D02*
X5648753Y-16437888D01*
X5648753Y-16437888D02*
X5648753Y-16390269D01*
X5648753Y-16390269D02*
X5639229Y-16371222D01*
X5639229Y-16371222D02*
X5629705Y-16361698D01*
X5629705Y-16361698D02*
X5610658Y-16352174D01*
X5610658Y-16352174D02*
X5572563Y-16352174D01*
X5572563Y-16352174D02*
X5553515Y-16361698D01*
X5553515Y-16361698D02*
X5543991Y-16371222D01*
X5543991Y-16371222D02*
X5534467Y-16390269D01*
X5772562Y-16275984D02*
X5791610Y-16275984D01*
X5791610Y-16275984D02*
X5810658Y-16285508D01*
X5810658Y-16285508D02*
X5820182Y-16295031D01*
X5820182Y-16295031D02*
X5829705Y-16314079D01*
X5829705Y-16314079D02*
X5839229Y-16352174D01*
X5839229Y-16352174D02*
X5839229Y-16399793D01*
X5839229Y-16399793D02*
X5829705Y-16437888D01*
X5829705Y-16437888D02*
X5820182Y-16456936D01*
X5820182Y-16456936D02*
X5810658Y-16466460D01*
X5810658Y-16466460D02*
X5791610Y-16475984D01*
X5791610Y-16475984D02*
X5772562Y-16475984D01*
X5772562Y-16475984D02*
X5753515Y-16466460D01*
X5753515Y-16466460D02*
X5743991Y-16456936D01*
X5743991Y-16456936D02*
X5734467Y-16437888D01*
X5734467Y-16437888D02*
X5724943Y-16399793D01*
X5724943Y-16399793D02*
X5724943Y-16352174D01*
X5724943Y-16352174D02*
X5734467Y-16314079D01*
X5734467Y-16314079D02*
X5743991Y-16295031D01*
X5743991Y-16295031D02*
X5753515Y-16285508D01*
X5753515Y-16285508D02*
X5772562Y-16275984D01*
X5963039Y-16275984D02*
X5982086Y-16275984D01*
X5982086Y-16275984D02*
X6001134Y-16285508D01*
X6001134Y-16285508D02*
X6010658Y-16295031D01*
X6010658Y-16295031D02*
X6020182Y-16314079D01*
X6020182Y-16314079D02*
X6029705Y-16352174D01*
X6029705Y-16352174D02*
X6029705Y-16399793D01*
X6029705Y-16399793D02*
X6020182Y-16437888D01*
X6020182Y-16437888D02*
X6010658Y-16456936D01*
X6010658Y-16456936D02*
X6001134Y-16466460D01*
X6001134Y-16466460D02*
X5982086Y-16475984D01*
X5982086Y-16475984D02*
X5963039Y-16475984D01*
X5963039Y-16475984D02*
X5943991Y-16466460D01*
X5943991Y-16466460D02*
X5934467Y-16456936D01*
X5934467Y-16456936D02*
X5924943Y-16437888D01*
X5924943Y-16437888D02*
X5915420Y-16399793D01*
X5915420Y-16399793D02*
X5915420Y-16352174D01*
X5915420Y-16352174D02*
X5924943Y-16314079D01*
X5924943Y-16314079D02*
X5934467Y-16295031D01*
X5934467Y-16295031D02*
X5943991Y-16285508D01*
X5943991Y-16285508D02*
X5963039Y-16275984D01*
X6115420Y-16475984D02*
X6115420Y-16342650D01*
X6115420Y-16361698D02*
X6124943Y-16352174D01*
X6124943Y-16352174D02*
X6143991Y-16342650D01*
X6143991Y-16342650D02*
X6172563Y-16342650D01*
X6172563Y-16342650D02*
X6191610Y-16352174D01*
X6191610Y-16352174D02*
X6201134Y-16371222D01*
X6201134Y-16371222D02*
X6201134Y-16475984D01*
X6201134Y-16371222D02*
X6210658Y-16352174D01*
X6210658Y-16352174D02*
X6229705Y-16342650D01*
X6229705Y-16342650D02*
X6258277Y-16342650D01*
X6258277Y-16342650D02*
X6277324Y-16352174D01*
X6277324Y-16352174D02*
X6286848Y-16371222D01*
X6286848Y-16371222D02*
X6286848Y-16475984D01*
X6382086Y-16475984D02*
X6382086Y-16342650D01*
X6382086Y-16361698D02*
X6391610Y-16352174D01*
X6391610Y-16352174D02*
X6410658Y-16342650D01*
X6410658Y-16342650D02*
X6439229Y-16342650D01*
X6439229Y-16342650D02*
X6458277Y-16352174D01*
X6458277Y-16352174D02*
X6467801Y-16371222D01*
X6467801Y-16371222D02*
X6467801Y-16475984D01*
X6467801Y-16371222D02*
X6477324Y-16352174D01*
X6477324Y-16352174D02*
X6496372Y-16342650D01*
X6496372Y-16342650D02*
X6524943Y-16342650D01*
X6524943Y-16342650D02*
X6543991Y-16352174D01*
X6543991Y-16352174D02*
X6553515Y-16371222D01*
X6553515Y-16371222D02*
X6553515Y-16475984D01*
X6943991Y-16266460D02*
X6772563Y-16523603D01*
X7201134Y-16275984D02*
X7220182Y-16275984D01*
X7220182Y-16275984D02*
X7239229Y-16285508D01*
X7239229Y-16285508D02*
X7248753Y-16295031D01*
X7248753Y-16295031D02*
X7258277Y-16314079D01*
X7258277Y-16314079D02*
X7267801Y-16352174D01*
X7267801Y-16352174D02*
X7267801Y-16399793D01*
X7267801Y-16399793D02*
X7258277Y-16437888D01*
X7258277Y-16437888D02*
X7248753Y-16456936D01*
X7248753Y-16456936D02*
X7239229Y-16466460D01*
X7239229Y-16466460D02*
X7220182Y-16475984D01*
X7220182Y-16475984D02*
X7201134Y-16475984D01*
X7201134Y-16475984D02*
X7182086Y-16466460D01*
X7182086Y-16466460D02*
X7172563Y-16456936D01*
X7172563Y-16456936D02*
X7163039Y-16437888D01*
X7163039Y-16437888D02*
X7153515Y-16399793D01*
X7153515Y-16399793D02*
X7153515Y-16352174D01*
X7153515Y-16352174D02*
X7163039Y-16314079D01*
X7163039Y-16314079D02*
X7172563Y-16295031D01*
X7172563Y-16295031D02*
X7182086Y-16285508D01*
X7182086Y-16285508D02*
X7201134Y-16275984D01*
X7353515Y-16456936D02*
X7363039Y-16466460D01*
X7363039Y-16466460D02*
X7353515Y-16475984D01*
X7353515Y-16475984D02*
X7343991Y-16466460D01*
X7343991Y-16466460D02*
X7353515Y-16456936D01*
X7353515Y-16456936D02*
X7353515Y-16475984D01*
X7486848Y-16275984D02*
X7505896Y-16275984D01*
X7505896Y-16275984D02*
X7524944Y-16285508D01*
X7524944Y-16285508D02*
X7534467Y-16295031D01*
X7534467Y-16295031D02*
X7543991Y-16314079D01*
X7543991Y-16314079D02*
X7553515Y-16352174D01*
X7553515Y-16352174D02*
X7553515Y-16399793D01*
X7553515Y-16399793D02*
X7543991Y-16437888D01*
X7543991Y-16437888D02*
X7534467Y-16456936D01*
X7534467Y-16456936D02*
X7524944Y-16466460D01*
X7524944Y-16466460D02*
X7505896Y-16475984D01*
X7505896Y-16475984D02*
X7486848Y-16475984D01*
X7486848Y-16475984D02*
X7467801Y-16466460D01*
X7467801Y-16466460D02*
X7458277Y-16456936D01*
X7458277Y-16456936D02*
X7448753Y-16437888D01*
X7448753Y-16437888D02*
X7439229Y-16399793D01*
X7439229Y-16399793D02*
X7439229Y-16352174D01*
X7439229Y-16352174D02*
X7448753Y-16314079D01*
X7448753Y-16314079D02*
X7458277Y-16295031D01*
X7458277Y-16295031D02*
X7467801Y-16285508D01*
X7467801Y-16285508D02*
X7486848Y-16275984D01*
X7629706Y-16295031D02*
X7639229Y-16285508D01*
X7639229Y-16285508D02*
X7658277Y-16275984D01*
X7658277Y-16275984D02*
X7705896Y-16275984D01*
X7705896Y-16275984D02*
X7724944Y-16285508D01*
X7724944Y-16285508D02*
X7734467Y-16295031D01*
X7734467Y-16295031D02*
X7743991Y-16314079D01*
X7743991Y-16314079D02*
X7743991Y-16333127D01*
X7743991Y-16333127D02*
X7734467Y-16361698D01*
X7734467Y-16361698D02*
X7620182Y-16475984D01*
X7620182Y-16475984D02*
X7743991Y-16475984D01*
X7810658Y-16275984D02*
X7934467Y-16275984D01*
X7934467Y-16275984D02*
X7867801Y-16352174D01*
X7867801Y-16352174D02*
X7896372Y-16352174D01*
X7896372Y-16352174D02*
X7915420Y-16361698D01*
X7915420Y-16361698D02*
X7924944Y-16371222D01*
X7924944Y-16371222D02*
X7934467Y-16390269D01*
X7934467Y-16390269D02*
X7934467Y-16437888D01*
X7934467Y-16437888D02*
X7924944Y-16456936D01*
X7924944Y-16456936D02*
X7915420Y-16466460D01*
X7915420Y-16466460D02*
X7896372Y-16475984D01*
X7896372Y-16475984D02*
X7839229Y-16475984D01*
X7839229Y-16475984D02*
X7820182Y-16466460D01*
X7820182Y-16466460D02*
X7810658Y-16456936D01*
X8105896Y-16275984D02*
X8067801Y-16275984D01*
X8067801Y-16275984D02*
X8048753Y-16285508D01*
X8048753Y-16285508D02*
X8039229Y-16295031D01*
X8039229Y-16295031D02*
X8020182Y-16323603D01*
X8020182Y-16323603D02*
X8010658Y-16361698D01*
X8010658Y-16361698D02*
X8010658Y-16437888D01*
X8010658Y-16437888D02*
X8020182Y-16456936D01*
X8020182Y-16456936D02*
X8029706Y-16466460D01*
X8029706Y-16466460D02*
X8048753Y-16475984D01*
X8048753Y-16475984D02*
X8086848Y-16475984D01*
X8086848Y-16475984D02*
X8105896Y-16466460D01*
X8105896Y-16466460D02*
X8115420Y-16456936D01*
X8115420Y-16456936D02*
X8124944Y-16437888D01*
X8124944Y-16437888D02*
X8124944Y-16390269D01*
X8124944Y-16390269D02*
X8115420Y-16371222D01*
X8115420Y-16371222D02*
X8105896Y-16361698D01*
X8105896Y-16361698D02*
X8086848Y-16352174D01*
X8086848Y-16352174D02*
X8048753Y-16352174D01*
X8048753Y-16352174D02*
X8029706Y-16361698D01*
X8029706Y-16361698D02*
X8020182Y-16371222D01*
X8020182Y-16371222D02*
X8010658Y-16390269D01*
X8201134Y-16275984D02*
X8201134Y-16314079D01*
X8277325Y-16275984D02*
X8277325Y-16314079D01*
X8572563Y-16552174D02*
X8563039Y-16542650D01*
X8563039Y-16542650D02*
X8543991Y-16514079D01*
X8543991Y-16514079D02*
X8534468Y-16495031D01*
X8534468Y-16495031D02*
X8524944Y-16466460D01*
X8524944Y-16466460D02*
X8515420Y-16418841D01*
X8515420Y-16418841D02*
X8515420Y-16380746D01*
X8515420Y-16380746D02*
X8524944Y-16333127D01*
X8524944Y-16333127D02*
X8534468Y-16304555D01*
X8534468Y-16304555D02*
X8543991Y-16285508D01*
X8543991Y-16285508D02*
X8563039Y-16256936D01*
X8563039Y-16256936D02*
X8572563Y-16247412D01*
X8686849Y-16275984D02*
X8705896Y-16275984D01*
X8705896Y-16275984D02*
X8724944Y-16285508D01*
X8724944Y-16285508D02*
X8734468Y-16295031D01*
X8734468Y-16295031D02*
X8743991Y-16314079D01*
X8743991Y-16314079D02*
X8753515Y-16352174D01*
X8753515Y-16352174D02*
X8753515Y-16399793D01*
X8753515Y-16399793D02*
X8743991Y-16437888D01*
X8743991Y-16437888D02*
X8734468Y-16456936D01*
X8734468Y-16456936D02*
X8724944Y-16466460D01*
X8724944Y-16466460D02*
X8705896Y-16475984D01*
X8705896Y-16475984D02*
X8686849Y-16475984D01*
X8686849Y-16475984D02*
X8667801Y-16466460D01*
X8667801Y-16466460D02*
X8658277Y-16456936D01*
X8658277Y-16456936D02*
X8648753Y-16437888D01*
X8648753Y-16437888D02*
X8639230Y-16399793D01*
X8639230Y-16399793D02*
X8639230Y-16352174D01*
X8639230Y-16352174D02*
X8648753Y-16314079D01*
X8648753Y-16314079D02*
X8658277Y-16295031D01*
X8658277Y-16295031D02*
X8667801Y-16285508D01*
X8667801Y-16285508D02*
X8686849Y-16275984D01*
X8991611Y-16475984D02*
X8991611Y-16275984D01*
X9077325Y-16475984D02*
X9077325Y-16371222D01*
X9077325Y-16371222D02*
X9067801Y-16352174D01*
X9067801Y-16352174D02*
X9048753Y-16342650D01*
X9048753Y-16342650D02*
X9020182Y-16342650D01*
X9020182Y-16342650D02*
X9001134Y-16352174D01*
X9001134Y-16352174D02*
X8991611Y-16361698D01*
X9201134Y-16475984D02*
X9182087Y-16466460D01*
X9182087Y-16466460D02*
X9172563Y-16456936D01*
X9172563Y-16456936D02*
X9163039Y-16437888D01*
X9163039Y-16437888D02*
X9163039Y-16380746D01*
X9163039Y-16380746D02*
X9172563Y-16361698D01*
X9172563Y-16361698D02*
X9182087Y-16352174D01*
X9182087Y-16352174D02*
X9201134Y-16342650D01*
X9201134Y-16342650D02*
X9229706Y-16342650D01*
X9229706Y-16342650D02*
X9248753Y-16352174D01*
X9248753Y-16352174D02*
X9258277Y-16361698D01*
X9258277Y-16361698D02*
X9267801Y-16380746D01*
X9267801Y-16380746D02*
X9267801Y-16437888D01*
X9267801Y-16437888D02*
X9258277Y-16456936D01*
X9258277Y-16456936D02*
X9248753Y-16466460D01*
X9248753Y-16466460D02*
X9229706Y-16475984D01*
X9229706Y-16475984D02*
X9201134Y-16475984D01*
X9382087Y-16475984D02*
X9363039Y-16466460D01*
X9363039Y-16466460D02*
X9353515Y-16447412D01*
X9353515Y-16447412D02*
X9353515Y-16275984D01*
X9534468Y-16466460D02*
X9515420Y-16475984D01*
X9515420Y-16475984D02*
X9477325Y-16475984D01*
X9477325Y-16475984D02*
X9458277Y-16466460D01*
X9458277Y-16466460D02*
X9448753Y-16447412D01*
X9448753Y-16447412D02*
X9448753Y-16371222D01*
X9448753Y-16371222D02*
X9458277Y-16352174D01*
X9458277Y-16352174D02*
X9477325Y-16342650D01*
X9477325Y-16342650D02*
X9515420Y-16342650D01*
X9515420Y-16342650D02*
X9534468Y-16352174D01*
X9534468Y-16352174D02*
X9543992Y-16371222D01*
X9543992Y-16371222D02*
X9543992Y-16390269D01*
X9543992Y-16390269D02*
X9448753Y-16409317D01*
X9620182Y-16466460D02*
X9639230Y-16475984D01*
X9639230Y-16475984D02*
X9677325Y-16475984D01*
X9677325Y-16475984D02*
X9696373Y-16466460D01*
X9696373Y-16466460D02*
X9705896Y-16447412D01*
X9705896Y-16447412D02*
X9705896Y-16437888D01*
X9705896Y-16437888D02*
X9696373Y-16418841D01*
X9696373Y-16418841D02*
X9677325Y-16409317D01*
X9677325Y-16409317D02*
X9648753Y-16409317D01*
X9648753Y-16409317D02*
X9629706Y-16399793D01*
X9629706Y-16399793D02*
X9620182Y-16380746D01*
X9620182Y-16380746D02*
X9620182Y-16371222D01*
X9620182Y-16371222D02*
X9629706Y-16352174D01*
X9629706Y-16352174D02*
X9648753Y-16342650D01*
X9648753Y-16342650D02*
X9677325Y-16342650D01*
X9677325Y-16342650D02*
X9696373Y-16352174D01*
X9943992Y-16399793D02*
X10096373Y-16399793D01*
X10020182Y-16475984D02*
X10020182Y-16323603D01*
X10429706Y-16342650D02*
X10429706Y-16475984D01*
X10382087Y-16266460D02*
X10334468Y-16409317D01*
X10334468Y-16409317D02*
X10458277Y-16409317D01*
X10677325Y-16466460D02*
X10696373Y-16475984D01*
X10696373Y-16475984D02*
X10734468Y-16475984D01*
X10734468Y-16475984D02*
X10753516Y-16466460D01*
X10753516Y-16466460D02*
X10763039Y-16447412D01*
X10763039Y-16447412D02*
X10763039Y-16437888D01*
X10763039Y-16437888D02*
X10753516Y-16418841D01*
X10753516Y-16418841D02*
X10734468Y-16409317D01*
X10734468Y-16409317D02*
X10705896Y-16409317D01*
X10705896Y-16409317D02*
X10686849Y-16399793D01*
X10686849Y-16399793D02*
X10677325Y-16380746D01*
X10677325Y-16380746D02*
X10677325Y-16371222D01*
X10677325Y-16371222D02*
X10686849Y-16352174D01*
X10686849Y-16352174D02*
X10705896Y-16342650D01*
X10705896Y-16342650D02*
X10734468Y-16342650D01*
X10734468Y-16342650D02*
X10753516Y-16352174D01*
X10877325Y-16475984D02*
X10858277Y-16466460D01*
X10858277Y-16466460D02*
X10848754Y-16447412D01*
X10848754Y-16447412D02*
X10848754Y-16275984D01*
X10982087Y-16475984D02*
X10963039Y-16466460D01*
X10963039Y-16466460D02*
X10953516Y-16456936D01*
X10953516Y-16456936D02*
X10943992Y-16437888D01*
X10943992Y-16437888D02*
X10943992Y-16380746D01*
X10943992Y-16380746D02*
X10953516Y-16361698D01*
X10953516Y-16361698D02*
X10963039Y-16352174D01*
X10963039Y-16352174D02*
X10982087Y-16342650D01*
X10982087Y-16342650D02*
X11010658Y-16342650D01*
X11010658Y-16342650D02*
X11029706Y-16352174D01*
X11029706Y-16352174D02*
X11039230Y-16361698D01*
X11039230Y-16361698D02*
X11048754Y-16380746D01*
X11048754Y-16380746D02*
X11048754Y-16437888D01*
X11048754Y-16437888D02*
X11039230Y-16456936D01*
X11039230Y-16456936D02*
X11029706Y-16466460D01*
X11029706Y-16466460D02*
X11010658Y-16475984D01*
X11010658Y-16475984D02*
X10982087Y-16475984D01*
X11105897Y-16342650D02*
X11182087Y-16342650D01*
X11134468Y-16275984D02*
X11134468Y-16447412D01*
X11134468Y-16447412D02*
X11143992Y-16466460D01*
X11143992Y-16466460D02*
X11163039Y-16475984D01*
X11163039Y-16475984D02*
X11182087Y-16475984D01*
X11239230Y-16466460D02*
X11258277Y-16475984D01*
X11258277Y-16475984D02*
X11296373Y-16475984D01*
X11296373Y-16475984D02*
X11315420Y-16466460D01*
X11315420Y-16466460D02*
X11324944Y-16447412D01*
X11324944Y-16447412D02*
X11324944Y-16437888D01*
X11324944Y-16437888D02*
X11315420Y-16418841D01*
X11315420Y-16418841D02*
X11296373Y-16409317D01*
X11296373Y-16409317D02*
X11267801Y-16409317D01*
X11267801Y-16409317D02*
X11248754Y-16399793D01*
X11248754Y-16399793D02*
X11239230Y-16380746D01*
X11239230Y-16380746D02*
X11239230Y-16371222D01*
X11239230Y-16371222D02*
X11248754Y-16352174D01*
X11248754Y-16352174D02*
X11267801Y-16342650D01*
X11267801Y-16342650D02*
X11296373Y-16342650D01*
X11296373Y-16342650D02*
X11315420Y-16352174D01*
X11391611Y-16552174D02*
X11401135Y-16542650D01*
X11401135Y-16542650D02*
X11420182Y-16514079D01*
X11420182Y-16514079D02*
X11429706Y-16495031D01*
X11429706Y-16495031D02*
X11439230Y-16466460D01*
X11439230Y-16466460D02*
X11448754Y-16418841D01*
X11448754Y-16418841D02*
X11448754Y-16380746D01*
X11448754Y-16380746D02*
X11439230Y-16333127D01*
X11439230Y-16333127D02*
X11429706Y-16304555D01*
X11429706Y-16304555D02*
X11420182Y-16285508D01*
X11420182Y-16285508D02*
X11401135Y-16256936D01*
X11401135Y-16256936D02*
X11391611Y-16247412D01*
D12*
X4964500Y-16681500D02*
X4997500Y-16648500D01*
X4964500Y-16615500D01*
X4931500Y-16648500D01*
X4964500Y-16681500D01*
D11*
X5296372Y-16539984D02*
X5315420Y-16539984D01*
X5315420Y-16539984D02*
X5334467Y-16549508D01*
X5334467Y-16549508D02*
X5343991Y-16559031D01*
X5343991Y-16559031D02*
X5353515Y-16578079D01*
X5353515Y-16578079D02*
X5363039Y-16616174D01*
X5363039Y-16616174D02*
X5363039Y-16663793D01*
X5363039Y-16663793D02*
X5353515Y-16701888D01*
X5353515Y-16701888D02*
X5343991Y-16720936D01*
X5343991Y-16720936D02*
X5334467Y-16730460D01*
X5334467Y-16730460D02*
X5315420Y-16739984D01*
X5315420Y-16739984D02*
X5296372Y-16739984D01*
X5296372Y-16739984D02*
X5277324Y-16730460D01*
X5277324Y-16730460D02*
X5267801Y-16720936D01*
X5267801Y-16720936D02*
X5258277Y-16701888D01*
X5258277Y-16701888D02*
X5248753Y-16663793D01*
X5248753Y-16663793D02*
X5248753Y-16616174D01*
X5248753Y-16616174D02*
X5258277Y-16578079D01*
X5258277Y-16578079D02*
X5267801Y-16559031D01*
X5267801Y-16559031D02*
X5277324Y-16549508D01*
X5277324Y-16549508D02*
X5296372Y-16539984D01*
X5448753Y-16720936D02*
X5458277Y-16730460D01*
X5458277Y-16730460D02*
X5448753Y-16739984D01*
X5448753Y-16739984D02*
X5439229Y-16730460D01*
X5439229Y-16730460D02*
X5448753Y-16720936D01*
X5448753Y-16720936D02*
X5448753Y-16739984D01*
X5629705Y-16539984D02*
X5591610Y-16539984D01*
X5591610Y-16539984D02*
X5572563Y-16549508D01*
X5572563Y-16549508D02*
X5563039Y-16559031D01*
X5563039Y-16559031D02*
X5543991Y-16587603D01*
X5543991Y-16587603D02*
X5534467Y-16625698D01*
X5534467Y-16625698D02*
X5534467Y-16701888D01*
X5534467Y-16701888D02*
X5543991Y-16720936D01*
X5543991Y-16720936D02*
X5553515Y-16730460D01*
X5553515Y-16730460D02*
X5572563Y-16739984D01*
X5572563Y-16739984D02*
X5610658Y-16739984D01*
X5610658Y-16739984D02*
X5629705Y-16730460D01*
X5629705Y-16730460D02*
X5639229Y-16720936D01*
X5639229Y-16720936D02*
X5648753Y-16701888D01*
X5648753Y-16701888D02*
X5648753Y-16654269D01*
X5648753Y-16654269D02*
X5639229Y-16635222D01*
X5639229Y-16635222D02*
X5629705Y-16625698D01*
X5629705Y-16625698D02*
X5610658Y-16616174D01*
X5610658Y-16616174D02*
X5572563Y-16616174D01*
X5572563Y-16616174D02*
X5553515Y-16625698D01*
X5553515Y-16625698D02*
X5543991Y-16635222D01*
X5543991Y-16635222D02*
X5534467Y-16654269D01*
X5820182Y-16539984D02*
X5782086Y-16539984D01*
X5782086Y-16539984D02*
X5763039Y-16549508D01*
X5763039Y-16549508D02*
X5753515Y-16559031D01*
X5753515Y-16559031D02*
X5734467Y-16587603D01*
X5734467Y-16587603D02*
X5724943Y-16625698D01*
X5724943Y-16625698D02*
X5724943Y-16701888D01*
X5724943Y-16701888D02*
X5734467Y-16720936D01*
X5734467Y-16720936D02*
X5743991Y-16730460D01*
X5743991Y-16730460D02*
X5763039Y-16739984D01*
X5763039Y-16739984D02*
X5801134Y-16739984D01*
X5801134Y-16739984D02*
X5820182Y-16730460D01*
X5820182Y-16730460D02*
X5829705Y-16720936D01*
X5829705Y-16720936D02*
X5839229Y-16701888D01*
X5839229Y-16701888D02*
X5839229Y-16654269D01*
X5839229Y-16654269D02*
X5829705Y-16635222D01*
X5829705Y-16635222D02*
X5820182Y-16625698D01*
X5820182Y-16625698D02*
X5801134Y-16616174D01*
X5801134Y-16616174D02*
X5763039Y-16616174D01*
X5763039Y-16616174D02*
X5743991Y-16625698D01*
X5743991Y-16625698D02*
X5734467Y-16635222D01*
X5734467Y-16635222D02*
X5724943Y-16654269D01*
X5963039Y-16539984D02*
X5982086Y-16539984D01*
X5982086Y-16539984D02*
X6001134Y-16549508D01*
X6001134Y-16549508D02*
X6010658Y-16559031D01*
X6010658Y-16559031D02*
X6020182Y-16578079D01*
X6020182Y-16578079D02*
X6029705Y-16616174D01*
X6029705Y-16616174D02*
X6029705Y-16663793D01*
X6029705Y-16663793D02*
X6020182Y-16701888D01*
X6020182Y-16701888D02*
X6010658Y-16720936D01*
X6010658Y-16720936D02*
X6001134Y-16730460D01*
X6001134Y-16730460D02*
X5982086Y-16739984D01*
X5982086Y-16739984D02*
X5963039Y-16739984D01*
X5963039Y-16739984D02*
X5943991Y-16730460D01*
X5943991Y-16730460D02*
X5934467Y-16720936D01*
X5934467Y-16720936D02*
X5924943Y-16701888D01*
X5924943Y-16701888D02*
X5915420Y-16663793D01*
X5915420Y-16663793D02*
X5915420Y-16616174D01*
X5915420Y-16616174D02*
X5924943Y-16578079D01*
X5924943Y-16578079D02*
X5934467Y-16559031D01*
X5934467Y-16559031D02*
X5943991Y-16549508D01*
X5943991Y-16549508D02*
X5963039Y-16539984D01*
X6115420Y-16739984D02*
X6115420Y-16606650D01*
X6115420Y-16625698D02*
X6124943Y-16616174D01*
X6124943Y-16616174D02*
X6143991Y-16606650D01*
X6143991Y-16606650D02*
X6172563Y-16606650D01*
X6172563Y-16606650D02*
X6191610Y-16616174D01*
X6191610Y-16616174D02*
X6201134Y-16635222D01*
X6201134Y-16635222D02*
X6201134Y-16739984D01*
X6201134Y-16635222D02*
X6210658Y-16616174D01*
X6210658Y-16616174D02*
X6229705Y-16606650D01*
X6229705Y-16606650D02*
X6258277Y-16606650D01*
X6258277Y-16606650D02*
X6277324Y-16616174D01*
X6277324Y-16616174D02*
X6286848Y-16635222D01*
X6286848Y-16635222D02*
X6286848Y-16739984D01*
X6382086Y-16739984D02*
X6382086Y-16606650D01*
X6382086Y-16625698D02*
X6391610Y-16616174D01*
X6391610Y-16616174D02*
X6410658Y-16606650D01*
X6410658Y-16606650D02*
X6439229Y-16606650D01*
X6439229Y-16606650D02*
X6458277Y-16616174D01*
X6458277Y-16616174D02*
X6467801Y-16635222D01*
X6467801Y-16635222D02*
X6467801Y-16739984D01*
X6467801Y-16635222D02*
X6477324Y-16616174D01*
X6477324Y-16616174D02*
X6496372Y-16606650D01*
X6496372Y-16606650D02*
X6524943Y-16606650D01*
X6524943Y-16606650D02*
X6543991Y-16616174D01*
X6543991Y-16616174D02*
X6553515Y-16635222D01*
X6553515Y-16635222D02*
X6553515Y-16739984D01*
X6943991Y-16530460D02*
X6772563Y-16787603D01*
X7201134Y-16539984D02*
X7220182Y-16539984D01*
X7220182Y-16539984D02*
X7239229Y-16549508D01*
X7239229Y-16549508D02*
X7248753Y-16559031D01*
X7248753Y-16559031D02*
X7258277Y-16578079D01*
X7258277Y-16578079D02*
X7267801Y-16616174D01*
X7267801Y-16616174D02*
X7267801Y-16663793D01*
X7267801Y-16663793D02*
X7258277Y-16701888D01*
X7258277Y-16701888D02*
X7248753Y-16720936D01*
X7248753Y-16720936D02*
X7239229Y-16730460D01*
X7239229Y-16730460D02*
X7220182Y-16739984D01*
X7220182Y-16739984D02*
X7201134Y-16739984D01*
X7201134Y-16739984D02*
X7182086Y-16730460D01*
X7182086Y-16730460D02*
X7172563Y-16720936D01*
X7172563Y-16720936D02*
X7163039Y-16701888D01*
X7163039Y-16701888D02*
X7153515Y-16663793D01*
X7153515Y-16663793D02*
X7153515Y-16616174D01*
X7153515Y-16616174D02*
X7163039Y-16578079D01*
X7163039Y-16578079D02*
X7172563Y-16559031D01*
X7172563Y-16559031D02*
X7182086Y-16549508D01*
X7182086Y-16549508D02*
X7201134Y-16539984D01*
X7353515Y-16720936D02*
X7363039Y-16730460D01*
X7363039Y-16730460D02*
X7353515Y-16739984D01*
X7353515Y-16739984D02*
X7343991Y-16730460D01*
X7343991Y-16730460D02*
X7353515Y-16720936D01*
X7353515Y-16720936D02*
X7353515Y-16739984D01*
X7486848Y-16539984D02*
X7505896Y-16539984D01*
X7505896Y-16539984D02*
X7524944Y-16549508D01*
X7524944Y-16549508D02*
X7534467Y-16559031D01*
X7534467Y-16559031D02*
X7543991Y-16578079D01*
X7543991Y-16578079D02*
X7553515Y-16616174D01*
X7553515Y-16616174D02*
X7553515Y-16663793D01*
X7553515Y-16663793D02*
X7543991Y-16701888D01*
X7543991Y-16701888D02*
X7534467Y-16720936D01*
X7534467Y-16720936D02*
X7524944Y-16730460D01*
X7524944Y-16730460D02*
X7505896Y-16739984D01*
X7505896Y-16739984D02*
X7486848Y-16739984D01*
X7486848Y-16739984D02*
X7467801Y-16730460D01*
X7467801Y-16730460D02*
X7458277Y-16720936D01*
X7458277Y-16720936D02*
X7448753Y-16701888D01*
X7448753Y-16701888D02*
X7439229Y-16663793D01*
X7439229Y-16663793D02*
X7439229Y-16616174D01*
X7439229Y-16616174D02*
X7448753Y-16578079D01*
X7448753Y-16578079D02*
X7458277Y-16559031D01*
X7458277Y-16559031D02*
X7467801Y-16549508D01*
X7467801Y-16549508D02*
X7486848Y-16539984D01*
X7629706Y-16559031D02*
X7639229Y-16549508D01*
X7639229Y-16549508D02*
X7658277Y-16539984D01*
X7658277Y-16539984D02*
X7705896Y-16539984D01*
X7705896Y-16539984D02*
X7724944Y-16549508D01*
X7724944Y-16549508D02*
X7734467Y-16559031D01*
X7734467Y-16559031D02*
X7743991Y-16578079D01*
X7743991Y-16578079D02*
X7743991Y-16597127D01*
X7743991Y-16597127D02*
X7734467Y-16625698D01*
X7734467Y-16625698D02*
X7620182Y-16739984D01*
X7620182Y-16739984D02*
X7743991Y-16739984D01*
X7915420Y-16539984D02*
X7877325Y-16539984D01*
X7877325Y-16539984D02*
X7858277Y-16549508D01*
X7858277Y-16549508D02*
X7848753Y-16559031D01*
X7848753Y-16559031D02*
X7829706Y-16587603D01*
X7829706Y-16587603D02*
X7820182Y-16625698D01*
X7820182Y-16625698D02*
X7820182Y-16701888D01*
X7820182Y-16701888D02*
X7829706Y-16720936D01*
X7829706Y-16720936D02*
X7839229Y-16730460D01*
X7839229Y-16730460D02*
X7858277Y-16739984D01*
X7858277Y-16739984D02*
X7896372Y-16739984D01*
X7896372Y-16739984D02*
X7915420Y-16730460D01*
X7915420Y-16730460D02*
X7924944Y-16720936D01*
X7924944Y-16720936D02*
X7934467Y-16701888D01*
X7934467Y-16701888D02*
X7934467Y-16654269D01*
X7934467Y-16654269D02*
X7924944Y-16635222D01*
X7924944Y-16635222D02*
X7915420Y-16625698D01*
X7915420Y-16625698D02*
X7896372Y-16616174D01*
X7896372Y-16616174D02*
X7858277Y-16616174D01*
X7858277Y-16616174D02*
X7839229Y-16625698D01*
X7839229Y-16625698D02*
X7829706Y-16635222D01*
X7829706Y-16635222D02*
X7820182Y-16654269D01*
X8058277Y-16539984D02*
X8077325Y-16539984D01*
X8077325Y-16539984D02*
X8096372Y-16549508D01*
X8096372Y-16549508D02*
X8105896Y-16559031D01*
X8105896Y-16559031D02*
X8115420Y-16578079D01*
X8115420Y-16578079D02*
X8124944Y-16616174D01*
X8124944Y-16616174D02*
X8124944Y-16663793D01*
X8124944Y-16663793D02*
X8115420Y-16701888D01*
X8115420Y-16701888D02*
X8105896Y-16720936D01*
X8105896Y-16720936D02*
X8096372Y-16730460D01*
X8096372Y-16730460D02*
X8077325Y-16739984D01*
X8077325Y-16739984D02*
X8058277Y-16739984D01*
X8058277Y-16739984D02*
X8039229Y-16730460D01*
X8039229Y-16730460D02*
X8029706Y-16720936D01*
X8029706Y-16720936D02*
X8020182Y-16701888D01*
X8020182Y-16701888D02*
X8010658Y-16663793D01*
X8010658Y-16663793D02*
X8010658Y-16616174D01*
X8010658Y-16616174D02*
X8020182Y-16578079D01*
X8020182Y-16578079D02*
X8029706Y-16559031D01*
X8029706Y-16559031D02*
X8039229Y-16549508D01*
X8039229Y-16549508D02*
X8058277Y-16539984D01*
X8201134Y-16539984D02*
X8201134Y-16578079D01*
X8277325Y-16539984D02*
X8277325Y-16578079D01*
X8572563Y-16816174D02*
X8563039Y-16806650D01*
X8563039Y-16806650D02*
X8543991Y-16778079D01*
X8543991Y-16778079D02*
X8534468Y-16759031D01*
X8534468Y-16759031D02*
X8524944Y-16730460D01*
X8524944Y-16730460D02*
X8515420Y-16682841D01*
X8515420Y-16682841D02*
X8515420Y-16644746D01*
X8515420Y-16644746D02*
X8524944Y-16597127D01*
X8524944Y-16597127D02*
X8534468Y-16568555D01*
X8534468Y-16568555D02*
X8543991Y-16549508D01*
X8543991Y-16549508D02*
X8563039Y-16520936D01*
X8563039Y-16520936D02*
X8572563Y-16511412D01*
X8753515Y-16739984D02*
X8639230Y-16739984D01*
X8696372Y-16739984D02*
X8696372Y-16539984D01*
X8696372Y-16539984D02*
X8677325Y-16568555D01*
X8677325Y-16568555D02*
X8658277Y-16587603D01*
X8658277Y-16587603D02*
X8639230Y-16597127D01*
X8877325Y-16539984D02*
X8896372Y-16539984D01*
X8896372Y-16539984D02*
X8915420Y-16549508D01*
X8915420Y-16549508D02*
X8924944Y-16559031D01*
X8924944Y-16559031D02*
X8934468Y-16578079D01*
X8934468Y-16578079D02*
X8943991Y-16616174D01*
X8943991Y-16616174D02*
X8943991Y-16663793D01*
X8943991Y-16663793D02*
X8934468Y-16701888D01*
X8934468Y-16701888D02*
X8924944Y-16720936D01*
X8924944Y-16720936D02*
X8915420Y-16730460D01*
X8915420Y-16730460D02*
X8896372Y-16739984D01*
X8896372Y-16739984D02*
X8877325Y-16739984D01*
X8877325Y-16739984D02*
X8858277Y-16730460D01*
X8858277Y-16730460D02*
X8848753Y-16720936D01*
X8848753Y-16720936D02*
X8839230Y-16701888D01*
X8839230Y-16701888D02*
X8829706Y-16663793D01*
X8829706Y-16663793D02*
X8829706Y-16616174D01*
X8829706Y-16616174D02*
X8839230Y-16578079D01*
X8839230Y-16578079D02*
X8848753Y-16559031D01*
X8848753Y-16559031D02*
X8858277Y-16549508D01*
X8858277Y-16549508D02*
X8877325Y-16539984D01*
X9182087Y-16739984D02*
X9182087Y-16539984D01*
X9267801Y-16739984D02*
X9267801Y-16635222D01*
X9267801Y-16635222D02*
X9258277Y-16616174D01*
X9258277Y-16616174D02*
X9239230Y-16606650D01*
X9239230Y-16606650D02*
X9210658Y-16606650D01*
X9210658Y-16606650D02*
X9191611Y-16616174D01*
X9191611Y-16616174D02*
X9182087Y-16625698D01*
X9391611Y-16739984D02*
X9372563Y-16730460D01*
X9372563Y-16730460D02*
X9363039Y-16720936D01*
X9363039Y-16720936D02*
X9353515Y-16701888D01*
X9353515Y-16701888D02*
X9353515Y-16644746D01*
X9353515Y-16644746D02*
X9363039Y-16625698D01*
X9363039Y-16625698D02*
X9372563Y-16616174D01*
X9372563Y-16616174D02*
X9391611Y-16606650D01*
X9391611Y-16606650D02*
X9420182Y-16606650D01*
X9420182Y-16606650D02*
X9439230Y-16616174D01*
X9439230Y-16616174D02*
X9448753Y-16625698D01*
X9448753Y-16625698D02*
X9458277Y-16644746D01*
X9458277Y-16644746D02*
X9458277Y-16701888D01*
X9458277Y-16701888D02*
X9448753Y-16720936D01*
X9448753Y-16720936D02*
X9439230Y-16730460D01*
X9439230Y-16730460D02*
X9420182Y-16739984D01*
X9420182Y-16739984D02*
X9391611Y-16739984D01*
X9572563Y-16739984D02*
X9553515Y-16730460D01*
X9553515Y-16730460D02*
X9543992Y-16711412D01*
X9543992Y-16711412D02*
X9543992Y-16539984D01*
X9724944Y-16730460D02*
X9705896Y-16739984D01*
X9705896Y-16739984D02*
X9667801Y-16739984D01*
X9667801Y-16739984D02*
X9648753Y-16730460D01*
X9648753Y-16730460D02*
X9639230Y-16711412D01*
X9639230Y-16711412D02*
X9639230Y-16635222D01*
X9639230Y-16635222D02*
X9648753Y-16616174D01*
X9648753Y-16616174D02*
X9667801Y-16606650D01*
X9667801Y-16606650D02*
X9705896Y-16606650D01*
X9705896Y-16606650D02*
X9724944Y-16616174D01*
X9724944Y-16616174D02*
X9734468Y-16635222D01*
X9734468Y-16635222D02*
X9734468Y-16654269D01*
X9734468Y-16654269D02*
X9639230Y-16673317D01*
X9810658Y-16730460D02*
X9829706Y-16739984D01*
X9829706Y-16739984D02*
X9867801Y-16739984D01*
X9867801Y-16739984D02*
X9886849Y-16730460D01*
X9886849Y-16730460D02*
X9896373Y-16711412D01*
X9896373Y-16711412D02*
X9896373Y-16701888D01*
X9896373Y-16701888D02*
X9886849Y-16682841D01*
X9886849Y-16682841D02*
X9867801Y-16673317D01*
X9867801Y-16673317D02*
X9839230Y-16673317D01*
X9839230Y-16673317D02*
X9820182Y-16663793D01*
X9820182Y-16663793D02*
X9810658Y-16644746D01*
X9810658Y-16644746D02*
X9810658Y-16635222D01*
X9810658Y-16635222D02*
X9820182Y-16616174D01*
X9820182Y-16616174D02*
X9839230Y-16606650D01*
X9839230Y-16606650D02*
X9867801Y-16606650D01*
X9867801Y-16606650D02*
X9886849Y-16616174D01*
X9963039Y-16816174D02*
X9972563Y-16806650D01*
X9972563Y-16806650D02*
X9991611Y-16778079D01*
X9991611Y-16778079D02*
X10001134Y-16759031D01*
X10001134Y-16759031D02*
X10010658Y-16730460D01*
X10010658Y-16730460D02*
X10020182Y-16682841D01*
X10020182Y-16682841D02*
X10020182Y-16644746D01*
X10020182Y-16644746D02*
X10010658Y-16597127D01*
X10010658Y-16597127D02*
X10001134Y-16568555D01*
X10001134Y-16568555D02*
X9991611Y-16549508D01*
X9991611Y-16549508D02*
X9972563Y-16520936D01*
X9972563Y-16520936D02*
X9963039Y-16511412D01*
D12*
X4897500Y-16862500D02*
X4997500Y-16962500D01*
X4997500Y-16862500D02*
X4897500Y-16962500D01*
X4997500Y-16912500D02*
G75*
G02*
X4897500Y-16912500I-50000J0D01*
G01*
X4897500Y-16912500D02*
G75*
G02*
X4997500Y-16912500I50000J0D01*
G01*
D11*
X5363039Y-17003984D02*
X5248753Y-17003984D01*
X5305896Y-17003984D02*
X5305896Y-16803984D01*
X5305896Y-16803984D02*
X5286848Y-16832555D01*
X5286848Y-16832555D02*
X5267801Y-16851603D01*
X5267801Y-16851603D02*
X5248753Y-16861127D01*
X5448753Y-16984936D02*
X5458277Y-16994460D01*
X5458277Y-16994460D02*
X5448753Y-17003984D01*
X5448753Y-17003984D02*
X5439229Y-16994460D01*
X5439229Y-16994460D02*
X5448753Y-16984936D01*
X5448753Y-16984936D02*
X5448753Y-17003984D01*
X5582086Y-16803984D02*
X5601134Y-16803984D01*
X5601134Y-16803984D02*
X5620182Y-16813508D01*
X5620182Y-16813508D02*
X5629705Y-16823031D01*
X5629705Y-16823031D02*
X5639229Y-16842079D01*
X5639229Y-16842079D02*
X5648753Y-16880174D01*
X5648753Y-16880174D02*
X5648753Y-16927793D01*
X5648753Y-16927793D02*
X5639229Y-16965889D01*
X5639229Y-16965889D02*
X5629705Y-16984936D01*
X5629705Y-16984936D02*
X5620182Y-16994460D01*
X5620182Y-16994460D02*
X5601134Y-17003984D01*
X5601134Y-17003984D02*
X5582086Y-17003984D01*
X5582086Y-17003984D02*
X5563039Y-16994460D01*
X5563039Y-16994460D02*
X5553515Y-16984936D01*
X5553515Y-16984936D02*
X5543991Y-16965889D01*
X5543991Y-16965889D02*
X5534467Y-16927793D01*
X5534467Y-16927793D02*
X5534467Y-16880174D01*
X5534467Y-16880174D02*
X5543991Y-16842079D01*
X5543991Y-16842079D02*
X5553515Y-16823031D01*
X5553515Y-16823031D02*
X5563039Y-16813508D01*
X5563039Y-16813508D02*
X5582086Y-16803984D01*
X5772562Y-16803984D02*
X5791610Y-16803984D01*
X5791610Y-16803984D02*
X5810658Y-16813508D01*
X5810658Y-16813508D02*
X5820182Y-16823031D01*
X5820182Y-16823031D02*
X5829705Y-16842079D01*
X5829705Y-16842079D02*
X5839229Y-16880174D01*
X5839229Y-16880174D02*
X5839229Y-16927793D01*
X5839229Y-16927793D02*
X5829705Y-16965889D01*
X5829705Y-16965889D02*
X5820182Y-16984936D01*
X5820182Y-16984936D02*
X5810658Y-16994460D01*
X5810658Y-16994460D02*
X5791610Y-17003984D01*
X5791610Y-17003984D02*
X5772562Y-17003984D01*
X5772562Y-17003984D02*
X5753515Y-16994460D01*
X5753515Y-16994460D02*
X5743991Y-16984936D01*
X5743991Y-16984936D02*
X5734467Y-16965889D01*
X5734467Y-16965889D02*
X5724943Y-16927793D01*
X5724943Y-16927793D02*
X5724943Y-16880174D01*
X5724943Y-16880174D02*
X5734467Y-16842079D01*
X5734467Y-16842079D02*
X5743991Y-16823031D01*
X5743991Y-16823031D02*
X5753515Y-16813508D01*
X5753515Y-16813508D02*
X5772562Y-16803984D01*
X5963039Y-16803984D02*
X5982086Y-16803984D01*
X5982086Y-16803984D02*
X6001134Y-16813508D01*
X6001134Y-16813508D02*
X6010658Y-16823031D01*
X6010658Y-16823031D02*
X6020182Y-16842079D01*
X6020182Y-16842079D02*
X6029705Y-16880174D01*
X6029705Y-16880174D02*
X6029705Y-16927793D01*
X6029705Y-16927793D02*
X6020182Y-16965889D01*
X6020182Y-16965889D02*
X6010658Y-16984936D01*
X6010658Y-16984936D02*
X6001134Y-16994460D01*
X6001134Y-16994460D02*
X5982086Y-17003984D01*
X5982086Y-17003984D02*
X5963039Y-17003984D01*
X5963039Y-17003984D02*
X5943991Y-16994460D01*
X5943991Y-16994460D02*
X5934467Y-16984936D01*
X5934467Y-16984936D02*
X5924943Y-16965889D01*
X5924943Y-16965889D02*
X5915420Y-16927793D01*
X5915420Y-16927793D02*
X5915420Y-16880174D01*
X5915420Y-16880174D02*
X5924943Y-16842079D01*
X5924943Y-16842079D02*
X5934467Y-16823031D01*
X5934467Y-16823031D02*
X5943991Y-16813508D01*
X5943991Y-16813508D02*
X5963039Y-16803984D01*
X6115420Y-17003984D02*
X6115420Y-16870650D01*
X6115420Y-16889698D02*
X6124943Y-16880174D01*
X6124943Y-16880174D02*
X6143991Y-16870650D01*
X6143991Y-16870650D02*
X6172563Y-16870650D01*
X6172563Y-16870650D02*
X6191610Y-16880174D01*
X6191610Y-16880174D02*
X6201134Y-16899222D01*
X6201134Y-16899222D02*
X6201134Y-17003984D01*
X6201134Y-16899222D02*
X6210658Y-16880174D01*
X6210658Y-16880174D02*
X6229705Y-16870650D01*
X6229705Y-16870650D02*
X6258277Y-16870650D01*
X6258277Y-16870650D02*
X6277324Y-16880174D01*
X6277324Y-16880174D02*
X6286848Y-16899222D01*
X6286848Y-16899222D02*
X6286848Y-17003984D01*
X6382086Y-17003984D02*
X6382086Y-16870650D01*
X6382086Y-16889698D02*
X6391610Y-16880174D01*
X6391610Y-16880174D02*
X6410658Y-16870650D01*
X6410658Y-16870650D02*
X6439229Y-16870650D01*
X6439229Y-16870650D02*
X6458277Y-16880174D01*
X6458277Y-16880174D02*
X6467801Y-16899222D01*
X6467801Y-16899222D02*
X6467801Y-17003984D01*
X6467801Y-16899222D02*
X6477324Y-16880174D01*
X6477324Y-16880174D02*
X6496372Y-16870650D01*
X6496372Y-16870650D02*
X6524943Y-16870650D01*
X6524943Y-16870650D02*
X6543991Y-16880174D01*
X6543991Y-16880174D02*
X6553515Y-16899222D01*
X6553515Y-16899222D02*
X6553515Y-17003984D01*
X6943991Y-16794460D02*
X6772563Y-17051603D01*
X7201134Y-16803984D02*
X7220182Y-16803984D01*
X7220182Y-16803984D02*
X7239229Y-16813508D01*
X7239229Y-16813508D02*
X7248753Y-16823031D01*
X7248753Y-16823031D02*
X7258277Y-16842079D01*
X7258277Y-16842079D02*
X7267801Y-16880174D01*
X7267801Y-16880174D02*
X7267801Y-16927793D01*
X7267801Y-16927793D02*
X7258277Y-16965889D01*
X7258277Y-16965889D02*
X7248753Y-16984936D01*
X7248753Y-16984936D02*
X7239229Y-16994460D01*
X7239229Y-16994460D02*
X7220182Y-17003984D01*
X7220182Y-17003984D02*
X7201134Y-17003984D01*
X7201134Y-17003984D02*
X7182086Y-16994460D01*
X7182086Y-16994460D02*
X7172563Y-16984936D01*
X7172563Y-16984936D02*
X7163039Y-16965889D01*
X7163039Y-16965889D02*
X7153515Y-16927793D01*
X7153515Y-16927793D02*
X7153515Y-16880174D01*
X7153515Y-16880174D02*
X7163039Y-16842079D01*
X7163039Y-16842079D02*
X7172563Y-16823031D01*
X7172563Y-16823031D02*
X7182086Y-16813508D01*
X7182086Y-16813508D02*
X7201134Y-16803984D01*
X7353515Y-16984936D02*
X7363039Y-16994460D01*
X7363039Y-16994460D02*
X7353515Y-17003984D01*
X7353515Y-17003984D02*
X7343991Y-16994460D01*
X7343991Y-16994460D02*
X7353515Y-16984936D01*
X7353515Y-16984936D02*
X7353515Y-17003984D01*
X7486848Y-16803984D02*
X7505896Y-16803984D01*
X7505896Y-16803984D02*
X7524944Y-16813508D01*
X7524944Y-16813508D02*
X7534467Y-16823031D01*
X7534467Y-16823031D02*
X7543991Y-16842079D01*
X7543991Y-16842079D02*
X7553515Y-16880174D01*
X7553515Y-16880174D02*
X7553515Y-16927793D01*
X7553515Y-16927793D02*
X7543991Y-16965889D01*
X7543991Y-16965889D02*
X7534467Y-16984936D01*
X7534467Y-16984936D02*
X7524944Y-16994460D01*
X7524944Y-16994460D02*
X7505896Y-17003984D01*
X7505896Y-17003984D02*
X7486848Y-17003984D01*
X7486848Y-17003984D02*
X7467801Y-16994460D01*
X7467801Y-16994460D02*
X7458277Y-16984936D01*
X7458277Y-16984936D02*
X7448753Y-16965889D01*
X7448753Y-16965889D02*
X7439229Y-16927793D01*
X7439229Y-16927793D02*
X7439229Y-16880174D01*
X7439229Y-16880174D02*
X7448753Y-16842079D01*
X7448753Y-16842079D02*
X7458277Y-16823031D01*
X7458277Y-16823031D02*
X7467801Y-16813508D01*
X7467801Y-16813508D02*
X7486848Y-16803984D01*
X7620182Y-16803984D02*
X7743991Y-16803984D01*
X7743991Y-16803984D02*
X7677325Y-16880174D01*
X7677325Y-16880174D02*
X7705896Y-16880174D01*
X7705896Y-16880174D02*
X7724944Y-16889698D01*
X7724944Y-16889698D02*
X7734467Y-16899222D01*
X7734467Y-16899222D02*
X7743991Y-16918270D01*
X7743991Y-16918270D02*
X7743991Y-16965889D01*
X7743991Y-16965889D02*
X7734467Y-16984936D01*
X7734467Y-16984936D02*
X7724944Y-16994460D01*
X7724944Y-16994460D02*
X7705896Y-17003984D01*
X7705896Y-17003984D02*
X7648753Y-17003984D01*
X7648753Y-17003984D02*
X7629706Y-16994460D01*
X7629706Y-16994460D02*
X7620182Y-16984936D01*
X7839229Y-17003984D02*
X7877325Y-17003984D01*
X7877325Y-17003984D02*
X7896372Y-16994460D01*
X7896372Y-16994460D02*
X7905896Y-16984936D01*
X7905896Y-16984936D02*
X7924944Y-16956365D01*
X7924944Y-16956365D02*
X7934467Y-16918270D01*
X7934467Y-16918270D02*
X7934467Y-16842079D01*
X7934467Y-16842079D02*
X7924944Y-16823031D01*
X7924944Y-16823031D02*
X7915420Y-16813508D01*
X7915420Y-16813508D02*
X7896372Y-16803984D01*
X7896372Y-16803984D02*
X7858277Y-16803984D01*
X7858277Y-16803984D02*
X7839229Y-16813508D01*
X7839229Y-16813508D02*
X7829706Y-16823031D01*
X7829706Y-16823031D02*
X7820182Y-16842079D01*
X7820182Y-16842079D02*
X7820182Y-16889698D01*
X7820182Y-16889698D02*
X7829706Y-16908746D01*
X7829706Y-16908746D02*
X7839229Y-16918270D01*
X7839229Y-16918270D02*
X7858277Y-16927793D01*
X7858277Y-16927793D02*
X7896372Y-16927793D01*
X7896372Y-16927793D02*
X7915420Y-16918270D01*
X7915420Y-16918270D02*
X7924944Y-16908746D01*
X7924944Y-16908746D02*
X7934467Y-16889698D01*
X8105896Y-16870650D02*
X8105896Y-17003984D01*
X8058277Y-16794460D02*
X8010658Y-16937317D01*
X8010658Y-16937317D02*
X8134467Y-16937317D01*
X8201134Y-16803984D02*
X8201134Y-16842079D01*
X8277325Y-16803984D02*
X8277325Y-16842079D01*
X8572563Y-17080174D02*
X8563039Y-17070650D01*
X8563039Y-17070650D02*
X8543991Y-17042079D01*
X8543991Y-17042079D02*
X8534468Y-17023031D01*
X8534468Y-17023031D02*
X8524944Y-16994460D01*
X8524944Y-16994460D02*
X8515420Y-16946841D01*
X8515420Y-16946841D02*
X8515420Y-16908746D01*
X8515420Y-16908746D02*
X8524944Y-16861127D01*
X8524944Y-16861127D02*
X8534468Y-16832555D01*
X8534468Y-16832555D02*
X8543991Y-16813508D01*
X8543991Y-16813508D02*
X8563039Y-16784936D01*
X8563039Y-16784936D02*
X8572563Y-16775412D01*
X8639230Y-16823031D02*
X8648753Y-16813508D01*
X8648753Y-16813508D02*
X8667801Y-16803984D01*
X8667801Y-16803984D02*
X8715420Y-16803984D01*
X8715420Y-16803984D02*
X8734468Y-16813508D01*
X8734468Y-16813508D02*
X8743991Y-16823031D01*
X8743991Y-16823031D02*
X8753515Y-16842079D01*
X8753515Y-16842079D02*
X8753515Y-16861127D01*
X8753515Y-16861127D02*
X8743991Y-16889698D01*
X8743991Y-16889698D02*
X8629706Y-17003984D01*
X8629706Y-17003984D02*
X8753515Y-17003984D01*
X8991611Y-17003984D02*
X8991611Y-16803984D01*
X9077325Y-17003984D02*
X9077325Y-16899222D01*
X9077325Y-16899222D02*
X9067801Y-16880174D01*
X9067801Y-16880174D02*
X9048753Y-16870650D01*
X9048753Y-16870650D02*
X9020182Y-16870650D01*
X9020182Y-16870650D02*
X9001134Y-16880174D01*
X9001134Y-16880174D02*
X8991611Y-16889698D01*
X9201134Y-17003984D02*
X9182087Y-16994460D01*
X9182087Y-16994460D02*
X9172563Y-16984936D01*
X9172563Y-16984936D02*
X9163039Y-16965889D01*
X9163039Y-16965889D02*
X9163039Y-16908746D01*
X9163039Y-16908746D02*
X9172563Y-16889698D01*
X9172563Y-16889698D02*
X9182087Y-16880174D01*
X9182087Y-16880174D02*
X9201134Y-16870650D01*
X9201134Y-16870650D02*
X9229706Y-16870650D01*
X9229706Y-16870650D02*
X9248753Y-16880174D01*
X9248753Y-16880174D02*
X9258277Y-16889698D01*
X9258277Y-16889698D02*
X9267801Y-16908746D01*
X9267801Y-16908746D02*
X9267801Y-16965889D01*
X9267801Y-16965889D02*
X9258277Y-16984936D01*
X9258277Y-16984936D02*
X9248753Y-16994460D01*
X9248753Y-16994460D02*
X9229706Y-17003984D01*
X9229706Y-17003984D02*
X9201134Y-17003984D01*
X9382087Y-17003984D02*
X9363039Y-16994460D01*
X9363039Y-16994460D02*
X9353515Y-16975412D01*
X9353515Y-16975412D02*
X9353515Y-16803984D01*
X9534468Y-16994460D02*
X9515420Y-17003984D01*
X9515420Y-17003984D02*
X9477325Y-17003984D01*
X9477325Y-17003984D02*
X9458277Y-16994460D01*
X9458277Y-16994460D02*
X9448753Y-16975412D01*
X9448753Y-16975412D02*
X9448753Y-16899222D01*
X9448753Y-16899222D02*
X9458277Y-16880174D01*
X9458277Y-16880174D02*
X9477325Y-16870650D01*
X9477325Y-16870650D02*
X9515420Y-16870650D01*
X9515420Y-16870650D02*
X9534468Y-16880174D01*
X9534468Y-16880174D02*
X9543992Y-16899222D01*
X9543992Y-16899222D02*
X9543992Y-16918270D01*
X9543992Y-16918270D02*
X9448753Y-16937317D01*
X9620182Y-16994460D02*
X9639230Y-17003984D01*
X9639230Y-17003984D02*
X9677325Y-17003984D01*
X9677325Y-17003984D02*
X9696373Y-16994460D01*
X9696373Y-16994460D02*
X9705896Y-16975412D01*
X9705896Y-16975412D02*
X9705896Y-16965889D01*
X9705896Y-16965889D02*
X9696373Y-16946841D01*
X9696373Y-16946841D02*
X9677325Y-16937317D01*
X9677325Y-16937317D02*
X9648753Y-16937317D01*
X9648753Y-16937317D02*
X9629706Y-16927793D01*
X9629706Y-16927793D02*
X9620182Y-16908746D01*
X9620182Y-16908746D02*
X9620182Y-16899222D01*
X9620182Y-16899222D02*
X9629706Y-16880174D01*
X9629706Y-16880174D02*
X9648753Y-16870650D01*
X9648753Y-16870650D02*
X9677325Y-16870650D01*
X9677325Y-16870650D02*
X9696373Y-16880174D01*
X9772563Y-17080174D02*
X9782087Y-17070650D01*
X9782087Y-17070650D02*
X9801134Y-17042079D01*
X9801134Y-17042079D02*
X9810658Y-17023031D01*
X9810658Y-17023031D02*
X9820182Y-16994460D01*
X9820182Y-16994460D02*
X9829706Y-16946841D01*
X9829706Y-16946841D02*
X9829706Y-16908746D01*
X9829706Y-16908746D02*
X9820182Y-16861127D01*
X9820182Y-16861127D02*
X9810658Y-16832555D01*
X9810658Y-16832555D02*
X9801134Y-16813508D01*
X9801134Y-16813508D02*
X9782087Y-16784936D01*
X9782087Y-16784936D02*
X9772563Y-16775412D01*
D13*
X4867500Y-17111500D02*
X4997500Y-17241500D01*
X4997500Y-17111500D02*
X4867500Y-17241500D01*
X4932500Y-17111500D02*
X4932500Y-17241500D01*
X4867500Y-17176500D02*
X4997500Y-17176500D01*
D11*
X5363039Y-17267984D02*
X5248753Y-17267984D01*
X5305896Y-17267984D02*
X5305896Y-17067984D01*
X5305896Y-17067984D02*
X5286848Y-17096555D01*
X5286848Y-17096555D02*
X5267801Y-17115603D01*
X5267801Y-17115603D02*
X5248753Y-17125127D01*
X5448753Y-17248936D02*
X5458277Y-17258460D01*
X5458277Y-17258460D02*
X5448753Y-17267984D01*
X5448753Y-17267984D02*
X5439229Y-17258460D01*
X5439229Y-17258460D02*
X5448753Y-17248936D01*
X5448753Y-17248936D02*
X5448753Y-17267984D01*
X5524944Y-17067984D02*
X5648753Y-17067984D01*
X5648753Y-17067984D02*
X5582086Y-17144174D01*
X5582086Y-17144174D02*
X5610658Y-17144174D01*
X5610658Y-17144174D02*
X5629705Y-17153698D01*
X5629705Y-17153698D02*
X5639229Y-17163222D01*
X5639229Y-17163222D02*
X5648753Y-17182270D01*
X5648753Y-17182270D02*
X5648753Y-17229889D01*
X5648753Y-17229889D02*
X5639229Y-17248936D01*
X5639229Y-17248936D02*
X5629705Y-17258460D01*
X5629705Y-17258460D02*
X5610658Y-17267984D01*
X5610658Y-17267984D02*
X5553515Y-17267984D01*
X5553515Y-17267984D02*
X5534467Y-17258460D01*
X5534467Y-17258460D02*
X5524944Y-17248936D01*
X5772562Y-17067984D02*
X5791610Y-17067984D01*
X5791610Y-17067984D02*
X5810658Y-17077508D01*
X5810658Y-17077508D02*
X5820182Y-17087031D01*
X5820182Y-17087031D02*
X5829705Y-17106079D01*
X5829705Y-17106079D02*
X5839229Y-17144174D01*
X5839229Y-17144174D02*
X5839229Y-17191793D01*
X5839229Y-17191793D02*
X5829705Y-17229889D01*
X5829705Y-17229889D02*
X5820182Y-17248936D01*
X5820182Y-17248936D02*
X5810658Y-17258460D01*
X5810658Y-17258460D02*
X5791610Y-17267984D01*
X5791610Y-17267984D02*
X5772562Y-17267984D01*
X5772562Y-17267984D02*
X5753515Y-17258460D01*
X5753515Y-17258460D02*
X5743991Y-17248936D01*
X5743991Y-17248936D02*
X5734467Y-17229889D01*
X5734467Y-17229889D02*
X5724943Y-17191793D01*
X5724943Y-17191793D02*
X5724943Y-17144174D01*
X5724943Y-17144174D02*
X5734467Y-17106079D01*
X5734467Y-17106079D02*
X5743991Y-17087031D01*
X5743991Y-17087031D02*
X5753515Y-17077508D01*
X5753515Y-17077508D02*
X5772562Y-17067984D01*
X5963039Y-17067984D02*
X5982086Y-17067984D01*
X5982086Y-17067984D02*
X6001134Y-17077508D01*
X6001134Y-17077508D02*
X6010658Y-17087031D01*
X6010658Y-17087031D02*
X6020182Y-17106079D01*
X6020182Y-17106079D02*
X6029705Y-17144174D01*
X6029705Y-17144174D02*
X6029705Y-17191793D01*
X6029705Y-17191793D02*
X6020182Y-17229889D01*
X6020182Y-17229889D02*
X6010658Y-17248936D01*
X6010658Y-17248936D02*
X6001134Y-17258460D01*
X6001134Y-17258460D02*
X5982086Y-17267984D01*
X5982086Y-17267984D02*
X5963039Y-17267984D01*
X5963039Y-17267984D02*
X5943991Y-17258460D01*
X5943991Y-17258460D02*
X5934467Y-17248936D01*
X5934467Y-17248936D02*
X5924943Y-17229889D01*
X5924943Y-17229889D02*
X5915420Y-17191793D01*
X5915420Y-17191793D02*
X5915420Y-17144174D01*
X5915420Y-17144174D02*
X5924943Y-17106079D01*
X5924943Y-17106079D02*
X5934467Y-17087031D01*
X5934467Y-17087031D02*
X5943991Y-17077508D01*
X5943991Y-17077508D02*
X5963039Y-17067984D01*
X6115420Y-17267984D02*
X6115420Y-17134650D01*
X6115420Y-17153698D02*
X6124943Y-17144174D01*
X6124943Y-17144174D02*
X6143991Y-17134650D01*
X6143991Y-17134650D02*
X6172563Y-17134650D01*
X6172563Y-17134650D02*
X6191610Y-17144174D01*
X6191610Y-17144174D02*
X6201134Y-17163222D01*
X6201134Y-17163222D02*
X6201134Y-17267984D01*
X6201134Y-17163222D02*
X6210658Y-17144174D01*
X6210658Y-17144174D02*
X6229705Y-17134650D01*
X6229705Y-17134650D02*
X6258277Y-17134650D01*
X6258277Y-17134650D02*
X6277324Y-17144174D01*
X6277324Y-17144174D02*
X6286848Y-17163222D01*
X6286848Y-17163222D02*
X6286848Y-17267984D01*
X6382086Y-17267984D02*
X6382086Y-17134650D01*
X6382086Y-17153698D02*
X6391610Y-17144174D01*
X6391610Y-17144174D02*
X6410658Y-17134650D01*
X6410658Y-17134650D02*
X6439229Y-17134650D01*
X6439229Y-17134650D02*
X6458277Y-17144174D01*
X6458277Y-17144174D02*
X6467801Y-17163222D01*
X6467801Y-17163222D02*
X6467801Y-17267984D01*
X6467801Y-17163222D02*
X6477324Y-17144174D01*
X6477324Y-17144174D02*
X6496372Y-17134650D01*
X6496372Y-17134650D02*
X6524943Y-17134650D01*
X6524943Y-17134650D02*
X6543991Y-17144174D01*
X6543991Y-17144174D02*
X6553515Y-17163222D01*
X6553515Y-17163222D02*
X6553515Y-17267984D01*
X6943991Y-17058460D02*
X6772563Y-17315603D01*
X7201134Y-17067984D02*
X7220182Y-17067984D01*
X7220182Y-17067984D02*
X7239229Y-17077508D01*
X7239229Y-17077508D02*
X7248753Y-17087031D01*
X7248753Y-17087031D02*
X7258277Y-17106079D01*
X7258277Y-17106079D02*
X7267801Y-17144174D01*
X7267801Y-17144174D02*
X7267801Y-17191793D01*
X7267801Y-17191793D02*
X7258277Y-17229889D01*
X7258277Y-17229889D02*
X7248753Y-17248936D01*
X7248753Y-17248936D02*
X7239229Y-17258460D01*
X7239229Y-17258460D02*
X7220182Y-17267984D01*
X7220182Y-17267984D02*
X7201134Y-17267984D01*
X7201134Y-17267984D02*
X7182086Y-17258460D01*
X7182086Y-17258460D02*
X7172563Y-17248936D01*
X7172563Y-17248936D02*
X7163039Y-17229889D01*
X7163039Y-17229889D02*
X7153515Y-17191793D01*
X7153515Y-17191793D02*
X7153515Y-17144174D01*
X7153515Y-17144174D02*
X7163039Y-17106079D01*
X7163039Y-17106079D02*
X7172563Y-17087031D01*
X7172563Y-17087031D02*
X7182086Y-17077508D01*
X7182086Y-17077508D02*
X7201134Y-17067984D01*
X7353515Y-17248936D02*
X7363039Y-17258460D01*
X7363039Y-17258460D02*
X7353515Y-17267984D01*
X7353515Y-17267984D02*
X7343991Y-17258460D01*
X7343991Y-17258460D02*
X7353515Y-17248936D01*
X7353515Y-17248936D02*
X7353515Y-17267984D01*
X7486848Y-17067984D02*
X7505896Y-17067984D01*
X7505896Y-17067984D02*
X7524944Y-17077508D01*
X7524944Y-17077508D02*
X7534467Y-17087031D01*
X7534467Y-17087031D02*
X7543991Y-17106079D01*
X7543991Y-17106079D02*
X7553515Y-17144174D01*
X7553515Y-17144174D02*
X7553515Y-17191793D01*
X7553515Y-17191793D02*
X7543991Y-17229889D01*
X7543991Y-17229889D02*
X7534467Y-17248936D01*
X7534467Y-17248936D02*
X7524944Y-17258460D01*
X7524944Y-17258460D02*
X7505896Y-17267984D01*
X7505896Y-17267984D02*
X7486848Y-17267984D01*
X7486848Y-17267984D02*
X7467801Y-17258460D01*
X7467801Y-17258460D02*
X7458277Y-17248936D01*
X7458277Y-17248936D02*
X7448753Y-17229889D01*
X7448753Y-17229889D02*
X7439229Y-17191793D01*
X7439229Y-17191793D02*
X7439229Y-17144174D01*
X7439229Y-17144174D02*
X7448753Y-17106079D01*
X7448753Y-17106079D02*
X7458277Y-17087031D01*
X7458277Y-17087031D02*
X7467801Y-17077508D01*
X7467801Y-17077508D02*
X7486848Y-17067984D01*
X7734467Y-17067984D02*
X7639229Y-17067984D01*
X7639229Y-17067984D02*
X7629706Y-17163222D01*
X7629706Y-17163222D02*
X7639229Y-17153698D01*
X7639229Y-17153698D02*
X7658277Y-17144174D01*
X7658277Y-17144174D02*
X7705896Y-17144174D01*
X7705896Y-17144174D02*
X7724944Y-17153698D01*
X7724944Y-17153698D02*
X7734467Y-17163222D01*
X7734467Y-17163222D02*
X7743991Y-17182270D01*
X7743991Y-17182270D02*
X7743991Y-17229889D01*
X7743991Y-17229889D02*
X7734467Y-17248936D01*
X7734467Y-17248936D02*
X7724944Y-17258460D01*
X7724944Y-17258460D02*
X7705896Y-17267984D01*
X7705896Y-17267984D02*
X7658277Y-17267984D01*
X7658277Y-17267984D02*
X7639229Y-17258460D01*
X7639229Y-17258460D02*
X7629706Y-17248936D01*
X7934467Y-17267984D02*
X7820182Y-17267984D01*
X7877325Y-17267984D02*
X7877325Y-17067984D01*
X7877325Y-17067984D02*
X7858277Y-17096555D01*
X7858277Y-17096555D02*
X7839229Y-17115603D01*
X7839229Y-17115603D02*
X7820182Y-17125127D01*
X8010658Y-17087031D02*
X8020182Y-17077508D01*
X8020182Y-17077508D02*
X8039229Y-17067984D01*
X8039229Y-17067984D02*
X8086848Y-17067984D01*
X8086848Y-17067984D02*
X8105896Y-17077508D01*
X8105896Y-17077508D02*
X8115420Y-17087031D01*
X8115420Y-17087031D02*
X8124944Y-17106079D01*
X8124944Y-17106079D02*
X8124944Y-17125127D01*
X8124944Y-17125127D02*
X8115420Y-17153698D01*
X8115420Y-17153698D02*
X8001134Y-17267984D01*
X8001134Y-17267984D02*
X8124944Y-17267984D01*
X8201134Y-17067984D02*
X8201134Y-17106079D01*
X8277325Y-17067984D02*
X8277325Y-17106079D01*
X8572563Y-17344174D02*
X8563039Y-17334650D01*
X8563039Y-17334650D02*
X8543991Y-17306079D01*
X8543991Y-17306079D02*
X8534468Y-17287031D01*
X8534468Y-17287031D02*
X8524944Y-17258460D01*
X8524944Y-17258460D02*
X8515420Y-17210841D01*
X8515420Y-17210841D02*
X8515420Y-17172746D01*
X8515420Y-17172746D02*
X8524944Y-17125127D01*
X8524944Y-17125127D02*
X8534468Y-17096555D01*
X8534468Y-17096555D02*
X8543991Y-17077508D01*
X8543991Y-17077508D02*
X8563039Y-17048936D01*
X8563039Y-17048936D02*
X8572563Y-17039412D01*
X8743991Y-17067984D02*
X8648753Y-17067984D01*
X8648753Y-17067984D02*
X8639230Y-17163222D01*
X8639230Y-17163222D02*
X8648753Y-17153698D01*
X8648753Y-17153698D02*
X8667801Y-17144174D01*
X8667801Y-17144174D02*
X8715420Y-17144174D01*
X8715420Y-17144174D02*
X8734468Y-17153698D01*
X8734468Y-17153698D02*
X8743991Y-17163222D01*
X8743991Y-17163222D02*
X8753515Y-17182270D01*
X8753515Y-17182270D02*
X8753515Y-17229889D01*
X8753515Y-17229889D02*
X8743991Y-17248936D01*
X8743991Y-17248936D02*
X8734468Y-17258460D01*
X8734468Y-17258460D02*
X8715420Y-17267984D01*
X8715420Y-17267984D02*
X8667801Y-17267984D01*
X8667801Y-17267984D02*
X8648753Y-17258460D01*
X8648753Y-17258460D02*
X8639230Y-17248936D01*
X8991611Y-17267984D02*
X8991611Y-17067984D01*
X9077325Y-17267984D02*
X9077325Y-17163222D01*
X9077325Y-17163222D02*
X9067801Y-17144174D01*
X9067801Y-17144174D02*
X9048753Y-17134650D01*
X9048753Y-17134650D02*
X9020182Y-17134650D01*
X9020182Y-17134650D02*
X9001134Y-17144174D01*
X9001134Y-17144174D02*
X8991611Y-17153698D01*
X9201134Y-17267984D02*
X9182087Y-17258460D01*
X9182087Y-17258460D02*
X9172563Y-17248936D01*
X9172563Y-17248936D02*
X9163039Y-17229889D01*
X9163039Y-17229889D02*
X9163039Y-17172746D01*
X9163039Y-17172746D02*
X9172563Y-17153698D01*
X9172563Y-17153698D02*
X9182087Y-17144174D01*
X9182087Y-17144174D02*
X9201134Y-17134650D01*
X9201134Y-17134650D02*
X9229706Y-17134650D01*
X9229706Y-17134650D02*
X9248753Y-17144174D01*
X9248753Y-17144174D02*
X9258277Y-17153698D01*
X9258277Y-17153698D02*
X9267801Y-17172746D01*
X9267801Y-17172746D02*
X9267801Y-17229889D01*
X9267801Y-17229889D02*
X9258277Y-17248936D01*
X9258277Y-17248936D02*
X9248753Y-17258460D01*
X9248753Y-17258460D02*
X9229706Y-17267984D01*
X9229706Y-17267984D02*
X9201134Y-17267984D01*
X9382087Y-17267984D02*
X9363039Y-17258460D01*
X9363039Y-17258460D02*
X9353515Y-17239412D01*
X9353515Y-17239412D02*
X9353515Y-17067984D01*
X9534468Y-17258460D02*
X9515420Y-17267984D01*
X9515420Y-17267984D02*
X9477325Y-17267984D01*
X9477325Y-17267984D02*
X9458277Y-17258460D01*
X9458277Y-17258460D02*
X9448753Y-17239412D01*
X9448753Y-17239412D02*
X9448753Y-17163222D01*
X9448753Y-17163222D02*
X9458277Y-17144174D01*
X9458277Y-17144174D02*
X9477325Y-17134650D01*
X9477325Y-17134650D02*
X9515420Y-17134650D01*
X9515420Y-17134650D02*
X9534468Y-17144174D01*
X9534468Y-17144174D02*
X9543992Y-17163222D01*
X9543992Y-17163222D02*
X9543992Y-17182270D01*
X9543992Y-17182270D02*
X9448753Y-17201317D01*
X9620182Y-17258460D02*
X9639230Y-17267984D01*
X9639230Y-17267984D02*
X9677325Y-17267984D01*
X9677325Y-17267984D02*
X9696373Y-17258460D01*
X9696373Y-17258460D02*
X9705896Y-17239412D01*
X9705896Y-17239412D02*
X9705896Y-17229889D01*
X9705896Y-17229889D02*
X9696373Y-17210841D01*
X9696373Y-17210841D02*
X9677325Y-17201317D01*
X9677325Y-17201317D02*
X9648753Y-17201317D01*
X9648753Y-17201317D02*
X9629706Y-17191793D01*
X9629706Y-17191793D02*
X9620182Y-17172746D01*
X9620182Y-17172746D02*
X9620182Y-17163222D01*
X9620182Y-17163222D02*
X9629706Y-17144174D01*
X9629706Y-17144174D02*
X9648753Y-17134650D01*
X9648753Y-17134650D02*
X9677325Y-17134650D01*
X9677325Y-17134650D02*
X9696373Y-17144174D01*
X9772563Y-17344174D02*
X9782087Y-17334650D01*
X9782087Y-17334650D02*
X9801134Y-17306079D01*
X9801134Y-17306079D02*
X9810658Y-17287031D01*
X9810658Y-17287031D02*
X9820182Y-17258460D01*
X9820182Y-17258460D02*
X9829706Y-17210841D01*
X9829706Y-17210841D02*
X9829706Y-17172746D01*
X9829706Y-17172746D02*
X9820182Y-17125127D01*
X9820182Y-17125127D02*
X9810658Y-17096555D01*
X9810658Y-17096555D02*
X9801134Y-17077508D01*
X9801134Y-17077508D02*
X9782087Y-17048936D01*
X9782087Y-17048936D02*
X9772563Y-17039412D01*
D14*
X4859500Y-17371500D02*
X4997500Y-17509500D01*
X4997500Y-17371500D02*
X4859500Y-17509500D01*
X4977291Y-17489291D02*
X4977291Y-17391709D01*
X4879709Y-17391709D01*
X4879709Y-17489291D01*
X4977291Y-17489291D01*
D11*
X5363039Y-17531984D02*
X5248753Y-17531984D01*
X5305896Y-17531984D02*
X5305896Y-17331984D01*
X5305896Y-17331984D02*
X5286848Y-17360555D01*
X5286848Y-17360555D02*
X5267801Y-17379603D01*
X5267801Y-17379603D02*
X5248753Y-17389127D01*
X5448753Y-17512936D02*
X5458277Y-17522460D01*
X5458277Y-17522460D02*
X5448753Y-17531984D01*
X5448753Y-17531984D02*
X5439229Y-17522460D01*
X5439229Y-17522460D02*
X5448753Y-17512936D01*
X5448753Y-17512936D02*
X5448753Y-17531984D01*
X5524944Y-17331984D02*
X5648753Y-17331984D01*
X5648753Y-17331984D02*
X5582086Y-17408174D01*
X5582086Y-17408174D02*
X5610658Y-17408174D01*
X5610658Y-17408174D02*
X5629705Y-17417698D01*
X5629705Y-17417698D02*
X5639229Y-17427222D01*
X5639229Y-17427222D02*
X5648753Y-17446270D01*
X5648753Y-17446270D02*
X5648753Y-17493889D01*
X5648753Y-17493889D02*
X5639229Y-17512936D01*
X5639229Y-17512936D02*
X5629705Y-17522460D01*
X5629705Y-17522460D02*
X5610658Y-17531984D01*
X5610658Y-17531984D02*
X5553515Y-17531984D01*
X5553515Y-17531984D02*
X5534467Y-17522460D01*
X5534467Y-17522460D02*
X5524944Y-17512936D01*
X5763039Y-17417698D02*
X5743991Y-17408174D01*
X5743991Y-17408174D02*
X5734467Y-17398650D01*
X5734467Y-17398650D02*
X5724943Y-17379603D01*
X5724943Y-17379603D02*
X5724943Y-17370079D01*
X5724943Y-17370079D02*
X5734467Y-17351031D01*
X5734467Y-17351031D02*
X5743991Y-17341508D01*
X5743991Y-17341508D02*
X5763039Y-17331984D01*
X5763039Y-17331984D02*
X5801134Y-17331984D01*
X5801134Y-17331984D02*
X5820182Y-17341508D01*
X5820182Y-17341508D02*
X5829705Y-17351031D01*
X5829705Y-17351031D02*
X5839229Y-17370079D01*
X5839229Y-17370079D02*
X5839229Y-17379603D01*
X5839229Y-17379603D02*
X5829705Y-17398650D01*
X5829705Y-17398650D02*
X5820182Y-17408174D01*
X5820182Y-17408174D02*
X5801134Y-17417698D01*
X5801134Y-17417698D02*
X5763039Y-17417698D01*
X5763039Y-17417698D02*
X5743991Y-17427222D01*
X5743991Y-17427222D02*
X5734467Y-17436746D01*
X5734467Y-17436746D02*
X5724943Y-17455793D01*
X5724943Y-17455793D02*
X5724943Y-17493889D01*
X5724943Y-17493889D02*
X5734467Y-17512936D01*
X5734467Y-17512936D02*
X5743991Y-17522460D01*
X5743991Y-17522460D02*
X5763039Y-17531984D01*
X5763039Y-17531984D02*
X5801134Y-17531984D01*
X5801134Y-17531984D02*
X5820182Y-17522460D01*
X5820182Y-17522460D02*
X5829705Y-17512936D01*
X5829705Y-17512936D02*
X5839229Y-17493889D01*
X5839229Y-17493889D02*
X5839229Y-17455793D01*
X5839229Y-17455793D02*
X5829705Y-17436746D01*
X5829705Y-17436746D02*
X5820182Y-17427222D01*
X5820182Y-17427222D02*
X5801134Y-17417698D01*
X5963039Y-17331984D02*
X5982086Y-17331984D01*
X5982086Y-17331984D02*
X6001134Y-17341508D01*
X6001134Y-17341508D02*
X6010658Y-17351031D01*
X6010658Y-17351031D02*
X6020182Y-17370079D01*
X6020182Y-17370079D02*
X6029705Y-17408174D01*
X6029705Y-17408174D02*
X6029705Y-17455793D01*
X6029705Y-17455793D02*
X6020182Y-17493889D01*
X6020182Y-17493889D02*
X6010658Y-17512936D01*
X6010658Y-17512936D02*
X6001134Y-17522460D01*
X6001134Y-17522460D02*
X5982086Y-17531984D01*
X5982086Y-17531984D02*
X5963039Y-17531984D01*
X5963039Y-17531984D02*
X5943991Y-17522460D01*
X5943991Y-17522460D02*
X5934467Y-17512936D01*
X5934467Y-17512936D02*
X5924943Y-17493889D01*
X5924943Y-17493889D02*
X5915420Y-17455793D01*
X5915420Y-17455793D02*
X5915420Y-17408174D01*
X5915420Y-17408174D02*
X5924943Y-17370079D01*
X5924943Y-17370079D02*
X5934467Y-17351031D01*
X5934467Y-17351031D02*
X5943991Y-17341508D01*
X5943991Y-17341508D02*
X5963039Y-17331984D01*
X6115420Y-17531984D02*
X6115420Y-17398650D01*
X6115420Y-17417698D02*
X6124943Y-17408174D01*
X6124943Y-17408174D02*
X6143991Y-17398650D01*
X6143991Y-17398650D02*
X6172563Y-17398650D01*
X6172563Y-17398650D02*
X6191610Y-17408174D01*
X6191610Y-17408174D02*
X6201134Y-17427222D01*
X6201134Y-17427222D02*
X6201134Y-17531984D01*
X6201134Y-17427222D02*
X6210658Y-17408174D01*
X6210658Y-17408174D02*
X6229705Y-17398650D01*
X6229705Y-17398650D02*
X6258277Y-17398650D01*
X6258277Y-17398650D02*
X6277324Y-17408174D01*
X6277324Y-17408174D02*
X6286848Y-17427222D01*
X6286848Y-17427222D02*
X6286848Y-17531984D01*
X6382086Y-17531984D02*
X6382086Y-17398650D01*
X6382086Y-17417698D02*
X6391610Y-17408174D01*
X6391610Y-17408174D02*
X6410658Y-17398650D01*
X6410658Y-17398650D02*
X6439229Y-17398650D01*
X6439229Y-17398650D02*
X6458277Y-17408174D01*
X6458277Y-17408174D02*
X6467801Y-17427222D01*
X6467801Y-17427222D02*
X6467801Y-17531984D01*
X6467801Y-17427222D02*
X6477324Y-17408174D01*
X6477324Y-17408174D02*
X6496372Y-17398650D01*
X6496372Y-17398650D02*
X6524943Y-17398650D01*
X6524943Y-17398650D02*
X6543991Y-17408174D01*
X6543991Y-17408174D02*
X6553515Y-17427222D01*
X6553515Y-17427222D02*
X6553515Y-17531984D01*
X6943991Y-17322460D02*
X6772563Y-17579603D01*
X7201134Y-17331984D02*
X7220182Y-17331984D01*
X7220182Y-17331984D02*
X7239229Y-17341508D01*
X7239229Y-17341508D02*
X7248753Y-17351031D01*
X7248753Y-17351031D02*
X7258277Y-17370079D01*
X7258277Y-17370079D02*
X7267801Y-17408174D01*
X7267801Y-17408174D02*
X7267801Y-17455793D01*
X7267801Y-17455793D02*
X7258277Y-17493889D01*
X7258277Y-17493889D02*
X7248753Y-17512936D01*
X7248753Y-17512936D02*
X7239229Y-17522460D01*
X7239229Y-17522460D02*
X7220182Y-17531984D01*
X7220182Y-17531984D02*
X7201134Y-17531984D01*
X7201134Y-17531984D02*
X7182086Y-17522460D01*
X7182086Y-17522460D02*
X7172563Y-17512936D01*
X7172563Y-17512936D02*
X7163039Y-17493889D01*
X7163039Y-17493889D02*
X7153515Y-17455793D01*
X7153515Y-17455793D02*
X7153515Y-17408174D01*
X7153515Y-17408174D02*
X7163039Y-17370079D01*
X7163039Y-17370079D02*
X7172563Y-17351031D01*
X7172563Y-17351031D02*
X7182086Y-17341508D01*
X7182086Y-17341508D02*
X7201134Y-17331984D01*
X7353515Y-17512936D02*
X7363039Y-17522460D01*
X7363039Y-17522460D02*
X7353515Y-17531984D01*
X7353515Y-17531984D02*
X7343991Y-17522460D01*
X7343991Y-17522460D02*
X7353515Y-17512936D01*
X7353515Y-17512936D02*
X7353515Y-17531984D01*
X7486848Y-17331984D02*
X7505896Y-17331984D01*
X7505896Y-17331984D02*
X7524944Y-17341508D01*
X7524944Y-17341508D02*
X7534467Y-17351031D01*
X7534467Y-17351031D02*
X7543991Y-17370079D01*
X7543991Y-17370079D02*
X7553515Y-17408174D01*
X7553515Y-17408174D02*
X7553515Y-17455793D01*
X7553515Y-17455793D02*
X7543991Y-17493889D01*
X7543991Y-17493889D02*
X7534467Y-17512936D01*
X7534467Y-17512936D02*
X7524944Y-17522460D01*
X7524944Y-17522460D02*
X7505896Y-17531984D01*
X7505896Y-17531984D02*
X7486848Y-17531984D01*
X7486848Y-17531984D02*
X7467801Y-17522460D01*
X7467801Y-17522460D02*
X7458277Y-17512936D01*
X7458277Y-17512936D02*
X7448753Y-17493889D01*
X7448753Y-17493889D02*
X7439229Y-17455793D01*
X7439229Y-17455793D02*
X7439229Y-17408174D01*
X7439229Y-17408174D02*
X7448753Y-17370079D01*
X7448753Y-17370079D02*
X7458277Y-17351031D01*
X7458277Y-17351031D02*
X7467801Y-17341508D01*
X7467801Y-17341508D02*
X7486848Y-17331984D01*
X7734467Y-17331984D02*
X7639229Y-17331984D01*
X7639229Y-17331984D02*
X7629706Y-17427222D01*
X7629706Y-17427222D02*
X7639229Y-17417698D01*
X7639229Y-17417698D02*
X7658277Y-17408174D01*
X7658277Y-17408174D02*
X7705896Y-17408174D01*
X7705896Y-17408174D02*
X7724944Y-17417698D01*
X7724944Y-17417698D02*
X7734467Y-17427222D01*
X7734467Y-17427222D02*
X7743991Y-17446270D01*
X7743991Y-17446270D02*
X7743991Y-17493889D01*
X7743991Y-17493889D02*
X7734467Y-17512936D01*
X7734467Y-17512936D02*
X7724944Y-17522460D01*
X7724944Y-17522460D02*
X7705896Y-17531984D01*
X7705896Y-17531984D02*
X7658277Y-17531984D01*
X7658277Y-17531984D02*
X7639229Y-17522460D01*
X7639229Y-17522460D02*
X7629706Y-17512936D01*
X7915420Y-17398650D02*
X7915420Y-17531984D01*
X7867801Y-17322460D02*
X7820182Y-17465317D01*
X7820182Y-17465317D02*
X7943991Y-17465317D01*
X8001134Y-17331984D02*
X8124944Y-17331984D01*
X8124944Y-17331984D02*
X8058277Y-17408174D01*
X8058277Y-17408174D02*
X8086848Y-17408174D01*
X8086848Y-17408174D02*
X8105896Y-17417698D01*
X8105896Y-17417698D02*
X8115420Y-17427222D01*
X8115420Y-17427222D02*
X8124944Y-17446270D01*
X8124944Y-17446270D02*
X8124944Y-17493889D01*
X8124944Y-17493889D02*
X8115420Y-17512936D01*
X8115420Y-17512936D02*
X8105896Y-17522460D01*
X8105896Y-17522460D02*
X8086848Y-17531984D01*
X8086848Y-17531984D02*
X8029706Y-17531984D01*
X8029706Y-17531984D02*
X8010658Y-17522460D01*
X8010658Y-17522460D02*
X8001134Y-17512936D01*
X8201134Y-17331984D02*
X8201134Y-17370079D01*
X8277325Y-17331984D02*
X8277325Y-17370079D01*
X8572563Y-17608174D02*
X8563039Y-17598650D01*
X8563039Y-17598650D02*
X8543991Y-17570079D01*
X8543991Y-17570079D02*
X8534468Y-17551031D01*
X8534468Y-17551031D02*
X8524944Y-17522460D01*
X8524944Y-17522460D02*
X8515420Y-17474841D01*
X8515420Y-17474841D02*
X8515420Y-17436746D01*
X8515420Y-17436746D02*
X8524944Y-17389127D01*
X8524944Y-17389127D02*
X8534468Y-17360555D01*
X8534468Y-17360555D02*
X8543991Y-17341508D01*
X8543991Y-17341508D02*
X8563039Y-17312936D01*
X8563039Y-17312936D02*
X8572563Y-17303412D01*
X8753515Y-17531984D02*
X8639230Y-17531984D01*
X8696372Y-17531984D02*
X8696372Y-17331984D01*
X8696372Y-17331984D02*
X8677325Y-17360555D01*
X8677325Y-17360555D02*
X8658277Y-17379603D01*
X8658277Y-17379603D02*
X8639230Y-17389127D01*
X8829706Y-17351031D02*
X8839230Y-17341508D01*
X8839230Y-17341508D02*
X8858277Y-17331984D01*
X8858277Y-17331984D02*
X8905896Y-17331984D01*
X8905896Y-17331984D02*
X8924944Y-17341508D01*
X8924944Y-17341508D02*
X8934468Y-17351031D01*
X8934468Y-17351031D02*
X8943991Y-17370079D01*
X8943991Y-17370079D02*
X8943991Y-17389127D01*
X8943991Y-17389127D02*
X8934468Y-17417698D01*
X8934468Y-17417698D02*
X8820182Y-17531984D01*
X8820182Y-17531984D02*
X8943991Y-17531984D01*
X9182087Y-17531984D02*
X9182087Y-17331984D01*
X9267801Y-17531984D02*
X9267801Y-17427222D01*
X9267801Y-17427222D02*
X9258277Y-17408174D01*
X9258277Y-17408174D02*
X9239230Y-17398650D01*
X9239230Y-17398650D02*
X9210658Y-17398650D01*
X9210658Y-17398650D02*
X9191611Y-17408174D01*
X9191611Y-17408174D02*
X9182087Y-17417698D01*
X9391611Y-17531984D02*
X9372563Y-17522460D01*
X9372563Y-17522460D02*
X9363039Y-17512936D01*
X9363039Y-17512936D02*
X9353515Y-17493889D01*
X9353515Y-17493889D02*
X9353515Y-17436746D01*
X9353515Y-17436746D02*
X9363039Y-17417698D01*
X9363039Y-17417698D02*
X9372563Y-17408174D01*
X9372563Y-17408174D02*
X9391611Y-17398650D01*
X9391611Y-17398650D02*
X9420182Y-17398650D01*
X9420182Y-17398650D02*
X9439230Y-17408174D01*
X9439230Y-17408174D02*
X9448753Y-17417698D01*
X9448753Y-17417698D02*
X9458277Y-17436746D01*
X9458277Y-17436746D02*
X9458277Y-17493889D01*
X9458277Y-17493889D02*
X9448753Y-17512936D01*
X9448753Y-17512936D02*
X9439230Y-17522460D01*
X9439230Y-17522460D02*
X9420182Y-17531984D01*
X9420182Y-17531984D02*
X9391611Y-17531984D01*
X9572563Y-17531984D02*
X9553515Y-17522460D01*
X9553515Y-17522460D02*
X9543992Y-17503412D01*
X9543992Y-17503412D02*
X9543992Y-17331984D01*
X9724944Y-17522460D02*
X9705896Y-17531984D01*
X9705896Y-17531984D02*
X9667801Y-17531984D01*
X9667801Y-17531984D02*
X9648753Y-17522460D01*
X9648753Y-17522460D02*
X9639230Y-17503412D01*
X9639230Y-17503412D02*
X9639230Y-17427222D01*
X9639230Y-17427222D02*
X9648753Y-17408174D01*
X9648753Y-17408174D02*
X9667801Y-17398650D01*
X9667801Y-17398650D02*
X9705896Y-17398650D01*
X9705896Y-17398650D02*
X9724944Y-17408174D01*
X9724944Y-17408174D02*
X9734468Y-17427222D01*
X9734468Y-17427222D02*
X9734468Y-17446270D01*
X9734468Y-17446270D02*
X9639230Y-17465317D01*
X9810658Y-17522460D02*
X9829706Y-17531984D01*
X9829706Y-17531984D02*
X9867801Y-17531984D01*
X9867801Y-17531984D02*
X9886849Y-17522460D01*
X9886849Y-17522460D02*
X9896373Y-17503412D01*
X9896373Y-17503412D02*
X9896373Y-17493889D01*
X9896373Y-17493889D02*
X9886849Y-17474841D01*
X9886849Y-17474841D02*
X9867801Y-17465317D01*
X9867801Y-17465317D02*
X9839230Y-17465317D01*
X9839230Y-17465317D02*
X9820182Y-17455793D01*
X9820182Y-17455793D02*
X9810658Y-17436746D01*
X9810658Y-17436746D02*
X9810658Y-17427222D01*
X9810658Y-17427222D02*
X9820182Y-17408174D01*
X9820182Y-17408174D02*
X9839230Y-17398650D01*
X9839230Y-17398650D02*
X9867801Y-17398650D01*
X9867801Y-17398650D02*
X9886849Y-17408174D01*
X9963039Y-17608174D02*
X9972563Y-17598650D01*
X9972563Y-17598650D02*
X9991611Y-17570079D01*
X9991611Y-17570079D02*
X10001134Y-17551031D01*
X10001134Y-17551031D02*
X10010658Y-17522460D01*
X10010658Y-17522460D02*
X10020182Y-17474841D01*
X10020182Y-17474841D02*
X10020182Y-17436746D01*
X10020182Y-17436746D02*
X10010658Y-17389127D01*
X10010658Y-17389127D02*
X10001134Y-17360555D01*
X10001134Y-17360555D02*
X9991611Y-17341508D01*
X9991611Y-17341508D02*
X9972563Y-17312936D01*
X9972563Y-17312936D02*
X9963039Y-17303412D01*
D15*
X4832500Y-17622000D02*
X4997500Y-17787000D01*
X4997500Y-17622000D02*
X4832500Y-17787000D01*
X4915000Y-17787000D02*
X4997500Y-17704500D01*
X4915000Y-17622000D01*
X4832500Y-17704500D01*
X4915000Y-17787000D01*
D11*
X5363039Y-17795984D02*
X5248753Y-17795984D01*
X5305896Y-17795984D02*
X5305896Y-17595984D01*
X5305896Y-17595984D02*
X5286848Y-17624555D01*
X5286848Y-17624555D02*
X5267801Y-17643603D01*
X5267801Y-17643603D02*
X5248753Y-17653127D01*
X5448753Y-17776936D02*
X5458277Y-17786460D01*
X5458277Y-17786460D02*
X5448753Y-17795984D01*
X5448753Y-17795984D02*
X5439229Y-17786460D01*
X5439229Y-17786460D02*
X5448753Y-17776936D01*
X5448753Y-17776936D02*
X5448753Y-17795984D01*
X5629705Y-17595984D02*
X5591610Y-17595984D01*
X5591610Y-17595984D02*
X5572563Y-17605508D01*
X5572563Y-17605508D02*
X5563039Y-17615031D01*
X5563039Y-17615031D02*
X5543991Y-17643603D01*
X5543991Y-17643603D02*
X5534467Y-17681698D01*
X5534467Y-17681698D02*
X5534467Y-17757889D01*
X5534467Y-17757889D02*
X5543991Y-17776936D01*
X5543991Y-17776936D02*
X5553515Y-17786460D01*
X5553515Y-17786460D02*
X5572563Y-17795984D01*
X5572563Y-17795984D02*
X5610658Y-17795984D01*
X5610658Y-17795984D02*
X5629705Y-17786460D01*
X5629705Y-17786460D02*
X5639229Y-17776936D01*
X5639229Y-17776936D02*
X5648753Y-17757889D01*
X5648753Y-17757889D02*
X5648753Y-17710270D01*
X5648753Y-17710270D02*
X5639229Y-17691222D01*
X5639229Y-17691222D02*
X5629705Y-17681698D01*
X5629705Y-17681698D02*
X5610658Y-17672174D01*
X5610658Y-17672174D02*
X5572563Y-17672174D01*
X5572563Y-17672174D02*
X5553515Y-17681698D01*
X5553515Y-17681698D02*
X5543991Y-17691222D01*
X5543991Y-17691222D02*
X5534467Y-17710270D01*
X5829705Y-17595984D02*
X5734467Y-17595984D01*
X5734467Y-17595984D02*
X5724943Y-17691222D01*
X5724943Y-17691222D02*
X5734467Y-17681698D01*
X5734467Y-17681698D02*
X5753515Y-17672174D01*
X5753515Y-17672174D02*
X5801134Y-17672174D01*
X5801134Y-17672174D02*
X5820182Y-17681698D01*
X5820182Y-17681698D02*
X5829705Y-17691222D01*
X5829705Y-17691222D02*
X5839229Y-17710270D01*
X5839229Y-17710270D02*
X5839229Y-17757889D01*
X5839229Y-17757889D02*
X5829705Y-17776936D01*
X5829705Y-17776936D02*
X5820182Y-17786460D01*
X5820182Y-17786460D02*
X5801134Y-17795984D01*
X5801134Y-17795984D02*
X5753515Y-17795984D01*
X5753515Y-17795984D02*
X5734467Y-17786460D01*
X5734467Y-17786460D02*
X5724943Y-17776936D01*
X5963039Y-17595984D02*
X5982086Y-17595984D01*
X5982086Y-17595984D02*
X6001134Y-17605508D01*
X6001134Y-17605508D02*
X6010658Y-17615031D01*
X6010658Y-17615031D02*
X6020182Y-17634079D01*
X6020182Y-17634079D02*
X6029705Y-17672174D01*
X6029705Y-17672174D02*
X6029705Y-17719793D01*
X6029705Y-17719793D02*
X6020182Y-17757889D01*
X6020182Y-17757889D02*
X6010658Y-17776936D01*
X6010658Y-17776936D02*
X6001134Y-17786460D01*
X6001134Y-17786460D02*
X5982086Y-17795984D01*
X5982086Y-17795984D02*
X5963039Y-17795984D01*
X5963039Y-17795984D02*
X5943991Y-17786460D01*
X5943991Y-17786460D02*
X5934467Y-17776936D01*
X5934467Y-17776936D02*
X5924943Y-17757889D01*
X5924943Y-17757889D02*
X5915420Y-17719793D01*
X5915420Y-17719793D02*
X5915420Y-17672174D01*
X5915420Y-17672174D02*
X5924943Y-17634079D01*
X5924943Y-17634079D02*
X5934467Y-17615031D01*
X5934467Y-17615031D02*
X5943991Y-17605508D01*
X5943991Y-17605508D02*
X5963039Y-17595984D01*
X6115420Y-17795984D02*
X6115420Y-17662650D01*
X6115420Y-17681698D02*
X6124943Y-17672174D01*
X6124943Y-17672174D02*
X6143991Y-17662650D01*
X6143991Y-17662650D02*
X6172563Y-17662650D01*
X6172563Y-17662650D02*
X6191610Y-17672174D01*
X6191610Y-17672174D02*
X6201134Y-17691222D01*
X6201134Y-17691222D02*
X6201134Y-17795984D01*
X6201134Y-17691222D02*
X6210658Y-17672174D01*
X6210658Y-17672174D02*
X6229705Y-17662650D01*
X6229705Y-17662650D02*
X6258277Y-17662650D01*
X6258277Y-17662650D02*
X6277324Y-17672174D01*
X6277324Y-17672174D02*
X6286848Y-17691222D01*
X6286848Y-17691222D02*
X6286848Y-17795984D01*
X6382086Y-17795984D02*
X6382086Y-17662650D01*
X6382086Y-17681698D02*
X6391610Y-17672174D01*
X6391610Y-17672174D02*
X6410658Y-17662650D01*
X6410658Y-17662650D02*
X6439229Y-17662650D01*
X6439229Y-17662650D02*
X6458277Y-17672174D01*
X6458277Y-17672174D02*
X6467801Y-17691222D01*
X6467801Y-17691222D02*
X6467801Y-17795984D01*
X6467801Y-17691222D02*
X6477324Y-17672174D01*
X6477324Y-17672174D02*
X6496372Y-17662650D01*
X6496372Y-17662650D02*
X6524943Y-17662650D01*
X6524943Y-17662650D02*
X6543991Y-17672174D01*
X6543991Y-17672174D02*
X6553515Y-17691222D01*
X6553515Y-17691222D02*
X6553515Y-17795984D01*
X6943991Y-17586460D02*
X6772563Y-17843603D01*
X7201134Y-17595984D02*
X7220182Y-17595984D01*
X7220182Y-17595984D02*
X7239229Y-17605508D01*
X7239229Y-17605508D02*
X7248753Y-17615031D01*
X7248753Y-17615031D02*
X7258277Y-17634079D01*
X7258277Y-17634079D02*
X7267801Y-17672174D01*
X7267801Y-17672174D02*
X7267801Y-17719793D01*
X7267801Y-17719793D02*
X7258277Y-17757889D01*
X7258277Y-17757889D02*
X7248753Y-17776936D01*
X7248753Y-17776936D02*
X7239229Y-17786460D01*
X7239229Y-17786460D02*
X7220182Y-17795984D01*
X7220182Y-17795984D02*
X7201134Y-17795984D01*
X7201134Y-17795984D02*
X7182086Y-17786460D01*
X7182086Y-17786460D02*
X7172563Y-17776936D01*
X7172563Y-17776936D02*
X7163039Y-17757889D01*
X7163039Y-17757889D02*
X7153515Y-17719793D01*
X7153515Y-17719793D02*
X7153515Y-17672174D01*
X7153515Y-17672174D02*
X7163039Y-17634079D01*
X7163039Y-17634079D02*
X7172563Y-17615031D01*
X7172563Y-17615031D02*
X7182086Y-17605508D01*
X7182086Y-17605508D02*
X7201134Y-17595984D01*
X7353515Y-17776936D02*
X7363039Y-17786460D01*
X7363039Y-17786460D02*
X7353515Y-17795984D01*
X7353515Y-17795984D02*
X7343991Y-17786460D01*
X7343991Y-17786460D02*
X7353515Y-17776936D01*
X7353515Y-17776936D02*
X7353515Y-17795984D01*
X7486848Y-17595984D02*
X7505896Y-17595984D01*
X7505896Y-17595984D02*
X7524944Y-17605508D01*
X7524944Y-17605508D02*
X7534467Y-17615031D01*
X7534467Y-17615031D02*
X7543991Y-17634079D01*
X7543991Y-17634079D02*
X7553515Y-17672174D01*
X7553515Y-17672174D02*
X7553515Y-17719793D01*
X7553515Y-17719793D02*
X7543991Y-17757889D01*
X7543991Y-17757889D02*
X7534467Y-17776936D01*
X7534467Y-17776936D02*
X7524944Y-17786460D01*
X7524944Y-17786460D02*
X7505896Y-17795984D01*
X7505896Y-17795984D02*
X7486848Y-17795984D01*
X7486848Y-17795984D02*
X7467801Y-17786460D01*
X7467801Y-17786460D02*
X7458277Y-17776936D01*
X7458277Y-17776936D02*
X7448753Y-17757889D01*
X7448753Y-17757889D02*
X7439229Y-17719793D01*
X7439229Y-17719793D02*
X7439229Y-17672174D01*
X7439229Y-17672174D02*
X7448753Y-17634079D01*
X7448753Y-17634079D02*
X7458277Y-17615031D01*
X7458277Y-17615031D02*
X7467801Y-17605508D01*
X7467801Y-17605508D02*
X7486848Y-17595984D01*
X7724944Y-17595984D02*
X7686848Y-17595984D01*
X7686848Y-17595984D02*
X7667801Y-17605508D01*
X7667801Y-17605508D02*
X7658277Y-17615031D01*
X7658277Y-17615031D02*
X7639229Y-17643603D01*
X7639229Y-17643603D02*
X7629706Y-17681698D01*
X7629706Y-17681698D02*
X7629706Y-17757889D01*
X7629706Y-17757889D02*
X7639229Y-17776936D01*
X7639229Y-17776936D02*
X7648753Y-17786460D01*
X7648753Y-17786460D02*
X7667801Y-17795984D01*
X7667801Y-17795984D02*
X7705896Y-17795984D01*
X7705896Y-17795984D02*
X7724944Y-17786460D01*
X7724944Y-17786460D02*
X7734467Y-17776936D01*
X7734467Y-17776936D02*
X7743991Y-17757889D01*
X7743991Y-17757889D02*
X7743991Y-17710270D01*
X7743991Y-17710270D02*
X7734467Y-17691222D01*
X7734467Y-17691222D02*
X7724944Y-17681698D01*
X7724944Y-17681698D02*
X7705896Y-17672174D01*
X7705896Y-17672174D02*
X7667801Y-17672174D01*
X7667801Y-17672174D02*
X7648753Y-17681698D01*
X7648753Y-17681698D02*
X7639229Y-17691222D01*
X7639229Y-17691222D02*
X7629706Y-17710270D01*
X7924944Y-17595984D02*
X7829706Y-17595984D01*
X7829706Y-17595984D02*
X7820182Y-17691222D01*
X7820182Y-17691222D02*
X7829706Y-17681698D01*
X7829706Y-17681698D02*
X7848753Y-17672174D01*
X7848753Y-17672174D02*
X7896372Y-17672174D01*
X7896372Y-17672174D02*
X7915420Y-17681698D01*
X7915420Y-17681698D02*
X7924944Y-17691222D01*
X7924944Y-17691222D02*
X7934467Y-17710270D01*
X7934467Y-17710270D02*
X7934467Y-17757889D01*
X7934467Y-17757889D02*
X7924944Y-17776936D01*
X7924944Y-17776936D02*
X7915420Y-17786460D01*
X7915420Y-17786460D02*
X7896372Y-17795984D01*
X7896372Y-17795984D02*
X7848753Y-17795984D01*
X7848753Y-17795984D02*
X7829706Y-17786460D01*
X7829706Y-17786460D02*
X7820182Y-17776936D01*
X8058277Y-17595984D02*
X8077325Y-17595984D01*
X8077325Y-17595984D02*
X8096372Y-17605508D01*
X8096372Y-17605508D02*
X8105896Y-17615031D01*
X8105896Y-17615031D02*
X8115420Y-17634079D01*
X8115420Y-17634079D02*
X8124944Y-17672174D01*
X8124944Y-17672174D02*
X8124944Y-17719793D01*
X8124944Y-17719793D02*
X8115420Y-17757889D01*
X8115420Y-17757889D02*
X8105896Y-17776936D01*
X8105896Y-17776936D02*
X8096372Y-17786460D01*
X8096372Y-17786460D02*
X8077325Y-17795984D01*
X8077325Y-17795984D02*
X8058277Y-17795984D01*
X8058277Y-17795984D02*
X8039229Y-17786460D01*
X8039229Y-17786460D02*
X8029706Y-17776936D01*
X8029706Y-17776936D02*
X8020182Y-17757889D01*
X8020182Y-17757889D02*
X8010658Y-17719793D01*
X8010658Y-17719793D02*
X8010658Y-17672174D01*
X8010658Y-17672174D02*
X8020182Y-17634079D01*
X8020182Y-17634079D02*
X8029706Y-17615031D01*
X8029706Y-17615031D02*
X8039229Y-17605508D01*
X8039229Y-17605508D02*
X8058277Y-17595984D01*
X8201134Y-17595984D02*
X8201134Y-17634079D01*
X8277325Y-17595984D02*
X8277325Y-17634079D01*
X8572563Y-17872174D02*
X8563039Y-17862650D01*
X8563039Y-17862650D02*
X8543991Y-17834079D01*
X8543991Y-17834079D02*
X8534468Y-17815031D01*
X8534468Y-17815031D02*
X8524944Y-17786460D01*
X8524944Y-17786460D02*
X8515420Y-17738841D01*
X8515420Y-17738841D02*
X8515420Y-17700746D01*
X8515420Y-17700746D02*
X8524944Y-17653127D01*
X8524944Y-17653127D02*
X8534468Y-17624555D01*
X8534468Y-17624555D02*
X8543991Y-17605508D01*
X8543991Y-17605508D02*
X8563039Y-17576936D01*
X8563039Y-17576936D02*
X8572563Y-17567412D01*
X8734468Y-17662650D02*
X8734468Y-17795984D01*
X8686849Y-17586460D02*
X8639230Y-17729317D01*
X8639230Y-17729317D02*
X8763039Y-17729317D01*
X8991611Y-17795984D02*
X8991611Y-17595984D01*
X9077325Y-17795984D02*
X9077325Y-17691222D01*
X9077325Y-17691222D02*
X9067801Y-17672174D01*
X9067801Y-17672174D02*
X9048753Y-17662650D01*
X9048753Y-17662650D02*
X9020182Y-17662650D01*
X9020182Y-17662650D02*
X9001134Y-17672174D01*
X9001134Y-17672174D02*
X8991611Y-17681698D01*
X9201134Y-17795984D02*
X9182087Y-17786460D01*
X9182087Y-17786460D02*
X9172563Y-17776936D01*
X9172563Y-17776936D02*
X9163039Y-17757889D01*
X9163039Y-17757889D02*
X9163039Y-17700746D01*
X9163039Y-17700746D02*
X9172563Y-17681698D01*
X9172563Y-17681698D02*
X9182087Y-17672174D01*
X9182087Y-17672174D02*
X9201134Y-17662650D01*
X9201134Y-17662650D02*
X9229706Y-17662650D01*
X9229706Y-17662650D02*
X9248753Y-17672174D01*
X9248753Y-17672174D02*
X9258277Y-17681698D01*
X9258277Y-17681698D02*
X9267801Y-17700746D01*
X9267801Y-17700746D02*
X9267801Y-17757889D01*
X9267801Y-17757889D02*
X9258277Y-17776936D01*
X9258277Y-17776936D02*
X9248753Y-17786460D01*
X9248753Y-17786460D02*
X9229706Y-17795984D01*
X9229706Y-17795984D02*
X9201134Y-17795984D01*
X9382087Y-17795984D02*
X9363039Y-17786460D01*
X9363039Y-17786460D02*
X9353515Y-17767412D01*
X9353515Y-17767412D02*
X9353515Y-17595984D01*
X9534468Y-17786460D02*
X9515420Y-17795984D01*
X9515420Y-17795984D02*
X9477325Y-17795984D01*
X9477325Y-17795984D02*
X9458277Y-17786460D01*
X9458277Y-17786460D02*
X9448753Y-17767412D01*
X9448753Y-17767412D02*
X9448753Y-17691222D01*
X9448753Y-17691222D02*
X9458277Y-17672174D01*
X9458277Y-17672174D02*
X9477325Y-17662650D01*
X9477325Y-17662650D02*
X9515420Y-17662650D01*
X9515420Y-17662650D02*
X9534468Y-17672174D01*
X9534468Y-17672174D02*
X9543992Y-17691222D01*
X9543992Y-17691222D02*
X9543992Y-17710270D01*
X9543992Y-17710270D02*
X9448753Y-17729317D01*
X9620182Y-17786460D02*
X9639230Y-17795984D01*
X9639230Y-17795984D02*
X9677325Y-17795984D01*
X9677325Y-17795984D02*
X9696373Y-17786460D01*
X9696373Y-17786460D02*
X9705896Y-17767412D01*
X9705896Y-17767412D02*
X9705896Y-17757889D01*
X9705896Y-17757889D02*
X9696373Y-17738841D01*
X9696373Y-17738841D02*
X9677325Y-17729317D01*
X9677325Y-17729317D02*
X9648753Y-17729317D01*
X9648753Y-17729317D02*
X9629706Y-17719793D01*
X9629706Y-17719793D02*
X9620182Y-17700746D01*
X9620182Y-17700746D02*
X9620182Y-17691222D01*
X9620182Y-17691222D02*
X9629706Y-17672174D01*
X9629706Y-17672174D02*
X9648753Y-17662650D01*
X9648753Y-17662650D02*
X9677325Y-17662650D01*
X9677325Y-17662650D02*
X9696373Y-17672174D01*
X9772563Y-17872174D02*
X9782087Y-17862650D01*
X9782087Y-17862650D02*
X9801134Y-17834079D01*
X9801134Y-17834079D02*
X9810658Y-17815031D01*
X9810658Y-17815031D02*
X9820182Y-17786460D01*
X9820182Y-17786460D02*
X9829706Y-17738841D01*
X9829706Y-17738841D02*
X9829706Y-17700746D01*
X9829706Y-17700746D02*
X9820182Y-17653127D01*
X9820182Y-17653127D02*
X9810658Y-17624555D01*
X9810658Y-17624555D02*
X9801134Y-17605508D01*
X9801134Y-17605508D02*
X9782087Y-17576936D01*
X9782087Y-17576936D02*
X9772563Y-17567412D01*
X4897500Y-17889500D02*
X4897500Y-18089500D01*
X4797500Y-17989500D02*
X4997500Y-17989500D01*
X4997500Y-17989500D02*
G75*
G02*
X4797500Y-17989500I-100000J0D01*
G01*
X4797500Y-17989500D02*
G75*
G02*
X4997500Y-17989500I100000J0D01*
G01*
X5239229Y-17880984D02*
X5363039Y-17880984D01*
X5363039Y-17880984D02*
X5296372Y-17957174D01*
X5296372Y-17957174D02*
X5324944Y-17957174D01*
X5324944Y-17957174D02*
X5343991Y-17966698D01*
X5343991Y-17966698D02*
X5353515Y-17976222D01*
X5353515Y-17976222D02*
X5363039Y-17995270D01*
X5363039Y-17995270D02*
X5363039Y-18042889D01*
X5363039Y-18042889D02*
X5353515Y-18061936D01*
X5353515Y-18061936D02*
X5343991Y-18071460D01*
X5343991Y-18071460D02*
X5324944Y-18080984D01*
X5324944Y-18080984D02*
X5267801Y-18080984D01*
X5267801Y-18080984D02*
X5248753Y-18071460D01*
X5248753Y-18071460D02*
X5239229Y-18061936D01*
X5448753Y-18061936D02*
X5458277Y-18071460D01*
X5458277Y-18071460D02*
X5448753Y-18080984D01*
X5448753Y-18080984D02*
X5439229Y-18071460D01*
X5439229Y-18071460D02*
X5448753Y-18061936D01*
X5448753Y-18061936D02*
X5448753Y-18080984D01*
X5534467Y-17900031D02*
X5543991Y-17890508D01*
X5543991Y-17890508D02*
X5563039Y-17880984D01*
X5563039Y-17880984D02*
X5610658Y-17880984D01*
X5610658Y-17880984D02*
X5629705Y-17890508D01*
X5629705Y-17890508D02*
X5639229Y-17900031D01*
X5639229Y-17900031D02*
X5648753Y-17919079D01*
X5648753Y-17919079D02*
X5648753Y-17938127D01*
X5648753Y-17938127D02*
X5639229Y-17966698D01*
X5639229Y-17966698D02*
X5524944Y-18080984D01*
X5524944Y-18080984D02*
X5648753Y-18080984D01*
X5772562Y-17880984D02*
X5791610Y-17880984D01*
X5791610Y-17880984D02*
X5810658Y-17890508D01*
X5810658Y-17890508D02*
X5820182Y-17900031D01*
X5820182Y-17900031D02*
X5829705Y-17919079D01*
X5829705Y-17919079D02*
X5839229Y-17957174D01*
X5839229Y-17957174D02*
X5839229Y-18004793D01*
X5839229Y-18004793D02*
X5829705Y-18042889D01*
X5829705Y-18042889D02*
X5820182Y-18061936D01*
X5820182Y-18061936D02*
X5810658Y-18071460D01*
X5810658Y-18071460D02*
X5791610Y-18080984D01*
X5791610Y-18080984D02*
X5772562Y-18080984D01*
X5772562Y-18080984D02*
X5753515Y-18071460D01*
X5753515Y-18071460D02*
X5743991Y-18061936D01*
X5743991Y-18061936D02*
X5734467Y-18042889D01*
X5734467Y-18042889D02*
X5724943Y-18004793D01*
X5724943Y-18004793D02*
X5724943Y-17957174D01*
X5724943Y-17957174D02*
X5734467Y-17919079D01*
X5734467Y-17919079D02*
X5743991Y-17900031D01*
X5743991Y-17900031D02*
X5753515Y-17890508D01*
X5753515Y-17890508D02*
X5772562Y-17880984D01*
X5963039Y-17880984D02*
X5982086Y-17880984D01*
X5982086Y-17880984D02*
X6001134Y-17890508D01*
X6001134Y-17890508D02*
X6010658Y-17900031D01*
X6010658Y-17900031D02*
X6020182Y-17919079D01*
X6020182Y-17919079D02*
X6029705Y-17957174D01*
X6029705Y-17957174D02*
X6029705Y-18004793D01*
X6029705Y-18004793D02*
X6020182Y-18042889D01*
X6020182Y-18042889D02*
X6010658Y-18061936D01*
X6010658Y-18061936D02*
X6001134Y-18071460D01*
X6001134Y-18071460D02*
X5982086Y-18080984D01*
X5982086Y-18080984D02*
X5963039Y-18080984D01*
X5963039Y-18080984D02*
X5943991Y-18071460D01*
X5943991Y-18071460D02*
X5934467Y-18061936D01*
X5934467Y-18061936D02*
X5924943Y-18042889D01*
X5924943Y-18042889D02*
X5915420Y-18004793D01*
X5915420Y-18004793D02*
X5915420Y-17957174D01*
X5915420Y-17957174D02*
X5924943Y-17919079D01*
X5924943Y-17919079D02*
X5934467Y-17900031D01*
X5934467Y-17900031D02*
X5943991Y-17890508D01*
X5943991Y-17890508D02*
X5963039Y-17880984D01*
X6115420Y-18080984D02*
X6115420Y-17947650D01*
X6115420Y-17966698D02*
X6124943Y-17957174D01*
X6124943Y-17957174D02*
X6143991Y-17947650D01*
X6143991Y-17947650D02*
X6172563Y-17947650D01*
X6172563Y-17947650D02*
X6191610Y-17957174D01*
X6191610Y-17957174D02*
X6201134Y-17976222D01*
X6201134Y-17976222D02*
X6201134Y-18080984D01*
X6201134Y-17976222D02*
X6210658Y-17957174D01*
X6210658Y-17957174D02*
X6229705Y-17947650D01*
X6229705Y-17947650D02*
X6258277Y-17947650D01*
X6258277Y-17947650D02*
X6277324Y-17957174D01*
X6277324Y-17957174D02*
X6286848Y-17976222D01*
X6286848Y-17976222D02*
X6286848Y-18080984D01*
X6382086Y-18080984D02*
X6382086Y-17947650D01*
X6382086Y-17966698D02*
X6391610Y-17957174D01*
X6391610Y-17957174D02*
X6410658Y-17947650D01*
X6410658Y-17947650D02*
X6439229Y-17947650D01*
X6439229Y-17947650D02*
X6458277Y-17957174D01*
X6458277Y-17957174D02*
X6467801Y-17976222D01*
X6467801Y-17976222D02*
X6467801Y-18080984D01*
X6467801Y-17976222D02*
X6477324Y-17957174D01*
X6477324Y-17957174D02*
X6496372Y-17947650D01*
X6496372Y-17947650D02*
X6524943Y-17947650D01*
X6524943Y-17947650D02*
X6543991Y-17957174D01*
X6543991Y-17957174D02*
X6553515Y-17976222D01*
X6553515Y-17976222D02*
X6553515Y-18080984D01*
X6943991Y-17871460D02*
X6772563Y-18128603D01*
X7201134Y-17880984D02*
X7220182Y-17880984D01*
X7220182Y-17880984D02*
X7239229Y-17890508D01*
X7239229Y-17890508D02*
X7248753Y-17900031D01*
X7248753Y-17900031D02*
X7258277Y-17919079D01*
X7258277Y-17919079D02*
X7267801Y-17957174D01*
X7267801Y-17957174D02*
X7267801Y-18004793D01*
X7267801Y-18004793D02*
X7258277Y-18042889D01*
X7258277Y-18042889D02*
X7248753Y-18061936D01*
X7248753Y-18061936D02*
X7239229Y-18071460D01*
X7239229Y-18071460D02*
X7220182Y-18080984D01*
X7220182Y-18080984D02*
X7201134Y-18080984D01*
X7201134Y-18080984D02*
X7182086Y-18071460D01*
X7182086Y-18071460D02*
X7172563Y-18061936D01*
X7172563Y-18061936D02*
X7163039Y-18042889D01*
X7163039Y-18042889D02*
X7153515Y-18004793D01*
X7153515Y-18004793D02*
X7153515Y-17957174D01*
X7153515Y-17957174D02*
X7163039Y-17919079D01*
X7163039Y-17919079D02*
X7172563Y-17900031D01*
X7172563Y-17900031D02*
X7182086Y-17890508D01*
X7182086Y-17890508D02*
X7201134Y-17880984D01*
X7353515Y-18061936D02*
X7363039Y-18071460D01*
X7363039Y-18071460D02*
X7353515Y-18080984D01*
X7353515Y-18080984D02*
X7343991Y-18071460D01*
X7343991Y-18071460D02*
X7353515Y-18061936D01*
X7353515Y-18061936D02*
X7353515Y-18080984D01*
X7553515Y-18080984D02*
X7439229Y-18080984D01*
X7496372Y-18080984D02*
X7496372Y-17880984D01*
X7496372Y-17880984D02*
X7477325Y-17909555D01*
X7477325Y-17909555D02*
X7458277Y-17928603D01*
X7458277Y-17928603D02*
X7439229Y-17938127D01*
X7629706Y-17900031D02*
X7639229Y-17890508D01*
X7639229Y-17890508D02*
X7658277Y-17880984D01*
X7658277Y-17880984D02*
X7705896Y-17880984D01*
X7705896Y-17880984D02*
X7724944Y-17890508D01*
X7724944Y-17890508D02*
X7734467Y-17900031D01*
X7734467Y-17900031D02*
X7743991Y-17919079D01*
X7743991Y-17919079D02*
X7743991Y-17938127D01*
X7743991Y-17938127D02*
X7734467Y-17966698D01*
X7734467Y-17966698D02*
X7620182Y-18080984D01*
X7620182Y-18080984D02*
X7743991Y-18080984D01*
X7915420Y-17880984D02*
X7877325Y-17880984D01*
X7877325Y-17880984D02*
X7858277Y-17890508D01*
X7858277Y-17890508D02*
X7848753Y-17900031D01*
X7848753Y-17900031D02*
X7829706Y-17928603D01*
X7829706Y-17928603D02*
X7820182Y-17966698D01*
X7820182Y-17966698D02*
X7820182Y-18042889D01*
X7820182Y-18042889D02*
X7829706Y-18061936D01*
X7829706Y-18061936D02*
X7839229Y-18071460D01*
X7839229Y-18071460D02*
X7858277Y-18080984D01*
X7858277Y-18080984D02*
X7896372Y-18080984D01*
X7896372Y-18080984D02*
X7915420Y-18071460D01*
X7915420Y-18071460D02*
X7924944Y-18061936D01*
X7924944Y-18061936D02*
X7934467Y-18042889D01*
X7934467Y-18042889D02*
X7934467Y-17995270D01*
X7934467Y-17995270D02*
X7924944Y-17976222D01*
X7924944Y-17976222D02*
X7915420Y-17966698D01*
X7915420Y-17966698D02*
X7896372Y-17957174D01*
X7896372Y-17957174D02*
X7858277Y-17957174D01*
X7858277Y-17957174D02*
X7839229Y-17966698D01*
X7839229Y-17966698D02*
X7829706Y-17976222D01*
X7829706Y-17976222D02*
X7820182Y-17995270D01*
X8058277Y-17880984D02*
X8077325Y-17880984D01*
X8077325Y-17880984D02*
X8096372Y-17890508D01*
X8096372Y-17890508D02*
X8105896Y-17900031D01*
X8105896Y-17900031D02*
X8115420Y-17919079D01*
X8115420Y-17919079D02*
X8124944Y-17957174D01*
X8124944Y-17957174D02*
X8124944Y-18004793D01*
X8124944Y-18004793D02*
X8115420Y-18042889D01*
X8115420Y-18042889D02*
X8105896Y-18061936D01*
X8105896Y-18061936D02*
X8096372Y-18071460D01*
X8096372Y-18071460D02*
X8077325Y-18080984D01*
X8077325Y-18080984D02*
X8058277Y-18080984D01*
X8058277Y-18080984D02*
X8039229Y-18071460D01*
X8039229Y-18071460D02*
X8029706Y-18061936D01*
X8029706Y-18061936D02*
X8020182Y-18042889D01*
X8020182Y-18042889D02*
X8010658Y-18004793D01*
X8010658Y-18004793D02*
X8010658Y-17957174D01*
X8010658Y-17957174D02*
X8020182Y-17919079D01*
X8020182Y-17919079D02*
X8029706Y-17900031D01*
X8029706Y-17900031D02*
X8039229Y-17890508D01*
X8039229Y-17890508D02*
X8058277Y-17880984D01*
X8201134Y-17880984D02*
X8201134Y-17919079D01*
X8277325Y-17880984D02*
X8277325Y-17919079D01*
X8572563Y-18157174D02*
X8563039Y-18147650D01*
X8563039Y-18147650D02*
X8543991Y-18119079D01*
X8543991Y-18119079D02*
X8534468Y-18100031D01*
X8534468Y-18100031D02*
X8524944Y-18071460D01*
X8524944Y-18071460D02*
X8515420Y-18023841D01*
X8515420Y-18023841D02*
X8515420Y-17985746D01*
X8515420Y-17985746D02*
X8524944Y-17938127D01*
X8524944Y-17938127D02*
X8534468Y-17909555D01*
X8534468Y-17909555D02*
X8543991Y-17890508D01*
X8543991Y-17890508D02*
X8563039Y-17861936D01*
X8563039Y-17861936D02*
X8572563Y-17852412D01*
X8734468Y-17947650D02*
X8734468Y-18080984D01*
X8686849Y-17871460D02*
X8639230Y-18014317D01*
X8639230Y-18014317D02*
X8763039Y-18014317D01*
X8991611Y-18080984D02*
X8991611Y-17880984D01*
X9077325Y-18080984D02*
X9077325Y-17976222D01*
X9077325Y-17976222D02*
X9067801Y-17957174D01*
X9067801Y-17957174D02*
X9048753Y-17947650D01*
X9048753Y-17947650D02*
X9020182Y-17947650D01*
X9020182Y-17947650D02*
X9001134Y-17957174D01*
X9001134Y-17957174D02*
X8991611Y-17966698D01*
X9201134Y-18080984D02*
X9182087Y-18071460D01*
X9182087Y-18071460D02*
X9172563Y-18061936D01*
X9172563Y-18061936D02*
X9163039Y-18042889D01*
X9163039Y-18042889D02*
X9163039Y-17985746D01*
X9163039Y-17985746D02*
X9172563Y-17966698D01*
X9172563Y-17966698D02*
X9182087Y-17957174D01*
X9182087Y-17957174D02*
X9201134Y-17947650D01*
X9201134Y-17947650D02*
X9229706Y-17947650D01*
X9229706Y-17947650D02*
X9248753Y-17957174D01*
X9248753Y-17957174D02*
X9258277Y-17966698D01*
X9258277Y-17966698D02*
X9267801Y-17985746D01*
X9267801Y-17985746D02*
X9267801Y-18042889D01*
X9267801Y-18042889D02*
X9258277Y-18061936D01*
X9258277Y-18061936D02*
X9248753Y-18071460D01*
X9248753Y-18071460D02*
X9229706Y-18080984D01*
X9229706Y-18080984D02*
X9201134Y-18080984D01*
X9382087Y-18080984D02*
X9363039Y-18071460D01*
X9363039Y-18071460D02*
X9353515Y-18052412D01*
X9353515Y-18052412D02*
X9353515Y-17880984D01*
X9534468Y-18071460D02*
X9515420Y-18080984D01*
X9515420Y-18080984D02*
X9477325Y-18080984D01*
X9477325Y-18080984D02*
X9458277Y-18071460D01*
X9458277Y-18071460D02*
X9448753Y-18052412D01*
X9448753Y-18052412D02*
X9448753Y-17976222D01*
X9448753Y-17976222D02*
X9458277Y-17957174D01*
X9458277Y-17957174D02*
X9477325Y-17947650D01*
X9477325Y-17947650D02*
X9515420Y-17947650D01*
X9515420Y-17947650D02*
X9534468Y-17957174D01*
X9534468Y-17957174D02*
X9543992Y-17976222D01*
X9543992Y-17976222D02*
X9543992Y-17995270D01*
X9543992Y-17995270D02*
X9448753Y-18014317D01*
X9620182Y-18071460D02*
X9639230Y-18080984D01*
X9639230Y-18080984D02*
X9677325Y-18080984D01*
X9677325Y-18080984D02*
X9696373Y-18071460D01*
X9696373Y-18071460D02*
X9705896Y-18052412D01*
X9705896Y-18052412D02*
X9705896Y-18042889D01*
X9705896Y-18042889D02*
X9696373Y-18023841D01*
X9696373Y-18023841D02*
X9677325Y-18014317D01*
X9677325Y-18014317D02*
X9648753Y-18014317D01*
X9648753Y-18014317D02*
X9629706Y-18004793D01*
X9629706Y-18004793D02*
X9620182Y-17985746D01*
X9620182Y-17985746D02*
X9620182Y-17976222D01*
X9620182Y-17976222D02*
X9629706Y-17957174D01*
X9629706Y-17957174D02*
X9648753Y-17947650D01*
X9648753Y-17947650D02*
X9677325Y-17947650D01*
X9677325Y-17947650D02*
X9696373Y-17957174D01*
X9772563Y-18157174D02*
X9782087Y-18147650D01*
X9782087Y-18147650D02*
X9801134Y-18119079D01*
X9801134Y-18119079D02*
X9810658Y-18100031D01*
X9810658Y-18100031D02*
X9820182Y-18071460D01*
X9820182Y-18071460D02*
X9829706Y-18023841D01*
X9829706Y-18023841D02*
X9829706Y-17985746D01*
X9829706Y-17985746D02*
X9820182Y-17938127D01*
X9820182Y-17938127D02*
X9810658Y-17909555D01*
X9810658Y-17909555D02*
X9801134Y-17890508D01*
X9801134Y-17890508D02*
X9782087Y-17861936D01*
X9782087Y-17861936D02*
X9772563Y-17852412D01*
X4968211Y-18380211D02*
X4968211Y-18238789D01*
X4826789Y-18238789D01*
X4826789Y-18380211D01*
X4968211Y-18380211D01*
X4997500Y-18309500D02*
G75*
G02*
X4797500Y-18309500I-100000J0D01*
G01*
X4797500Y-18309500D02*
G75*
G02*
X4997500Y-18309500I100000J0D01*
G01*
X5239229Y-18200984D02*
X5363039Y-18200984D01*
X5363039Y-18200984D02*
X5296372Y-18277174D01*
X5296372Y-18277174D02*
X5324944Y-18277174D01*
X5324944Y-18277174D02*
X5343991Y-18286698D01*
X5343991Y-18286698D02*
X5353515Y-18296222D01*
X5353515Y-18296222D02*
X5363039Y-18315270D01*
X5363039Y-18315270D02*
X5363039Y-18362889D01*
X5363039Y-18362889D02*
X5353515Y-18381936D01*
X5353515Y-18381936D02*
X5343991Y-18391460D01*
X5343991Y-18391460D02*
X5324944Y-18400984D01*
X5324944Y-18400984D02*
X5267801Y-18400984D01*
X5267801Y-18400984D02*
X5248753Y-18391460D01*
X5248753Y-18391460D02*
X5239229Y-18381936D01*
X5448753Y-18381936D02*
X5458277Y-18391460D01*
X5458277Y-18391460D02*
X5448753Y-18400984D01*
X5448753Y-18400984D02*
X5439229Y-18391460D01*
X5439229Y-18391460D02*
X5448753Y-18381936D01*
X5448753Y-18381936D02*
X5448753Y-18400984D01*
X5524944Y-18200984D02*
X5648753Y-18200984D01*
X5648753Y-18200984D02*
X5582086Y-18277174D01*
X5582086Y-18277174D02*
X5610658Y-18277174D01*
X5610658Y-18277174D02*
X5629705Y-18286698D01*
X5629705Y-18286698D02*
X5639229Y-18296222D01*
X5639229Y-18296222D02*
X5648753Y-18315270D01*
X5648753Y-18315270D02*
X5648753Y-18362889D01*
X5648753Y-18362889D02*
X5639229Y-18381936D01*
X5639229Y-18381936D02*
X5629705Y-18391460D01*
X5629705Y-18391460D02*
X5610658Y-18400984D01*
X5610658Y-18400984D02*
X5553515Y-18400984D01*
X5553515Y-18400984D02*
X5534467Y-18391460D01*
X5534467Y-18391460D02*
X5524944Y-18381936D01*
X5763039Y-18286698D02*
X5743991Y-18277174D01*
X5743991Y-18277174D02*
X5734467Y-18267650D01*
X5734467Y-18267650D02*
X5724943Y-18248603D01*
X5724943Y-18248603D02*
X5724943Y-18239079D01*
X5724943Y-18239079D02*
X5734467Y-18220031D01*
X5734467Y-18220031D02*
X5743991Y-18210508D01*
X5743991Y-18210508D02*
X5763039Y-18200984D01*
X5763039Y-18200984D02*
X5801134Y-18200984D01*
X5801134Y-18200984D02*
X5820182Y-18210508D01*
X5820182Y-18210508D02*
X5829705Y-18220031D01*
X5829705Y-18220031D02*
X5839229Y-18239079D01*
X5839229Y-18239079D02*
X5839229Y-18248603D01*
X5839229Y-18248603D02*
X5829705Y-18267650D01*
X5829705Y-18267650D02*
X5820182Y-18277174D01*
X5820182Y-18277174D02*
X5801134Y-18286698D01*
X5801134Y-18286698D02*
X5763039Y-18286698D01*
X5763039Y-18286698D02*
X5743991Y-18296222D01*
X5743991Y-18296222D02*
X5734467Y-18305746D01*
X5734467Y-18305746D02*
X5724943Y-18324793D01*
X5724943Y-18324793D02*
X5724943Y-18362889D01*
X5724943Y-18362889D02*
X5734467Y-18381936D01*
X5734467Y-18381936D02*
X5743991Y-18391460D01*
X5743991Y-18391460D02*
X5763039Y-18400984D01*
X5763039Y-18400984D02*
X5801134Y-18400984D01*
X5801134Y-18400984D02*
X5820182Y-18391460D01*
X5820182Y-18391460D02*
X5829705Y-18381936D01*
X5829705Y-18381936D02*
X5839229Y-18362889D01*
X5839229Y-18362889D02*
X5839229Y-18324793D01*
X5839229Y-18324793D02*
X5829705Y-18305746D01*
X5829705Y-18305746D02*
X5820182Y-18296222D01*
X5820182Y-18296222D02*
X5801134Y-18286698D01*
X5963039Y-18200984D02*
X5982086Y-18200984D01*
X5982086Y-18200984D02*
X6001134Y-18210508D01*
X6001134Y-18210508D02*
X6010658Y-18220031D01*
X6010658Y-18220031D02*
X6020182Y-18239079D01*
X6020182Y-18239079D02*
X6029705Y-18277174D01*
X6029705Y-18277174D02*
X6029705Y-18324793D01*
X6029705Y-18324793D02*
X6020182Y-18362889D01*
X6020182Y-18362889D02*
X6010658Y-18381936D01*
X6010658Y-18381936D02*
X6001134Y-18391460D01*
X6001134Y-18391460D02*
X5982086Y-18400984D01*
X5982086Y-18400984D02*
X5963039Y-18400984D01*
X5963039Y-18400984D02*
X5943991Y-18391460D01*
X5943991Y-18391460D02*
X5934467Y-18381936D01*
X5934467Y-18381936D02*
X5924943Y-18362889D01*
X5924943Y-18362889D02*
X5915420Y-18324793D01*
X5915420Y-18324793D02*
X5915420Y-18277174D01*
X5915420Y-18277174D02*
X5924943Y-18239079D01*
X5924943Y-18239079D02*
X5934467Y-18220031D01*
X5934467Y-18220031D02*
X5943991Y-18210508D01*
X5943991Y-18210508D02*
X5963039Y-18200984D01*
X6115420Y-18400984D02*
X6115420Y-18267650D01*
X6115420Y-18286698D02*
X6124943Y-18277174D01*
X6124943Y-18277174D02*
X6143991Y-18267650D01*
X6143991Y-18267650D02*
X6172563Y-18267650D01*
X6172563Y-18267650D02*
X6191610Y-18277174D01*
X6191610Y-18277174D02*
X6201134Y-18296222D01*
X6201134Y-18296222D02*
X6201134Y-18400984D01*
X6201134Y-18296222D02*
X6210658Y-18277174D01*
X6210658Y-18277174D02*
X6229705Y-18267650D01*
X6229705Y-18267650D02*
X6258277Y-18267650D01*
X6258277Y-18267650D02*
X6277324Y-18277174D01*
X6277324Y-18277174D02*
X6286848Y-18296222D01*
X6286848Y-18296222D02*
X6286848Y-18400984D01*
X6382086Y-18400984D02*
X6382086Y-18267650D01*
X6382086Y-18286698D02*
X6391610Y-18277174D01*
X6391610Y-18277174D02*
X6410658Y-18267650D01*
X6410658Y-18267650D02*
X6439229Y-18267650D01*
X6439229Y-18267650D02*
X6458277Y-18277174D01*
X6458277Y-18277174D02*
X6467801Y-18296222D01*
X6467801Y-18296222D02*
X6467801Y-18400984D01*
X6467801Y-18296222D02*
X6477324Y-18277174D01*
X6477324Y-18277174D02*
X6496372Y-18267650D01*
X6496372Y-18267650D02*
X6524943Y-18267650D01*
X6524943Y-18267650D02*
X6543991Y-18277174D01*
X6543991Y-18277174D02*
X6553515Y-18296222D01*
X6553515Y-18296222D02*
X6553515Y-18400984D01*
X6943991Y-18191460D02*
X6772563Y-18448603D01*
X7201134Y-18200984D02*
X7220182Y-18200984D01*
X7220182Y-18200984D02*
X7239229Y-18210508D01*
X7239229Y-18210508D02*
X7248753Y-18220031D01*
X7248753Y-18220031D02*
X7258277Y-18239079D01*
X7258277Y-18239079D02*
X7267801Y-18277174D01*
X7267801Y-18277174D02*
X7267801Y-18324793D01*
X7267801Y-18324793D02*
X7258277Y-18362889D01*
X7258277Y-18362889D02*
X7248753Y-18381936D01*
X7248753Y-18381936D02*
X7239229Y-18391460D01*
X7239229Y-18391460D02*
X7220182Y-18400984D01*
X7220182Y-18400984D02*
X7201134Y-18400984D01*
X7201134Y-18400984D02*
X7182086Y-18391460D01*
X7182086Y-18391460D02*
X7172563Y-18381936D01*
X7172563Y-18381936D02*
X7163039Y-18362889D01*
X7163039Y-18362889D02*
X7153515Y-18324793D01*
X7153515Y-18324793D02*
X7153515Y-18277174D01*
X7153515Y-18277174D02*
X7163039Y-18239079D01*
X7163039Y-18239079D02*
X7172563Y-18220031D01*
X7172563Y-18220031D02*
X7182086Y-18210508D01*
X7182086Y-18210508D02*
X7201134Y-18200984D01*
X7353515Y-18381936D02*
X7363039Y-18391460D01*
X7363039Y-18391460D02*
X7353515Y-18400984D01*
X7353515Y-18400984D02*
X7343991Y-18391460D01*
X7343991Y-18391460D02*
X7353515Y-18381936D01*
X7353515Y-18381936D02*
X7353515Y-18400984D01*
X7553515Y-18400984D02*
X7439229Y-18400984D01*
X7496372Y-18400984D02*
X7496372Y-18200984D01*
X7496372Y-18200984D02*
X7477325Y-18229555D01*
X7477325Y-18229555D02*
X7458277Y-18248603D01*
X7458277Y-18248603D02*
X7439229Y-18258127D01*
X7620182Y-18200984D02*
X7743991Y-18200984D01*
X7743991Y-18200984D02*
X7677325Y-18277174D01*
X7677325Y-18277174D02*
X7705896Y-18277174D01*
X7705896Y-18277174D02*
X7724944Y-18286698D01*
X7724944Y-18286698D02*
X7734467Y-18296222D01*
X7734467Y-18296222D02*
X7743991Y-18315270D01*
X7743991Y-18315270D02*
X7743991Y-18362889D01*
X7743991Y-18362889D02*
X7734467Y-18381936D01*
X7734467Y-18381936D02*
X7724944Y-18391460D01*
X7724944Y-18391460D02*
X7705896Y-18400984D01*
X7705896Y-18400984D02*
X7648753Y-18400984D01*
X7648753Y-18400984D02*
X7629706Y-18391460D01*
X7629706Y-18391460D02*
X7620182Y-18381936D01*
X7810658Y-18200984D02*
X7934467Y-18200984D01*
X7934467Y-18200984D02*
X7867801Y-18277174D01*
X7867801Y-18277174D02*
X7896372Y-18277174D01*
X7896372Y-18277174D02*
X7915420Y-18286698D01*
X7915420Y-18286698D02*
X7924944Y-18296222D01*
X7924944Y-18296222D02*
X7934467Y-18315270D01*
X7934467Y-18315270D02*
X7934467Y-18362889D01*
X7934467Y-18362889D02*
X7924944Y-18381936D01*
X7924944Y-18381936D02*
X7915420Y-18391460D01*
X7915420Y-18391460D02*
X7896372Y-18400984D01*
X7896372Y-18400984D02*
X7839229Y-18400984D01*
X7839229Y-18400984D02*
X7820182Y-18391460D01*
X7820182Y-18391460D02*
X7810658Y-18381936D01*
X8124944Y-18400984D02*
X8010658Y-18400984D01*
X8067801Y-18400984D02*
X8067801Y-18200984D01*
X8067801Y-18200984D02*
X8048753Y-18229555D01*
X8048753Y-18229555D02*
X8029706Y-18248603D01*
X8029706Y-18248603D02*
X8010658Y-18258127D01*
X8201134Y-18200984D02*
X8201134Y-18239079D01*
X8277325Y-18200984D02*
X8277325Y-18239079D01*
X8572563Y-18477174D02*
X8563039Y-18467650D01*
X8563039Y-18467650D02*
X8543991Y-18439079D01*
X8543991Y-18439079D02*
X8534468Y-18420031D01*
X8534468Y-18420031D02*
X8524944Y-18391460D01*
X8524944Y-18391460D02*
X8515420Y-18343841D01*
X8515420Y-18343841D02*
X8515420Y-18305746D01*
X8515420Y-18305746D02*
X8524944Y-18258127D01*
X8524944Y-18258127D02*
X8534468Y-18229555D01*
X8534468Y-18229555D02*
X8543991Y-18210508D01*
X8543991Y-18210508D02*
X8563039Y-18181936D01*
X8563039Y-18181936D02*
X8572563Y-18172412D01*
X8639230Y-18220031D02*
X8648753Y-18210508D01*
X8648753Y-18210508D02*
X8667801Y-18200984D01*
X8667801Y-18200984D02*
X8715420Y-18200984D01*
X8715420Y-18200984D02*
X8734468Y-18210508D01*
X8734468Y-18210508D02*
X8743991Y-18220031D01*
X8743991Y-18220031D02*
X8753515Y-18239079D01*
X8753515Y-18239079D02*
X8753515Y-18258127D01*
X8753515Y-18258127D02*
X8743991Y-18286698D01*
X8743991Y-18286698D02*
X8629706Y-18400984D01*
X8629706Y-18400984D02*
X8753515Y-18400984D01*
X8991611Y-18400984D02*
X8991611Y-18200984D01*
X9077325Y-18400984D02*
X9077325Y-18296222D01*
X9077325Y-18296222D02*
X9067801Y-18277174D01*
X9067801Y-18277174D02*
X9048753Y-18267650D01*
X9048753Y-18267650D02*
X9020182Y-18267650D01*
X9020182Y-18267650D02*
X9001134Y-18277174D01*
X9001134Y-18277174D02*
X8991611Y-18286698D01*
X9201134Y-18400984D02*
X9182087Y-18391460D01*
X9182087Y-18391460D02*
X9172563Y-18381936D01*
X9172563Y-18381936D02*
X9163039Y-18362889D01*
X9163039Y-18362889D02*
X9163039Y-18305746D01*
X9163039Y-18305746D02*
X9172563Y-18286698D01*
X9172563Y-18286698D02*
X9182087Y-18277174D01*
X9182087Y-18277174D02*
X9201134Y-18267650D01*
X9201134Y-18267650D02*
X9229706Y-18267650D01*
X9229706Y-18267650D02*
X9248753Y-18277174D01*
X9248753Y-18277174D02*
X9258277Y-18286698D01*
X9258277Y-18286698D02*
X9267801Y-18305746D01*
X9267801Y-18305746D02*
X9267801Y-18362889D01*
X9267801Y-18362889D02*
X9258277Y-18381936D01*
X9258277Y-18381936D02*
X9248753Y-18391460D01*
X9248753Y-18391460D02*
X9229706Y-18400984D01*
X9229706Y-18400984D02*
X9201134Y-18400984D01*
X9382087Y-18400984D02*
X9363039Y-18391460D01*
X9363039Y-18391460D02*
X9353515Y-18372412D01*
X9353515Y-18372412D02*
X9353515Y-18200984D01*
X9534468Y-18391460D02*
X9515420Y-18400984D01*
X9515420Y-18400984D02*
X9477325Y-18400984D01*
X9477325Y-18400984D02*
X9458277Y-18391460D01*
X9458277Y-18391460D02*
X9448753Y-18372412D01*
X9448753Y-18372412D02*
X9448753Y-18296222D01*
X9448753Y-18296222D02*
X9458277Y-18277174D01*
X9458277Y-18277174D02*
X9477325Y-18267650D01*
X9477325Y-18267650D02*
X9515420Y-18267650D01*
X9515420Y-18267650D02*
X9534468Y-18277174D01*
X9534468Y-18277174D02*
X9543992Y-18296222D01*
X9543992Y-18296222D02*
X9543992Y-18315270D01*
X9543992Y-18315270D02*
X9448753Y-18334317D01*
X9620182Y-18391460D02*
X9639230Y-18400984D01*
X9639230Y-18400984D02*
X9677325Y-18400984D01*
X9677325Y-18400984D02*
X9696373Y-18391460D01*
X9696373Y-18391460D02*
X9705896Y-18372412D01*
X9705896Y-18372412D02*
X9705896Y-18362889D01*
X9705896Y-18362889D02*
X9696373Y-18343841D01*
X9696373Y-18343841D02*
X9677325Y-18334317D01*
X9677325Y-18334317D02*
X9648753Y-18334317D01*
X9648753Y-18334317D02*
X9629706Y-18324793D01*
X9629706Y-18324793D02*
X9620182Y-18305746D01*
X9620182Y-18305746D02*
X9620182Y-18296222D01*
X9620182Y-18296222D02*
X9629706Y-18277174D01*
X9629706Y-18277174D02*
X9648753Y-18267650D01*
X9648753Y-18267650D02*
X9677325Y-18267650D01*
X9677325Y-18267650D02*
X9696373Y-18277174D01*
X9772563Y-18477174D02*
X9782087Y-18467650D01*
X9782087Y-18467650D02*
X9801134Y-18439079D01*
X9801134Y-18439079D02*
X9810658Y-18420031D01*
X9810658Y-18420031D02*
X9820182Y-18391460D01*
X9820182Y-18391460D02*
X9829706Y-18343841D01*
X9829706Y-18343841D02*
X9829706Y-18305746D01*
X9829706Y-18305746D02*
X9820182Y-18258127D01*
X9820182Y-18258127D02*
X9810658Y-18229555D01*
X9810658Y-18229555D02*
X9801134Y-18210508D01*
X9801134Y-18210508D02*
X9782087Y-18181936D01*
X9782087Y-18181936D02*
X9772563Y-18172412D01*
X4897500Y-18729500D02*
X4997500Y-18629500D01*
X4897500Y-18529500D01*
X4797500Y-18629500D01*
X4897500Y-18729500D01*
X4997500Y-18629500D02*
G75*
G02*
X4797500Y-18629500I-100000J0D01*
G01*
X4797500Y-18629500D02*
G75*
G02*
X4997500Y-18629500I100000J0D01*
G01*
X5353515Y-18520984D02*
X5258277Y-18520984D01*
X5258277Y-18520984D02*
X5248753Y-18616222D01*
X5248753Y-18616222D02*
X5258277Y-18606698D01*
X5258277Y-18606698D02*
X5277324Y-18597174D01*
X5277324Y-18597174D02*
X5324944Y-18597174D01*
X5324944Y-18597174D02*
X5343991Y-18606698D01*
X5343991Y-18606698D02*
X5353515Y-18616222D01*
X5353515Y-18616222D02*
X5363039Y-18635270D01*
X5363039Y-18635270D02*
X5363039Y-18682889D01*
X5363039Y-18682889D02*
X5353515Y-18701936D01*
X5353515Y-18701936D02*
X5343991Y-18711460D01*
X5343991Y-18711460D02*
X5324944Y-18720984D01*
X5324944Y-18720984D02*
X5277324Y-18720984D01*
X5277324Y-18720984D02*
X5258277Y-18711460D01*
X5258277Y-18711460D02*
X5248753Y-18701936D01*
X5448753Y-18701936D02*
X5458277Y-18711460D01*
X5458277Y-18711460D02*
X5448753Y-18720984D01*
X5448753Y-18720984D02*
X5439229Y-18711460D01*
X5439229Y-18711460D02*
X5448753Y-18701936D01*
X5448753Y-18701936D02*
X5448753Y-18720984D01*
X5629705Y-18587650D02*
X5629705Y-18720984D01*
X5582086Y-18511460D02*
X5534467Y-18654317D01*
X5534467Y-18654317D02*
X5658277Y-18654317D01*
X5839229Y-18720984D02*
X5724943Y-18720984D01*
X5782086Y-18720984D02*
X5782086Y-18520984D01*
X5782086Y-18520984D02*
X5763039Y-18549555D01*
X5763039Y-18549555D02*
X5743991Y-18568603D01*
X5743991Y-18568603D02*
X5724943Y-18578127D01*
X5963039Y-18520984D02*
X5982086Y-18520984D01*
X5982086Y-18520984D02*
X6001134Y-18530508D01*
X6001134Y-18530508D02*
X6010658Y-18540031D01*
X6010658Y-18540031D02*
X6020182Y-18559079D01*
X6020182Y-18559079D02*
X6029705Y-18597174D01*
X6029705Y-18597174D02*
X6029705Y-18644793D01*
X6029705Y-18644793D02*
X6020182Y-18682889D01*
X6020182Y-18682889D02*
X6010658Y-18701936D01*
X6010658Y-18701936D02*
X6001134Y-18711460D01*
X6001134Y-18711460D02*
X5982086Y-18720984D01*
X5982086Y-18720984D02*
X5963039Y-18720984D01*
X5963039Y-18720984D02*
X5943991Y-18711460D01*
X5943991Y-18711460D02*
X5934467Y-18701936D01*
X5934467Y-18701936D02*
X5924943Y-18682889D01*
X5924943Y-18682889D02*
X5915420Y-18644793D01*
X5915420Y-18644793D02*
X5915420Y-18597174D01*
X5915420Y-18597174D02*
X5924943Y-18559079D01*
X5924943Y-18559079D02*
X5934467Y-18540031D01*
X5934467Y-18540031D02*
X5943991Y-18530508D01*
X5943991Y-18530508D02*
X5963039Y-18520984D01*
X6115420Y-18720984D02*
X6115420Y-18587650D01*
X6115420Y-18606698D02*
X6124943Y-18597174D01*
X6124943Y-18597174D02*
X6143991Y-18587650D01*
X6143991Y-18587650D02*
X6172563Y-18587650D01*
X6172563Y-18587650D02*
X6191610Y-18597174D01*
X6191610Y-18597174D02*
X6201134Y-18616222D01*
X6201134Y-18616222D02*
X6201134Y-18720984D01*
X6201134Y-18616222D02*
X6210658Y-18597174D01*
X6210658Y-18597174D02*
X6229705Y-18587650D01*
X6229705Y-18587650D02*
X6258277Y-18587650D01*
X6258277Y-18587650D02*
X6277324Y-18597174D01*
X6277324Y-18597174D02*
X6286848Y-18616222D01*
X6286848Y-18616222D02*
X6286848Y-18720984D01*
X6382086Y-18720984D02*
X6382086Y-18587650D01*
X6382086Y-18606698D02*
X6391610Y-18597174D01*
X6391610Y-18597174D02*
X6410658Y-18587650D01*
X6410658Y-18587650D02*
X6439229Y-18587650D01*
X6439229Y-18587650D02*
X6458277Y-18597174D01*
X6458277Y-18597174D02*
X6467801Y-18616222D01*
X6467801Y-18616222D02*
X6467801Y-18720984D01*
X6467801Y-18616222D02*
X6477324Y-18597174D01*
X6477324Y-18597174D02*
X6496372Y-18587650D01*
X6496372Y-18587650D02*
X6524943Y-18587650D01*
X6524943Y-18587650D02*
X6543991Y-18597174D01*
X6543991Y-18597174D02*
X6553515Y-18616222D01*
X6553515Y-18616222D02*
X6553515Y-18720984D01*
X6943991Y-18511460D02*
X6772563Y-18768603D01*
X7201134Y-18520984D02*
X7220182Y-18520984D01*
X7220182Y-18520984D02*
X7239229Y-18530508D01*
X7239229Y-18530508D02*
X7248753Y-18540031D01*
X7248753Y-18540031D02*
X7258277Y-18559079D01*
X7258277Y-18559079D02*
X7267801Y-18597174D01*
X7267801Y-18597174D02*
X7267801Y-18644793D01*
X7267801Y-18644793D02*
X7258277Y-18682889D01*
X7258277Y-18682889D02*
X7248753Y-18701936D01*
X7248753Y-18701936D02*
X7239229Y-18711460D01*
X7239229Y-18711460D02*
X7220182Y-18720984D01*
X7220182Y-18720984D02*
X7201134Y-18720984D01*
X7201134Y-18720984D02*
X7182086Y-18711460D01*
X7182086Y-18711460D02*
X7172563Y-18701936D01*
X7172563Y-18701936D02*
X7163039Y-18682889D01*
X7163039Y-18682889D02*
X7153515Y-18644793D01*
X7153515Y-18644793D02*
X7153515Y-18597174D01*
X7153515Y-18597174D02*
X7163039Y-18559079D01*
X7163039Y-18559079D02*
X7172563Y-18540031D01*
X7172563Y-18540031D02*
X7182086Y-18530508D01*
X7182086Y-18530508D02*
X7201134Y-18520984D01*
X7353515Y-18701936D02*
X7363039Y-18711460D01*
X7363039Y-18711460D02*
X7353515Y-18720984D01*
X7353515Y-18720984D02*
X7343991Y-18711460D01*
X7343991Y-18711460D02*
X7353515Y-18701936D01*
X7353515Y-18701936D02*
X7353515Y-18720984D01*
X7439229Y-18540031D02*
X7448753Y-18530508D01*
X7448753Y-18530508D02*
X7467801Y-18520984D01*
X7467801Y-18520984D02*
X7515420Y-18520984D01*
X7515420Y-18520984D02*
X7534467Y-18530508D01*
X7534467Y-18530508D02*
X7543991Y-18540031D01*
X7543991Y-18540031D02*
X7553515Y-18559079D01*
X7553515Y-18559079D02*
X7553515Y-18578127D01*
X7553515Y-18578127D02*
X7543991Y-18606698D01*
X7543991Y-18606698D02*
X7429706Y-18720984D01*
X7429706Y-18720984D02*
X7553515Y-18720984D01*
X7743991Y-18720984D02*
X7629706Y-18720984D01*
X7686848Y-18720984D02*
X7686848Y-18520984D01*
X7686848Y-18520984D02*
X7667801Y-18549555D01*
X7667801Y-18549555D02*
X7648753Y-18568603D01*
X7648753Y-18568603D02*
X7629706Y-18578127D01*
X7810658Y-18520984D02*
X7934467Y-18520984D01*
X7934467Y-18520984D02*
X7867801Y-18597174D01*
X7867801Y-18597174D02*
X7896372Y-18597174D01*
X7896372Y-18597174D02*
X7915420Y-18606698D01*
X7915420Y-18606698D02*
X7924944Y-18616222D01*
X7924944Y-18616222D02*
X7934467Y-18635270D01*
X7934467Y-18635270D02*
X7934467Y-18682889D01*
X7934467Y-18682889D02*
X7924944Y-18701936D01*
X7924944Y-18701936D02*
X7915420Y-18711460D01*
X7915420Y-18711460D02*
X7896372Y-18720984D01*
X7896372Y-18720984D02*
X7839229Y-18720984D01*
X7839229Y-18720984D02*
X7820182Y-18711460D01*
X7820182Y-18711460D02*
X7810658Y-18701936D01*
X8058277Y-18520984D02*
X8077325Y-18520984D01*
X8077325Y-18520984D02*
X8096372Y-18530508D01*
X8096372Y-18530508D02*
X8105896Y-18540031D01*
X8105896Y-18540031D02*
X8115420Y-18559079D01*
X8115420Y-18559079D02*
X8124944Y-18597174D01*
X8124944Y-18597174D02*
X8124944Y-18644793D01*
X8124944Y-18644793D02*
X8115420Y-18682889D01*
X8115420Y-18682889D02*
X8105896Y-18701936D01*
X8105896Y-18701936D02*
X8096372Y-18711460D01*
X8096372Y-18711460D02*
X8077325Y-18720984D01*
X8077325Y-18720984D02*
X8058277Y-18720984D01*
X8058277Y-18720984D02*
X8039229Y-18711460D01*
X8039229Y-18711460D02*
X8029706Y-18701936D01*
X8029706Y-18701936D02*
X8020182Y-18682889D01*
X8020182Y-18682889D02*
X8010658Y-18644793D01*
X8010658Y-18644793D02*
X8010658Y-18597174D01*
X8010658Y-18597174D02*
X8020182Y-18559079D01*
X8020182Y-18559079D02*
X8029706Y-18540031D01*
X8029706Y-18540031D02*
X8039229Y-18530508D01*
X8039229Y-18530508D02*
X8058277Y-18520984D01*
X8201134Y-18520984D02*
X8201134Y-18559079D01*
X8277325Y-18520984D02*
X8277325Y-18559079D01*
X8572563Y-18797174D02*
X8563039Y-18787650D01*
X8563039Y-18787650D02*
X8543991Y-18759079D01*
X8543991Y-18759079D02*
X8534468Y-18740031D01*
X8534468Y-18740031D02*
X8524944Y-18711460D01*
X8524944Y-18711460D02*
X8515420Y-18663841D01*
X8515420Y-18663841D02*
X8515420Y-18625746D01*
X8515420Y-18625746D02*
X8524944Y-18578127D01*
X8524944Y-18578127D02*
X8534468Y-18549555D01*
X8534468Y-18549555D02*
X8543991Y-18530508D01*
X8543991Y-18530508D02*
X8563039Y-18501936D01*
X8563039Y-18501936D02*
X8572563Y-18492412D01*
X8734468Y-18587650D02*
X8734468Y-18720984D01*
X8686849Y-18511460D02*
X8639230Y-18654317D01*
X8639230Y-18654317D02*
X8763039Y-18654317D01*
X8991611Y-18720984D02*
X8991611Y-18520984D01*
X9077325Y-18720984D02*
X9077325Y-18616222D01*
X9077325Y-18616222D02*
X9067801Y-18597174D01*
X9067801Y-18597174D02*
X9048753Y-18587650D01*
X9048753Y-18587650D02*
X9020182Y-18587650D01*
X9020182Y-18587650D02*
X9001134Y-18597174D01*
X9001134Y-18597174D02*
X8991611Y-18606698D01*
X9201134Y-18720984D02*
X9182087Y-18711460D01*
X9182087Y-18711460D02*
X9172563Y-18701936D01*
X9172563Y-18701936D02*
X9163039Y-18682889D01*
X9163039Y-18682889D02*
X9163039Y-18625746D01*
X9163039Y-18625746D02*
X9172563Y-18606698D01*
X9172563Y-18606698D02*
X9182087Y-18597174D01*
X9182087Y-18597174D02*
X9201134Y-18587650D01*
X9201134Y-18587650D02*
X9229706Y-18587650D01*
X9229706Y-18587650D02*
X9248753Y-18597174D01*
X9248753Y-18597174D02*
X9258277Y-18606698D01*
X9258277Y-18606698D02*
X9267801Y-18625746D01*
X9267801Y-18625746D02*
X9267801Y-18682889D01*
X9267801Y-18682889D02*
X9258277Y-18701936D01*
X9258277Y-18701936D02*
X9248753Y-18711460D01*
X9248753Y-18711460D02*
X9229706Y-18720984D01*
X9229706Y-18720984D02*
X9201134Y-18720984D01*
X9382087Y-18720984D02*
X9363039Y-18711460D01*
X9363039Y-18711460D02*
X9353515Y-18692412D01*
X9353515Y-18692412D02*
X9353515Y-18520984D01*
X9534468Y-18711460D02*
X9515420Y-18720984D01*
X9515420Y-18720984D02*
X9477325Y-18720984D01*
X9477325Y-18720984D02*
X9458277Y-18711460D01*
X9458277Y-18711460D02*
X9448753Y-18692412D01*
X9448753Y-18692412D02*
X9448753Y-18616222D01*
X9448753Y-18616222D02*
X9458277Y-18597174D01*
X9458277Y-18597174D02*
X9477325Y-18587650D01*
X9477325Y-18587650D02*
X9515420Y-18587650D01*
X9515420Y-18587650D02*
X9534468Y-18597174D01*
X9534468Y-18597174D02*
X9543992Y-18616222D01*
X9543992Y-18616222D02*
X9543992Y-18635270D01*
X9543992Y-18635270D02*
X9448753Y-18654317D01*
X9620182Y-18711460D02*
X9639230Y-18720984D01*
X9639230Y-18720984D02*
X9677325Y-18720984D01*
X9677325Y-18720984D02*
X9696373Y-18711460D01*
X9696373Y-18711460D02*
X9705896Y-18692412D01*
X9705896Y-18692412D02*
X9705896Y-18682889D01*
X9705896Y-18682889D02*
X9696373Y-18663841D01*
X9696373Y-18663841D02*
X9677325Y-18654317D01*
X9677325Y-18654317D02*
X9648753Y-18654317D01*
X9648753Y-18654317D02*
X9629706Y-18644793D01*
X9629706Y-18644793D02*
X9620182Y-18625746D01*
X9620182Y-18625746D02*
X9620182Y-18616222D01*
X9620182Y-18616222D02*
X9629706Y-18597174D01*
X9629706Y-18597174D02*
X9648753Y-18587650D01*
X9648753Y-18587650D02*
X9677325Y-18587650D01*
X9677325Y-18587650D02*
X9696373Y-18597174D01*
X9772563Y-18797174D02*
X9782087Y-18787650D01*
X9782087Y-18787650D02*
X9801134Y-18759079D01*
X9801134Y-18759079D02*
X9810658Y-18740031D01*
X9810658Y-18740031D02*
X9820182Y-18711460D01*
X9820182Y-18711460D02*
X9829706Y-18663841D01*
X9829706Y-18663841D02*
X9829706Y-18625746D01*
X9829706Y-18625746D02*
X9820182Y-18578127D01*
X9820182Y-18578127D02*
X9810658Y-18549555D01*
X9810658Y-18549555D02*
X9801134Y-18530508D01*
X9801134Y-18530508D02*
X9782087Y-18501936D01*
X9782087Y-18501936D02*
X9772563Y-18492412D01*
M02*
