M48
; DRILL file {KiCad 8.0.8} date 2025-04-11T10:41:41+0200
; FORMAT={-:-/ absolute / inch / decimal}
; #@! TF.CreationDate,2025-04-11T10:41:41+02:00
; #@! TF.GenerationSoftware,Kicad,Pcbnew,8.0.8
; #@! TF.FileFunction,Plated,1,2,PTH
FMAT,2
INCH
; #@! TA.AperFunction,Plated,PTH,ComponentDrill
T1C0.0079
; #@! TA.AperFunction,Plated,PTH,ViaDrill
T2C0.0118
; #@! TA.AperFunction,Plated,PTH,ViaDrill
T3C0.0236
; #@! TA.AperFunction,Plated,PTH,ComponentDrill
T4C0.0276
; #@! TA.AperFunction,Plated,PTH,ComponentDrill
T5C0.0402
; #@! TA.AperFunction,Plated,PTH,ComponentDrill
T6C0.0472
; #@! TA.AperFunction,Plated,PTH,ViaDrill
T7C0.0512
; #@! TA.AperFunction,Plated,PTH,ComponentDrill
T8C0.0543
; #@! TA.AperFunction,Plated,PTH,ComponentDrill
T9C0.0650
; #@! TA.AperFunction,Plated,PTH,ComponentDrill
T10C0.0795
; #@! TA.AperFunction,Plated,PTH,ComponentDrill
T11C0.0866
; #@! TA.AperFunction,Plated,PTH,ComponentDrill
T12C0.1260
; #@! TA.AperFunction,Plated,PTH,ComponentDrill
T13C0.2130
%
G90
G05
T1
X2.7249Y-5.5113
X2.7249Y-5.5714
X2.7549Y-5.4813
X2.7549Y-5.5413
X2.7549Y-5.6014
X2.7849Y-5.5113
X2.7849Y-5.5714
X2.815Y-5.4813
X2.815Y-5.5413
X2.815Y-5.6014
X2.845Y-5.5113
X2.845Y-5.5714
T2
X2.1555Y-4.5866
X2.3228Y-4.8228
X2.3425Y-5.3543
X2.378Y-4.936
X2.4016Y-4.8425
X2.4016Y-5.0886
X2.4409Y-4.6752
X2.4409Y-4.8425
X2.4606Y-3.1988
X2.4803Y-5.0394
X2.4902Y-4.1831
X2.5Y-5.561
X2.5Y-5.8071
X2.5591Y-3.4252
X2.5984Y-3.3071
X2.5984Y-4.439
X2.6378Y-3.2677
X2.6378Y-4.5768
X2.6575Y-4.2618
X2.6772Y-5.3937
X2.6772Y-5.4331
X2.687Y-4.3012
X2.7516Y-5.3303
X2.7559Y-4.439
X2.815Y-5.748
X2.815Y-5.7874
X2.8248Y-4.4488
X2.9134Y-5.3543
X2.9134Y-5.7283
X2.9331Y-5.187
X2.9429Y-3.1102
X2.9528Y-5.2756
X2.9528Y-5.4331
X2.9528Y-5.4724
X2.9724Y-5.2165
X3.0118Y-5.8268
X3.0217Y-3.8484
X3.0315Y-3.6909
X3.0315Y-5.315
X3.0315Y-5.3543
X3.0709Y-4.2421
X3.0906Y-4.0748
X3.1791Y-5.561
X3.1791Y-5.6299
X3.189Y-5.0394
X3.189Y-5.1575
X3.189Y-5.315
X3.2283Y-3.0709
X3.2283Y-4.5276
X3.2283Y-5.0098
X3.2677Y-4.0157
X3.2874Y-5.0
X3.3071Y-3.5827
X3.3858Y-4.5276
X3.3858Y-5.8268
X3.4252Y-4.5669
X3.435Y-4.9213
X3.4449Y-5.6102
X3.4646Y-4.7638
X3.4646Y-5.315
X3.4646Y-5.3543
X3.4646Y-5.5118
X3.5236Y-4.498
X3.5236Y-5.4724
X3.5236Y-5.5512
X3.5433Y-4.2913
X3.5531Y-5.8268
X3.563Y-5.2205
X3.5728Y-5.1181
X3.5827Y-4.5669
X3.5827Y-4.9213
X3.622Y-3.8976
X3.622Y-4.1732
X3.622Y-4.7244
X3.6909Y-5.5906
X3.7008Y-4.2126
X3.7106Y-5.6398
X3.7205Y-5.2165
X3.7795Y-4.4882
X3.7795Y-4.685
X3.7894Y-5.4429
X3.7894Y-5.7776
X3.8091Y-5.4724
X3.8189Y-5.561
X3.937Y-3.1102
X3.9469Y-5.0984
X3.9665Y-4.5079
X3.9764Y-5.7185
X4.0059Y-5.6693
X4.0108Y-5.625
X4.0157Y-3.6614
X4.0157Y-3.9764
X4.1339Y-5.7776
X4.1535Y-5.5217
X4.1732Y-5.3937
X4.2815Y-5.3543
X4.3701Y-5.5413
X4.6752Y-5.2362
X4.7539Y-5.4429
X4.7835Y-5.3878
X4.8031Y-5.4429
X4.9606Y-5.6398
X5.0Y-5.8169
X5.0098Y-5.6201
X5.0098Y-5.7087
T3
X2.1457Y-4.2421
X2.1752Y-5.187
X2.248Y-3.5827
X2.2835Y-3.5039
X2.4016Y-4.0157
X2.5197Y-4.0945
X2.8051Y-4.0157
X2.8346Y-4.7539
X2.9429Y-2.1752
X2.9528Y-5.6693
X3.1201Y-4.3602
X3.3661Y-4.1929
X5.2067Y-2.8642
X5.2953Y-5.6594
X5.9941Y-3.1594
T4
X4.3524Y-5.5886
X4.3839Y-5.6358
X4.4154Y-5.5886
X4.4469Y-5.6358
X4.4783Y-5.5886
T5
X2.0988Y-4.9598
X2.0988Y-5.0598
X2.1433Y-5.3437
X2.1433Y-5.4437
X2.6657Y-4.9114
X2.7657Y-4.9114
X2.9618Y-4.9287
X3.0618Y-4.9287
X3.9862Y-4.1618
X3.9862Y-4.2618
X4.0339Y-5.1476
X4.1339Y-5.1476
X4.3299Y-5.15
X4.3701Y-5.3839
X4.4299Y-5.15
X4.4701Y-5.3839
X4.7925Y-5.7358
X4.8925Y-5.7358
X5.9933Y-3.8953
X6.0819Y-2.8717
X6.0933Y-3.8953
X6.1819Y-2.8717
T6
X4.2421Y-4.3406
X5.7185Y-4.3406
T7
X3.4459Y-2.3829
X3.8189Y-3.1969
X3.8583Y-3.8583
X4.3898Y-4.0748
X4.4291Y-3.1917
X4.4685Y-2.372
T8
X3.5614Y-3.7008
X3.6008Y-2.8272
X3.6614Y-3.7008
X3.7008Y-2.8272
X3.7614Y-3.7008
X3.8008Y-2.8272
X4.2701Y-2.8272
X4.2882Y-3.6441
X4.3701Y-2.8272
X4.3882Y-3.6441
X4.4701Y-2.8272
X4.4882Y-3.6441
T9
X2.5591Y-2.4844
X2.5591Y-2.6285
X2.5591Y-2.8045
X2.5591Y-2.9486
T10
X4.2717Y-5.7874
X4.5591Y-5.7874
T11
X5.0295Y-2.687
X5.7776Y-2.687
T12
X2.1654Y-1.7323
X2.1654Y-5.689
X6.1122Y-5.6988
X6.122Y-1.7323
T13
X2.2047Y-2.5984
X2.2047Y-3.0315
X6.0728Y-4.2224
X6.0728Y-4.685
M30
