%TF.GenerationSoftware,KiCad,Pcbnew,8.0.8*%
%TF.CreationDate,2025-04-11T10:41:37+02:00*%
%TF.ProjectId,H_bridge_PCB,485f6272-6964-4676-955f-5043422e6b69,rev?*%
%TF.SameCoordinates,Original*%
%TF.FileFunction,Copper,L1,Top*%
%TF.FilePolarity,Positive*%
%FSLAX46Y46*%
G04 Gerber Fmt 4.6, Leading zero omitted, Abs format (unit mm)*
G04 Created by KiCad (PCBNEW 8.0.8) date 2025-04-11 10:41:37*
%MOMM*%
%LPD*%
G01*
G04 APERTURE LIST*
G04 Aperture macros list*
%AMRoundRect*
0 Rectangle with rounded corners*
0 $1 Rounding radius*
0 $2 $3 $4 $5 $6 $7 $8 $9 X,Y pos of 4 corners*
0 Add a 4 corners polygon primitive as box body*
4,1,4,$2,$3,$4,$5,$6,$7,$8,$9,$2,$3,0*
0 Add four circle primitives for the rounded corners*
1,1,$1+$1,$2,$3*
1,1,$1+$1,$4,$5*
1,1,$1+$1,$6,$7*
1,1,$1+$1,$8,$9*
0 Add four rect primitives between the rounded corners*
20,1,$1+$1,$2,$3,$4,$5,0*
20,1,$1+$1,$4,$5,$6,$7,0*
20,1,$1+$1,$6,$7,$8,$9,0*
20,1,$1+$1,$8,$9,$2,$3,0*%
G04 Aperture macros list end*
%TA.AperFunction,ComponentPad*%
%ADD10C,6.400000*%
%TD*%
%TA.AperFunction,SMDPad,CuDef*%
%ADD11RoundRect,0.250000X0.350000X0.450000X-0.350000X0.450000X-0.350000X-0.450000X0.350000X-0.450000X0*%
%TD*%
%TA.AperFunction,SMDPad,CuDef*%
%ADD12R,1.200000X2.200000*%
%TD*%
%TA.AperFunction,SMDPad,CuDef*%
%ADD13R,5.800000X6.400000*%
%TD*%
%TA.AperFunction,ComponentPad*%
%ADD14R,2.070000X2.070000*%
%TD*%
%TA.AperFunction,ComponentPad*%
%ADD15C,2.070000*%
%TD*%
%TA.AperFunction,SMDPad,CuDef*%
%ADD16R,0.800000X3.360000*%
%TD*%
%TA.AperFunction,SMDPad,CuDef*%
%ADD17R,3.500000X1.600000*%
%TD*%
%TA.AperFunction,SMDPad,CuDef*%
%ADD18R,9.750000X12.200000*%
%TD*%
%TA.AperFunction,SMDPad,CuDef*%
%ADD19R,0.650000X1.528000*%
%TD*%
%TA.AperFunction,SMDPad,CuDef*%
%ADD20R,1.200000X1.200000*%
%TD*%
%TA.AperFunction,SMDPad,CuDef*%
%ADD21R,1.450000X1.150000*%
%TD*%
%TA.AperFunction,SMDPad,CuDef*%
%ADD22R,4.150000X4.650000*%
%TD*%
%TA.AperFunction,SMDPad,CuDef*%
%ADD23R,1.600000X2.200000*%
%TD*%
%TA.AperFunction,ComponentPad*%
%ADD24C,1.550000*%
%TD*%
%TA.AperFunction,ComponentPad*%
%ADD25C,3.300000*%
%TD*%
%TA.AperFunction,SMDPad,CuDef*%
%ADD26R,2.300000X2.150000*%
%TD*%
%TA.AperFunction,SMDPad,CuDef*%
%ADD27R,3.200000X1.600000*%
%TD*%
%TA.AperFunction,ComponentPad*%
%ADD28R,1.800000X1.800000*%
%TD*%
%TA.AperFunction,ComponentPad*%
%ADD29C,1.800000*%
%TD*%
%TA.AperFunction,SMDPad,CuDef*%
%ADD30RoundRect,0.250000X-0.350000X-0.450000X0.350000X-0.450000X0.350000X0.450000X-0.350000X0.450000X0*%
%TD*%
%TA.AperFunction,ComponentPad*%
%ADD31C,2.500000*%
%TD*%
%TA.AperFunction,SMDPad,CuDef*%
%ADD32RoundRect,0.075000X-0.650000X-0.075000X0.650000X-0.075000X0.650000X0.075000X-0.650000X0.075000X0*%
%TD*%
%TA.AperFunction,SMDPad,CuDef*%
%ADD33RoundRect,0.250000X-0.450000X0.350000X-0.450000X-0.350000X0.450000X-0.350000X0.450000X0.350000X0*%
%TD*%
%TA.AperFunction,ComponentPad*%
%ADD34C,8.115000*%
%TD*%
%TA.AperFunction,SMDPad,CuDef*%
%ADD35RoundRect,0.250000X0.450000X-0.350000X0.450000X0.350000X-0.450000X0.350000X-0.450000X-0.350000X0*%
%TD*%
%TA.AperFunction,ComponentPad*%
%ADD36C,1.200000*%
%TD*%
%TA.AperFunction,ComponentPad*%
%ADD37C,3.030000*%
%TD*%
%TA.AperFunction,SMDPad,CuDef*%
%ADD38RoundRect,0.150000X-0.150000X0.875000X-0.150000X-0.875000X0.150000X-0.875000X0.150000X0.875000X0*%
%TD*%
%TA.AperFunction,SMDPad,CuDef*%
%ADD39R,1.500000X0.900000*%
%TD*%
%TA.AperFunction,SMDPad,CuDef*%
%ADD40R,0.900000X1.500000*%
%TD*%
%TA.AperFunction,SMDPad,CuDef*%
%ADD41R,1.050000X1.050000*%
%TD*%
%TA.AperFunction,HeatsinkPad*%
%ADD42C,0.600000*%
%TD*%
%TA.AperFunction,HeatsinkPad*%
%ADD43R,4.200000X4.200000*%
%TD*%
%TA.AperFunction,SMDPad,CuDef*%
%ADD44RoundRect,0.150000X0.825000X0.150000X-0.825000X0.150000X-0.825000X-0.150000X0.825000X-0.150000X0*%
%TD*%
%TA.AperFunction,SMDPad,CuDef*%
%ADD45RoundRect,0.200000X0.750000X0.200000X-0.750000X0.200000X-0.750000X-0.200000X0.750000X-0.200000X0*%
%TD*%
%TA.AperFunction,SMDPad,CuDef*%
%ADD46RoundRect,0.250000X0.850000X0.350000X-0.850000X0.350000X-0.850000X-0.350000X0.850000X-0.350000X0*%
%TD*%
%TA.AperFunction,SMDPad,CuDef*%
%ADD47RoundRect,0.250000X1.275000X1.125000X-1.275000X1.125000X-1.275000X-1.125000X1.275000X-1.125000X0*%
%TD*%
%TA.AperFunction,SMDPad,CuDef*%
%ADD48RoundRect,0.249997X2.950003X2.650003X-2.950003X2.650003X-2.950003X-2.650003X2.950003X-2.650003X0*%
%TD*%
%TA.AperFunction,SMDPad,CuDef*%
%ADD49RoundRect,0.250000X-0.250000X-0.475000X0.250000X-0.475000X0.250000X0.475000X-0.250000X0.475000X0*%
%TD*%
%TA.AperFunction,SMDPad,CuDef*%
%ADD50R,2.150000X2.300000*%
%TD*%
%TA.AperFunction,SMDPad,CuDef*%
%ADD51RoundRect,0.249999X-0.450001X-1.425001X0.450001X-1.425001X0.450001X1.425001X-0.450001X1.425001X0*%
%TD*%
%TA.AperFunction,SMDPad,CuDef*%
%ADD52RoundRect,0.175000X-0.325000X0.175000X-0.325000X-0.175000X0.325000X-0.175000X0.325000X0.175000X0*%
%TD*%
%TA.AperFunction,SMDPad,CuDef*%
%ADD53RoundRect,0.150000X-0.150000X0.200000X-0.150000X-0.200000X0.150000X-0.200000X0.150000X0.200000X0*%
%TD*%
%TA.AperFunction,SMDPad,CuDef*%
%ADD54R,1.600000X3.200000*%
%TD*%
%TA.AperFunction,ViaPad*%
%ADD55C,2.500000*%
%TD*%
%TA.AperFunction,ViaPad*%
%ADD56C,0.700000*%
%TD*%
%TA.AperFunction,ViaPad*%
%ADD57C,1.200000*%
%TD*%
%TA.AperFunction,ViaPad*%
%ADD58C,0.600000*%
%TD*%
%TA.AperFunction,Conductor*%
%ADD59C,2.000000*%
%TD*%
%TA.AperFunction,Conductor*%
%ADD60C,2.500000*%
%TD*%
%TA.AperFunction,Conductor*%
%ADD61C,1.000000*%
%TD*%
%TA.AperFunction,Conductor*%
%ADD62C,5.000000*%
%TD*%
%TA.AperFunction,Conductor*%
%ADD63C,0.500000*%
%TD*%
%TA.AperFunction,Conductor*%
%ADD64C,4.000000*%
%TD*%
%TA.AperFunction,Conductor*%
%ADD65C,0.200000*%
%TD*%
G04 APERTURE END LIST*
D10*
%TO.P,REF\u002A\u002A,1*%
%TO.N,N/C*%
X155250000Y-144750000D03*
%TD*%
%TO.P,REF\u002A\u002A,1*%
%TO.N,N/C*%
X155500000Y-44000000D03*
%TD*%
D11*
%TO.P,R12,1*%
%TO.N,Net-(D12-A)*%
X79250000Y-55250000D03*
%TO.P,R12,2*%
%TO.N,GND*%
X77250000Y-55250000D03*
%TD*%
D12*
%TO.P,Q10,1,G*%
%TO.N,Net-(D10-A)*%
X106750000Y-65500000D03*
D13*
%TO.P,Q10,3,D*%
%TO.N,SO1*%
X109030000Y-59200000D03*
D12*
%TO.P,Q10,4,S*%
%TO.N,Cout-*%
X111310000Y-65500000D03*
%TD*%
%TO.P,Q9,1,G*%
%TO.N,Net-(D7-A)*%
X105750000Y-86450000D03*
D13*
%TO.P,Q9,3,D*%
%TO.N,Cout-*%
X108030000Y-80150000D03*
D12*
%TO.P,Q9,4,S*%
%TO.N,GND*%
X110310000Y-86450000D03*
%TD*%
%TO.P,Q6,1,G*%
%TO.N,Net-(D9-A)*%
X89720000Y-87500000D03*
D13*
%TO.P,Q6,3,D*%
%TO.N,Out+*%
X92000000Y-81200000D03*
D12*
%TO.P,Q6,4,S*%
%TO.N,GND*%
X94280000Y-87500000D03*
%TD*%
%TO.P,Q5,1,G*%
%TO.N,Net-(D8-A)*%
X90720000Y-64950000D03*
D13*
%TO.P,Q5,3,D*%
%TO.N,SO1*%
X93000000Y-58650000D03*
D12*
%TO.P,Q5,4,S*%
%TO.N,Out+*%
X95280000Y-64950000D03*
%TD*%
D14*
%TO.P,Q4,1,G*%
%TO.N,Net-(D7-A)*%
X108920000Y-92560000D03*
D15*
%TO.P,Q4,2,D*%
%TO.N,Cout-*%
X111460000Y-92560000D03*
%TO.P,Q4,3,S*%
%TO.N,GND*%
X114000000Y-92560000D03*
%TD*%
D14*
%TO.P,Q3,1,G*%
%TO.N,Net-(D10-A)*%
X108460000Y-71810000D03*
D15*
%TO.P,Q3,2,D*%
%TO.N,SO1*%
X111000000Y-71810000D03*
%TO.P,Q3,3,S*%
%TO.N,Cout-*%
X113540000Y-71810000D03*
%TD*%
D14*
%TO.P,Q2,1,G*%
%TO.N,Net-(D9-A)*%
X90460000Y-94000000D03*
D15*
%TO.P,Q2,2,D*%
%TO.N,Out+*%
X93000000Y-94000000D03*
%TO.P,Q2,3,S*%
%TO.N,GND*%
X95540000Y-94000000D03*
%TD*%
D14*
%TO.P,Q1,1,G*%
%TO.N,Net-(D8-A)*%
X91460000Y-71810000D03*
D15*
%TO.P,Q1,2,D*%
%TO.N,SO1*%
X94000000Y-71810000D03*
%TO.P,Q1,3,S*%
%TO.N,Out+*%
X96540000Y-71810000D03*
%TD*%
D16*
%TO.P,IC5,1,IP+_1*%
%TO.N,SI2*%
X132195000Y-128057000D03*
%TO.P,IC5,2,IP+_2*%
X130925000Y-128057000D03*
%TO.P,IC5,3,IP+_3*%
X129655000Y-128057000D03*
%TO.P,IC5,4,IP+_4*%
X128385000Y-128057000D03*
%TO.P,IC5,5,IP-_1*%
%TO.N,Cout-*%
X127115000Y-128057000D03*
%TO.P,IC5,6,IP-_2*%
X125845000Y-128057000D03*
%TO.P,IC5,7,IP-_3*%
X124575000Y-128057000D03*
%TO.P,IC5,8,IP-_4*%
X123305000Y-128057000D03*
%TO.P,IC5,9,DIO_1_/_CS*%
%TO.N,DIO_1*%
X123305000Y-139943000D03*
%TO.P,IC5,10,DIO_0_/_MOSI*%
%TO.N,DIO_0*%
X124575000Y-139943000D03*
%TO.P,IC5,11,SCL_/_SCLK*%
%TO.N,SCL2*%
X125845000Y-139943000D03*
%TO.P,IC5,12,SDA_/_MISO*%
%TO.N,SDA2*%
X127115000Y-139943000D03*
%TO.P,IC5,13,VCC*%
%TO.N,+3.3V*%
X128385000Y-139943000D03*
%TO.P,IC5,14,GND*%
%TO.N,GND*%
X129655000Y-139943000D03*
%TO.P,IC5,15,VINN*%
X130925000Y-139943000D03*
%TO.P,IC5,16,VINP*%
%TO.N,Net-(IC5-VINP)*%
X132195000Y-139943000D03*
%TD*%
D17*
%TO.P,IC2,1,OUTPUT*%
%TO.N,+12V*%
X67375000Y-88460000D03*
D18*
%TO.P,IC2,2,GND*%
%TO.N,GND*%
X57100000Y-91000000D03*
D17*
%TO.P,IC2,3,INPUT*%
%TO.N,SI1*%
X67375000Y-93540000D03*
%TD*%
D19*
%TO.P,IC1,1,CB*%
%TO.N,Net-(IC1-CB)*%
X64690000Y-111000000D03*
%TO.P,IC1,2,SS*%
%TO.N,unconnected-(IC1-SS-Pad2)*%
X65960000Y-111000000D03*
%TO.P,IC1,3,SYNC*%
%TO.N,unconnected-(IC1-SYNC-Pad3)*%
X67230000Y-111000000D03*
%TO.P,IC1,4,FB*%
%TO.N,+3.3V*%
X68500000Y-111000000D03*
%TO.P,IC1,5,ON/~{OFF}*%
%TO.N,unconnected-(IC1-ON{slash}~{OFF}-Pad5)*%
X68500000Y-105578000D03*
%TO.P,IC1,6,GND*%
%TO.N,GND*%
X67230000Y-105578000D03*
%TO.P,IC1,7,VIN*%
%TO.N,SI1*%
X65960000Y-105578000D03*
%TO.P,IC1,8,VSW*%
%TO.N,Net-(D13-K)*%
X64690000Y-105578000D03*
%TD*%
D20*
%TO.P,D12,1,K*%
%TO.N,SO1*%
X85000000Y-55250000D03*
%TO.P,D12,2,A*%
%TO.N,Net-(D12-A)*%
X82200000Y-55250000D03*
%TD*%
D21*
%TO.P,D5,1,ANODE_1*%
%TO.N,GND*%
X116985000Y-84820000D03*
%TO.P,D5,2,ANODE_2*%
X115015000Y-84820000D03*
D22*
%TO.P,D5,3,CATHODE*%
%TO.N,Cout-*%
X116000000Y-81070000D03*
%TD*%
D21*
%TO.P,D3,1,ANODE_1*%
%TO.N,Cout-*%
X117970000Y-64000000D03*
%TO.P,D3,2,ANODE_2*%
X116000000Y-64000000D03*
D22*
%TO.P,D3,3,CATHODE*%
%TO.N,SO1*%
X116985000Y-60250000D03*
%TD*%
D21*
%TO.P,D2,1,ANODE_1*%
%TO.N,GND*%
X100970000Y-87000000D03*
%TO.P,D2,2,ANODE_2*%
X99000000Y-87000000D03*
D22*
%TO.P,D2,3,CATHODE*%
%TO.N,Out+*%
X99985000Y-83250000D03*
%TD*%
D21*
%TO.P,D1,1,ANODE_1*%
%TO.N,Out+*%
X101985000Y-64070000D03*
%TO.P,D1,2,ANODE_2*%
X100015000Y-64070000D03*
D22*
%TO.P,D1,3,CATHODE*%
%TO.N,SO1*%
X101000000Y-60320000D03*
%TD*%
D11*
%TO.P,R11,1*%
%TO.N,Net-(C13-Pad1)*%
X154750000Y-77000000D03*
%TO.P,R11,2*%
%TO.N,Cout+*%
X152750000Y-77000000D03*
%TD*%
D23*
%TO.P,L1,1,1*%
%TO.N,Net-(D13-K)*%
X63800000Y-117250000D03*
%TO.P,L1,2,2*%
%TO.N,+3.3V*%
X70200000Y-117250000D03*
%TD*%
D24*
%TO.P,J6,1,1*%
%TO.N,Out+*%
X157020000Y-72940000D03*
%TO.P,J6,2,2*%
%TO.N,Cout+*%
X154480000Y-72940000D03*
%TD*%
D25*
%TO.P,FL1,1,1*%
%TO.N,Cout+*%
X146750000Y-68250000D03*
%TO.P,FL1,2,2*%
%TO.N,Out+*%
X127750000Y-68250000D03*
%TD*%
D26*
%TO.P,D13,1,K*%
%TO.N,Net-(D13-K)*%
X71350000Y-107750000D03*
%TO.P,D13,2,A*%
%TO.N,GND*%
X75650000Y-107750000D03*
%TD*%
D27*
%TO.P,C22,1*%
%TO.N,SI1*%
X58575000Y-110000000D03*
%TO.P,C22,2*%
%TO.N,GND*%
X53575000Y-110000000D03*
%TD*%
D28*
%TO.P,C16,1,1*%
%TO.N,Net-(C16-Pad1)*%
X107750000Y-110250000D03*
D29*
%TO.P,C16,2,2*%
%TO.N,Net-(C16-Pad2)*%
X145250000Y-110250000D03*
%TD*%
D30*
%TO.P,C13,1*%
%TO.N,Net-(C13-Pad1)*%
X156500000Y-77000000D03*
%TO.P,C13,2*%
%TO.N,Out+*%
X158500000Y-77000000D03*
%TD*%
%TO.P,C11,1*%
%TO.N,Net-(IC1-CB)*%
X70750000Y-111250000D03*
%TO.P,C11,2*%
%TO.N,Net-(D13-K)*%
X72750000Y-111250000D03*
%TD*%
D24*
%TO.P,J14,1,1*%
%TO.N,/USB_Connector/D+*%
X113540000Y-136750000D03*
%TO.P,J14,2,2*%
%TO.N,/USB_Connector/D-*%
X111000000Y-136750000D03*
%TD*%
D31*
%TO.P,U8,1,1*%
%TO.N,SI1*%
X65000000Y-74895000D03*
%TO.P,U8,2,2*%
X65000000Y-71235000D03*
%TO.P,U8,3,3*%
%TO.N,Net-(TP1-Pad1)*%
X65000000Y-66765000D03*
%TO.P,U8,4,4*%
X65000000Y-63105000D03*
%TD*%
D30*
%TO.P,C4,1*%
%TO.N,Net-(D11-K)*%
X100000000Y-116000000D03*
%TO.P,C4,2*%
%TO.N,Cout-*%
X102000000Y-116000000D03*
%TD*%
D32*
%TO.P,U4,1,A1*%
%TO.N,GND*%
X66800000Y-79000000D03*
%TO.P,U4,2,A0*%
X66800000Y-79500000D03*
%TO.P,U4,3,~{Alert}*%
%TO.N,unconnected-(U4-~{Alert}-Pad3)*%
X66800000Y-80000000D03*
%TO.P,U4,4,SDA*%
%TO.N,SDA1*%
X66800000Y-80500000D03*
%TO.P,U4,5,SCL*%
%TO.N,SCL1*%
X66800000Y-81000000D03*
%TO.P,U4,6,VS*%
%TO.N,+3.3V*%
X71200000Y-81000000D03*
%TO.P,U4,7,GND*%
%TO.N,GND*%
X71200000Y-80500000D03*
%TO.P,U4,8,Vbus*%
%TO.N,SI1*%
X71200000Y-80000000D03*
%TO.P,U4,9,Vin-*%
%TO.N,SO1*%
X71200000Y-79500000D03*
%TO.P,U4,10,Vin+*%
%TO.N,SI1*%
X71200000Y-79000000D03*
%TD*%
D30*
%TO.P,R39,1*%
%TO.N,SDA2*%
X128250000Y-145750000D03*
%TO.P,R39,2*%
%TO.N,+3.3V*%
X130250000Y-145750000D03*
%TD*%
D33*
%TO.P,C6,1*%
%TO.N,+12V*%
X96000000Y-107000000D03*
%TO.P,C6,2*%
%TO.N,GND*%
X96000000Y-109000000D03*
%TD*%
%TO.P,C10,1*%
%TO.N,+3.3V*%
X83000000Y-146000000D03*
%TO.P,C10,2*%
%TO.N,GND*%
X83000000Y-148000000D03*
%TD*%
D11*
%TO.P,R48,1*%
%TO.N,SCL2*%
X85000000Y-133000000D03*
%TO.P,R48,2*%
%TO.N,SCL2MC*%
X83000000Y-133000000D03*
%TD*%
D34*
%TO.P,TP4,1,1*%
%TO.N,SI2*%
X154250000Y-119000000D03*
%TD*%
D11*
%TO.P,R5,1*%
%TO.N,Net-(D9-A)*%
X86000000Y-93000000D03*
%TO.P,R5,2*%
%TO.N,GND*%
X84000000Y-93000000D03*
%TD*%
D30*
%TO.P,R38,1*%
%TO.N,SCL2*%
X128250000Y-147750000D03*
%TO.P,R38,2*%
%TO.N,+3.3V*%
X130250000Y-147750000D03*
%TD*%
%TO.P,R40,1*%
%TO.N,+3.3V*%
X57500000Y-126000000D03*
%TO.P,R40,2*%
%TO.N,SCL1*%
X59500000Y-126000000D03*
%TD*%
%TO.P,R41,1*%
%TO.N,+3.3V*%
X57500000Y-128000000D03*
%TO.P,R41,2*%
%TO.N,SDA1*%
X59500000Y-128000000D03*
%TD*%
%TO.P,R15,1*%
%TO.N,Net-(R15-Pad1)*%
X139750000Y-139250000D03*
%TO.P,R15,2*%
%TO.N,Cout+*%
X141750000Y-139250000D03*
%TD*%
D33*
%TO.P,C17,1*%
%TO.N,SI1*%
X65000000Y-99000000D03*
%TO.P,C17,2*%
%TO.N,GND*%
X65000000Y-101000000D03*
%TD*%
%TO.P,C12,1*%
%TO.N,+3.3V*%
X81000000Y-146000000D03*
%TO.P,C12,2*%
%TO.N,GND*%
X81000000Y-148000000D03*
%TD*%
D11*
%TO.P,R8,1*%
%TO.N,Net-(D10-A)*%
X102500000Y-73250000D03*
%TO.P,R8,2*%
%TO.N,Net-(D10-K)*%
X100500000Y-73250000D03*
%TD*%
D30*
%TO.P,C3,1*%
%TO.N,Net-(D6-K)*%
X88000000Y-99000000D03*
%TO.P,C3,2*%
%TO.N,Out+*%
X90000000Y-99000000D03*
%TD*%
D11*
%TO.P,R3,1*%
%TO.N,Net-(D9-A)*%
X86000000Y-89000000D03*
%TO.P,R3,2*%
%TO.N,Net-(D9-K)*%
X84000000Y-89000000D03*
%TD*%
D35*
%TO.P,C26,2*%
%TO.N,GND*%
X80500000Y-103500000D03*
%TO.P,C26,1*%
%TO.N,+5V*%
X80500000Y-105500000D03*
%TD*%
D33*
%TO.P,C14,1*%
%TO.N,+5V*%
X82000000Y-111000000D03*
%TO.P,C14,2*%
%TO.N,GND*%
X82000000Y-113000000D03*
%TD*%
D36*
%TO.P,J13,1,1*%
%TO.N,VUSB(5V)*%
X110550000Y-141950000D03*
%TO.P,J13,2,2*%
%TO.N,/USB_Connector/D-*%
X111350000Y-143150000D03*
%TO.P,J13,3,3*%
%TO.N,/USB_Connector/D+*%
X112150000Y-141950000D03*
%TO.P,J13,4,4*%
%TO.N,unconnected-(J13-Pad4)*%
X112950000Y-143150000D03*
%TO.P,J13,5,5*%
%TO.N,GND*%
X113750000Y-141950000D03*
D37*
%TO.P,J13,MH1,MH1*%
X108500000Y-147000000D03*
%TO.P,J13,MH2,MH2*%
X115800000Y-147000000D03*
%TD*%
D24*
%TO.P,J5,1,1*%
%TO.N,SCL2*%
X109980000Y-130810000D03*
%TO.P,J5,2,2*%
%TO.N,SDA2*%
X112520000Y-130810000D03*
%TD*%
D35*
%TO.P,R6,1*%
%TO.N,Net-(D7-A)*%
X119000000Y-94000000D03*
%TO.P,R6,2*%
%TO.N,GND*%
X119000000Y-92000000D03*
%TD*%
D10*
%TO.P,REF\u002A\u002A,1*%
%TO.N,N/C*%
X55000000Y-144500000D03*
%TD*%
D30*
%TO.P,R4,1*%
%TO.N,Net-(D8-A)*%
X89000000Y-75000000D03*
%TO.P,R4,2*%
%TO.N,Out+*%
X91000000Y-75000000D03*
%TD*%
D35*
%TO.P,C18,1*%
%TO.N,+3.3V*%
X74000000Y-83000000D03*
%TO.P,C18,2*%
%TO.N,GND*%
X74000000Y-81000000D03*
%TD*%
%TO.P,R46,1*%
%TO.N,SDA2*%
X119250000Y-136750000D03*
%TO.P,R46,2*%
%TO.N,SDA1*%
X119250000Y-134750000D03*
%TD*%
D38*
%TO.P,U2,1,LO*%
%TO.N,Net-(D9-K)*%
X93445000Y-103350000D03*
%TO.P,U2,2,COM*%
%TO.N,GND*%
X92175000Y-103350000D03*
%TO.P,U2,3,VCC*%
%TO.N,+12V*%
X90905000Y-103350000D03*
%TO.P,U2,4,NC*%
%TO.N,unconnected-(U2-NC-Pad4)*%
X89635000Y-103350000D03*
%TO.P,U2,5,NC*%
%TO.N,unconnected-(U2-NC-Pad5)*%
X88365000Y-103350000D03*
%TO.P,U2,6,VS*%
%TO.N,Out+*%
X87095000Y-103350000D03*
%TO.P,U2,7,VB*%
%TO.N,Net-(D6-K)*%
X85825000Y-103350000D03*
%TO.P,U2,8,HO*%
%TO.N,Net-(D8-K)*%
X84555000Y-103350000D03*
%TO.P,U2,9,NC*%
%TO.N,unconnected-(U2-NC-Pad9)*%
X84555000Y-112650000D03*
%TO.P,U2,10,NC*%
%TO.N,unconnected-(U2-NC-Pad10)*%
X85825000Y-112650000D03*
%TO.P,U2,11,VDD*%
%TO.N,+5V*%
X87095000Y-112650000D03*
%TO.P,U2,12,HIN*%
%TO.N,HIN2*%
X88365000Y-112650000D03*
%TO.P,U2,13,SD*%
%TO.N,GND*%
X89635000Y-112650000D03*
%TO.P,U2,14,LIN*%
%TO.N,LIN2*%
X90905000Y-112650000D03*
%TO.P,U2,15,VSS*%
%TO.N,GND*%
X92175000Y-112650000D03*
%TO.P,U2,16,NC*%
%TO.N,unconnected-(U2-NC-Pad16)*%
X93445000Y-112650000D03*
%TD*%
D30*
%TO.P,R30,1*%
%TO.N,Net-(Q8-E)*%
X88000000Y-143500000D03*
%TO.P,R30,2*%
%TO.N,Net-(Q7-B)*%
X90000000Y-143500000D03*
%TD*%
%TO.P,C15,1*%
%TO.N,+5V*%
X87250000Y-130000000D03*
%TO.P,C15,2*%
%TO.N,GND*%
X89250000Y-130000000D03*
%TD*%
D11*
%TO.P,R2,1*%
%TO.N,Net-(D8-A)*%
X87000000Y-70000000D03*
%TO.P,R2,2*%
%TO.N,Net-(D8-K)*%
X85000000Y-70000000D03*
%TD*%
D30*
%TO.P,R7,1*%
%TO.N,Net-(D10-A)*%
X109000000Y-75000000D03*
%TO.P,R7,2*%
%TO.N,Cout-*%
X111000000Y-75000000D03*
%TD*%
D33*
%TO.P,R14,1*%
%TO.N,Io0*%
X58000000Y-131000000D03*
%TO.P,R14,2*%
%TO.N,+3.3V*%
X58000000Y-133000000D03*
%TD*%
%TO.P,C25,1*%
%TO.N,+12V*%
X82000000Y-91000000D03*
%TO.P,C25,2*%
%TO.N,GND*%
X82000000Y-93000000D03*
%TD*%
D24*
%TO.P,J1,1,1*%
%TO.N,RX0*%
X54440000Y-135730000D03*
%TO.P,J1,2,2*%
%TO.N,TX0*%
X54440000Y-138270000D03*
%TD*%
D39*
%TO.P,U1,1,GND*%
%TO.N,GND*%
X78807500Y-148090000D03*
%TO.P,U1,2,VDD*%
%TO.N,+3.3V*%
X78807500Y-146820000D03*
%TO.P,U1,3,EN*%
%TO.N,EN*%
X78807500Y-145550000D03*
%TO.P,U1,4,SENSOR_VP*%
%TO.N,unconnected-(U1-SENSOR_VP-Pad4)*%
X78807500Y-144280000D03*
%TO.P,U1,5,SENSOR_VN*%
%TO.N,unconnected-(U1-SENSOR_VN-Pad5)*%
X78807500Y-143010000D03*
%TO.P,U1,6,IO34*%
%TO.N,unconnected-(U1-IO34-Pad6)*%
X78807500Y-141740000D03*
%TO.P,U1,7,IO35*%
%TO.N,unconnected-(U1-IO35-Pad7)*%
X78807500Y-140470000D03*
%TO.P,U1,8,IO32*%
%TO.N,SDA1*%
X78807500Y-139200000D03*
%TO.P,U1,9,IO33*%
%TO.N,SCL1*%
X78807500Y-137930000D03*
%TO.P,U1,10,IO25*%
%TO.N,DIO_0*%
X78807500Y-136660000D03*
%TO.P,U1,11,IO26*%
%TO.N,DIO_1*%
X78807500Y-135390000D03*
%TO.P,U1,12,IO27*%
%TO.N,unconnected-(U1-IO27-Pad12)*%
X78807500Y-134120000D03*
%TO.P,U1,13,IO14*%
%TO.N,LIN2*%
X78807500Y-132850000D03*
%TO.P,U1,14,IO12*%
%TO.N,unconnected-(U1-IO12-Pad14)*%
X78807500Y-131580000D03*
D40*
%TO.P,U1,15,GND*%
%TO.N,GND*%
X75767500Y-130330000D03*
%TO.P,U1,16,IO13*%
%TO.N,HIN2*%
X74497500Y-130330000D03*
%TO.P,U1,17,SHD/SD2*%
%TO.N,unconnected-(U1-SHD{slash}SD2-Pad17)*%
X73227500Y-130330000D03*
%TO.P,U1,18,SWP/SD3*%
%TO.N,unconnected-(U1-SWP{slash}SD3-Pad18)*%
X71957500Y-130330000D03*
%TO.P,U1,19,SCS/CMD*%
%TO.N,unconnected-(U1-SCS{slash}CMD-Pad19)*%
X70687500Y-130330000D03*
%TO.P,U1,20,SCK/CLK*%
%TO.N,unconnected-(U1-SCK{slash}CLK-Pad20)*%
X69417500Y-130330000D03*
%TO.P,U1,21,SDO/SD0*%
%TO.N,unconnected-(U1-SDO{slash}SD0-Pad21)*%
X68147500Y-130330000D03*
%TO.P,U1,22,SDI/SD1*%
%TO.N,unconnected-(U1-SDI{slash}SD1-Pad22)*%
X66877500Y-130330000D03*
%TO.P,U1,23,IO15*%
%TO.N,HIN1*%
X65607500Y-130330000D03*
%TO.P,U1,24,IO2*%
%TO.N,unconnected-(U1-IO2-Pad24)*%
X64337500Y-130330000D03*
D39*
%TO.P,U1,25,IO0*%
%TO.N,Io0*%
X61307500Y-131580000D03*
%TO.P,U1,26,IO4*%
%TO.N,unconnected-(U1-IO4-Pad26)*%
X61307500Y-132850000D03*
%TO.P,U1,27,IO16*%
%TO.N,LIN1*%
X61307500Y-134120000D03*
%TO.P,U1,28,IO17*%
%TO.N,SDA2MC*%
X61307500Y-135390000D03*
%TO.P,U1,29,IO5*%
%TO.N,unconnected-(U1-IO5-Pad29)*%
X61307500Y-136660000D03*
%TO.P,U1,30,IO18*%
%TO.N,SCL2MC*%
X61307500Y-137930000D03*
%TO.P,U1,31,IO19*%
%TO.N,unconnected-(U1-IO19-Pad31)*%
X61307500Y-139200000D03*
%TO.P,U1,32,NC*%
%TO.N,unconnected-(U1-NC-Pad32)*%
X61307500Y-140470000D03*
%TO.P,U1,33,IO21*%
%TO.N,unconnected-(U1-IO21-Pad33)*%
X61307500Y-141740000D03*
%TO.P,U1,34,RXD0/IO3*%
%TO.N,RX0*%
X61307500Y-143010000D03*
%TO.P,U1,35,TXD0/IO1*%
%TO.N,TX0*%
X61307500Y-144280000D03*
%TO.P,U1,36,IO22*%
%TO.N,unconnected-(U1-IO22-Pad36)*%
X61307500Y-145550000D03*
%TO.P,U1,37,IO23*%
%TO.N,unconnected-(U1-IO23-Pad37)*%
X61307500Y-146820000D03*
%TO.P,U1,38,GND*%
%TO.N,GND*%
X61307500Y-148090000D03*
D41*
%TO.P,U1,39,GND*%
X72262500Y-142275000D03*
D42*
X72262500Y-141512500D03*
D41*
X72262500Y-140750000D03*
D42*
X72262500Y-139987500D03*
D41*
X72262500Y-139225000D03*
D42*
X71500000Y-142275000D03*
X71500000Y-140750000D03*
X71500000Y-139225000D03*
D41*
X70737500Y-142275000D03*
D42*
X70737500Y-141512500D03*
D41*
X70737500Y-140750000D03*
D43*
X70737500Y-140750000D03*
D42*
X70737500Y-139987500D03*
D41*
X70737500Y-139225000D03*
D42*
X69975000Y-142275000D03*
X69975000Y-140750000D03*
X69975000Y-139225000D03*
D41*
X69212500Y-142275000D03*
D42*
X69212500Y-141512500D03*
D41*
X69212500Y-140750000D03*
D42*
X69212500Y-139987500D03*
D41*
X69212500Y-139225000D03*
%TD*%
D24*
%TO.P,J9,1,1*%
%TO.N,Net-(C16-Pad1)*%
X101250000Y-108250000D03*
%TO.P,J9,2,2*%
%TO.N,Cout-*%
X101250000Y-105710000D03*
%TD*%
D30*
%TO.P,C20,1*%
%TO.N,+3.3V*%
X87250000Y-148000000D03*
%TO.P,C20,2*%
%TO.N,GND*%
X89250000Y-148000000D03*
%TD*%
D35*
%TO.P,R47,1*%
%TO.N,SCL2*%
X117250000Y-136750000D03*
%TO.P,R47,2*%
%TO.N,SCL1*%
X117250000Y-134750000D03*
%TD*%
D26*
%TO.P,D10,1,K*%
%TO.N,Net-(D10-K)*%
X97750000Y-76750000D03*
%TO.P,D10,2,A*%
%TO.N,Net-(D10-A)*%
X102050000Y-76750000D03*
%TD*%
D24*
%TO.P,J2,1,1*%
%TO.N,HIN1*%
X67710000Y-124750000D03*
%TO.P,J2,2,2*%
%TO.N,LIN2*%
X70250000Y-124750000D03*
%TD*%
D44*
%TO.P,U7,1,GND*%
%TO.N,GND*%
X103475000Y-145445000D03*
%TO.P,U7,2,TXD*%
%TO.N,TX*%
X103475000Y-144175000D03*
%TO.P,U7,3,RXD*%
%TO.N,RX*%
X103475000Y-142905000D03*
%TO.P,U7,4,V3*%
%TO.N,+3.3V*%
X103475000Y-141635000D03*
%TO.P,U7,5,UD+*%
%TO.N,/USB_Connector/D+*%
X103475000Y-140365000D03*
%TO.P,U7,6,UD-*%
%TO.N,/USB_Connector/D-*%
X103475000Y-139095000D03*
%TO.P,U7,7,XI*%
%TO.N,unconnected-(U7-XI-Pad7)*%
X103475000Y-137825000D03*
%TO.P,U7,8,XO*%
%TO.N,unconnected-(U7-XO-Pad8)*%
X103475000Y-136555000D03*
%TO.P,U7,9,~{CTS}*%
%TO.N,unconnected-(U7-~{CTS}-Pad9)*%
X98525000Y-136555000D03*
%TO.P,U7,10,~{DSR}*%
%TO.N,unconnected-(U7-~{DSR}-Pad10)*%
X98525000Y-137825000D03*
%TO.P,U7,11,~{RI}*%
%TO.N,unconnected-(U7-~{RI}-Pad11)*%
X98525000Y-139095000D03*
%TO.P,U7,12,~{DCD}*%
%TO.N,unconnected-(U7-~{DCD}-Pad12)*%
X98525000Y-140365000D03*
%TO.P,U7,13,~{DTR}*%
%TO.N,Net-(Q7-E)*%
X98525000Y-141635000D03*
%TO.P,U7,14,~{RTS}*%
%TO.N,Net-(Q8-E)*%
X98525000Y-142905000D03*
%TO.P,U7,15,R232*%
%TO.N,unconnected-(U7-R232-Pad15)*%
X98525000Y-144175000D03*
%TO.P,U7,16,VCC*%
%TO.N,+3.3V*%
X98525000Y-145445000D03*
%TD*%
D45*
%TO.P,Q8,1,B*%
%TO.N,Net-(Q8-B)*%
X85500000Y-143950000D03*
%TO.P,Q8,2,E*%
%TO.N,Net-(Q8-E)*%
X85500000Y-142050000D03*
%TO.P,Q8,3,C*%
%TO.N,EN*%
X82500000Y-143000000D03*
%TD*%
D35*
%TO.P,LED2,1,K*%
%TO.N,Net-(LED2-K)*%
X79000000Y-116500000D03*
%TO.P,LED2,2,A*%
%TO.N,+12V*%
X79000000Y-114500000D03*
%TD*%
%TO.P,R29,1*%
%TO.N,GND*%
X77000000Y-120500000D03*
%TO.P,R29,2*%
%TO.N,Net-(LED3-K)*%
X77000000Y-118500000D03*
%TD*%
%TO.P,R28,1*%
%TO.N,GND*%
X79000000Y-120500000D03*
%TO.P,R28,2*%
%TO.N,Net-(LED2-K)*%
X79000000Y-118500000D03*
%TD*%
%TO.P,R27,1*%
%TO.N,GND*%
X75000000Y-120500000D03*
%TO.P,R27,2*%
%TO.N,Net-(LED1-K)*%
X75000000Y-118500000D03*
%TD*%
D45*
%TO.P,Q7,1,B*%
%TO.N,Net-(Q7-B)*%
X85500000Y-140450000D03*
%TO.P,Q7,2,E*%
%TO.N,Net-(Q7-E)*%
X85500000Y-138550000D03*
%TO.P,Q7,3,C*%
%TO.N,Io0*%
X82500000Y-139500000D03*
%TD*%
D30*
%TO.P,R16,1*%
%TO.N,Net-(R16-Pad1)*%
X139750000Y-136250000D03*
%TO.P,R16,2*%
%TO.N,SI2*%
X141750000Y-136250000D03*
%TD*%
D35*
%TO.P,LED3,1,K*%
%TO.N,Net-(LED3-K)*%
X77000000Y-116500000D03*
%TO.P,LED3,2,A*%
%TO.N,+5V*%
X77000000Y-114500000D03*
%TD*%
D38*
%TO.P,U3,1,LO*%
%TO.N,Net-(D7-K)*%
X93445000Y-118350000D03*
%TO.P,U3,2,COM*%
%TO.N,GND*%
X92175000Y-118350000D03*
%TO.P,U3,3,VCC*%
%TO.N,+12V*%
X90905000Y-118350000D03*
%TO.P,U3,4,NC*%
%TO.N,unconnected-(U3-NC-Pad4)*%
X89635000Y-118350000D03*
%TO.P,U3,5,NC*%
%TO.N,unconnected-(U3-NC-Pad5)*%
X88365000Y-118350000D03*
%TO.P,U3,6,VS*%
%TO.N,Cout-*%
X87095000Y-118350000D03*
%TO.P,U3,7,VB*%
%TO.N,Net-(D11-K)*%
X85825000Y-118350000D03*
%TO.P,U3,8,HO*%
%TO.N,Net-(D10-K)*%
X84555000Y-118350000D03*
%TO.P,U3,9,NC*%
%TO.N,unconnected-(U3-NC-Pad9)*%
X84555000Y-127650000D03*
%TO.P,U3,10,NC*%
%TO.N,unconnected-(U3-NC-Pad10)*%
X85825000Y-127650000D03*
%TO.P,U3,11,VDD*%
%TO.N,+5V*%
X87095000Y-127650000D03*
%TO.P,U3,12,HIN*%
%TO.N,HIN1*%
X88365000Y-127650000D03*
%TO.P,U3,13,SD*%
%TO.N,GND*%
X89635000Y-127650000D03*
%TO.P,U3,14,LIN*%
%TO.N,LIN1*%
X90905000Y-127650000D03*
%TO.P,U3,15,VSS*%
%TO.N,GND*%
X92175000Y-127650000D03*
%TO.P,U3,16,NC*%
%TO.N,unconnected-(U3-NC-Pad16)*%
X93445000Y-127650000D03*
%TD*%
D26*
%TO.P,D7,1,K*%
%TO.N,Net-(D7-K)*%
X100000000Y-91750000D03*
%TO.P,D7,2,A*%
%TO.N,Net-(D7-A)*%
X104300000Y-91750000D03*
%TD*%
D11*
%TO.P,R9,1*%
%TO.N,Net-(D7-A)*%
X101500000Y-95000000D03*
%TO.P,R9,2*%
%TO.N,Net-(D7-K)*%
X99500000Y-95000000D03*
%TD*%
%TO.P,R10,1*%
%TO.N,Net-(D11-A)*%
X99000000Y-128000000D03*
%TO.P,R10,2*%
%TO.N,+12V*%
X97000000Y-128000000D03*
%TD*%
%TO.P,C9,1*%
%TO.N,EN*%
X93000000Y-148000000D03*
%TO.P,C9,2*%
%TO.N,GND*%
X91000000Y-148000000D03*
%TD*%
D10*
%TO.P,REF\u002A\u002A,1*%
%TO.N,N/C*%
X55000000Y-44000000D03*
%TD*%
D34*
%TO.P,TP1,1,1*%
%TO.N,Net-(TP1-Pad1)*%
X56000000Y-66000000D03*
%TD*%
D30*
%TO.P,C27,1*%
%TO.N,+3.3V*%
X57500000Y-124000000D03*
%TO.P,C27,2*%
%TO.N,GND*%
X59500000Y-124000000D03*
%TD*%
D33*
%TO.P,C1,1*%
%TO.N,+12V*%
X96000000Y-121000000D03*
%TO.P,C1,2*%
%TO.N,GND*%
X96000000Y-123000000D03*
%TD*%
D24*
%TO.P,J3,1,1*%
%TO.N,LIN1*%
X77770000Y-125190000D03*
%TO.P,J3,2,2*%
%TO.N,HIN2*%
X75230000Y-125190000D03*
%TD*%
D46*
%TO.P,U6,1,ADJ/GND*%
%TO.N,GND*%
X61040000Y-104280000D03*
D47*
%TO.P,U6,2,OUT*%
%TO.N,+5V*%
X56415000Y-103525000D03*
X56415000Y-100475000D03*
D48*
X54740000Y-102000000D03*
D47*
X53065000Y-103525000D03*
X53065000Y-100475000D03*
D46*
%TO.P,U6,3,IN*%
%TO.N,SI1*%
X61040000Y-99720000D03*
%TD*%
D11*
%TO.P,R31,1*%
%TO.N,Net-(Q7-E)*%
X90500000Y-145500000D03*
%TO.P,R31,2*%
%TO.N,Net-(Q8-B)*%
X88500000Y-145500000D03*
%TD*%
D49*
%TO.P,C19,1*%
%TO.N,+3.3V*%
X128800000Y-143750000D03*
%TO.P,C19,2*%
%TO.N,GND*%
X130700000Y-143750000D03*
%TD*%
D35*
%TO.P,C24,1*%
%TO.N,+3.3V*%
X96250000Y-145250000D03*
%TO.P,C24,2*%
%TO.N,GND*%
X96250000Y-143250000D03*
%TD*%
D30*
%TO.P,C2,1*%
%TO.N,Net-(D6-K)*%
X88000000Y-97000000D03*
%TO.P,C2,2*%
%TO.N,Out+*%
X90000000Y-97000000D03*
%TD*%
D27*
%TO.P,C23,1*%
%TO.N,+3.3V*%
X54250000Y-118750000D03*
%TO.P,C23,2*%
%TO.N,GND*%
X59250000Y-118750000D03*
%TD*%
D30*
%TO.P,R44,1*%
%TO.N,Net-(IC5-VINP)*%
X135750000Y-136250000D03*
%TO.P,R44,2*%
%TO.N,Net-(R16-Pad1)*%
X137750000Y-136250000D03*
%TD*%
D35*
%TO.P,LED1,1,K*%
%TO.N,Net-(LED1-K)*%
X75000000Y-116500000D03*
%TO.P,LED1,2,A*%
%TO.N,+3.3V*%
X75000000Y-114500000D03*
%TD*%
D34*
%TO.P,TP3,1,1*%
%TO.N,Cout+*%
X154250000Y-107250000D03*
%TD*%
D11*
%TO.P,R24,1*%
%TO.N,RX*%
X92500000Y-137000000D03*
%TO.P,R24,2*%
%TO.N,TX0*%
X90500000Y-137000000D03*
%TD*%
D33*
%TO.P,R13,1*%
%TO.N,EN*%
X85000000Y-146000000D03*
%TO.P,R13,2*%
%TO.N,+3.3V*%
X85000000Y-148000000D03*
%TD*%
D50*
%TO.P,D6,1,K*%
%TO.N,Net-(D6-K)*%
X84000000Y-100150000D03*
%TO.P,D6,2,A*%
%TO.N,Net-(D6-A)*%
X84000000Y-95850000D03*
%TD*%
D34*
%TO.P,TP2,1,1*%
%TO.N,GND*%
X56000000Y-77000000D03*
%TD*%
D11*
%TO.P,R49,1*%
%TO.N,SDA2*%
X85000000Y-135000000D03*
%TO.P,R49,2*%
%TO.N,SDA2MC*%
X83000000Y-135000000D03*
%TD*%
D30*
%TO.P,C5,1*%
%TO.N,Net-(D11-K)*%
X100000000Y-118000000D03*
%TO.P,C5,2*%
%TO.N,Cout-*%
X102000000Y-118000000D03*
%TD*%
D51*
%TO.P,R42,1,1*%
%TO.N,SI1*%
X68950000Y-73000000D03*
%TO.P,R42,2,2*%
%TO.N,SO1*%
X75050000Y-73000000D03*
%TD*%
D33*
%TO.P,R1,1*%
%TO.N,Net-(D6-A)*%
X80750000Y-96000000D03*
%TO.P,R1,2*%
%TO.N,+12V*%
X80750000Y-98000000D03*
%TD*%
D26*
%TO.P,D8,1,K*%
%TO.N,Net-(D8-K)*%
X81850000Y-74000000D03*
%TO.P,D8,2,A*%
%TO.N,Net-(D8-A)*%
X86150000Y-74000000D03*
%TD*%
D30*
%TO.P,R43,1*%
%TO.N,GND*%
X135750000Y-139250000D03*
%TO.P,R43,2*%
%TO.N,Net-(R15-Pad1)*%
X137750000Y-139250000D03*
%TD*%
D24*
%TO.P,J12,1,1*%
%TO.N,DIO_0*%
X124270000Y-145690000D03*
%TO.P,J12,2,2*%
%TO.N,DIO_1*%
X121730000Y-145690000D03*
%TD*%
D50*
%TO.P,D11,1,K*%
%TO.N,Net-(D11-K)*%
X100000000Y-120850000D03*
%TO.P,D11,2,A*%
%TO.N,Net-(D11-A)*%
X100000000Y-125150000D03*
%TD*%
D30*
%TO.P,R45,1*%
%TO.N,Net-(IC5-VINP)*%
X135500000Y-141750000D03*
%TO.P,R45,2*%
%TO.N,GND*%
X137500000Y-141750000D03*
%TD*%
D24*
%TO.P,J15,1,1*%
%TO.N,+3.3V*%
X53310000Y-128520000D03*
%TO.P,J15,2,2*%
%TO.N,GND*%
X53310000Y-125980000D03*
%TD*%
D11*
%TO.P,R23,1*%
%TO.N,TX*%
X92500000Y-139000000D03*
%TO.P,R23,2*%
%TO.N,RX0*%
X90500000Y-139000000D03*
%TD*%
%TO.P,C21,1*%
%TO.N,SI1*%
X64500000Y-79250000D03*
%TO.P,C21,2*%
%TO.N,GND*%
X62500000Y-79250000D03*
%TD*%
D24*
%TO.P,J7,1,1*%
%TO.N,Cout+*%
X154770000Y-98940000D03*
%TO.P,J7,2,2*%
%TO.N,Net-(C16-Pad2)*%
X152230000Y-98940000D03*
%TD*%
D26*
%TO.P,D9,1,K*%
%TO.N,Net-(D9-K)*%
X82000000Y-85000000D03*
%TO.P,D9,2,A*%
%TO.N,Net-(D9-A)*%
X86300000Y-85000000D03*
%TD*%
D52*
%TO.P,D4,1,A*%
%TO.N,GND*%
X107550000Y-136000000D03*
D53*
%TO.P,D4,2,K*%
%TO.N,VUSB(5V)*%
X105850000Y-136000000D03*
%TO.P,D4,3,K*%
%TO.N,/USB_Connector/D-*%
X105850000Y-138000000D03*
%TO.P,D4,4,K*%
%TO.N,/USB_Connector/D+*%
X107750000Y-138000000D03*
%TD*%
D24*
%TO.P,J4,1,1*%
%TO.N,SCL1*%
X102460000Y-130750000D03*
%TO.P,J4,2,2*%
%TO.N,SDA1*%
X105000000Y-130750000D03*
%TD*%
D54*
%TO.P,C7,1*%
%TO.N,+5V*%
X75250000Y-102250000D03*
%TO.P,C7,2*%
%TO.N,GND*%
X75250000Y-97250000D03*
%TD*%
%TO.P,C8,1*%
%TO.N,+12V*%
X75250000Y-87250000D03*
%TO.P,C8,2*%
%TO.N,GND*%
X75250000Y-92250000D03*
%TD*%
D55*
%TO.N,SO1*%
X113500000Y-60250000D03*
%TO.N,Out+*%
X97000000Y-81200000D03*
%TO.N,Cout-*%
X112500000Y-81070000D03*
D56*
X100750000Y-114500000D03*
D55*
X111500000Y-103500000D03*
D57*
%TO.N,Out+*%
X152250000Y-80250000D03*
X132250000Y-72750000D03*
D58*
%TO.N,DIO_0*%
X122000000Y-138250000D03*
%TO.N,DIO_1*%
X120750000Y-138250000D03*
%TO.N,SCL2*%
X127000000Y-147750000D03*
X126000000Y-143250000D03*
%TO.N,SDA2*%
X127250000Y-142750000D03*
X127250000Y-145000000D03*
%TO.N,SCL2*%
X100250000Y-129500000D03*
D57*
%TO.N,GND*%
X74750000Y-55250000D03*
%TO.N,+12V*%
X79250000Y-110750000D03*
X85500000Y-106500000D03*
%TO.N,+5V*%
X71250000Y-102000000D03*
D56*
%TO.N,+3.3V*%
X54750000Y-116500000D03*
%TO.N,Net-(D13-K)*%
X68250000Y-109250000D03*
X63250000Y-106250000D03*
%TO.N,GND*%
X62000000Y-118750000D03*
X77000000Y-93750000D03*
X76750000Y-97750000D03*
X78500000Y-103500000D03*
X78000000Y-107750000D03*
%TO.N,Net-(D13-K)*%
X71750000Y-113000000D03*
X67000000Y-116250000D03*
%TO.N,Net-(IC1-CB)*%
X66000000Y-112750000D03*
X70000000Y-112750000D03*
%TO.N,GND*%
X59000000Y-122500000D03*
D57*
X54500000Y-107750000D03*
D56*
X67500000Y-108250000D03*
X62500000Y-81250000D03*
%TO.N,+12V*%
X94000000Y-107000000D03*
X91000000Y-116000000D03*
%TO.N,GND*%
X94250000Y-143250000D03*
D58*
X75500000Y-132500000D03*
D56*
X92000000Y-106000000D03*
D57*
X64000000Y-104000000D03*
D56*
X91000000Y-125000000D03*
D58*
X63500000Y-147500000D03*
D56*
X76500000Y-148000000D03*
X82000000Y-115000000D03*
D57*
X134500000Y-143750000D03*
X57100000Y-91000000D03*
D58*
X74750000Y-79000000D03*
D57*
X72000000Y-120750000D03*
D56*
X101000000Y-145250000D03*
D58*
X108750000Y-136000000D03*
D57*
X58000000Y-89000000D03*
D56*
X90000000Y-109000000D03*
X92000000Y-120000000D03*
D58*
X90250000Y-148000000D03*
D55*
%TO.N,Out+*%
X98000000Y-98000000D03*
D56*
%TO.N,Net-(D11-K)*%
X96000000Y-119000000D03*
X88000000Y-121000000D03*
D57*
%TO.N,+5V*%
X61000000Y-102000000D03*
%TO.N,+3.3V*%
X55250000Y-131750000D03*
X75000000Y-144000000D03*
D56*
X96250000Y-146750000D03*
X105000000Y-146750000D03*
X86000000Y-148000000D03*
X65000000Y-87000000D03*
D55*
%TO.N,SO1*%
X87525000Y-60525000D03*
D58*
%TO.N,/USB_Connector/D+*%
X105500000Y-140250000D03*
X111000000Y-140750000D03*
%TO.N,/USB_Connector/D-*%
X106000000Y-137000000D03*
%TO.N,Net-(D7-K)*%
X102000000Y-101000000D03*
X102000000Y-93000000D03*
D56*
%TO.N,Net-(D8-K)*%
X82000000Y-78000000D03*
X83000000Y-102000000D03*
%TO.N,Net-(D9-K)*%
X92000000Y-99000000D03*
X84000000Y-91000000D03*
%TO.N,Net-(D10-K)*%
X86000000Y-115000000D03*
X100000000Y-79000000D03*
D58*
%TO.N,SCL2*%
X118750000Y-133000000D03*
X121500000Y-136850000D03*
%TO.N,DIO_0*%
X77000000Y-136000000D03*
%TO.N,DIO_1*%
X77000000Y-135000000D03*
%TO.N,TX0*%
X88000000Y-140000000D03*
X71500000Y-147000000D03*
%TO.N,RX0*%
X71500000Y-146000000D03*
X89500000Y-139000000D03*
%TO.N,SDA1*%
X75000000Y-139000000D03*
X94500000Y-132500000D03*
X66000000Y-84000000D03*
X68000000Y-138000000D03*
X88000000Y-136000000D03*
X61000000Y-123000000D03*
X61000000Y-129250000D03*
%TO.N,SCL1*%
X88000000Y-135000000D03*
X90500000Y-132600000D03*
X67000000Y-83000000D03*
X68000000Y-137000000D03*
X62000000Y-123000000D03*
X75000000Y-138000000D03*
X60400000Y-125375000D03*
X63000000Y-128000000D03*
%TO.N,Net-(Q7-E)*%
X93750000Y-142000000D03*
X97000000Y-141250000D03*
%TO.N,Net-(Q8-E)*%
X87500000Y-142500000D03*
X89500000Y-141000000D03*
%TO.N,Io0*%
X63500000Y-141250000D03*
X74000000Y-145500000D03*
X59500000Y-136000000D03*
X80750000Y-143000000D03*
%TO.N,TX*%
X101750000Y-144000000D03*
X96750000Y-139000000D03*
%TO.N,RX*%
X101875000Y-142875000D03*
X96250000Y-138250000D03*
%TO.N,SCL2MC*%
X74000000Y-136000000D03*
X81000000Y-135000000D03*
%TO.N,SDA2MC*%
X69890000Y-135390000D03*
X80750000Y-141250000D03*
%TO.N,LIN2*%
X81000000Y-131000000D03*
D56*
X81000000Y-128000000D03*
D58*
X89500000Y-114250000D03*
%TO.N,HIN1*%
X87250000Y-125000000D03*
X83500000Y-127000000D03*
%TO.N,HIN2*%
X87000000Y-116000000D03*
X74500000Y-131750000D03*
%TO.N,LIN1*%
X90750000Y-130000000D03*
X75000000Y-134000000D03*
D56*
X82000000Y-127250000D03*
%TO.N,Cout-*%
X96000000Y-114000000D03*
%TD*%
D59*
%TO.N,Out+*%
X96540000Y-65030000D02*
X97500000Y-64070000D01*
X96540000Y-66210000D02*
X96540000Y-65030000D01*
D60*
%TO.N,Cout-*%
X113540000Y-66460000D02*
X114500000Y-65500000D01*
X113540000Y-67730000D02*
X113540000Y-66460000D01*
X111310000Y-65500000D02*
X114500000Y-65500000D01*
D59*
%TO.N,Cout+*%
X156690000Y-98940000D02*
X156750000Y-99000000D01*
X154770000Y-98940000D02*
X156690000Y-98940000D01*
%TO.N,Net-(C16-Pad1)*%
X105750000Y-108250000D02*
X107750000Y-110250000D01*
X101250000Y-108250000D02*
X105750000Y-108250000D01*
%TO.N,Cout-*%
X101250000Y-105710000D02*
X109290000Y-105710000D01*
X109290000Y-105710000D02*
X111500000Y-103500000D01*
%TO.N,Net-(C16-Pad2)*%
X145250000Y-110250000D02*
X145250000Y-102500000D01*
X148810000Y-98940000D02*
X145250000Y-102500000D01*
X152230000Y-98940000D02*
X148810000Y-98940000D01*
D61*
%TO.N,SI1*%
X63750001Y-76144999D02*
X65000000Y-74895000D01*
X63750001Y-78349571D02*
X63750001Y-76144999D01*
X63750001Y-89915001D02*
X67375000Y-93540000D01*
X63750001Y-80150429D02*
X63750001Y-89915001D01*
X64500000Y-79099570D02*
X63750001Y-78349571D01*
X64500000Y-79250000D02*
X64500000Y-79099570D01*
X64500000Y-79250000D02*
X64500000Y-79400430D01*
X64500000Y-79400430D02*
X63750001Y-80150429D01*
D59*
%TO.N,Out+*%
X97500000Y-64070000D02*
X101985000Y-64070000D01*
X95280000Y-64950000D02*
X96160000Y-64070000D01*
X96160000Y-64070000D02*
X97500000Y-64070000D01*
D61*
X100015000Y-64070000D02*
X97500000Y-64070000D01*
D59*
%TO.N,GND*%
X95540000Y-88760000D02*
X95540000Y-94000000D01*
X94280000Y-87500000D02*
X95540000Y-88760000D01*
D62*
%TO.N,SO1*%
X99880000Y-59200000D02*
X109030000Y-59200000D01*
X99330000Y-58650000D02*
X99880000Y-59200000D01*
D60*
%TO.N,Cout-*%
X113540000Y-67730000D02*
X111310000Y-65500000D01*
X113540000Y-71810000D02*
X113540000Y-67730000D01*
D59*
X117970000Y-64000000D02*
X116000000Y-64000000D01*
X114500000Y-65500000D02*
X116000000Y-64000000D01*
D61*
%TO.N,Net-(D10-A)*%
X109000000Y-72350000D02*
X108460000Y-71810000D01*
X109000000Y-75000000D02*
X109000000Y-72350000D01*
X102500000Y-73250000D02*
X103600000Y-73250000D01*
X103600000Y-73250000D02*
X106750000Y-70100000D01*
D63*
%TO.N,Net-(D10-K)*%
X100000000Y-79000000D02*
X97750000Y-76750000D01*
D61*
X100500000Y-74000000D02*
X97750000Y-76750000D01*
X100500000Y-73250000D02*
X100500000Y-74000000D01*
%TO.N,Net-(D10-A)*%
X102500000Y-76300000D02*
X102050000Y-76750000D01*
X102500000Y-73250000D02*
X102500000Y-76300000D01*
X106750000Y-70100000D02*
X108460000Y-71810000D01*
X106750000Y-65500000D02*
X106750000Y-70100000D01*
D60*
%TO.N,SO1*%
X113500000Y-60250000D02*
X110080000Y-60250000D01*
X110080000Y-60250000D02*
X109030000Y-59200000D01*
X113500000Y-60250000D02*
X116985000Y-60250000D01*
%TO.N,Cout-*%
X113540000Y-74460000D02*
X113540000Y-71810000D01*
X108030000Y-80150000D02*
X108030000Y-79970000D01*
X108030000Y-79970000D02*
X113540000Y-74460000D01*
X112500000Y-81070000D02*
X116000000Y-81070000D01*
X108950000Y-81070000D02*
X108030000Y-80150000D01*
X116000000Y-81070000D02*
X108950000Y-81070000D01*
%TO.N,Out+*%
X97000000Y-81200000D02*
X92000000Y-81200000D01*
X99050000Y-83250000D02*
X97000000Y-81200000D01*
X99985000Y-83250000D02*
X99050000Y-83250000D01*
D59*
%TO.N,GND*%
X115015000Y-84820000D02*
X116985000Y-84820000D01*
X113385000Y-86450000D02*
X115015000Y-84820000D01*
X110310000Y-86450000D02*
X113385000Y-86450000D01*
X99000000Y-87000000D02*
X100970000Y-87000000D01*
X94280000Y-87500000D02*
X98500000Y-87500000D01*
X98500000Y-87500000D02*
X99000000Y-87000000D01*
D63*
%TO.N,Net-(D7-A)*%
X104300000Y-87900000D02*
X105750000Y-86450000D01*
X104300000Y-91750000D02*
X104300000Y-87900000D01*
%TO.N,Net-(D7-K)*%
X101250000Y-93000000D02*
X100000000Y-91750000D01*
X101500000Y-93000000D02*
X101250000Y-93000000D01*
X102000000Y-93000000D02*
X101500000Y-93000000D01*
X101500000Y-93000000D02*
X99500000Y-95000000D01*
%TO.N,Net-(D7-A)*%
X104575000Y-93675000D02*
X103925000Y-93675000D01*
X104625000Y-93625000D02*
X104575000Y-93675000D01*
X102600000Y-95000000D02*
X103925000Y-93675000D01*
X104625000Y-93625000D02*
X104300000Y-93300000D01*
X106250000Y-95250000D02*
X104625000Y-93625000D01*
X103925000Y-93675000D02*
X104300000Y-93300000D01*
X101500000Y-95000000D02*
X102600000Y-95000000D01*
X108920000Y-92560000D02*
X105110000Y-92560000D01*
X105110000Y-92560000D02*
X104300000Y-91750000D01*
X104300000Y-93300000D02*
X104300000Y-91750000D01*
X117750000Y-95250000D02*
X106250000Y-95250000D01*
X119000000Y-94000000D02*
X117750000Y-95250000D01*
%TO.N,GND*%
X118440000Y-92560000D02*
X119000000Y-92000000D01*
X114000000Y-92560000D02*
X118440000Y-92560000D01*
X116985000Y-86985000D02*
X116985000Y-84820000D01*
X119000000Y-92000000D02*
X119000000Y-89000000D01*
X119000000Y-89000000D02*
X116985000Y-86985000D01*
%TO.N,Cout+*%
X159250000Y-112250000D02*
X154250000Y-107250000D01*
X159250000Y-121750000D02*
X159250000Y-112250000D01*
X141750000Y-139250000D02*
X159250000Y-121750000D01*
%TO.N,SI2*%
X141750000Y-133864000D02*
X135943000Y-128057000D01*
X141750000Y-136250000D02*
X141750000Y-133864000D01*
D62*
X135943000Y-128057000D02*
X145000000Y-119000000D01*
X145000000Y-119000000D02*
X154250000Y-119000000D01*
X132195000Y-128057000D02*
X135943000Y-128057000D01*
D63*
%TO.N,Cout-*%
X102000000Y-115750000D02*
X100750000Y-114500000D01*
X102000000Y-116000000D02*
X102000000Y-115750000D01*
D61*
X104000000Y-118000000D02*
X106250000Y-120250000D01*
X102000000Y-118000000D02*
X104000000Y-118000000D01*
D64*
X108250000Y-126000000D02*
X117750000Y-126000000D01*
X106250000Y-120250000D02*
X106250000Y-124000000D01*
X119807000Y-128057000D02*
X124575000Y-128057000D01*
X112000000Y-114500000D02*
X106250000Y-120250000D01*
X106250000Y-124000000D02*
X108250000Y-126000000D01*
X112000000Y-104000000D02*
X112000000Y-114500000D01*
X117750000Y-126000000D02*
X119807000Y-128057000D01*
X111500000Y-103500000D02*
X112000000Y-104000000D01*
%TO.N,Cout+*%
X156750000Y-99000000D02*
X156750000Y-104750000D01*
X156750000Y-93000000D02*
X156750000Y-99000000D01*
X156750000Y-104750000D02*
X154250000Y-107250000D01*
X146750000Y-68250000D02*
X146750000Y-83000000D01*
X146750000Y-83000000D02*
X156750000Y-93000000D01*
D61*
%TO.N,Out+*%
X131000000Y-71500000D02*
X132250000Y-72750000D01*
%TO.N,Net-(C13-Pad1)*%
X154750000Y-77000000D02*
X156500000Y-77000000D01*
%TO.N,Cout+*%
X152750000Y-74670000D02*
X152750000Y-77000000D01*
X154480000Y-72940000D02*
X152750000Y-74670000D01*
X151440000Y-72940000D02*
X146750000Y-68250000D01*
X154480000Y-72940000D02*
X151440000Y-72940000D01*
%TO.N,Out+*%
X158500000Y-74420000D02*
X157020000Y-72940000D01*
X158500000Y-77000000D02*
X158500000Y-74420000D01*
X157750000Y-80250000D02*
X158500000Y-79500000D01*
X152250000Y-80250000D02*
X157750000Y-80250000D01*
X158500000Y-79500000D02*
X158500000Y-77000000D01*
X131000000Y-71500000D02*
X127750000Y-68250000D01*
D64*
X127750000Y-95250000D02*
X127750000Y-68250000D01*
X124500000Y-98500000D02*
X127750000Y-95250000D01*
D63*
%TO.N,Net-(D7-K)*%
X98250000Y-113545000D02*
X98250000Y-104750000D01*
X98250000Y-104750000D02*
X102000000Y-101000000D01*
X93445000Y-118350000D02*
X98250000Y-113545000D01*
D60*
%TO.N,Out+*%
X96540000Y-71810000D02*
X96540000Y-72960000D01*
X92000000Y-79000000D02*
X92000000Y-81200000D01*
X94500000Y-76500000D02*
X92000000Y-79000000D01*
X94500000Y-75000000D02*
X94500000Y-76500000D01*
D63*
X94500000Y-75000000D02*
X91000000Y-75000000D01*
D60*
X96540000Y-72960000D02*
X94500000Y-75000000D01*
D63*
%TO.N,Net-(IC5-VINP)*%
X132195000Y-139805000D02*
X132195000Y-139943000D01*
X135750000Y-136250000D02*
X132195000Y-139805000D01*
X134002000Y-141750000D02*
X132195000Y-139943000D01*
X135500000Y-141750000D02*
X134002000Y-141750000D01*
%TO.N,GND*%
X135750000Y-140000000D02*
X137500000Y-141750000D01*
X135750000Y-139250000D02*
X135750000Y-140000000D01*
D61*
X137500000Y-142450000D02*
X137500000Y-141750000D01*
X136200000Y-143750000D02*
X137500000Y-142450000D01*
X134500000Y-143750000D02*
X136200000Y-143750000D01*
D65*
%TO.N,DIO_0*%
X124000000Y-137750000D02*
X122500000Y-137750000D01*
X124575000Y-138325000D02*
X124000000Y-137750000D01*
X122500000Y-137750000D02*
X122000000Y-138250000D01*
X124575000Y-139943000D02*
X124575000Y-138325000D01*
%TO.N,DIO_1*%
X122443000Y-139943000D02*
X120750000Y-138250000D01*
X123305000Y-139943000D02*
X122443000Y-139943000D01*
X123305000Y-144115000D02*
X121730000Y-145690000D01*
X123305000Y-139943000D02*
X123305000Y-144115000D01*
%TO.N,DIO_0*%
X124575000Y-145385000D02*
X124270000Y-145690000D01*
X124575000Y-139943000D02*
X124575000Y-145385000D01*
%TO.N,SCL2*%
X127000000Y-147750000D02*
X128250000Y-147750000D01*
X125845000Y-143095000D02*
X126000000Y-143250000D01*
X125845000Y-139943000D02*
X125845000Y-143095000D01*
%TO.N,SDA2*%
X127250000Y-145500000D02*
X127500000Y-145750000D01*
X127250000Y-145000000D02*
X127250000Y-145500000D01*
X127500000Y-145750000D02*
X128250000Y-145750000D01*
X127115000Y-142615000D02*
X127250000Y-142750000D01*
X127115000Y-139943000D02*
X127115000Y-142615000D01*
D63*
%TO.N,+3.3V*%
X127000000Y-143750000D02*
X128800000Y-143750000D01*
X119500000Y-147500000D02*
X126250000Y-147500000D01*
X126250000Y-147500000D02*
X126250000Y-144500000D01*
X107750000Y-144500000D02*
X116500000Y-144500000D01*
X116500000Y-144500000D02*
X119500000Y-147500000D01*
X126250000Y-144500000D02*
X127000000Y-143750000D01*
X105000000Y-146750000D02*
X105500000Y-146750000D01*
X105500000Y-146750000D02*
X107750000Y-144500000D01*
D65*
X130250000Y-147750000D02*
X130250000Y-145750000D01*
D63*
X128800000Y-144300000D02*
X130250000Y-145750000D01*
X128800000Y-143750000D02*
X128800000Y-144300000D01*
D65*
%TO.N,SCL2*%
X99000000Y-130750000D02*
X100250000Y-129500000D01*
X94250000Y-130750000D02*
X99000000Y-130750000D01*
%TO.N,SDA2*%
X112520000Y-129270000D02*
X112520000Y-130810000D01*
X99500000Y-131500000D02*
X102500000Y-128500000D01*
X111750000Y-128500000D02*
X112520000Y-129270000D01*
X94000000Y-132000000D02*
X94500000Y-131500000D01*
X88000000Y-132000000D02*
X94000000Y-132000000D01*
X102500000Y-128500000D02*
X111750000Y-128500000D01*
X85000000Y-135000000D02*
X88000000Y-132000000D01*
X94500000Y-131500000D02*
X99500000Y-131500000D01*
X113000000Y-131290000D02*
X112520000Y-130810000D01*
X113000000Y-132000000D02*
X113000000Y-131290000D01*
X113250000Y-132250000D02*
X113000000Y-132000000D01*
X121292514Y-134693985D02*
X118848529Y-132250000D01*
X123275985Y-134693985D02*
X121292514Y-134693985D01*
X118848529Y-132250000D02*
X113250000Y-132250000D01*
X124832000Y-136250000D02*
X123275985Y-134693985D01*
%TO.N,SCL2*%
X109980000Y-131480000D02*
X109980000Y-130810000D01*
X118500000Y-132750000D02*
X111250000Y-132750000D01*
X118750000Y-133000000D02*
X118500000Y-132750000D01*
X111250000Y-132750000D02*
X109980000Y-131480000D01*
%TO.N,SDA1*%
X106250000Y-133250000D02*
X105000000Y-132000000D01*
X105000000Y-132000000D02*
X105000000Y-130750000D01*
X119250000Y-134750000D02*
X117750000Y-133250000D01*
X117750000Y-133250000D02*
X106250000Y-133250000D01*
%TO.N,SCL1*%
X102460000Y-132710000D02*
X102460000Y-130750000D01*
X103500000Y-133750000D02*
X102460000Y-132710000D01*
X117000000Y-133750000D02*
X103500000Y-133750000D01*
X117250000Y-134000000D02*
X117000000Y-133750000D01*
X117250000Y-134750000D02*
X117250000Y-134000000D01*
D61*
%TO.N,GND*%
X77250000Y-55250000D02*
X74750000Y-55250000D01*
%TO.N,Net-(D12-A)*%
X82200000Y-55250000D02*
X79250000Y-55250000D01*
%TO.N,SO1*%
X86000000Y-55250000D02*
X89400000Y-58650000D01*
X85000000Y-55250000D02*
X86000000Y-55250000D01*
D63*
%TO.N,+12V*%
X85500000Y-106500000D02*
X87000000Y-105000000D01*
X87000000Y-105000000D02*
X89000000Y-105000000D01*
X84000000Y-105000000D02*
X87000000Y-105000000D01*
X79000000Y-111000000D02*
X79250000Y-110750000D01*
X79000000Y-114500000D02*
X79000000Y-111000000D01*
%TO.N,+5V*%
X77000000Y-111000000D02*
X80500000Y-107500000D01*
X77000000Y-114500000D02*
X77000000Y-111000000D01*
X80500000Y-107500000D02*
X80500000Y-105500000D01*
X80500000Y-109500000D02*
X80500000Y-107500000D01*
X80500000Y-120030002D02*
X80500000Y-109500000D01*
D61*
X75000000Y-102000000D02*
X75250000Y-102250000D01*
X71250000Y-102000000D02*
X75000000Y-102000000D01*
D63*
%TO.N,+3.3V*%
X54750000Y-118250000D02*
X54250000Y-118750000D01*
X54750000Y-116500000D02*
X54750000Y-118250000D01*
%TO.N,Net-(D13-K)*%
X69850000Y-109250000D02*
X71350000Y-107750000D01*
X68250000Y-109250000D02*
X69850000Y-109250000D01*
X63922000Y-105578000D02*
X63250000Y-106250000D01*
X64690000Y-105578000D02*
X63922000Y-105578000D01*
%TO.N,GND*%
X59250000Y-118750000D02*
X62000000Y-118750000D01*
D61*
%TO.N,+3.3V*%
X66000000Y-121450000D02*
X70200000Y-117250000D01*
X56950000Y-121450000D02*
X66000000Y-121450000D01*
X54250000Y-118750000D02*
X56950000Y-121450000D01*
D63*
%TO.N,+12V*%
X72500000Y-94500000D02*
X67375000Y-89375000D01*
X67375000Y-89375000D02*
X67375000Y-88460000D01*
X80118629Y-98000000D02*
X76618629Y-94500000D01*
X76618629Y-94500000D02*
X72500000Y-94500000D01*
X80750000Y-98000000D02*
X80118629Y-98000000D01*
X68585000Y-87250000D02*
X67375000Y-88460000D01*
X75250000Y-87250000D02*
X68585000Y-87250000D01*
X79000000Y-91000000D02*
X75250000Y-87250000D01*
X82000000Y-91000000D02*
X79000000Y-91000000D01*
%TO.N,GND*%
X77750000Y-93000000D02*
X77000000Y-93750000D01*
X82000000Y-93000000D02*
X77750000Y-93000000D01*
X75500000Y-92250000D02*
X77000000Y-93750000D01*
X75250000Y-92250000D02*
X75500000Y-92250000D01*
X76250000Y-97250000D02*
X76750000Y-97750000D01*
X75250000Y-97250000D02*
X76250000Y-97250000D01*
%TO.N,+5V*%
X78500000Y-105500000D02*
X80500000Y-105500000D01*
X75250000Y-102250000D02*
X78500000Y-105500000D01*
%TO.N,GND*%
X80500000Y-103500000D02*
X78500000Y-103500000D01*
X75650000Y-107750000D02*
X78000000Y-107750000D01*
%TO.N,Net-(D13-K)*%
X72750000Y-109150000D02*
X71350000Y-107750000D01*
X72750000Y-111250000D02*
X72750000Y-109150000D01*
X71750000Y-112250000D02*
X72750000Y-111250000D01*
X71750000Y-113000000D02*
X71750000Y-112250000D01*
X66000000Y-117250000D02*
X67000000Y-116250000D01*
X63800000Y-117250000D02*
X66000000Y-117250000D01*
%TO.N,Net-(IC1-CB)*%
X70750000Y-112000000D02*
X70750000Y-111250000D01*
X70000000Y-112750000D02*
X70750000Y-112000000D01*
X65176000Y-112750000D02*
X66000000Y-112750000D01*
X64690000Y-112264000D02*
X65176000Y-112750000D01*
X64690000Y-111000000D02*
X64690000Y-112264000D01*
D61*
%TO.N,+3.3V*%
X68500000Y-115550000D02*
X68500000Y-111000000D01*
X70200000Y-117250000D02*
X68500000Y-115550000D01*
D63*
X72250000Y-117250000D02*
X75000000Y-114500000D01*
X70200000Y-117250000D02*
X72250000Y-117250000D01*
%TO.N,GND*%
X59500000Y-123000000D02*
X59000000Y-122500000D01*
X59500000Y-124000000D02*
X59500000Y-123000000D01*
D61*
%TO.N,+3.3V*%
X54250000Y-123000000D02*
X54250000Y-118750000D01*
X55250000Y-124000000D02*
X54250000Y-123000000D01*
X55250000Y-124750000D02*
X55250000Y-124000000D01*
X55250000Y-126000000D02*
X55250000Y-124750000D01*
%TO.N,GND*%
X53575000Y-108675000D02*
X54500000Y-107750000D01*
X53575000Y-110000000D02*
X53575000Y-108675000D01*
D63*
X67230000Y-107980000D02*
X67500000Y-108250000D01*
X67230000Y-105578000D02*
X67230000Y-107980000D01*
D61*
%TO.N,SI1*%
X63000000Y-110000000D02*
X58575000Y-110000000D01*
X66000000Y-107000000D02*
X63000000Y-110000000D01*
X66000000Y-103860000D02*
X66000000Y-107000000D01*
X67375000Y-102485000D02*
X66000000Y-103860000D01*
X67375000Y-93540000D02*
X67375000Y-102485000D01*
D63*
%TO.N,+5V*%
X87095000Y-126625001D02*
X85734999Y-125265001D01*
X87095000Y-127650000D02*
X87095000Y-126625001D01*
X85734999Y-125265001D02*
X80500000Y-120030002D01*
X81000000Y-106000000D02*
X80500000Y-105500000D01*
X81469999Y-106000000D02*
X81000000Y-106000000D01*
%TO.N,+12V*%
X80750000Y-101750000D02*
X84000000Y-105000000D01*
X80750000Y-98000000D02*
X80750000Y-101750000D01*
%TO.N,Net-(D6-A)*%
X80750000Y-96000000D02*
X83850000Y-96000000D01*
X83850000Y-96000000D02*
X84000000Y-95850000D01*
X83900000Y-95750000D02*
X84000000Y-95850000D01*
%TO.N,GND*%
X62500000Y-79250000D02*
X62500000Y-81250000D01*
%TO.N,+12V*%
X94000000Y-107000000D02*
X96000000Y-107000000D01*
X97150000Y-127850000D02*
X97000000Y-128000000D01*
X94000000Y-121000000D02*
X93000000Y-122000000D01*
X96000000Y-121000000D02*
X94000000Y-121000000D01*
X90279999Y-105000000D02*
X90905000Y-104374999D01*
X90905000Y-104374999D02*
X90905000Y-103350000D01*
X92000000Y-122000000D02*
X90905000Y-120905000D01*
X90905000Y-118350000D02*
X90905000Y-116095000D01*
X97150000Y-122150000D02*
X97150000Y-127850000D01*
X90905000Y-116095000D02*
X91000000Y-116000000D01*
X94000000Y-107000000D02*
X91000000Y-107000000D01*
X93000000Y-122000000D02*
X92000000Y-122000000D01*
X91000000Y-107000000D02*
X89000000Y-105000000D01*
X96000000Y-121000000D02*
X97150000Y-122150000D01*
X90905000Y-120905000D02*
X90905000Y-118350000D01*
X89000000Y-105000000D02*
X90279999Y-105000000D01*
D65*
%TO.N,GND*%
X69500000Y-80500000D02*
X68000000Y-79000000D01*
D63*
X89635000Y-109365000D02*
X90000000Y-109000000D01*
X96250000Y-143250000D02*
X94250000Y-143250000D01*
D61*
X61040000Y-104280000D02*
X63720000Y-104280000D01*
D63*
X89635000Y-127650000D02*
X89635000Y-126365000D01*
D65*
X107550000Y-136000000D02*
X108750000Y-136000000D01*
D63*
X78750000Y-148135000D02*
X80865000Y-148135000D01*
D61*
X130700000Y-143750000D02*
X130850000Y-143600000D01*
D63*
X96000000Y-123000000D02*
X93000000Y-123000000D01*
X93000000Y-123000000D02*
X92000000Y-124000000D01*
X91000000Y-110000000D02*
X92175000Y-111175000D01*
D61*
X130850000Y-143600000D02*
X134350000Y-143600000D01*
D63*
X75000000Y-120500000D02*
X77000000Y-120500000D01*
D61*
X57100000Y-89900000D02*
X58000000Y-89000000D01*
D65*
X90250000Y-148000000D02*
X91000000Y-148000000D01*
D61*
X64000000Y-102000000D02*
X65000000Y-101000000D01*
D63*
X83000000Y-148000000D02*
X81000000Y-148000000D01*
X92175000Y-105825000D02*
X92000000Y-106000000D01*
D61*
X57100000Y-91000000D02*
X57100000Y-89900000D01*
D63*
X84000000Y-93000000D02*
X82000000Y-93000000D01*
D65*
X62865000Y-148135000D02*
X63500000Y-147500000D01*
D63*
X79000000Y-120500000D02*
X77000000Y-120500000D01*
X92175000Y-126175000D02*
X91000000Y-125000000D01*
X89635000Y-112650000D02*
X89635000Y-109365000D01*
D61*
X63720000Y-104280000D02*
X64000000Y-104000000D01*
D63*
X82000000Y-113000000D02*
X82000000Y-115000000D01*
D65*
X75710000Y-130375000D02*
X75710000Y-132290000D01*
X61250000Y-148135000D02*
X62865000Y-148135000D01*
X74000000Y-79750000D02*
X74750000Y-79000000D01*
X66800000Y-79000000D02*
X66800000Y-79500000D01*
X73500000Y-80500000D02*
X74000000Y-81000000D01*
D63*
X89635000Y-129615000D02*
X89250000Y-130000000D01*
X92175000Y-118350000D02*
X92175000Y-119825000D01*
X92175000Y-119825000D02*
X92000000Y-120000000D01*
D65*
X71200000Y-80500000D02*
X69500000Y-80500000D01*
D63*
X101195000Y-145445000D02*
X101000000Y-145250000D01*
D65*
X71200000Y-80500000D02*
X73500000Y-80500000D01*
D63*
X76635000Y-148135000D02*
X76500000Y-148000000D01*
D61*
X130925000Y-143525000D02*
X130700000Y-143750000D01*
X134350000Y-143600000D02*
X134500000Y-143750000D01*
X130925000Y-139943000D02*
X129655000Y-139943000D01*
D63*
X80865000Y-148135000D02*
X81000000Y-148000000D01*
X72000000Y-120750000D02*
X72250000Y-120500000D01*
D65*
X74000000Y-81000000D02*
X74000000Y-79750000D01*
D63*
X103475000Y-145445000D02*
X101195000Y-145445000D01*
X90000000Y-109000000D02*
X91000000Y-110000000D01*
D65*
X89250000Y-148000000D02*
X90250000Y-148000000D01*
D63*
X94350000Y-109000000D02*
X96000000Y-109000000D01*
X92175000Y-103350000D02*
X92175000Y-105825000D01*
D61*
X64000000Y-104000000D02*
X64000000Y-102000000D01*
D63*
X78750000Y-148135000D02*
X76635000Y-148135000D01*
X92175000Y-111175000D02*
X94350000Y-109000000D01*
X89635000Y-126365000D02*
X91000000Y-125000000D01*
D65*
X75710000Y-132290000D02*
X75500000Y-132500000D01*
X68000000Y-79000000D02*
X66800000Y-79000000D01*
D63*
X92000000Y-124000000D02*
X91000000Y-125000000D01*
X89635000Y-127650000D02*
X89635000Y-129615000D01*
D61*
X130925000Y-139943000D02*
X130925000Y-143525000D01*
D60*
X58000000Y-79000000D02*
X56000000Y-77000000D01*
D63*
X92175000Y-111175000D02*
X92175000Y-112650000D01*
D60*
X58000000Y-89000000D02*
X58000000Y-79000000D01*
D63*
X72250000Y-120500000D02*
X75000000Y-120500000D01*
X92175000Y-127650000D02*
X92175000Y-126175000D01*
%TO.N,Out+*%
X90000000Y-97000000D02*
X90000000Y-99000000D01*
X90000000Y-97000000D02*
X90600000Y-97000000D01*
X90600000Y-97000000D02*
X93000000Y-94600000D01*
D64*
X98225000Y-98500000D02*
X124500000Y-98500000D01*
D61*
X101985000Y-64070000D02*
X100015000Y-64070000D01*
D63*
X90000000Y-99000000D02*
X87095000Y-101905000D01*
D60*
X96540000Y-66210000D02*
X96540000Y-71810000D01*
D63*
X93000000Y-94600000D02*
X93000000Y-94000000D01*
D60*
X95280000Y-64950000D02*
X96540000Y-66210000D01*
D63*
X87095000Y-101905000D02*
X87095000Y-103350000D01*
D64*
X98000000Y-98275000D02*
X98225000Y-98500000D01*
D63*
%TO.N,Net-(D6-K)*%
X84000000Y-100150000D02*
X85825000Y-101975000D01*
X85825000Y-101975000D02*
X85825000Y-103350000D01*
X88000000Y-97000000D02*
X87550000Y-97450000D01*
X88000000Y-99000000D02*
X88000000Y-97000000D01*
X87550000Y-97450000D02*
X86700000Y-97450000D01*
X86700000Y-97450000D02*
X84000000Y-100150000D01*
%TO.N,Net-(D11-K)*%
X87000000Y-121000000D02*
X85825000Y-119825000D01*
X100000000Y-120850000D02*
X100000000Y-118000000D01*
X97000000Y-118000000D02*
X96000000Y-119000000D01*
X100000000Y-118000000D02*
X97000000Y-118000000D01*
X85825000Y-119825000D02*
X85825000Y-118350000D01*
X100000000Y-116000000D02*
X100000000Y-118000000D01*
X88000000Y-121000000D02*
X87000000Y-121000000D01*
%TO.N,+5V*%
X87095000Y-129845000D02*
X87250000Y-130000000D01*
D61*
X54740000Y-102000000D02*
X61000000Y-102000000D01*
D63*
X84000000Y-110000000D02*
X83000000Y-111000000D01*
X83000000Y-111000000D02*
X82000000Y-111000000D01*
X87095000Y-112650000D02*
X87095000Y-111625001D01*
X83235000Y-107765000D02*
X84000000Y-108530000D01*
X84000000Y-108530000D02*
X84000000Y-110000000D01*
X87095000Y-127650000D02*
X87095000Y-129845000D01*
X83235000Y-107765000D02*
X81469999Y-106000000D01*
X87095000Y-111625001D02*
X83235000Y-107765000D01*
D65*
%TO.N,EN*%
X87000000Y-146500000D02*
X86500000Y-146000000D01*
X79270000Y-145075000D02*
X78750000Y-145595000D01*
X82500000Y-143000000D02*
X85000000Y-145500000D01*
X91500000Y-146500000D02*
X87000000Y-146500000D01*
X85000000Y-145500000D02*
X85000000Y-146000000D01*
X82500000Y-143000000D02*
X80425000Y-145075000D01*
X80425000Y-145075000D02*
X79270000Y-145075000D01*
X93000000Y-148000000D02*
X91500000Y-146500000D01*
X86500000Y-146000000D02*
X85000000Y-146000000D01*
D63*
%TO.N,+3.3V*%
X85000000Y-148000000D02*
X83000000Y-146000000D01*
X96250000Y-146750000D02*
X96250000Y-146250000D01*
D65*
X57500000Y-128000000D02*
X55250000Y-128000000D01*
D63*
X78750000Y-146865000D02*
X80135000Y-146865000D01*
X100250000Y-143250000D02*
X101865000Y-141635000D01*
X100250000Y-144277684D02*
X100250000Y-143250000D01*
D65*
X56500000Y-133000000D02*
X58000000Y-133000000D01*
D63*
X96250000Y-145250000D02*
X98330000Y-145250000D01*
X83000000Y-146000000D02*
X81000000Y-146000000D01*
X98525000Y-145445000D02*
X99082684Y-145445000D01*
D61*
X55250000Y-128000000D02*
X55250000Y-126000000D01*
D63*
X96250000Y-145250000D02*
X96250000Y-146750000D01*
D61*
X54730000Y-128520000D02*
X55250000Y-128000000D01*
D63*
X65000000Y-87000000D02*
X69000000Y-83000000D01*
D61*
X75000000Y-144000000D02*
X75000000Y-144065000D01*
X75000000Y-144065000D02*
X77800000Y-146865000D01*
X128385000Y-139943000D02*
X128385000Y-143335000D01*
D65*
X55250000Y-131750000D02*
X56500000Y-133000000D01*
X57500000Y-124000000D02*
X55250000Y-124000000D01*
D61*
X77800000Y-146865000D02*
X78750000Y-146865000D01*
D65*
X71200000Y-81000000D02*
X72000000Y-81000000D01*
X72000000Y-81000000D02*
X74000000Y-83000000D01*
D63*
X98330000Y-145250000D02*
X98525000Y-145445000D01*
D61*
X55250000Y-131750000D02*
X55250000Y-128000000D01*
X128385000Y-143335000D02*
X128800000Y-143750000D01*
D63*
X80135000Y-146865000D02*
X81000000Y-146000000D01*
D61*
X53310000Y-128520000D02*
X54730000Y-128520000D01*
D63*
X86000000Y-148000000D02*
X85000000Y-148000000D01*
D65*
X87250000Y-148000000D02*
X86000000Y-148000000D01*
D63*
X101865000Y-141635000D02*
X103475000Y-141635000D01*
D65*
X57500000Y-126000000D02*
X55250000Y-126000000D01*
X78750000Y-146865000D02*
X78135000Y-146865000D01*
D63*
X69000000Y-83000000D02*
X74000000Y-83000000D01*
X99082684Y-145445000D02*
X100250000Y-144277684D01*
D62*
%TO.N,SI1*%
X65000000Y-74895000D02*
X67055000Y-74895000D01*
X68950000Y-73000000D02*
X65000000Y-73000000D01*
D65*
X67055000Y-74895000D02*
X67095000Y-74895000D01*
X69000000Y-76840000D02*
X67055000Y-74895000D01*
X70000000Y-80000000D02*
X69000000Y-79000000D01*
X69000000Y-79000000D02*
X69000000Y-76840000D01*
D61*
X65000000Y-99000000D02*
X61760000Y-99000000D01*
D62*
X65000000Y-74895000D02*
X65000000Y-73000000D01*
D65*
X67095000Y-74895000D02*
X71200000Y-79000000D01*
D61*
X67220000Y-93540000D02*
X61040000Y-99720000D01*
X67375000Y-93540000D02*
X67220000Y-93540000D01*
D62*
X67055000Y-74895000D02*
X68950000Y-73000000D01*
D61*
X61760000Y-99000000D02*
X61040000Y-99720000D01*
D65*
X71200000Y-80000000D02*
X70000000Y-80000000D01*
D60*
X65000000Y-73000000D02*
X65000000Y-71235000D01*
D64*
X65000000Y-73000000D02*
X65000000Y-71465000D01*
D62*
%TO.N,SO1*%
X93050000Y-58600000D02*
X93000000Y-58650000D01*
D65*
X71200000Y-79500000D02*
X72057410Y-79500000D01*
D62*
X89400000Y-58650000D02*
X93000000Y-58650000D01*
D65*
X72057410Y-79500000D02*
X75050000Y-76507410D01*
D62*
X93000000Y-58650000D02*
X99330000Y-58650000D01*
X87525000Y-60525000D02*
X89400000Y-58650000D01*
X75050000Y-73000000D02*
X87525000Y-60525000D01*
D65*
X75050000Y-76507410D02*
X75050000Y-73000000D01*
%TO.N,/USB_Connector/D+*%
X108250000Y-138000000D02*
X111000000Y-140750000D01*
X110750000Y-139500000D02*
X110790000Y-139500000D01*
X105385000Y-140365000D02*
X103475000Y-140365000D01*
X105500000Y-140250000D02*
X105385000Y-140365000D01*
X112150000Y-141900000D02*
X111000000Y-140750000D01*
X107750000Y-138000000D02*
X108250000Y-138000000D01*
X110790000Y-139500000D02*
X113540000Y-136750000D01*
X112150000Y-141950000D02*
X112150000Y-141900000D01*
X111000000Y-140750000D02*
X110750000Y-140500000D01*
X110750000Y-140500000D02*
X110750000Y-139500000D01*
%TO.N,VUSB(5V)*%
X106750000Y-138150000D02*
X106750000Y-136500000D01*
X110550000Y-141950000D02*
X106750000Y-138150000D01*
X106250000Y-136000000D02*
X105850000Y-136000000D01*
X106750000Y-136500000D02*
X106250000Y-136000000D01*
%TO.N,/USB_Connector/D-*%
X109000000Y-142000000D02*
X106095000Y-139095000D01*
X111350000Y-143150000D02*
X110150000Y-143150000D01*
X105850000Y-137150000D02*
X106000000Y-137000000D01*
X110150000Y-143150000D02*
X109000000Y-142000000D01*
X105850000Y-138000000D02*
X105850000Y-137150000D01*
X105850000Y-138000000D02*
X105850000Y-138850000D01*
X105850000Y-138850000D02*
X106095000Y-139095000D01*
X106095000Y-139095000D02*
X103475000Y-139095000D01*
D63*
%TO.N,Net-(D8-K)*%
X85000000Y-70850000D02*
X81850000Y-74000000D01*
X82000000Y-74150000D02*
X81850000Y-74000000D01*
X83205000Y-102000000D02*
X83000000Y-102000000D01*
X84555000Y-103350000D02*
X83205000Y-102000000D01*
X85000000Y-70000000D02*
X85000000Y-70850000D01*
X82000000Y-78000000D02*
X82000000Y-74150000D01*
%TO.N,Net-(D8-A)*%
X87000000Y-70000000D02*
X87000000Y-73150000D01*
X87000000Y-73150000D02*
X86150000Y-74000000D01*
X86150000Y-74000000D02*
X88000000Y-74000000D01*
D60*
X90720000Y-64950000D02*
X90720000Y-71070000D01*
X90720000Y-71070000D02*
X91460000Y-71810000D01*
D63*
X89650000Y-70000000D02*
X87000000Y-70000000D01*
X91460000Y-71810000D02*
X89650000Y-70000000D01*
X88000000Y-74000000D02*
X89000000Y-75000000D01*
%TO.N,Net-(D9-A)*%
X88800000Y-87500000D02*
X86300000Y-85000000D01*
X89720000Y-87500000D02*
X87500000Y-87500000D01*
D60*
X89720000Y-87500000D02*
X89720000Y-93260000D01*
D63*
X87000000Y-94000000D02*
X86000000Y-93000000D01*
X90460000Y-94000000D02*
X87000000Y-94000000D01*
D60*
X89720000Y-93260000D02*
X90460000Y-94000000D01*
D63*
X87500000Y-87500000D02*
X86000000Y-89000000D01*
X89720000Y-87500000D02*
X88800000Y-87500000D01*
%TO.N,Net-(D9-K)*%
X82000000Y-85000000D02*
X82000000Y-87000000D01*
X84000000Y-91000000D02*
X84000000Y-89000000D01*
X93445000Y-100445000D02*
X92000000Y-99000000D01*
X82000000Y-87000000D02*
X84000000Y-89000000D01*
X93445000Y-103350000D02*
X93445000Y-100445000D01*
%TO.N,Net-(D10-K)*%
X84555000Y-118350000D02*
X84555000Y-117325001D01*
X84555000Y-117325001D02*
X86000000Y-115880001D01*
X86000000Y-115880001D02*
X86000000Y-115000000D01*
%TO.N,Net-(D11-A)*%
X99000000Y-128000000D02*
X99000000Y-126150000D01*
X99000000Y-126150000D02*
X100000000Y-125150000D01*
D61*
%TO.N,SI2*%
X128385000Y-128057000D02*
X129655000Y-128057000D01*
D62*
X130925000Y-128057000D02*
X130315000Y-128057000D01*
X132195000Y-128057000D02*
X130925000Y-128057000D01*
D65*
%TO.N,SDA2*%
X124832000Y-136250000D02*
X127115000Y-138533000D01*
X121500000Y-136250000D02*
X124832000Y-136250000D01*
X127115000Y-138533000D02*
X127115000Y-139943000D01*
X119250000Y-136750000D02*
X119750000Y-136250000D01*
X119750000Y-136250000D02*
X121500000Y-136250000D01*
%TO.N,SCL2*%
X93500000Y-131500000D02*
X94250000Y-130750000D01*
X118150000Y-137650000D02*
X119934744Y-137650000D01*
X85000000Y-133000000D02*
X86500000Y-131500000D01*
X123251471Y-136900000D02*
X124650000Y-136900000D01*
X86500000Y-131500000D02*
X93500000Y-131500000D01*
X121750000Y-137250000D02*
X121500000Y-137000000D01*
X125845000Y-138095000D02*
X125845000Y-139943000D01*
X117250000Y-136750000D02*
X118150000Y-137650000D01*
X120334744Y-137250000D02*
X121750000Y-137250000D01*
X122901471Y-137250000D02*
X123251471Y-136900000D01*
X121750000Y-137250000D02*
X122901471Y-137250000D01*
X124650000Y-136900000D02*
X125845000Y-138095000D01*
X119934744Y-137650000D02*
X120334744Y-137250000D01*
X121500000Y-137000000D02*
X121500000Y-136850000D01*
%TO.N,DIO_0*%
X77705000Y-136705000D02*
X78750000Y-136705000D01*
X77000000Y-136000000D02*
X77705000Y-136705000D01*
%TO.N,DIO_1*%
X77435000Y-135435000D02*
X77000000Y-135000000D01*
X78750000Y-135435000D02*
X77435000Y-135435000D01*
X123365000Y-139663000D02*
X123365000Y-140943000D01*
%TO.N,TX0*%
X71500000Y-147000000D02*
X64000000Y-147000000D01*
X63500000Y-146000000D02*
X61825000Y-144325000D01*
X57270000Y-138270000D02*
X54440000Y-138270000D01*
X63500000Y-146500000D02*
X63500000Y-146000000D01*
X60325000Y-144325000D02*
X59500000Y-143500000D01*
X64000000Y-147000000D02*
X63500000Y-146500000D01*
X89000000Y-137000000D02*
X88500000Y-137500000D01*
X58000000Y-140500000D02*
X58000000Y-139000000D01*
X59500000Y-143500000D02*
X59500000Y-142000000D01*
X58000000Y-139000000D02*
X57270000Y-138270000D01*
X88500000Y-139500000D02*
X88000000Y-140000000D01*
X88500000Y-137500000D02*
X88500000Y-139500000D01*
X59500000Y-142000000D02*
X58000000Y-140500000D01*
X90500000Y-137000000D02*
X89000000Y-137000000D01*
X61825000Y-144325000D02*
X60325000Y-144325000D01*
%TO.N,RX0*%
X62200000Y-143055000D02*
X60555000Y-143055000D01*
X55730000Y-135730000D02*
X54440000Y-135730000D01*
X71500000Y-146000000D02*
X64500000Y-146000000D01*
X63000000Y-143855000D02*
X62200000Y-143055000D01*
X58532843Y-140467157D02*
X58532843Y-138532843D01*
X90500000Y-139000000D02*
X89500000Y-139000000D01*
X64500000Y-146000000D02*
X63000000Y-144500000D01*
X60000000Y-142500000D02*
X60000000Y-141934314D01*
X60000000Y-141934314D02*
X58532843Y-140467157D01*
X60555000Y-143055000D02*
X60000000Y-142500000D01*
X58532843Y-138532843D02*
X55730000Y-135730000D01*
X63000000Y-144500000D02*
X63000000Y-143855000D01*
%TO.N,SDA1*%
X94500000Y-132500000D02*
X91500000Y-132500000D01*
X61000000Y-123000000D02*
X61000000Y-129250000D01*
X59500000Y-128000000D02*
X59750000Y-128000000D01*
X65000000Y-81000000D02*
X65000000Y-83000000D01*
X91500000Y-132500000D02*
X88000000Y-136000000D01*
X66800000Y-80500000D02*
X65500000Y-80500000D01*
X75245000Y-139245000D02*
X78750000Y-139245000D01*
X59750000Y-128000000D02*
X61000000Y-129250000D01*
X65500000Y-80500000D02*
X65000000Y-81000000D01*
X65000000Y-83000000D02*
X66000000Y-84000000D01*
X68000000Y-138000000D02*
X74000000Y-138000000D01*
X74000000Y-138000000D02*
X75245000Y-139245000D01*
%TO.N,SCL1*%
X90400000Y-132600000D02*
X90500000Y-132600000D01*
X74975000Y-137975000D02*
X78750000Y-137975000D01*
X74000000Y-137000000D02*
X74975000Y-137975000D01*
X67000000Y-81200000D02*
X67000000Y-83000000D01*
X68000000Y-137000000D02*
X74000000Y-137000000D01*
X88000000Y-135000000D02*
X90400000Y-132600000D01*
X60400000Y-125375000D02*
X60125000Y-125375000D01*
X62000000Y-123000000D02*
X63000000Y-124000000D01*
X60125000Y-125375000D02*
X59500000Y-126000000D01*
X66800000Y-81000000D02*
X67000000Y-81200000D01*
X63000000Y-124000000D02*
X63000000Y-128000000D01*
D63*
%TO.N,Net-(LED1-K)*%
X75000000Y-116500000D02*
X75000000Y-118500000D01*
%TO.N,Net-(LED2-K)*%
X79000000Y-116500000D02*
X79000000Y-118500000D01*
%TO.N,Net-(LED3-K)*%
X77000000Y-116500000D02*
X77000000Y-118500000D01*
D65*
%TO.N,Net-(Q7-E)*%
X93500000Y-142250000D02*
X91665256Y-142250000D01*
X91000000Y-144500000D02*
X91000000Y-142915256D01*
X91000000Y-142915256D02*
X90551901Y-142467157D01*
X90000000Y-145500000D02*
X91000000Y-144500000D01*
X89532843Y-142467157D02*
X88065686Y-141000000D01*
X93750000Y-142000000D02*
X93500000Y-142250000D01*
X91665256Y-142250000D02*
X91000000Y-142915256D01*
X98525000Y-141635000D02*
X97385000Y-141635000D01*
X87950000Y-141000000D02*
X85500000Y-138550000D01*
X88065686Y-141000000D02*
X87950000Y-141000000D01*
X97385000Y-141635000D02*
X97000000Y-141250000D01*
X90551901Y-142467157D02*
X89532843Y-142467157D01*
%TO.N,Net-(Q7-B)*%
X85562648Y-140450000D02*
X85500000Y-140450000D01*
X86562648Y-141450000D02*
X85562648Y-140450000D01*
X87950000Y-141450000D02*
X86562648Y-141450000D01*
X90000000Y-143500000D02*
X87950000Y-141450000D01*
%TO.N,Net-(Q8-E)*%
X97550001Y-142905000D02*
X95645001Y-141000000D01*
X88000000Y-143500000D02*
X87500000Y-143000000D01*
X98525000Y-142905000D02*
X97550001Y-142905000D01*
X95645001Y-141000000D02*
X89500000Y-141000000D01*
X87500000Y-143000000D02*
X87500000Y-142500000D01*
X87950000Y-143550000D02*
X88000000Y-143500000D01*
X88000000Y-143500000D02*
X86950000Y-143500000D01*
X86950000Y-143500000D02*
X85500000Y-142050000D01*
%TO.N,Net-(Q8-B)*%
X87050000Y-145500000D02*
X88500000Y-145500000D01*
X87050000Y-145500000D02*
X85500000Y-143950000D01*
%TO.N,Io0*%
X59500000Y-136000000D02*
X59500000Y-132437500D01*
X82500000Y-139500000D02*
X82500000Y-141250000D01*
X60357500Y-131580000D02*
X61307500Y-131580000D01*
X72500000Y-144000000D02*
X66250000Y-144000000D01*
X59500000Y-132437500D02*
X60357500Y-131580000D01*
X74000000Y-145500000D02*
X72500000Y-144000000D01*
X66250000Y-144000000D02*
X63500000Y-141250000D01*
X61250000Y-131625000D02*
X58625000Y-131625000D01*
X82500000Y-141250000D02*
X80750000Y-143000000D01*
X58625000Y-131625000D02*
X58000000Y-131000000D01*
%TO.N,Net-(R15-Pad1)*%
X139750000Y-139250000D02*
X137750000Y-139250000D01*
%TO.N,Net-(R16-Pad1)*%
X139750000Y-136250000D02*
X137750000Y-136250000D01*
%TO.N,TX*%
X101925000Y-144175000D02*
X101750000Y-144000000D01*
X103475000Y-144175000D02*
X101925000Y-144175000D01*
X92555000Y-138945000D02*
X93055000Y-138945000D01*
X96750000Y-139000000D02*
X92500000Y-139000000D01*
X92500000Y-139000000D02*
X92555000Y-138945000D01*
%TO.N,RX*%
X101905000Y-142905000D02*
X103475000Y-142905000D01*
X92500000Y-137000000D02*
X93750000Y-138250000D01*
X101875000Y-142875000D02*
X101905000Y-142905000D01*
X93750000Y-138250000D02*
X96250000Y-138250000D01*
%TO.N,SCL2MC*%
X81000000Y-135000000D02*
X83000000Y-133000000D01*
X66500000Y-136000000D02*
X64570000Y-137930000D01*
X64570000Y-137930000D02*
X61307500Y-137930000D01*
X74000000Y-136000000D02*
X66500000Y-136000000D01*
%TO.N,SDA2MC*%
X81000000Y-137000000D02*
X83000000Y-135000000D01*
X69890000Y-135390000D02*
X61307500Y-135390000D01*
X81000000Y-140485000D02*
X81000000Y-137000000D01*
X81000000Y-141000000D02*
X80750000Y-141250000D01*
X81000000Y-140485000D02*
X81000000Y-141000000D01*
D62*
%TO.N,Net-(TP1-Pad1)*%
X56000000Y-66000000D02*
X64235000Y-66000000D01*
D64*
X65000000Y-63105000D02*
X65000000Y-66765000D01*
D65*
%TO.N,LIN2*%
X89500000Y-114250000D02*
X89700552Y-114250000D01*
X81000000Y-128000000D02*
X80250000Y-127250000D01*
X81000000Y-131000000D02*
X81000000Y-131250000D01*
X90905000Y-113045552D02*
X90905000Y-112650000D01*
X79355000Y-132895000D02*
X78750000Y-132895000D01*
X89700552Y-114250000D02*
X90905000Y-113045552D01*
X72750000Y-127250000D02*
X70250000Y-124750000D01*
X80250000Y-127250000D02*
X72750000Y-127250000D01*
X81000000Y-131250000D02*
X79355000Y-132895000D01*
%TO.N,HIN1*%
X66407500Y-129000000D02*
X67500000Y-127907500D01*
X69250000Y-129000000D02*
X66407500Y-129000000D01*
X81500000Y-129000000D02*
X69250000Y-129000000D01*
X88365000Y-127650000D02*
X88365000Y-125365000D01*
X88000000Y-125000000D02*
X87250000Y-125000000D01*
X83500000Y-127000000D02*
X81500000Y-129000000D01*
X65550000Y-129857500D02*
X65550000Y-130375000D01*
X67710000Y-126540000D02*
X67710000Y-124750000D01*
X67500000Y-127907500D02*
X67500000Y-126750000D01*
X66407500Y-129000000D02*
X65550000Y-129857500D01*
X88365000Y-125365000D02*
X88000000Y-125000000D01*
X67500000Y-126750000D02*
X67710000Y-126540000D01*
%TO.N,HIN2*%
X74500000Y-131750000D02*
X74500000Y-130435000D01*
X74500000Y-130435000D02*
X74440000Y-130375000D01*
X88365000Y-112650000D02*
X88365000Y-114635000D01*
X88365000Y-114635000D02*
X87000000Y-116000000D01*
%TO.N,LIN1*%
X90905000Y-128095000D02*
X90905000Y-127650000D01*
X68330000Y-134000000D02*
X68165000Y-134165000D01*
X82000000Y-127250000D02*
X79940000Y-125190000D01*
X75000000Y-134000000D02*
X68330000Y-134000000D01*
X90905000Y-129845000D02*
X90750000Y-130000000D01*
X79940000Y-125190000D02*
X77770000Y-125190000D01*
X68165000Y-134165000D02*
X61250000Y-134165000D01*
X90905000Y-127650000D02*
X90905000Y-129845000D01*
D63*
%TO.N,Cout-*%
X102000000Y-116000000D02*
X102000000Y-118000000D01*
X89420001Y-115000000D02*
X87095000Y-117325001D01*
X96000000Y-114000000D02*
X95000000Y-115000000D01*
D61*
X125845000Y-128057000D02*
X127115000Y-128057000D01*
D63*
X95000000Y-115000000D02*
X89420001Y-115000000D01*
X87095000Y-117325001D02*
X87095000Y-118350000D01*
%TD*%
%TA.AperFunction,Conductor*%
%TO.N,Out+*%
G36*
X98589821Y-63019685D02*
G01*
X98597084Y-63024727D01*
X98682669Y-63088796D01*
X98682670Y-63088796D01*
X98682673Y-63088798D01*
X98764173Y-63119195D01*
X98820107Y-63161065D01*
X98844525Y-63226529D01*
X98837023Y-63278709D01*
X98796403Y-63387616D01*
X98796401Y-63387627D01*
X98790000Y-63447155D01*
X98790000Y-63820000D01*
X103210000Y-63820000D01*
X103210000Y-63447172D01*
X103209999Y-63447155D01*
X103203598Y-63387627D01*
X103203597Y-63387623D01*
X103162975Y-63278712D01*
X103157991Y-63209021D01*
X103191475Y-63147697D01*
X103235825Y-63119196D01*
X103317326Y-63088798D01*
X103317326Y-63088797D01*
X103317331Y-63088796D01*
X103402907Y-63024733D01*
X103468371Y-63000316D01*
X103477218Y-63000000D01*
X103876000Y-63000000D01*
X103943039Y-63019685D01*
X103988794Y-63072489D01*
X104000000Y-63124000D01*
X104000000Y-66876000D01*
X103980315Y-66943039D01*
X103927511Y-66988794D01*
X103876000Y-67000000D01*
X93124000Y-67000000D01*
X93056961Y-66980315D01*
X93011206Y-66927511D01*
X93000000Y-66876000D01*
X93000000Y-66097844D01*
X94180000Y-66097844D01*
X94186401Y-66157372D01*
X94186403Y-66157379D01*
X94236645Y-66292086D01*
X94236649Y-66292093D01*
X94322809Y-66407187D01*
X94322812Y-66407190D01*
X94437906Y-66493350D01*
X94437913Y-66493354D01*
X94572620Y-66543596D01*
X94572627Y-66543598D01*
X94632155Y-66549999D01*
X94632172Y-66550000D01*
X95030000Y-66550000D01*
X95530000Y-66550000D01*
X95927828Y-66550000D01*
X95927844Y-66549999D01*
X95987372Y-66543598D01*
X95987379Y-66543596D01*
X96122086Y-66493354D01*
X96122093Y-66493350D01*
X96237187Y-66407190D01*
X96237190Y-66407187D01*
X96323350Y-66292093D01*
X96323354Y-66292086D01*
X96373596Y-66157379D01*
X96373598Y-66157372D01*
X96379999Y-66097844D01*
X96380000Y-66097827D01*
X96380000Y-65200000D01*
X95530000Y-65200000D01*
X95530000Y-66550000D01*
X95030000Y-66550000D01*
X95030000Y-65200000D01*
X94180000Y-65200000D01*
X94180000Y-66097844D01*
X93000000Y-66097844D01*
X93000000Y-63802155D01*
X94180000Y-63802155D01*
X94180000Y-64700000D01*
X95030000Y-64700000D01*
X95530000Y-64700000D01*
X96380000Y-64700000D01*
X96380000Y-64692844D01*
X98790000Y-64692844D01*
X98796401Y-64752372D01*
X98796403Y-64752379D01*
X98846645Y-64887086D01*
X98846649Y-64887093D01*
X98932809Y-65002187D01*
X98932812Y-65002190D01*
X99047906Y-65088350D01*
X99047913Y-65088354D01*
X99182620Y-65138596D01*
X99182627Y-65138598D01*
X99242155Y-65144999D01*
X99242172Y-65145000D01*
X99765000Y-65145000D01*
X100265000Y-65145000D01*
X100787828Y-65145000D01*
X100787844Y-65144999D01*
X100847372Y-65138598D01*
X100847376Y-65138597D01*
X100956666Y-65097834D01*
X101026357Y-65092850D01*
X101043334Y-65097834D01*
X101152623Y-65138597D01*
X101152627Y-65138598D01*
X101212155Y-65144999D01*
X101212172Y-65145000D01*
X101735000Y-65145000D01*
X102235000Y-65145000D01*
X102757828Y-65145000D01*
X102757844Y-65144999D01*
X102817372Y-65138598D01*
X102817379Y-65138596D01*
X102952086Y-65088354D01*
X102952093Y-65088350D01*
X103067187Y-65002190D01*
X103067190Y-65002187D01*
X103153350Y-64887093D01*
X103153354Y-64887086D01*
X103203596Y-64752379D01*
X103203598Y-64752372D01*
X103209999Y-64692844D01*
X103210000Y-64692827D01*
X103210000Y-64320000D01*
X102235000Y-64320000D01*
X102235000Y-65145000D01*
X101735000Y-65145000D01*
X101735000Y-64320000D01*
X100265000Y-64320000D01*
X100265000Y-65145000D01*
X99765000Y-65145000D01*
X99765000Y-64320000D01*
X98790000Y-64320000D01*
X98790000Y-64692844D01*
X96380000Y-64692844D01*
X96380000Y-63802172D01*
X96379999Y-63802155D01*
X96373598Y-63742627D01*
X96373596Y-63742620D01*
X96323354Y-63607913D01*
X96323350Y-63607906D01*
X96237190Y-63492812D01*
X96237187Y-63492809D01*
X96122093Y-63406649D01*
X96122086Y-63406645D01*
X95987379Y-63356403D01*
X95987372Y-63356401D01*
X95927844Y-63350000D01*
X95530000Y-63350000D01*
X95530000Y-64700000D01*
X95030000Y-64700000D01*
X95030000Y-63350000D01*
X94632155Y-63350000D01*
X94572627Y-63356401D01*
X94572620Y-63356403D01*
X94437913Y-63406645D01*
X94437906Y-63406649D01*
X94322812Y-63492809D01*
X94322809Y-63492812D01*
X94236649Y-63607906D01*
X94236645Y-63607913D01*
X94186403Y-63742620D01*
X94186401Y-63742627D01*
X94180000Y-63802155D01*
X93000000Y-63802155D01*
X93000000Y-63124000D01*
X93019685Y-63056961D01*
X93072489Y-63011206D01*
X93124000Y-63000000D01*
X98522782Y-63000000D01*
X98589821Y-63019685D01*
G37*
%TD.AperFunction*%
%TD*%
M02*
